<svg xmlns="http://www.w3.org/2000/svg" xmlns:svg="http://www.w3.org/2000/svg" xmlns:xlink="http://www.w3.org/1999/xlink" id="svg6678" width="744.09" height="1052.362" version="1.0"><defs id="defs6680"><linearGradient id="linearGradient7211"><stop id="stop7213" offset="0" style="stop-color:#c62727;stop-opacity:1"/><stop id="stop7215" offset="1" style="stop-color:#ec6464;stop-opacity:1"/></linearGradient><linearGradient id="linearGradient7199"><stop style="stop-color:#501616;stop-opacity:1" id="stop7201" offset="0"/><stop style="stop-color:#b73232;stop-opacity:1" id="stop7203" offset="1"/></linearGradient><linearGradient id="linearGradient7205" x1="35.014" x2="698.516" y1="526.369" y2="526.369" gradientUnits="userSpaceOnUse" xlink:href="#linearGradient7199"/><linearGradient id="linearGradient7209" x1="35.014" x2="698.516" y1="526.369" y2="526.369" gradientTransform="translate(2.279947,53.322293)" gradientUnits="userSpaceOnUse" xlink:href="#linearGradient7211"/><linearGradient id="linearGradient7219" x1="35.014" x2="698.516" y1="526.369" y2="526.369" gradientTransform="translate(1.279947,134.32229)" gradientUnits="userSpaceOnUse" xlink:href="#linearGradient7199"/></defs><metadata id="metadata6683"/><g id="layer1"><path style="fill:url(#linearGradient7205);fill-rule:evenodd;stroke:#000;stroke-width:1px;stroke-linecap:butt;stroke-linejoin:miter;stroke-opacity:1;fill-opacity:1" id="path6688" d="M 104.71429,651.36218 C 142.78541,653.79075 177.87979,588.21933 354.42857,559.6479 C 481.2781,547.54834 648.19308,690.98984 660,669.50504 C 716.275,579.14254 655.44991,535.58714 679.42857,446.07647 C 561.42582,455.39212 572.85714,421.93361 499.85714,390.93361 C 440.567,397.39753 171.71429,419.79075 81.714286,468.79075 C 55.96378,477.65186 20.367984,488.01233 104.71429,651.36218 z"/><path style="fill:url(#linearGradient7209);fill-opacity:1;fill-rule:evenodd;stroke:#000;stroke-width:1px;stroke-linecap:butt;stroke-linejoin:miter;stroke-opacity:1" id="path7207" d="M 106.99424,704.68447 C 145.06536,707.11304 180.15974,641.54162 356.70852,612.97019 C 483.55805,600.87063 650.47303,744.31213 662.27995,722.82733 C 718.55495,632.46483 689.72986,538.90943 679.70852,503.39876 C 618.70577,522.71441 532.13709,456.2559 456.13709,441.2559 C 319.40866,480.68097 109.99424,429.11304 39.99423,524.11304 C 86.09985,589.69355 26.508405,650.03225 106.99424,704.68447 z"/><path style="fill:url(#linearGradient7219);fill-opacity:1;fill-rule:evenodd;stroke:#000;stroke-width:1px;stroke-linecap:butt;stroke-linejoin:miter;stroke-opacity:1" id="path7217" d="M 136.99424,748.68447 C 198.06536,657.11304 268.15974,728.54162 372.70852,659.97019 C 474.55805,576.87063 584.47303,726.31213 684.27995,743.82733 C 740.55495,653.46483 656.72986,669.90943 680.70852,580.39876 C 562.70577,589.71441 495.13709,496.2559 384.13709,515.2559 C 258.84695,582.71982 121.99424,529.11304 51.994233,624.11304 C 98.09985,689.69355 56.508405,694.03225 136.99424,748.68447 z"/></g></svg>