<svg xmlns="http://www.w3.org/2000/svg" xmlns:svg="http://www.w3.org/2000/svg" xmlns:xlink="http://www.w3.org/1999/xlink" id="svg2" width="744.09" height="1052.362" version="1.0"><defs id="defs4"><pattern id="Checkerboard" width="2" height="2" patternTransform="matrix(10,0,0,10,-284.21053,131.57895)" patternUnits="userSpaceOnUse"><rect id="rect4010" width="1" height="1" x="0" y="0" style="fill:#000;stroke:none"/><rect id="rect4012" width="1" height="1" x="1" y="1" style="fill:#000;stroke:none"/></pattern><pattern id="Polkadots-smallwhite" width="10" height="10" patternTransform="matrix(10,0,0,10,-217.54386,38.596492)" patternUnits="userSpaceOnUse"><circle id="circle4118" cx="2.567" cy=".81" r=".05" style="fill:#fff;stroke:none"/><circle id="circle4120" cx="3.048" cy="2.33" r=".05" style="fill:#fff;stroke:none"/><circle id="circle4122" cx="4.418" cy="2.415" r=".05" style="fill:#fff;stroke:none"/><circle id="circle4124" cx="1.844" cy="3.029" r=".05" style="fill:#fff;stroke:none"/><circle id="circle4126" cx="6.08" cy="1.363" r=".05" style="fill:#fff;stroke:none"/><circle id="circle4128" cx="5.819" cy="4.413" r=".05" style="fill:#fff;stroke:none"/><circle id="circle4130" cx="4.305" cy="4.048" r=".05" style="fill:#fff;stroke:none"/><circle id="circle4132" cx="5.541" cy="3.045" r=".05" style="fill:#fff;stroke:none"/><circle id="circle4134" cx="4.785" cy="5.527" r=".05" style="fill:#fff;stroke:none"/><circle id="circle4136" cx="2.667" cy="5.184" r=".05" style="fill:#fff;stroke:none"/><circle id="circle4138" cx="7.965" cy="1.448" r=".05" style="fill:#fff;stroke:none"/><circle id="circle4140" cx="7.047" cy="5.049" r=".05" style="fill:#fff;stroke:none"/><circle id="circle4142" cx="4.34" cy=".895" r=".05" style="fill:#fff;stroke:none"/><circle id="circle4144" cx="7.125" cy=".34" r=".05" style="fill:#fff;stroke:none"/><circle id="circle4146" cx="9.553" cy="1.049" r=".05" style="fill:#fff;stroke:none"/><circle id="circle4148" cx="7.006" cy="2.689" r=".05" style="fill:#fff;stroke:none"/><circle id="circle4150" cx="8.909" cy="2.689" r=".05" style="fill:#fff;stroke:none"/><circle id="circle4152" cx="9.315" cy="4.407" r=".05" style="fill:#fff;stroke:none"/><circle id="circle4154" cx="7.82" cy="3.87" r=".05" style="fill:#fff;stroke:none"/><circle id="circle4156" cx="8.27" cy="5.948" r=".05" style="fill:#fff;stroke:none"/><circle id="circle4158" cx="7.973" cy="7.428" r=".05" style="fill:#fff;stroke:none"/><circle id="circle4160" cx="9.342" cy="8.072" r=".05" style="fill:#fff;stroke:none"/><circle id="circle4162" cx="8.206" cy="9.315" r=".05" style="fill:#fff;stroke:none"/><circle id="circle4164" cx="9.682" cy="9.475" r=".05" style="fill:#fff;stroke:none"/><circle id="circle4166" cx="9.688" cy="6.186" r=".05" style="fill:#fff;stroke:none"/><circle id="circle4168" cx="3.379" cy="6.296" r=".05" style="fill:#fff;stroke:none"/><circle id="circle4170" cx="2.871" cy="8.204" r=".05" style="fill:#fff;stroke:none"/><circle id="circle4172" cx="4.59" cy="8.719" r=".05" style="fill:#fff;stroke:none"/><circle id="circle4174" cx="3.181" cy="9.671" r=".05" style="fill:#fff;stroke:none"/><circle id="circle4176" cx="5.734" cy="7.315" r=".05" style="fill:#fff;stroke:none"/><circle id="circle4178" cx="6.707" cy="6.513" r=".05" style="fill:#fff;stroke:none"/><circle id="circle4180" cx="5.73" cy="9.67" r=".05" style="fill:#fff;stroke:none"/><circle id="circle4182" cx="6.535" cy="8.373" r=".05" style="fill:#fff;stroke:none"/><circle id="circle4184" cx="4.37" cy="7.154" r=".05" style="fill:#fff;stroke:none"/><circle id="circle4186" cx=".622" cy="7.25" r=".05" style="fill:#fff;stroke:none"/><circle id="circle4188" cx=".831" cy="5.679" r=".05" style="fill:#fff;stroke:none"/><circle id="circle4190" cx="1.257" cy="8.519" r=".05" style="fill:#fff;stroke:none"/><circle id="circle4192" cx="1.989" cy="6.877" r=".05" style="fill:#fff;stroke:none"/><circle id="circle4194" cx=".374" cy="3.181" r=".05" style="fill:#fff;stroke:none"/><circle id="circle4196" cx="1.166" cy="1.664" r=".05" style="fill:#fff;stroke:none"/><circle id="circle4198" cx="1.151" cy=".093" r=".05" style="fill:#fff;stroke:none"/><circle id="circle4200" cx="1.151" cy="10.093" r=".05" style="fill:#fff;stroke:none"/><circle id="circle4202" cx="1.302" cy="4.451" r=".05" style="fill:#fff;stroke:none"/><circle id="circle4204" cx="3.047" cy="3.763" r=".05" style="fill:#fff;stroke:none"/></pattern><pattern id="Wavy" width="30.066" height="5.181" patternUnits="userSpaceOnUse"><path id="path4563" d="M 7.597,0.061 C 5.079,-0.187 2.656,0.302 -0.01,1.788 L -0.01,3.061 C 2.773,1.431 5.173,1.052 7.472,1.280 C 9.770,1.508 11.969,2.361 14.253,3.218 C 18.820,4.931 23.804,6.676 30.066,3.061 L 30.062,1.788 C 23.622,5.497 19.246,3.770 14.691,2.061 C 12.413,1.207 10.115,0.311 7.597,0.061 z" style="fill:#000;stroke:none"/></pattern><linearGradient id="linearGradient3165"><stop style="stop-color:#830000;stop-opacity:1" id="stop3167" offset="0"/><stop style="stop-color:#d92020;stop-opacity:1" id="stop3169" offset="1"/></linearGradient><linearGradient id="linearGradient3155"><stop style="stop-color:#452314;stop-opacity:1" id="stop3157" offset="0"/><stop style="stop-color:#7c2900;stop-opacity:1" id="stop3159" offset="1"/></linearGradient><linearGradient id="linearGradient3161" x1="85.449" x2="692.479" y1="972.506" y2="412.857" gradientUnits="userSpaceOnUse" xlink:href="#linearGradient3155"/><linearGradient id="linearGradient3171" x1="111.535" x2="172.675" y1="629.555" y2="561.134" gradientUnits="userSpaceOnUse" xlink:href="#linearGradient3165"/><filter id="filter3173"><feGaussianBlur id="feGaussianBlur3175" stdDeviation=".209"/></filter><filter id="filter3177"><feGaussianBlur id="feGaussianBlur3179" stdDeviation="2.222"/></filter><linearGradient id="linearGradient3183" x1="111.535" x2="172.675" y1="629.555" y2="561.134" gradientUnits="userSpaceOnUse" xlink:href="#linearGradient3165"/><linearGradient id="linearGradient3187" x1="111.535" x2="172.675" y1="629.555" y2="561.134" gradientUnits="userSpaceOnUse" xlink:href="#linearGradient3165"/><linearGradient id="linearGradient3191" x1="111.535" x2="172.675" y1="629.555" y2="561.134" gradientUnits="userSpaceOnUse" xlink:href="#linearGradient3165"/><linearGradient id="linearGradient3195" x1="111.535" x2="172.675" y1="629.555" y2="561.134" gradientUnits="userSpaceOnUse" xlink:href="#linearGradient3165"/><linearGradient id="linearGradient3199" x1="111.535" x2="172.675" y1="629.555" y2="561.134" gradientUnits="userSpaceOnUse" xlink:href="#linearGradient3165"/><filter id="filter5271" width="2.327" height="2.217" x="-.664" y="-.608"><feGaussianBlur id="feGaussianBlur5273" stdDeviation="5.336"/></filter></defs><metadata id="metadata7"/><g id="layer1"><rect style="fill:#fff;fill-opacity:1;fill-rule:evenodd;stroke:#000;stroke-width:5;stroke-miterlimit:4;stroke-dasharray:none;stroke-opacity:1" id="rect3201" width="14.035" height="143.86" x="375.439" y="457.625"/><path style="fill:url(#linearGradient3161);fill-opacity:1;fill-rule:evenodd;stroke:#000;stroke-width:5;stroke-linecap:butt;stroke-linejoin:miter;stroke-miterlimit:4;stroke-dasharray:none;stroke-opacity:1;filter:url(#filter3177)" id="path3153" d="M 84.210526,608.50253 C 68.61304,694.27192 77.123935,784.86299 84.210526,875.1692 C 265.63524,893.383 458.94129,893.7748 668.42105,869.90604 C 673.15726,782.18674 679.97049,694.46744 666.66667,606.74814 C 475.23998,596.43152 280.28589,600.22445 84.210526,608.50253 z"/><path style="opacity:.08403362;fill:url(#Checkerboard);fill-opacity:1;fill-rule:evenodd;stroke:#000;stroke-width:5;stroke-linecap:butt;stroke-linejoin:miter;stroke-miterlimit:4;stroke-dasharray:none;stroke-opacity:1;filter:url(#filter3177)" id="path4956" d="M 79.456964,609.41089 C 63.859474,695.18028 72.370374,785.77135 79.456964,876.07756 C 260.88167,894.29136 454.18772,894.68316 663.66748,870.8144 C 668.40369,783.0951 675.21692,695.3758 661.9131,607.6565 C 470.48641,597.33988 275.53232,601.13281 79.456964,609.41089 z"/><path style="fill:url(#linearGradient3171);fill-opacity:1;fill-rule:evenodd;stroke:#000;stroke-width:5;stroke-miterlimit:4;stroke-dasharray:none;stroke-opacity:1;filter:url(#filter3173)" id="path3163" d="M 166.66666,594.46747 A 17.543859,19.298246 0 1 1 131.57894,594.46747 A 17.543859,19.298246 0 1 1 166.66666,594.46747 z"/><path style="fill:url(#linearGradient3183);fill-opacity:1;fill-rule:evenodd;stroke:#000;stroke-width:5;stroke-miterlimit:4;stroke-dasharray:none;stroke-opacity:1;filter:url(#filter3173)" id="path3181" d="M 166.66666,594.46747 A 17.543859,19.298246 0 1 1 131.57894,594.46747 A 17.543859,19.298246 0 1 1 166.66666,594.46747 z" transform="translate(77.192983,-5.2631811)"/><path style="fill:url(#linearGradient3187);fill-opacity:1;fill-rule:evenodd;stroke:#000;stroke-width:5;stroke-miterlimit:4;stroke-dasharray:none;stroke-opacity:1;filter:url(#filter3173)" id="path3185" d="M 166.66666,594.46747 A 17.543859,19.298246 0 1 1 131.57894,594.46747 A 17.543859,19.298246 0 1 1 166.66666,594.46747 z" transform="translate(466.66667,-3.5087944)"/><path style="fill:url(#linearGradient3191);fill-opacity:1;fill-rule:evenodd;stroke:#000;stroke-width:5;stroke-miterlimit:4;stroke-dasharray:none;stroke-opacity:1;filter:url(#filter3173)" id="path3189" d="M 166.66666,594.46747 A 17.543859,19.298246 0 1 1 131.57894,594.46747 A 17.543859,19.298246 0 1 1 166.66666,594.46747 z" transform="translate(380.70177,-7.0175661)"/><path style="fill:url(#linearGradient3195);fill-opacity:1;fill-rule:evenodd;stroke:#000;stroke-width:5;stroke-miterlimit:4;stroke-dasharray:none;stroke-opacity:1;filter:url(#filter3173)" id="path3193" d="M 166.66666,594.46747 A 17.543859,19.298246 0 1 1 131.57894,594.46747 A 17.543859,19.298246 0 1 1 166.66666,594.46747 z" transform="translate(285.96491,-7.0175664)"/><path style="fill:url(#linearGradient3199);fill-opacity:1;fill-rule:evenodd;stroke:#000;stroke-width:5;stroke-miterlimit:4;stroke-dasharray:none;stroke-opacity:1;filter:url(#filter3173)" id="path3197" d="M 166.66666,594.46747 A 17.543859,19.298246 0 1 1 131.57894,594.46747 A 17.543859,19.298246 0 1 1 166.66666,594.46747 z" transform="translate(173.68421,-7.017566)"/><path style="fill:url(#Wavy);fill-opacity:1;fill-rule:evenodd;stroke:#000;stroke-width:5;stroke-linecap:butt;stroke-linejoin:miter;stroke-miterlimit:4;stroke-dasharray:none;stroke-opacity:1;filter:url(#filter3177)" id="path3211" d="M 84.720123,609.41089 C 69.122633,695.18028 77.633533,785.77135 84.720123,876.07756 C 266.14483,894.29136 459.45088,894.68316 668.93064,870.8144 C 673.66685,783.0951 680.48008,695.3758 667.17626,607.6565 C 475.74957,597.33988 280.79548,601.13281 84.720123,609.41089 z"/><path style="fill:url(#Polkadots-smallwhite);fill-opacity:1;fill-rule:evenodd;stroke:#000;stroke-width:5;stroke-linecap:butt;stroke-linejoin:miter;stroke-miterlimit:4;stroke-dasharray:none;stroke-opacity:1;filter:url(#filter3177)" id="path4817" d="M 77.702582,612.91967 C 62.105092,698.68906 70.615992,789.28013 77.702582,879.58634 C 259.12729,897.80014 452.43334,898.19194 661.9131,874.32318 C 666.64931,786.60388 673.46254,698.88458 660.15872,611.16528 C 468.73203,600.84866 273.77794,604.64159 77.702582,612.91967 z"/><path style="opacity:1;fill:#ffe677;fill-opacity:1;fill-rule:evenodd;stroke:none;stroke-width:4.99992943;stroke-miterlimit:4;stroke-dasharray:none;stroke-opacity:1;filter:url(#filter5271)" id="path4973" d="M 394.73683,440.08148 A 9.6491232,10.526316 0 1 1 375.43858,440.08148 A 9.6491232,10.526316 0 1 1 394.73683,440.08148 z" transform="matrix(4.2462893,0,0,4.4982654,-1251.8737,-1532.2367)"/></g></svg>