<svg xmlns="http://www.w3.org/2000/svg" xmlns:svg="http://www.w3.org/2000/svg" xmlns:xlink="http://www.w3.org/1999/xlink" id="svg2" width="1600" height="1052.362" version="1.0"><defs id="defs4"><linearGradient id="linearGradient3505"><stop style="stop-color:#060100;stop-opacity:1" id="stop3507" offset="0"/><stop style="stop-color:#a50c00;stop-opacity:1" id="stop3509" offset="1"/></linearGradient><linearGradient id="linearGradient3495"><stop style="stop-color:#ffe7c8;stop-opacity:1" id="stop3497" offset="0"/><stop style="stop-color:#ffe7c8;stop-opacity:0" id="stop3499" offset="1"/></linearGradient><linearGradient id="linearGradient3487"><stop style="stop-color:#ffe7c8;stop-opacity:1" id="stop3489" offset="0"/><stop style="stop-color:#ffe7c8;stop-opacity:0" id="stop3491" offset="1"/></linearGradient><linearGradient id="linearGradient3159"><stop style="stop-color:#ffcec8;stop-opacity:1" id="stop3161" offset="0"/><stop style="stop-color:#ffefda;stop-opacity:1" id="stop3163" offset="1"/></linearGradient><linearGradient id="linearGradient3165" x1="1130.449" x2="1112.5" y1="315.879" y2="470.941" gradientUnits="userSpaceOnUse" xlink:href="#linearGradient3159"/><filter id="filter3323" width="1.465" height="1.361" x="-.232" y="-.181"><feGaussianBlur id="feGaussianBlur3325" stdDeviation=".678"/></filter><filter id="filter3411"><feGaussianBlur id="feGaussianBlur3413" stdDeviation=".594"/></filter><filter id="filter3419" width="1.012" height="1.333" x="-.006" y="-.166"><feGaussianBlur id="feGaussianBlur3421" stdDeviation=".651"/></filter><filter id="filter3439"><feGaussianBlur id="feGaussianBlur3441" stdDeviation=".566"/></filter><filter id="filter3447" width="1.208" height="1.084" x="-.104" y="-.042"><feGaussianBlur id="feGaussianBlur3449" stdDeviation=".66"/></filter><filter id="filter3471"><feGaussianBlur id="feGaussianBlur3473" stdDeviation=".56"/></filter><filter id="filter3483"><feGaussianBlur id="feGaussianBlur3485" stdDeviation=".611"/></filter><linearGradient id="linearGradient3493" x1="1365.5" x2="1395.5" y1="389.101" y2="389.101" gradientUnits="userSpaceOnUse" xlink:href="#linearGradient3487"/><linearGradient id="linearGradient3501" x1="1355" x2="1389" y1="365.362" y2="365.362" gradientUnits="userSpaceOnUse" xlink:href="#linearGradient3495"/><linearGradient id="linearGradient3511" x1="745.5" x2="1049.593" y1="411.559" y2="319.559" gradientUnits="userSpaceOnUse" xlink:href="#linearGradient3505"/></defs><metadata id="metadata7"/><g id="layer1"><path style="fill:url(#linearGradient3501);fill-rule:evenodd;stroke:#000;stroke-width:1px;stroke-linecap:butt;stroke-linejoin:miter;stroke-opacity:1;fill-opacity:1;filter:url(#filter3471)" id="path3453" d="M 1362.5,382.86218 C 1374.6474,370.47973 1380.7398,363.44892 1388.5,347.86218 C 1378.2776,354.00657 1371.7249,361.61879 1355.5,365.36218 L 1362.5,382.86218 z"/><path style="fill:url(#linearGradient3165);fill-rule:evenodd;stroke:#000;stroke-width:1px;stroke-linecap:butt;stroke-linejoin:miter;stroke-opacity:1;fill-opacity:1;filter:url(#filter3411)" id="path2383" d="M 1337,367.36218 C 1230.6985,367.36218 1231,351.36218 1153,352.36218 C 1106.0243,353.87366 1081,360.36218 1005,360.36218 C 1005,360.36218 991,363.36218 992,392.36218 C 992,392.36218 1001,413.36218 1061,435.36218 C 1061,435.36218 1076,449.36218 1170,444.36218 C 1170,444.36218 1219,439.36218 1296,405.36218 C 1296,405.36218 1314,389.36218 1370,390.36218 C 1360.5304,369.38118 1365.7608,364.32531 1372,360.36218 C 1372,360.36218 1360,365.36218 1337,367.36218 z"/><path style="fill:url(#linearGradient3511);fill-rule:evenodd;stroke:#000;stroke-width:1px;stroke-linecap:butt;stroke-linejoin:miter;stroke-opacity:1;fill-opacity:1;filter:url(#filter3419)" id="path2385" d="M 995,375.36218 L 746,380.36218 C 753.38337,378.51634 766.9422,381.36218 775,381.36218 C 781,381.36218 787,381.36218 793,381.36218 C 799.12926,381.36218 805.16362,381.39491 810,382.36218 C 816.71382,383.70495 825.10706,382.36218 832,382.36218 C 837.79311,382.36218 842.27225,383.36218 848,383.36218 C 853.49503,383.36218 858.87951,382.36218 865,382.36218 C 870.266,382.36218 882.35724,382.36218 888,382.36218 C 896,382.36218 899,382.36218 907,382.36218 C 908.33333,382.36218 909.66667,382.36218 911,382.36218 C 918,382.36218 925,382.36218 932,382.36218 C 933.33333,382.36218 934.66667,382.36218 936,382.36218 C 942.33333,382.36218 948.66667,382.36218 955,382.36218 C 960,382.36218 965,382.36218 970,382.36218 C 975.33333,382.36218 980.66667,382.36218 986,382.36218 C 991.3598,382.36218 994.81947,386.08429 996,381.36218 C 996.4218,379.675 995.29213,376.53072 995,375.36218 z"/><path style="fill:#000;fill-opacity:1;filter:url(#filter3323)" id="path3157" d="M 1017,370.86218 A 3.5,4.5 0 1 1 1010,370.86218 A 3.5,4.5 0 1 1 1017,370.86218 z" transform="translate(0,2)"/><path style="fill:#ffe7c8;fill-rule:evenodd;stroke:#000;stroke-width:1px;stroke-linecap:butt;stroke-linejoin:miter;stroke-opacity:1;fill-opacity:1;filter:url(#filter3447)" id="path3327" d="M 1047.5,429.86218 C 1042.5,428.36218 1047.5,466.36218 1047.5,466.36218 C 1058,458.36218 1059.5,434.86218 1059.5,434.86218 L 1047.5,429.86218 z"/><path style="fill:#ffe7c8;fill-rule:evenodd;stroke:#000;stroke-width:1px;stroke-linecap:butt;stroke-linejoin:miter;stroke-opacity:1;fill-opacity:1;filter:url(#filter3439)" id="path3329" d="M 1061,432.86218 C 1062.5,456.86218 1080,475.36218 1080,475.36218 C 1087.5,464.36218 1092.1099,424.5393 1083,429.36218 C 1074.5,433.86218 1061,432.86218 1061,432.86218 z"/><path style="fill:url(#linearGradient3493);fill-rule:evenodd;stroke:#000;stroke-width:1px;stroke-linecap:butt;stroke-linejoin:miter;stroke-opacity:1;fill-opacity:1;filter:url(#filter3483)" id="path3451" d="M 1366,378.86218 C 1367.5298,392.44216 1379.0477,401.8164 1395,398.86218 C 1392,394.86218 1385.5,387.36218 1385.5,387.36218 C 1377.2022,380.76108 1367.041,378.34166 1366,378.86218 z"/><path style="fill:maroon;fill-rule:evenodd;stroke:#000;stroke-width:1px;stroke-linecap:butt;stroke-linejoin:miter;stroke-opacity:1" id="path3382" d="M 1006,407.36218 L 1037,395.36218 L 1017,414.36218 L 1006,407.36218 z"/><path style="fill:maroon;fill-rule:evenodd;stroke:#000;stroke-width:1px;stroke-linecap:butt;stroke-linejoin:miter;stroke-opacity:1" id="path3384" d="M 1272,363.36218 L 1277,388.36218 L 1249,361.36218 L 1272,363.36218 z"/><path style="fill:maroon;fill-rule:evenodd;stroke:#000;stroke-width:1px;stroke-linecap:butt;stroke-linejoin:miter;stroke-opacity:1" id="path3386" d="M 1127,444.36218 C 1136.8031,438.49869 1151.5649,436.18319 1149,420.36218 C 1156.5961,426.29811 1161.3874,434.10392 1161,445.36218 L 1127,444.36218 z"/><path style="fill:maroon;fill-rule:evenodd;stroke:#000;stroke-width:1px;stroke-linecap:butt;stroke-linejoin:miter;stroke-opacity:1" id="path3513" d="M 1064,359.36218 L 1088,414.36218 L 1094,356.36218 L 1064,359.36218 z"/><path style="fill:maroon;fill-rule:evenodd;stroke:#000;stroke-width:1px;stroke-linecap:butt;stroke-linejoin:miter;stroke-opacity:1" id="path3515" d="M 1191,351.36218 L 1235,419.36218 L 1204,395.36218 L 1173,353.36218 L 1186,352.36218 L 1191,351.36218 z"/><path style="fill:maroon;fill-rule:evenodd;stroke:#000;stroke-width:1px;stroke-linecap:butt;stroke-linejoin:miter;stroke-opacity:1" id="path3517" d="M 1381,355.36218 L 1369,377.36218 L 1346,365.36218 L 1381,355.36218 z"/><path style="fill:maroon;fill-rule:evenodd;stroke:#000;stroke-width:1px;stroke-linecap:butt;stroke-linejoin:miter;stroke-opacity:1" id="path3519" d="M 1065,450.36218 L 1082,447.36218 L 1082,472.36218 L 1065,450.36218 z"/><path style="fill:maroon;fill-rule:evenodd;stroke:#000;stroke-width:1px;stroke-linecap:butt;stroke-linejoin:miter;stroke-opacity:1" id="path3521" d="M 1043,421.36218 L 1051,430.36218 L 1060,418.36218 L 1043,421.36218 z"/></g></svg>