<svg xmlns="http://www.w3.org/2000/svg" xmlns:svg="http://www.w3.org/2000/svg" xmlns:xlink="http://www.w3.org/1999/xlink" id="svg9236" width="744.094" height="1052.362"><defs id="defs9238"><linearGradient id="linearGradient9775"><stop id="stop9777" offset="0" style="stop-color:#29221b;stop-opacity:1"/><stop id="stop9779" offset="1" style="stop-color:#3e261b;stop-opacity:1"/></linearGradient><linearGradient id="linearGradient9757"><stop style="stop-color:#000;stop-opacity:1" id="stop9759" offset="0"/><stop style="stop-color:#313131;stop-opacity:1" id="stop9761" offset="1"/></linearGradient><linearGradient id="linearGradient9763" x1="79.764" x2="570.232" y1="554.499" y2="190.385" gradientUnits="userSpaceOnUse" xlink:href="#linearGradient9757"/><linearGradient id="linearGradient9773" x1="156.569" x2="584.511" y1="661.118" y2="412.663" gradientUnits="userSpaceOnUse" xlink:href="#linearGradient9775"/><linearGradient id="linearGradient9791" x1="108.02" x2="758.715" y1="912.428" y2="582.583" gradientUnits="userSpaceOnUse" xlink:href="#linearGradient9757"/></defs><metadata id="metadata9241"/><g id="layer1"><path style="fill:url(#linearGradient9773);fill-rule:evenodd;stroke:#000;stroke-width:1px;stroke-linecap:butt;stroke-linejoin:miter;stroke-opacity:1;fill-opacity:1" id="path9765" d="M 548.31354,386.96086 C 551.64531,402.43109 554.97707,414.1885 558.30884,444.07685 C 557.72515,458.84683 550.12501,464.26156 559.73674,492.62544 C 568.29507,507.83823 573.49156,516.32736 578.29943,524.03924 C 560.22222,539.26383 557.27757,544.40004 549.74144,552.59724 C 536.89083,570.20784 539.20604,582.76317 536.89034,596.86213 C 513.24776,611.90823 480.02748,611.30877 434.08155,629.70383 L 432.65365,669.68503 L 292.71947,675.39662 L 291.29157,625.42013 L 234.17557,579.72734 C 234.17557,579.72734 247.02667,398.38406 252.73827,396.95616 C 258.44987,395.52826 538.31824,366.97026 538.31824,366.97026 L 548.31354,386.96086 z"/><path style="fill:url(#linearGradient9763);fill-rule:evenodd;stroke:#000;stroke-width:1px;stroke-linecap:butt;stroke-linejoin:miter;stroke-opacity:1;fill-opacity:1" id="path9246" d="M 228.46397,594.00633 C 126.35045,565.89273 122.15938,495.34607 132.79469,418.37465 C 154.65762,251.02509 264.54421,215.71101 399.81196,218.46868 C 528.39553,210.78063 563.3366,296.73507 586.86683,394.10036 C 503.55053,381.65878 425.61992,385.37431 361.25866,429.79785 C 262.04744,467.18254 261.42388,535.70018 228.46397,594.00633 z"/><path style="fill:#626262;fill-opacity:1;fill-rule:evenodd;stroke:#000;stroke-width:5;stroke-miterlimit:4;stroke-dasharray:none;stroke-opacity:1" id="path9781" d="M 516.89974,433.36761 A 20.704548,13.565048 0 1 1 475.49064,433.36761 A 20.704548,13.565048 0 1 1 516.89974,433.36761 z" transform="translate(2.8557997,2.8557997)"/><path style="fill:url(#linearGradient9791);fill-rule:evenodd;stroke:#000;stroke-width:1px;stroke-linecap:butt;stroke-linejoin:miter;stroke-opacity:1;fill-opacity:1" id="path9783" d="M 174.20378,1068.0691 C 165.32268,991.43847 172.66579,914.80784 178.48749,838.17721 C 172.62528,843.42234 192.65914,713.68825 258.44988,671.11292 C 288.7409,651.51061 391.11926,650.99703 454.07215,663.97343 C 487.073,686.10965 509.91688,714.88679 534.03453,782.48912 C 544.38975,878.15841 547.47693,973.82771 542.60193,1069.497 L 174.20378,1068.0691 z"/></g></svg>