<svg xmlns="http://www.w3.org/2000/svg" xmlns:svg="http://www.w3.org/2000/svg" xmlns:xlink="http://www.w3.org/1999/xlink" id="svg2532" width="2000" height="1052.362" version="1.0"><defs id="defs2534"><linearGradient id="linearGradient3372"><stop style="stop-color:#aa0404;stop-opacity:1" id="stop3374" offset="0"/><stop style="stop-color:#aa0404;stop-opacity:0" id="stop3376" offset="1"/></linearGradient><linearGradient id="linearGradient3352"><stop style="stop-color:#3e3e3e;stop-opacity:1" id="stop3354" offset="0"/><stop style="stop-color:#363636;stop-opacity:1" id="stop3356" offset="1"/></linearGradient><linearGradient id="linearGradient3314"><stop style="stop-color:#03050b;stop-opacity:1" id="stop3316" offset="0"/><stop style="stop-color:#2f5482;stop-opacity:1" id="stop3318" offset="1"/></linearGradient><linearGradient id="linearGradient3320" x1="277.032" x2="358.081" y1="848.413" y2="479.715" gradientTransform="translate(718.86713,-16.674753)" gradientUnits="userSpaceOnUse" xlink:href="#linearGradient3314"/><linearGradient id="linearGradient3332" x1="382.314" x2="245.769" y1="901.084" y2="713.309" gradientTransform="matrix(0.9928263,-0.1195658,0.1195658,0.9928263,685.07224,47.492855)" gradientUnits="userSpaceOnUse" xlink:href="#linearGradient3314"/><linearGradient id="linearGradient3340" x1="414.369" x2="305.057" y1="562.031" y2="392.136" gradientTransform="translate(718.86713,-16.674753)" gradientUnits="userSpaceOnUse" xlink:href="#linearGradient3314"/><linearGradient id="linearGradient3358" x1="260.591" x2="187.775" y1="352.949" y2="532.666" gradientTransform="translate(718.86713,-16.674753)" gradientUnits="userSpaceOnUse" xlink:href="#linearGradient3352"/><linearGradient id="linearGradient3368" x1="30.997" x2="83.874" y1="459.335" y2="459.335" gradientTransform="translate(718.86713,-12.674753)" gradientUnits="userSpaceOnUse" xlink:href="#linearGradient3352"/></defs><metadata id="metadata2537"/><g id="layer1"><path style="fill:#3a3a3a;fill-rule:evenodd;stroke:#000;stroke-width:5;stroke-linecap:butt;stroke-linejoin:miter;stroke-miterlimit:4;stroke-dasharray:none;stroke-opacity:1;fill-opacity:1" id="path3348" d="M 917.11141,530.03383 L 917.11141,489.27333 L 989.36868,487.42058 L 1007.8962,526.32833 L 917.11141,530.03383 z"/><path style="fill:url(#linearGradient3320);fill-opacity:1;fill-rule:evenodd;stroke:#000;stroke-width:5;stroke-linecap:butt;stroke-linejoin:miter;stroke-miterlimit:4;stroke-dasharray:none;stroke-opacity:1" id="path3312" d="M 763.33314,633.6406 C 835.5904,631.78785 841.50894,506.05766 1050.5094,513.21183 C 1206.1405,518.77008 1285.8087,637.3461 1285.8087,637.3461 C 1357.446,704.55876 1339.5385,568.79434 1419.2068,531.73934 C 1374.9617,678.39468 1381.7647,740.81005 1417.354,824.47389 C 1335.022,779.72646 1350.3749,715.62677 1304.3362,713.30887 C 1217.3417,744.3329 1105.1839,797.15608 1013.4544,785.56613 C 917.06868,769.29339 871.05124,734.13254 811.50464,704.04512 C 812.73137,694.47047 807.74439,683.34238 789.27164,668.84286 C 767.39408,667.03232 746.94307,634.10889 763.33314,633.6406 z"/><path style="fill:url(#linearGradient3340);fill-opacity:1;fill-rule:evenodd;stroke:#000;stroke-width:5;stroke-linecap:butt;stroke-linejoin:miter;stroke-miterlimit:4;stroke-dasharray:none;stroke-opacity:1" id="path3322" d="M 1035.6874,515.06458 C 1029.0838,455.50413 1116.858,404.66834 1176.4965,387.22481 C 1139.7194,442.05858 1149.9404,487.89091 1169.0855,542.85584 L 1035.6874,515.06458 z"/><path style="fill:#666;fill-rule:evenodd;stroke:#000;stroke-width:1px;stroke-linecap:butt;stroke-linejoin:miter;stroke-opacity:1;opacity:.8" id="path2517" d="M 917.11141,528.03384 C 987.4844,608.36605 968.40339,695.08783 974.54668,780.00788 L 1035.6874,789.27164 C 1031.7325,696.38735 1045.4964,601.53431 1000.4852,513.21184 L 917.11141,528.03384 z"/><path style="fill:url(#linearGradient3332);fill-opacity:1;fill-rule:evenodd;stroke:#000;stroke-width:5;stroke-linecap:butt;stroke-linejoin:miter;stroke-miterlimit:4;stroke-dasharray:none;stroke-opacity:1" id="path3324" d="M 991.31624,730.94103 C 1019.1643,780.98731 1101.0518,837.17226 1162.0892,878.32727 C 1139.3827,825.07767 1108.5567,767.20751 1150.9061,707.9894 L 991.31624,730.94103 z"/><path style="fill:red;fill-rule:evenodd;stroke:#000;stroke-width:5;stroke-linecap:butt;stroke-linejoin:miter;stroke-miterlimit:4;stroke-dasharray:none;stroke-opacity:1" id="path3344" d="M 834.50539,628.49565 C 851.89603,608.73643 857.53279,612.7082 885.32514,585.22843 C 889.97308,589.78546 904.65903,594.34249 900.04691,606.31052 C 854.09733,618.89992 858.09458,624.8504 834.50539,628.49565 z"/><path style="fill:#500;fill-rule:evenodd;stroke:#000;stroke-width:5;stroke-linecap:butt;stroke-linejoin:miter;stroke-miterlimit:4;stroke-dasharray:none;stroke-opacity:1" id="path3346" d="M 815.35739,705.75061 L 941.34442,692.78136 L 800.53539,674.25386 L 815.35739,705.75061 z"/><path style="fill:url(#linearGradient3358);fill-opacity:1;fill-rule:evenodd;stroke:#000;stroke-width:5;stroke-linecap:butt;stroke-linejoin:miter;stroke-miterlimit:4;stroke-dasharray:none;stroke-opacity:1" id="path3350" d="M 805.94639,478.00958 C 815.21014,478.00958 885.61466,472.45132 885.61466,472.45132 L 889.32016,490.97883 L 1022.7182,485.42058 L 1046.8039,452.07107 L 1043.0984,402.04681 L 1000.4852,370.55006 L 878.20366,379.81381 L 880.05641,403.89956 L 800.38814,411.31056 L 805.94639,478.00958 z"/><path style="fill:url(#linearGradient3368);fill-opacity:1;fill-rule:evenodd;stroke:#000;stroke-width:5;stroke-linecap:butt;stroke-linejoin:miter;stroke-miterlimit:4;stroke-dasharray:none;stroke-opacity:1" id="path3360" d="M 750.36388,435.54357 L 800.38814,431.83807 L 802.24089,459.62932 L 755.92213,461.48207 L 750.36388,435.54357 z"/></g></svg>