<svg xmlns="http://www.w3.org/2000/svg" xmlns:svg="http://www.w3.org/2000/svg" xmlns:xlink="http://www.w3.org/1999/xlink" id="svg8673" width="744.094" height="1052.362"><defs id="defs8675"><linearGradient id="linearGradient9194"><stop style="stop-color:#ed0202;stop-opacity:1" id="stop9196" offset="0"/><stop style="stop-color:#9c0000;stop-opacity:1" id="stop9198" offset="1"/></linearGradient><linearGradient id="linearGradient9200" x1="676.081" x2="106.52" y1="244.653" y2="961.667" gradientTransform="matrix(-1,0,0,1,752.10258,0)" gradientUnits="userSpaceOnUse" xlink:href="#linearGradient9194"/></defs><metadata id="metadata8678"/><g id="layer1"><path style="fill:#000;fill-opacity:1;fill-rule:evenodd;stroke:url(#linearGradient9200);stroke-width:80;stroke-linecap:butt;stroke-linejoin:miter;stroke-miterlimit:4;stroke-dasharray:none;stroke-opacity:1" id="path9192" d="M 623.18033,904.54641 C 708.72394,815.55793 698.96647,219.64907 616.46725,178.3636 C 469.66022,103.93883 375.63559,370.96221 84.055051,329.85734 C 16.301631,376.76355 200.91391,746.46008 200.91391,746.46008 C 216.54931,791.62903 143.93052,887.16867 176.93861,937.54942 C 235.76551,1048.4166 585.77385,954.80659 623.18033,904.54641 z"/><path style="fill:#fff;fill-opacity:1;fill-rule:evenodd;stroke:#000;stroke-width:1px;stroke-linecap:butt;stroke-linejoin:miter;stroke-opacity:1" id="path9210" d="M 639.84856,424.54033 C 600.95314,359.69407 598.32542,333.97795 510.99855,269.13169 C 407.97643,302.48525 309.72865,344.36232 181.74639,412.50912 C 152.33303,460.6329 197.54079,466.40505 225.27091,539.05135 C 219.74074,557.17282 198.57035,569.98187 182.17476,566.60622 C 169.05261,556.00868 163.1914,556.98419 152.54768,537.71214 C 128.10809,466.70946 109.12811,414.06928 107.81796,372.08081 C 190.43363,343.18822 238.23092,375.96379 344.29201,319.5598 C 426.81329,294.1281 479.24409,194.82732 589.85505,201.59704 C 639.35519,265.63984 630.14445,346.81764 639.84856,424.54033 z"/><path style="fill:#fff;fill-opacity:1;fill-rule:evenodd;stroke:#000;stroke-width:5.05711555;stroke-miterlimit:4;stroke-dasharray:none;stroke-opacity:1" id="path9202" d="M 303.85104,126.9134 A 37.98138,37.98138 0 1 1 227.88828,126.9134 A 37.98138,37.98138 0 1 1 303.85104,126.9134 z" transform="matrix(-1.947815,0,0,1.947815,1021.699,-141.59705)"/><path style="fill:#000;fill-opacity:1;fill-rule:evenodd;stroke:#000;stroke-width:8;stroke-miterlimit:4;stroke-dasharray:none;stroke-opacity:1" id="path9204" d="M 237.15204,88.932014 A 12.969253,12.969253 0 1 1 211.21353,88.932014 A 12.969253,12.969253 0 1 1 237.15204,88.932014 z" transform="matrix(-1,0,0,1,753.95533,-7.4110013)"/><path style="fill:#fff;fill-opacity:1;fill-rule:evenodd;stroke:#000;stroke-width:5.05711555;stroke-miterlimit:4;stroke-dasharray:none;stroke-opacity:1" id="path9206" d="M 303.85104,126.9134 A 37.98138,37.98138 0 1 1 227.88828,126.9134 A 37.98138,37.98138 0 1 1 303.85104,126.9134 z" transform="matrix(0.4201144,1.6198604,1.6198604,-0.4201144,-193.25742,-117.96857)"/><path style="fill:#000;fill-opacity:1;fill-rule:evenodd;stroke:#000;stroke-width:8;stroke-miterlimit:4;stroke-dasharray:none;stroke-opacity:1" id="path9208" d="M 237.15204,88.932014 A 12.969253,12.969253 0 1 1 211.21353,88.932014 A 12.969253,12.969253 0 1 1 237.15204,88.932014 z" transform="matrix(0.2156849,0.8316295,0.8316295,-0.2156849,-23.916079,75.753028)"/><path style="fill:#72335f;fill-opacity:1;fill-rule:evenodd;stroke:#000;stroke-width:1px;stroke-linecap:butt;stroke-linejoin:miter;stroke-opacity:1" id="path9214" d="M 614.44024,761.45309 C 482.26767,759.75563 429.72939,833.16487 397.55063,887.62842 C 383.12553,860.3921 376.74096,846.6675 388.55713,818.19335 C 306.77736,836.99416 294.66928,891.31391 282.4792,931.88166 C 363.42731,924.4885 453.77248,932.75697 533.32336,907.19984 L 614.44024,761.45309 z"/><path style="fill:#fff;fill-opacity:1;fill-rule:evenodd;stroke:#000;stroke-width:1px;stroke-linecap:butt;stroke-linejoin:miter;stroke-opacity:1" id="path9212" d="M 633.66422,728.94437 C 624.08322,779.48556 622.47855,831.73596 595.74642,878.60191 C 524.5637,916.10273 431.1369,975.88258 220.91765,938.20465 C 184.48211,901.78373 221.13392,858.63207 231.05463,818.78684 C 244.21645,804.98575 268.22234,801.009 284.97929,805.78684 C 247.16052,827.07716 222.35269,901.99241 256.30121,935.23889 C 402.74657,902.72079 485.23017,926.43263 535.78066,904.46492 C 554.57269,848.95769 597.8117,781.82691 633.66422,728.94437 z"/></g></svg>