<svg xmlns="http://www.w3.org/2000/svg" xmlns:svg="http://www.w3.org/2000/svg" xmlns:xlink="http://www.w3.org/1999/xlink" id="svg2" width="200" height="200" version="1.1"><defs id="defs4"><linearGradient id="linearGradient4182"><stop style="stop-color:#000;stop-opacity:1" id="stop4184" offset="0"/><stop style="stop-color:#2a2a2a;stop-opacity:.5714286" id="stop4186" offset="1"/></linearGradient><linearGradient id="linearGradient4095"><stop style="stop-color:#171010;stop-opacity:.90977442" id="stop4097" offset="0"/><stop style="stop-color:#3d3126;stop-opacity:.85714287" id="stop4099" offset="1"/></linearGradient><linearGradient id="linearGradient4065"><stop style="stop-color:#513f26;stop-opacity:1" id="stop4067" offset="0"/><stop style="stop-color:#151411;stop-opacity:1" id="stop4069" offset="1"/></linearGradient><linearGradient id="linearGradient3939"><stop style="stop-color:#6f6f6f;stop-opacity:1" id="stop3941" offset="0"/><stop style="stop-color:#212121;stop-opacity:1" id="stop3943" offset="1"/></linearGradient><radialGradient id="radialGradient4071" cx="100" cy="952.362" r="89.31" fx="100" fy="952.362" gradientUnits="userSpaceOnUse" xlink:href="#linearGradient4065"/><radialGradient id="radialGradient4087" cx="100" cy="952.362" r="89.31" fx="100" fy="952.362" gradientUnits="userSpaceOnUse" xlink:href="#linearGradient3939"/><radialGradient id="radialGradient4091" cx="0" cy="0" r="83.214" fx="0" fy="0" gradientUnits="userSpaceOnUse" spreadMethod="pad" xlink:href="#linearGradient3939"/><radialGradient id="radialGradient4103" cx="103.5" cy="111.5" r="28.5" fx="103.5" fy="111.5" gradientUnits="userSpaceOnUse" xlink:href="#linearGradient4095"/><radialGradient id="radialGradient4113" cx="103.5" cy="111.5" r="28.5" fx="103.5" fy="111.5" gradientUnits="userSpaceOnUse" xlink:href="#linearGradient4095"/><radialGradient id="radialGradient4117" cx="103.5" cy="111.5" r="28.5" fx="103.5" fy="111.5" gradientUnits="userSpaceOnUse" xlink:href="#linearGradient4095"/><radialGradient id="radialGradient4119" cx="103.5" cy="111.5" r="28.5" fx="103.5" fy="111.5" gradientUnits="userSpaceOnUse" xlink:href="#linearGradient4095"/><radialGradient id="radialGradient4190" cx="101.823" cy="100.651" r="58.447" fx="101.823" fy="100.651" gradientUnits="userSpaceOnUse" xlink:href="#linearGradient4182"/><radialGradient id="radialGradient4198" cx="101.823" cy="100.651" r="58.447" fx="101.823" fy="100.651" gradientUnits="userSpaceOnUse" xlink:href="#linearGradient4065"/></defs><metadata id="metadata7"/><g id="layer1" transform="translate(0,-852.36218)"><g id="g3160" transform="matrix(1.0616087,0,0,1.0616087,100,952.36218)" style="fill-opacity:1;fill:url(#radialGradient4091);stroke:#000;stroke-opacity:.52791876000000004;stroke-width:2.82589997999999998;stroke-miterlimit:4;stroke-dasharray:none"><path id="path3162" d="m 69.849,-5.01 3.753,-0.269 2.629,0.283 6.483,2.21 0,5.572 -6.483,2.21 -2.629,0.283 -3.753,-0.269 -1.084,8.229 3.696,0.712 2.465,0.953 5.69,3.813 -1.442,5.382 -6.834,0.457 -2.612,-0.407 -3.556,-1.232 -3.176,7.669 3.385,1.643 2.135,1.559 4.509,5.156 -2.786,4.825 -6.719,-1.327 -2.418,-1.069 -3.116,-2.11 -5.053,6.585 2.844,2.464 1.659,2.058 3.021,6.148 -3.939,3.939 -6.148,-3.021 -2.058,-1.659 -2.464,-2.844 -6.585,5.053 2.11,3.116 1.069,2.418 1.327,6.719 -4.825,2.786 -5.156,-4.509 -1.559,-2.135 -1.643,-3.385 -7.669,3.176 1.232,3.556 0.407,2.612 -0.457,6.834 -5.382,1.442 -3.813,-5.69 -0.953,-2.465 -0.712,-3.696 -8.229,1.084 0.269,3.753 -0.283,2.629 -2.21,6.483 -5.572,0 -2.21,-6.483 -0.283,-2.629 0.269,-3.753 -8.229,-1.084 -0.712,3.696 -0.953,2.465 -3.813,5.69 -5.382,-1.442 -0.457,-6.834 0.407,-2.612 1.232,-3.556 -7.669,-3.176 -1.643,3.385 -1.559,2.135 -5.156,4.509 -4.825,-2.786 1.327,-6.719 1.069,-2.418 2.11,-3.116 -6.585,-5.053 -2.464,2.844 -2.058,1.659 -6.148,3.021 -3.939,-3.939 3.021,-6.148 1.659,-2.058 2.844,-2.464 -5.053,-6.585 -3.116,2.11 -2.418,1.069 -6.719,1.327 -2.786,-4.825 4.509,-5.156 2.135,-1.559 3.385,-1.643 -3.176,-7.669 -3.556,1.232 -2.612,0.407 -6.834,-0.457 -1.442,-5.382 5.69,-3.813 2.465,-0.953 3.696,-0.712 -1.084,-8.229 -3.753,0.269 -2.629,-0.283 -6.483,-2.21 0,-5.572 6.483,-2.21 2.629,-0.283 3.753,0.269 1.084,-8.229 -3.696,-0.712 -2.465,-0.953 -5.69,-3.813 1.442,-5.382 6.834,-0.457 2.612,0.407 3.556,1.232 3.176,-7.669 -3.385,-1.643 -2.135,-1.559 -4.509,-5.156 2.786,-4.825 6.719,1.327 2.418,1.069 3.116,2.11 5.053,-6.585 -2.844,-2.464 -1.659,-2.058 -3.021,-6.148 3.939,-3.939 6.148,3.021 2.058,1.659 2.464,2.844 6.585,-5.053 -2.11,-3.116 -1.069,-2.418 -1.327,-6.719 4.825,-2.786 5.156,4.509 1.559,2.135 1.643,3.385 7.669,-3.176 -1.232,-3.556 -0.407,-2.612 0.457,-6.834 5.382,-1.442 3.813,5.69 0.953,2.465 0.712,3.696 8.229,-1.084 -0.269,-3.753 0.283,-2.629 2.21,-6.483 5.572,0 2.21,6.483 0.283,2.629 -0.269,3.753 8.229,1.084 0.712,-3.696 0.953,-2.465 3.813,-5.69 5.382,1.442 0.457,6.834 -0.407,2.612 -1.232,3.556 7.669,3.176 1.643,-3.385 1.559,-2.135 5.156,-4.509 4.825,2.786 -1.327,6.719 -1.069,2.418 -2.11,3.116 6.585,5.053 2.464,-2.844 2.058,-1.659 6.148,-3.021 3.939,3.939 -3.021,6.148 -1.659,2.058 -2.844,2.464 5.053,6.585 3.116,-2.11 2.418,-1.069 6.719,-1.327 2.786,4.825 -4.509,5.156 -2.135,1.559 -3.385,1.643 3.176,7.669 3.556,-1.232 2.612,-0.407 6.834,0.457 1.442,5.382 -5.69,3.813 -2.465,0.953 -3.696,0.712 z" style="fill:url(#radialGradient4091);stroke:#000;fill-opacity:1;stroke-opacity:.52791876000000004;stroke-width:2.82589997999999998;stroke-miterlimit:4;stroke-dasharray:none"/></g><path style="fill:url(#radialGradient4190);stroke:url(#radialGradient4198);stroke-width:8;stroke-miterlimit:4;stroke-opacity:.52791874000000005;stroke-dasharray:none;fill-opacity:1" id="path4180" d="m 156.2706,100.6515 a 54.447224,54.447224 0 1 1 -108.894444,0 54.447224,54.447224 0 1 1 108.894444,0 z" transform="translate(-1.8233795,851.71068)"/><path style="fill:url(#radialGradient4103);stroke:url(#radialGradient4113);stroke-width:3;stroke-miterlimit:4;stroke-opacity:.52791876000000004;stroke-dasharray:none;fill-opacity:1" id="path4093" d="m 130.5,111.5 a 27,27 0 1 1 -54,0 27,27 0 1 1 54,0 z" transform="translate(-3.5,840.86218)"/><path id="path4115" d="m 130.5,111.5 a 27,27 0 1 1 -54,0 27,27 0 1 1 54,0 z" transform="matrix(0.24561403,0,0,0.24561403,128.57895,924.97622)" style="fill:url(#radialGradient4117);fill-opacity:1;stroke:url(#radialGradient4119);stroke-width:3;stroke-miterlimit:4;stroke-opacity:.52791874;stroke-dasharray:none"/><use id="use4121" x="0" y="0" xlink:href="#path4115"/><use id="use4123" width="200" height="200" x="0" y="0" transform="matrix(0,1,-1,0,1052.3622,852.36218)" xlink:href="#use4121"/><use id="use4125" width="200" height="200" x="0" y="0" transform="matrix(0,1,-1,0,1052.3622,852.36218)" xlink:href="#use4123"/><use id="use4127" width="200" height="200" x="0" y="0" transform="matrix(0,1,-1,0,1052.3622,852.36218)" xlink:href="#use4125"/><use id="use4129" width="200" height="200" x="0" y="0" transform="matrix(0.70710678,0.70710678,-0.70710678,0.70710678,702.71108,208.22974)" xlink:href="#use4121"/><use id="use4131" width="200" height="200" x="0" y="0" transform="matrix(0.70710678,0.70710678,-0.70710678,0.70710678,702.71108,208.22974)" xlink:href="#use4123"/><use id="use4133" width="200" height="200" x="0" y="0" transform="matrix(0.70710678,0.70710678,-0.70710678,0.70710678,702.71108,208.22974)" xlink:href="#use4125"/><use id="use4135" width="200" height="200" x="0" y="0" transform="matrix(0.70710678,0.70710678,-0.70710678,0.70710678,702.71108,208.22974)" xlink:href="#use4127"/></g></svg>