<svg xmlns="http://www.w3.org/2000/svg" xmlns:svg="http://www.w3.org/2000/svg" xmlns:xlink="http://www.w3.org/1999/xlink" id="svg4571" width="500" height="500" version="1.1"><defs id="defs4573"><linearGradient id="linearGradient10367"><stop style="stop-color:#000;stop-opacity:1" id="stop10369" offset="0"/><stop style="stop-color:#3f280e;stop-opacity:1" id="stop10371" offset="1"/></linearGradient><linearGradient id="linearGradient8857"><stop style="stop-color:#0b0b08;stop-opacity:1" id="stop8859" offset="0"/><stop id="stop8870" offset=".38" style="stop-color:#39352a;stop-opacity:1"/><stop id="stop8865" offset=".667" style="stop-color:#8d8468;stop-opacity:1"/><stop style="stop-color:#4b4538;stop-opacity:1" id="stop8868" offset=".833"/><stop style="stop-color:#171613;stop-opacity:1" id="stop8861" offset="1"/></linearGradient><linearGradient id="linearGradient8863" x1="300" x2="300" y1="360" y2="140" gradientTransform="matrix(1.0247897,0,0,1.0247897,-6.2925761,-6.4248115)" gradientUnits="userSpaceOnUse" spreadMethod="reflect" xlink:href="#linearGradient8857"/><linearGradient id="linearGradient8863-2" x1="300" x2="300" y1="360" y2="140" gradientUnits="userSpaceOnUse" spreadMethod="reflect" xlink:href="#linearGradient8857-9"/><linearGradient id="linearGradient8857-9"><stop style="stop-color:#0d0d06;stop-opacity:1" id="stop8859-3" offset="0"/><stop id="stop8870-8" offset=".38" style="stop-color:#413922;stop-opacity:1"/><stop id="stop8865-5" offset=".667" style="stop-color:#8d8468;stop-opacity:1"/><stop style="stop-color:#5f4c24;stop-opacity:1" id="stop8868-3" offset=".833"/><stop style="stop-color:#171613;stop-opacity:1" id="stop8861-1" offset="1"/></linearGradient><linearGradient id="linearGradient8890" x1="300" x2="300" y1="360" y2="140" gradientTransform="matrix(1.0339997,0,0,0.25249226,-7.6404587,292.08062)" gradientUnits="userSpaceOnUse" spreadMethod="reflect" xlink:href="#linearGradient8857-9"/><radialGradient id="radialGradient10373" cx="9.091" cy="119.172" r="19.427" fx="9.091" fy="119.172" gradientUnits="userSpaceOnUse" xlink:href="#linearGradient10367"/><linearGradient id="linearGradient8863-0" x1="300" x2="300" y1="360" y2="140" gradientTransform="matrix(1.0247897,0,0,1.0247897,-6.2925761,-6.4248115)" gradientUnits="userSpaceOnUse" spreadMethod="reflect" xlink:href="#linearGradient8857-8"/><linearGradient id="linearGradient8857-8"><stop style="stop-color:#0b0b08;stop-opacity:1" id="stop8859-9" offset="0"/><stop id="stop8870-5" offset=".38" style="stop-color:#39352a;stop-opacity:1"/><stop id="stop8865-1" offset=".667" style="stop-color:#8d8468;stop-opacity:1"/><stop style="stop-color:#4b4538;stop-opacity:1" id="stop8868-2" offset=".833"/><stop style="stop-color:#171613;stop-opacity:1" id="stop8861-0" offset="1"/></linearGradient><linearGradient id="linearGradient10441" x1="300" x2="300" y1="360" y2="140" gradientTransform="matrix(0,-0.3816786,0.31130756,0,28.239118,194.73421)" gradientUnits="userSpaceOnUse" spreadMethod="reflect" xlink:href="#linearGradient8857-8"/><filter id="filter10488" width="1.458" height="1.742" x="-.229" y="-.371"><feGaussianBlur id="feGaussianBlur10490" stdDeviation="12.173"/></filter><linearGradient id="linearGradient8890-6" x1="300" x2="300" y1="360" y2="140" gradientTransform="matrix(1.0339997,0,0,0.25249226,-7.6404587,292.08062)" gradientUnits="userSpaceOnUse" spreadMethod="reflect" xlink:href="#linearGradient8857-9-6"/><linearGradient id="linearGradient8857-9-6"><stop style="stop-color:#0d0d06;stop-opacity:1" id="stop8859-3-9" offset="0"/><stop id="stop8870-8-2" offset=".38" style="stop-color:#413922;stop-opacity:1"/><stop id="stop8865-5-9" offset=".667" style="stop-color:#8d8468;stop-opacity:1"/><stop style="stop-color:#5f4c24;stop-opacity:1" id="stop8868-3-2" offset=".833"/><stop style="stop-color:#171613;stop-opacity:1" id="stop8861-1-4" offset="1"/></linearGradient><filter id="filter10585" width="1.155" height="2.321" x="-.078" y="-.66"><feGaussianBlur id="feGaussianBlur10587" stdDeviation="15.287"/></filter><linearGradient id="linearGradient10626" x1="300" x2="300" y1="360" y2="140" gradientTransform="matrix(1.0247897,0,0,1.0247897,-6.2925761,-6.4248115)" gradientUnits="userSpaceOnUse" spreadMethod="reflect" xlink:href="#linearGradient8857"/><linearGradient id="linearGradient10628" x1="300" x2="300" y1="360" y2="140" gradientTransform="matrix(1.0339997,0,0,0.25249226,-7.6404587,292.08062)" gradientUnits="userSpaceOnUse" spreadMethod="reflect" xlink:href="#linearGradient8857-9"/><linearGradient id="linearGradient10632" x1="300" x2="300" y1="360" y2="140" gradientTransform="matrix(0,-0.3816786,0.31130756,0,28.239118,194.73421)" gradientUnits="userSpaceOnUse" spreadMethod="reflect" xlink:href="#linearGradient8857-8"/></defs><metadata id="metadata4576"/><g id="g10612" transform="translate(-1.1525089,52.753013)"><path id="rect8345" d="m 34.699016,137.04574 432.711084,0 c 33.07582,93.85185 18.41746,161.59344 0,225.45374 l -432.711084,0 c -21.024408,-77.95451 -20.381328,-153.02001 0,-225.45374 z" style="fill:url(#linearGradient10626);fill-opacity:1;stroke:#2d2a26;stroke-width:6.69085217;stroke-miterlimit:4;stroke-opacity:1;stroke-dasharray:none"/><path id="rect8345-3" d="m 33.71959,327.4295 436.59993,0 c 33.37309,23.12366 18.58298,39.81412 0,55.5483 l -436.59993,0 c -21.213377,-19.20679 -20.564485,-37.70175 0,-55.5483 z" style="fill:url(#linearGradient10628);fill-opacity:1;stroke:#2d2a26;stroke-width:3.33603668;stroke-miterlimit:4;stroke-opacity:1;stroke-dasharray:none"/><path id="rect8345-2" d="m 71.822178,179.46705 0,-161.161412 c 28.510042,-12.3189572 49.088382,-6.859516 68.487672,0 l 0,161.161412 c -28.62253,34.18639 -49.524953,23.80948 -68.487672,0 z" style="fill:url(#linearGradient10632);fill-opacity:1;stroke:#2d2a26;stroke-width:2.25055909;stroke-miterlimit:4;stroke-opacity:1;stroke-dasharray:none"/><use id="use10492" width="500" height="500" x="0" y="0" xlink:href="#rect8345-2"/><path id="path10466" d="m 165.26432,177.25626 c 0,21.75778 -28.53916,39.39595 -63.74399,39.39595 -35.204828,0 -63.743982,-17.63817 -63.743982,-39.39595 0,-21.75779 28.539154,-39.39595 63.743982,-39.39595 35.20483,0 63.74399,17.63816 63.74399,39.39595 z" transform="translate(6.5659916,11.111678)" style="opacity:.95;fill:#000;fill-opacity:1;stroke:none;filter:url(#filter10488)"/><use id="use10500" width="500" height="500" x="0" y="0" transform="translate(147.14286,0)" xlink:href="#rect8345-2"/><use id="use10502" width="500" height="500" x="0" y="0" transform="translate(147.14286,0)" xlink:href="#use10492"/><use id="use10504" width="500" height="500" x="0" y="0" transform="translate(147.14286,0)" xlink:href="#path10466"/><use id="use10506" width="500" height="500" x="0" y="0" transform="translate(147.85714,0)" xlink:href="#use10500"/><use id="use10508" width="500" height="500" x="0" y="0" transform="translate(147.85714,0)" xlink:href="#use10502"/><use id="use10510" width="500" height="500" x="0" y="0" transform="translate(147.85714,0)" xlink:href="#use10504"/><path id="rect8345-3-6" d="m 32.754595,306.95118 436.599925,0 c 33.37309,23.12366 18.58298,39.81412 0,55.5483 l -436.599925,0 c -21.213376,-19.20679 -20.564484,-37.70175 0,-55.5483 z" transform="matrix(0.9194856,0,0,0.51482127,18.382422,158.31345)" style="opacity:.97633194;fill:#000;fill-opacity:1;stroke:none;filter:url(#filter10585)"/></g></svg>