<svg xmlns="http://www.w3.org/2000/svg" xmlns:svg="http://www.w3.org/2000/svg" id="svg2" width="400" height="400" version="1.1"><metadata id="metadata7"/><g id="layer1" transform="translate(0,-652.36218)"><path style="fill:none;stroke:#000;stroke-width:.8214286px;stroke-linecap:butt;stroke-linejoin:miter;stroke-opacity:1" id="path3763" d="m 100,782.36218 1.07143,176.07142"/><path style="fill:#747474;fill-opacity:1;stroke:#000;stroke-width:.8214286px;stroke-linecap:butt;stroke-linejoin:miter;stroke-opacity:1" id="path3755" d="M 41.785714,942.005 50,1032.3622 l 240,0 66.70665,-80.56674 -165.27808,14.85243 -41.07143,0 z"/><path style="fill:#c2c2c2;fill-opacity:1;stroke:#000;stroke-width:1px;stroke-linecap:butt;stroke-linejoin:miter;stroke-opacity:1" id="path3765" d="m 90,220 0,-40 -60,-10 0,20 20,0 20,10 10,30 z" transform="translate(0,652.36218)"/><path style="fill:#747474;fill-opacity:1;stroke:#000;stroke-width:.8214286px;stroke-linecap:butt;stroke-linejoin:miter;stroke-opacity:1" id="path3757" d="m 68.214286,958.4336 8.214285,-65.71428 0,-32.85714 57.499999,0 0,57.5 8.21429,57.5 z"/><path style="fill:none;stroke:#000;stroke-width:.8214286px;stroke-linecap:butt;stroke-linejoin:miter;stroke-opacity:1" id="path3761" d="M 340,762.36218 322.85714,958.4336"/><path style="fill:#919191;fill-opacity:1;stroke:#000;stroke-width:1.27080321px;stroke-linecap:butt;stroke-linejoin:miter;stroke-opacity:1" id="path3759" d="m 7.430875,740.36218 93.770735,-77.50001 208.37944,15.50001 83.35175,62 -72.9328,62 -250.055304,0 z"/></g></svg>