<svg xmlns="http://www.w3.org/2000/svg" xmlns:svg="http://www.w3.org/2000/svg" xmlns:xlink="http://www.w3.org/1999/xlink" id="svg3360" width="400" height="400" version="1.1"><defs id="defs3362"><filter id="filter4981" width="1.575" height="1.436" x="-.288" y="-.218" color-interpolation-filters="sRGB"><feGaussianBlur id="feGaussianBlur4983" stdDeviation="7.533"/></filter><linearGradient id="linearGradient5895" x1="196.428" x2="226.611" y1="383.448" y2="429.41" gradientTransform="matrix(1.4782072,0.52243718,-0.61894967,1.4041037,103.63513,96.452707)" gradientUnits="userSpaceOnUse" xlink:href="#linearGradient5889"/><linearGradient id="linearGradient5889"><stop style="stop-color:#f33;stop-opacity:1" id="stop5891" offset="0"/><stop id="stop5897" offset=".858" style="stop-color:#312626;stop-opacity:.49803922"/><stop style="stop-color:#000;stop-opacity:0" id="stop5893" offset="1"/></linearGradient><linearGradient id="linearGradient5001" x1="319.48" x2="417.498" y1="684.486" y2="105.722" gradientUnits="userSpaceOnUse" xlink:href="#linearGradient4995"/><linearGradient id="linearGradient4995"><stop style="stop-color:#121212;stop-opacity:1" id="stop4997" offset="0"/><stop style="stop-color:#666;stop-opacity:0" id="stop4999" offset="1"/></linearGradient><linearGradient id="linearGradient4991" x1="272.106" x2="210.476" y1="332.1" y2="524.957" gradientTransform="matrix(0.73176965,-0.2968599,0.33710817,0.67181292,-170.56512,679.845)" gradientUnits="userSpaceOnUse" xlink:href="#linearGradient4985"/><linearGradient id="linearGradient4985"><stop style="stop-color:#fff;stop-opacity:1" id="stop4987" offset="0"/><stop style="stop-color:#fff;stop-opacity:0" id="stop4989" offset="1"/></linearGradient><filter id="filter4798" width="1.249" height="2.244" x="-.124" y="-.622" color-interpolation-filters="sRGB"><feGaussianBlur id="feGaussianBlur4800" stdDeviation="4.444"/></filter><filter id="filter4818" width="1.608" height="1.512" x="-.304" y="-.256" color-interpolation-filters="sRGB"><feGaussianBlur id="feGaussianBlur4820" stdDeviation="5.787"/></filter><filter id="filter4914" width="1.446" height="2.872" x="-.223" y="-.936" color-interpolation-filters="sRGB"><feGaussianBlur id="feGaussianBlur4916" stdDeviation="5.571"/></filter><filter id="filter4932" width="2.371" height="1.738" x="-.686" y="-.369" color-interpolation-filters="sRGB"><feGaussianBlur id="feGaussianBlur4934" stdDeviation="5.714"/></filter><filter id="filter4788" width="1.565" height="1.77" x="-.282" y="-.385" color-interpolation-filters="sRGB"><feGaussianBlur id="feGaussianBlur4790" stdDeviation="5.044"/></filter><filter id="filter4812" width="1.39" height="2.114" x="-.195" y="-.557" color-interpolation-filters="sRGB"><feGaussianBlur id="feGaussianBlur4814" stdDeviation="4.643"/></filter><filter id="filter4900" width="1.775" height="2.26" x="-.388" y="-.63" color-interpolation-filters="sRGB"><feGaussianBlur id="feGaussianBlur4902" stdDeviation="6"/></filter><filter id="filter4850" width="2.303" height="1.76" x="-.651" y="-.38" color-interpolation-filters="sRGB"><feGaussianBlur id="feGaussianBlur4852" stdDeviation="5.429"/></filter><filter id="filter4882" width="1.916" height="2.008" x="-.458" y="-.504" color-interpolation-filters="sRGB"><feGaussianBlur id="feGaussianBlur4884" stdDeviation="6"/></filter><filter id="filter4864" width="2.14" height="1.526" x="-.57" y="-.263" color-interpolation-filters="sRGB"><feGaussianBlur id="feGaussianBlur4866" stdDeviation="4.071"/></filter><filter id="filter4832" width="2.38" height="1.487" x="-.69" y="-.244" color-interpolation-filters="sRGB"><feGaussianBlur id="feGaussianBlur4834" stdDeviation="4.929"/></filter><filter id="filter3821" width="1.397" height="1.482" x="-.198" y="-.241"><feGaussianBlur id="feGaussianBlur3823" stdDeviation="14.526"/></filter><filter id="filter3891" width="1.178" height="1.203" x="-.089" y="-.102"><feGaussianBlur id="feGaussianBlur3893" stdDeviation="13.992"/></filter></defs><metadata id="metadata3365"/><g id="layer1" transform="translate(0,-652.36218)"><path id="path3049" d="m 502.85713,513.79077 a 178.57143,172.85715 0 1 1 -0.0354,-3.44252" transform="matrix(0.68582951,-0.25976472,0.36112658,0.67193205,-168.66376,644.03343)" style="opacity:1;fill:#000;fill-opacity:1;stroke:none;filter:url(#filter3891)"/><path id="path4710-3" d="m 502.85713,513.79077 a 178.57143,172.85715 0 1 1 -357.14285,0 178.57143,172.85715 0 1 1 357.14285,0 z" transform="matrix(0.68582951,-0.25932565,0.36112658,0.67079632,-168.66376,644.27826)" style="fill:#666;fill-opacity:1;stroke:#3e3e3e;stroke-width:6.98605585;stroke-linejoin:round;stroke-miterlimit:4;stroke-opacity:1;stroke-dasharray:none"/><path id="path4822" d="m 340.58701,319.3252 14.2857,48.57143 2.8571,-45.71429 z" transform="matrix(0.62633104,-0.4809595,0.50379353,0.55782309,-283.01672,709.76396)" style="fill:#ff0;stroke:none;filter:url(#filter4832)"/><path style="fill:#ff0;stroke:#000;stroke-width:.76921141px;stroke-linecap:butt;stroke-linejoin:miter;stroke-opacity:1" id="path4740" d="m 91.17745,724.08236 33.41757,20.22344 -21.24108,-26.87466 z"/><path id="path4854" d="m 394.87271,336.46806 -2.8571,37.14285 17.1428,-31.42857 z" transform="matrix(0.62633104,-0.4809595,0.50379353,0.55782309,-283.01672,709.76396)" style="fill:#ff0;stroke:none;filter:url(#filter4864)"/><path id="path4868" d="m 403.44411,385.03946 25.7143,-28.5714 5.7143,25.7143 z" transform="matrix(0.62633104,-0.4809595,0.50379353,0.55782309,-283.01672,709.76396)" style="fill:#ff0;stroke:none;filter:url(#filter4882)"/><path style="fill:#ff0;stroke:#000;stroke-width:.76921141px;stroke-linecap:butt;stroke-linejoin:miter;stroke-opacity:1" id="path4742" d="m 133.81475,707.53584 16.92281,22.09326 -5.09643,-25.77657 z"/><path id="path4836" d="m 360.58701,379.32516 20,17.1429 0,-34.28572 z" transform="matrix(0.62633104,-0.4809595,0.50379353,0.55782309,-283.01672,709.76396)" style="fill:red;fill-opacity:1;stroke:none;filter:url(#filter4850)"/><path style="fill:red;fill-opacity:1;stroke:#000;stroke-width:.76921141px;stroke-linecap:butt;stroke-linejoin:miter;stroke-opacity:1" id="path4744" d="m 133.93167,747.93254 21.16311,-0.0565 -17.27292,-19.12535 z"/><path style="fill:#ff0;stroke:#000;stroke-width:.76921141px;stroke-linecap:butt;stroke-linejoin:miter;stroke-opacity:1" id="path4746" d="m 163.65323,730.50758 1.71159,-28.30533 16.53373,11.5957 z"/><path id="path4886" d="m 443.44411,413.61086 37.1429,-22.8571 -5.7143,20 z" transform="matrix(0.62633104,-0.4809595,0.50379353,0.55782309,-283.01672,709.76396)" style="fill:red;fill-opacity:1;stroke:none;filter:url(#filter4900)"/><path style="fill:red;fill-opacity:1;stroke:#000;stroke-width:.76921141px;stroke-linecap:butt;stroke-linejoin:miter;stroke-opacity:1" id="path4748" d="m 203.10058,727.20699 11.74848,-30.61445 6.49683,13.90482 z"/><path id="path4802" d="m 334.87271,407.89666 -54.2857,-20 -2.8571,17.1428 z" transform="matrix(0.62633104,-0.4809595,0.50379353,0.55782309,-283.01672,709.76396)" style="fill:red;fill-opacity:1;stroke:none;filter:url(#filter4812)"/><path style="fill:red;fill-opacity:1;stroke:#000;stroke-width:.76921141px;stroke-linecap:butt;stroke-linejoin:miter;stroke-opacity:1" id="path4750" d="m 132.22015,776.23791 -44.0767,14.95277 6.846939,10.93681 z"/><path id="path4762" d="m 323.44411,439.32516 -42.8571,20 2.8571,11.4286 z" transform="matrix(0.62633104,-0.4809595,0.50379353,0.55782309,-283.01672,709.76396)" style="fill:#ff0;stroke:none;filter:url(#filter4788)"/><path style="fill:#ff0;stroke:#000;stroke-width:.76921141px;stroke-linecap:butt;stroke-linejoin:miter;stroke-opacity:1" id="path4752" d="m 140.89555,799.26616 -16.76688,31.769 7.54715,5.00098 z"/><path id="path4918" d="m 432.01561,445.03946 14.2857,37.1429 5.7143,-22.8572 z" transform="matrix(0.62633104,-0.4809595,0.50379353,0.55782309,-283.01672,709.76396)" style="fill:red;fill-opacity:1;stroke:none;filter:url(#filter4932)"/><path style="fill:red;fill-opacity:1;stroke:#000;stroke-width:.76921141px;stroke-linecap:butt;stroke-linejoin:miter;stroke-opacity:1" id="path4754" d="m 211.77606,750.23524 27.65994,13.84832 -7.93628,-15.49861 z"/><path id="path4904" d="m 423.44411,422.18236 60,2.8571 -8.5714,11.4286 z" transform="matrix(0.62633104,-0.4809595,0.50379353,0.55782309,-283.01672,709.76396)" style="fill:#ff0;stroke:none;filter:url(#filter4914)"/><path style="fill:#ff0;stroke:#000;stroke-width:.76921141px;stroke-linecap:butt;stroke-linejoin:miter;stroke-opacity:1" id="path4756" d="m 194.89221,741.60755 39.01927,-27.26381 0.38912,10.49763 z"/><path id="path4816" d="m 329.15841,385.03946 -45.7143,-48.5714 17.1429,-5.71429 z" transform="matrix(0.62633104,-0.4809595,0.50379353,0.55782309,-283.01672,709.76396)" style="fill:#ff0;stroke:none;filter:url(#filter4818)"/><path style="fill:#ff0;stroke:#000;stroke-width:.76921141px;stroke-linecap:butt;stroke-linejoin:miter;stroke-opacity:1" id="path4758" d="m 117.12581,766.236 -53.102257,-5.10751 7.858315,-11.43263 z"/><path id="path4792" d="m 329.15841,422.18236 -85.7143,0 2.8572,17.1428 z" transform="matrix(0.62633104,-0.4809595,0.50379353,0.55782309,-283.01672,709.76396)" style="fill:#ff0;stroke:none;filter:url(#filter4798)"/><path style="fill:#ff0;stroke:#000;stroke-width:.76921141px;stroke-linecap:butt;stroke-linejoin:miter;stroke-opacity:1" id="path4760" d="m 135.83816,786.95516 -53.685533,41.22511 10.42598,8.18845 z"/><path style="opacity:.253125;fill:url(#linearGradient4991);fill-opacity:1;stroke:none" id="path4964" d="m 176.35389,945.68915 c 15.23364,30.35867 60.91988,37.20343 68.01641,61.77005 7.09652,24.5664 4.95512,40.2453 -5.4004,43.5128 -11.62428,3.6678 -55.85347,-5.1863 -72.9554,-23.8408 -17.10199,-18.6546 -35.84745,-37.07143 -47.20188,-61.36616 -16.6528,-35.63151 -9.97827,-80.81169 -3.58356,-107.11377 6.39476,-26.30206 41.2804,-43.76405 51.2825,-47.82164 10.00205,-4.05758 12.18384,7.8256 15.6734,28.31287 3.48968,20.48726 -21.06476,76.1879 -5.83107,106.54665 z"/><path style="opacity:.965625;fill:url(#linearGradient5001);fill-opacity:1;stroke:none" id="path4993" d="m 502.85713,513.79077 a 178.57143,172.85715 0 1 1 -0.0354,-3.44252" transform="matrix(0.68582951,-0.25976472,0.36112658,0.67193205,-168.66376,644.03343)"/><path style="fill:url(#linearGradient5895);fill-opacity:1;stroke:none" id="path4712" d="m 171.81362,818.61736 -27.42681,-57.213 26.49269,-17.64457 10.23176,65.01877 z"/><path id="path4967" d="m 335.85311,486.71316 22.8572,-82.8571 40,2.8571 -45.7143,77.1429 z" transform="matrix(0.62633104,-0.4809595,0.50379353,0.55782309,-283.01672,709.76396)" style="fill:#990e0e;fill-opacity:1;stroke:none;filter:url(#filter4981)"/><path style="opacity:.965625;fill:#bf1200;fill-opacity:.52996844;stroke:none;filter:url(#filter3821)" id="path5899" d="m 305.06606,414.95593 a 86.115501,71.215752 0 1 1 -172.231,0 86.115501,71.215752 0 1 1 172.231,0 z" transform="matrix(1.3158824,0.45245735,-0.55771132,1.2350671,118.05745,170.38833)"/></g></svg>