<svg xmlns="http://www.w3.org/2000/svg" xmlns:svg="http://www.w3.org/2000/svg" xmlns:xlink="http://www.w3.org/1999/xlink" id="svg2" width="100" height="100" version="1.1"><defs id="defs4"><marker id="Tail" orient="auto" refX="0" refY="0" style="overflow:visible"><g id="g6415" transform="scale(-1.2)"><path id="path6417" d="M -3.8048674,-3.9585227 L 0.54352094,0" style="fill:none;fill-rule:evenodd;stroke:#000;stroke-width:.8;marker-start:none;marker-end:none;stroke-linecap:round"/><path id="path6419" d="M -1.2866832,-3.9585227 L 3.0617053,0" style="fill:none;fill-rule:evenodd;stroke:#000;stroke-width:.8;marker-start:none;marker-end:none;stroke-linecap:round"/><path id="path6421" d="M 1.3053582,-3.9585227 L 5.6537466,0" style="fill:none;fill-rule:evenodd;stroke:#000;stroke-width:.8;marker-start:none;marker-end:none;stroke-linecap:round"/><path id="path6423" d="M -3.8048674,4.1775838 L 0.54352094,0.21974226" style="fill:none;fill-rule:evenodd;stroke:#000;stroke-width:.8;marker-start:none;marker-end:none;stroke-linecap:round"/><path id="path6425" d="M -1.2866832,4.1775838 L 3.0617053,0.21974226" style="fill:none;fill-rule:evenodd;stroke:#000;stroke-width:.8;marker-start:none;marker-end:none;stroke-linecap:round"/><path id="path6427" d="M 1.3053582,4.1775838 L 5.6537466,0.21974226" style="fill:none;fill-rule:evenodd;stroke:#000;stroke-width:.8;marker-start:none;marker-end:none;stroke-linecap:round"/></g></marker><linearGradient id="linearGradient6018"><stop style="stop-color:#500000;stop-opacity:1" id="stop6020" offset="0"/><stop style="stop-color:#9f1212;stop-opacity:1" id="stop6022" offset="1"/></linearGradient><linearGradient id="linearGradient3923"><stop style="stop-color:#fef3b0;stop-opacity:1" id="stop3925" offset="0"/><stop style="stop-color:#fff;stop-opacity:1" id="stop3927" offset="1"/></linearGradient><linearGradient id="linearGradient3718"><stop style="stop-color:#f13030;stop-opacity:1" id="stop3720" offset="0"/><stop style="stop-color:#a10d0d;stop-opacity:1" id="stop3722" offset="1"/></linearGradient><linearGradient id="linearGradient3612"><stop id="stop3614" offset="0" style="stop-color:#645151;stop-opacity:1"/><stop id="stop3616" offset="1" style="stop-color:#5a2929;stop-opacity:1"/></linearGradient><linearGradient id="linearGradient3596"><stop style="stop-color:#341c1c;stop-opacity:1" id="stop3598" offset="0"/><stop style="stop-color:#983a3a;stop-opacity:1" id="stop3600" offset="1"/></linearGradient><linearGradient id="linearGradient3612-0"><stop id="stop3614-7" offset="0" style="stop-color:#ff5959;stop-opacity:1"/><stop id="stop3616-4" offset="1" style="stop-color:#ffa8a8;stop-opacity:1"/></linearGradient><linearGradient id="linearGradient3602-3" x1="100" x2="100" y1="1012.362" y2="962.362" gradientTransform="translate(0,-10.000003)" gradientUnits="userSpaceOnUse" xlink:href="#linearGradient3596-7"/><linearGradient id="linearGradient3596-7"><stop style="stop-color:#d20000;stop-opacity:1" id="stop3598-9" offset="0"/><stop style="stop-color:#f55;stop-opacity:1" id="stop3600-0" offset="1"/></linearGradient><radialGradient id="radialGradient3781" cx="50" cy="50" r="30" fx="50" fy="50" gradientUnits="userSpaceOnUse" xlink:href="#linearGradient3718"/><linearGradient id="linearGradient3929-7" x1="30.875" x2="69.747" y1="72.308" y2="72.308" gradientTransform="translate(-0.25100081,949.35017)" gradientUnits="userSpaceOnUse" xlink:href="#linearGradient3923-0"/><linearGradient id="linearGradient3923-0"><stop style="stop-color:#fef3b0;stop-opacity:1" id="stop3925-4" offset="0"/><stop style="stop-color:#dfdba4;stop-opacity:1" id="stop3927-9" offset="1"/></linearGradient><radialGradient id="radialGradient3781-9" cx="50" cy="50" r="30" fx="50" fy="50" gradientUnits="userSpaceOnUse" xlink:href="#linearGradient3718-0"/><linearGradient id="linearGradient3718-0"><stop style="stop-color:#ac4a4a;stop-opacity:1" id="stop3720-7" offset="0"/><stop style="stop-color:#fa0000;stop-opacity:1" id="stop3722-0" offset="1"/></linearGradient><radialGradient id="radialGradient7405" cx="50" cy="50" r="30" fx="50" fy="50" gradientUnits="userSpaceOnUse" xlink:href="#linearGradient3718-0"/><filter id="filter7438" width="1.608" height="1.608" x="-.304" y="-.304"><feGaussianBlur id="feGaussianBlur7440" stdDeviation="7.6"/></filter><linearGradient id="linearGradient6024-6" x1="24.5" x2="45.5" y1="35.117" y2="35.117" gradientUnits="userSpaceOnUse" xlink:href="#linearGradient6018-0"/><linearGradient id="linearGradient6018-0"><stop style="stop-color:#500000;stop-opacity:1" id="stop6020-6" offset="0"/><stop style="stop-color:#9f1212;stop-opacity:1" id="stop6022-4" offset="1"/></linearGradient></defs><metadata id="metadata7"/><g id="layer1" transform="translate(0,-952.36218)"><path style="fill:url(#radialGradient7405);fill-opacity:1;fill-rule:nonzero;stroke:none;stroke-width:2;stroke-miterlimit:4;stroke-opacity:1;stroke-dasharray:none;filter:url(#filter7438)" id="path3771-0" d="M 80,50 C 80,66.568542 66.568542,80 50,80 33.431458,80 20,66.568542 20,50 20,33.431458 33.431458,20 50,20 66.568542,20 80,33.431458 80,50 z" transform="translate(0,952.36218)"/><path style="fill:url(#radialGradient3781);fill-opacity:1;fill-rule:nonzero;stroke:#000;stroke-width:2;stroke-miterlimit:4;stroke-opacity:1;stroke-dasharray:none" id="path3771" d="m 80,50 a 30,30 0 1 1 -60,0 30,30 0 1 1 60,0 z" transform="translate(0,952.36218)"/><path style="fill:#000;fill-opacity:1;fill-rule:nonzero;stroke:none" id="path6115" d="m 39.999999,37.507713 a 2.6471701,2.4922886 0 1 1 -5.29434,0 2.6471701,2.4922886 0 1 1 5.29434,0 z" transform="matrix(1.0000002,0,0,1.9999992,-6.251562e-6,917.34678)"/><path style="fill:#000;fill-opacity:1;fill-rule:nonzero;stroke:none" id="path6123" d="m 65,37.5 a 2.5,2.5 0 1 1 -5,0 2.5,2.5 0 1 1 5,0 z" transform="matrix(1,0,0,2,0,917.36218)"/><path style="fill:none;stroke:#000;stroke-width:2.5;stroke-linecap:butt;stroke-linejoin:miter;stroke-miterlimit:4;stroke-opacity:1;stroke-dasharray:2.5,2.5;stroke-dashoffset:0;marker-start:url(#Tail)" id="path12783" d="m 50.657183,1010.8156 0,-10"/><path style="fill:#fff;fill-opacity:.85507244;fill-rule:nonzero;stroke:none" id="path13350" d="m 65.000001,32.629799 a 2.3876731,2.3701997 0 1 1 -4.775347,0 2.3876731,2.3701997 0 1 1 4.775347,0 z" transform="matrix(0.52091915,0,0,0.63022142,30.889843,969.54446)"/><path style="fill:#fff;fill-opacity:.85507244;fill-rule:nonzero;stroke:none" id="path13350-8" d="m 65.000001,32.629799 a 2.3876731,2.3701997 0 1 1 -4.775347,0 2.3876731,2.3701997 0 1 1 4.775347,0 z" transform="matrix(0.52091915,0,0,0.63022142,5.8193289,969.445)"/></g></svg>