<svg xmlns="http://www.w3.org/2000/svg" xmlns:svg="http://www.w3.org/2000/svg" xmlns:xlink="http://www.w3.org/1999/xlink" id="svg2" width="100" height="100" version="1.1"><defs id="defs4"><linearGradient id="linearGradient6076"><stop style="stop-color:#000;stop-opacity:1" id="stop6078" offset="0"/><stop style="stop-color:#000;stop-opacity:0" id="stop6080" offset="1"/></linearGradient><linearGradient id="linearGradient6066"><stop style="stop-color:#000;stop-opacity:1" id="stop6068" offset="0"/><stop style="stop-color:#000;stop-opacity:0" id="stop6070" offset="1"/></linearGradient><linearGradient id="linearGradient6018"><stop style="stop-color:#500000;stop-opacity:1" id="stop6020" offset="0"/><stop style="stop-color:#9f1212;stop-opacity:1" id="stop6022" offset="1"/></linearGradient><linearGradient id="linearGradient3923"><stop style="stop-color:#fef3b0;stop-opacity:1" id="stop3925" offset="0"/><stop style="stop-color:#fff;stop-opacity:1" id="stop3927" offset="1"/></linearGradient><linearGradient id="linearGradient3718"><stop style="stop-color:#0d0d0d;stop-opacity:1" id="stop3720" offset="0"/><stop style="stop-color:#262626;stop-opacity:1" id="stop3722" offset="1"/></linearGradient><linearGradient id="linearGradient3612"><stop id="stop3614" offset="0" style="stop-color:#645151;stop-opacity:1"/><stop id="stop3616" offset="1" style="stop-color:#5a2929;stop-opacity:1"/></linearGradient><linearGradient id="linearGradient3596"><stop style="stop-color:#341c1c;stop-opacity:1" id="stop3598" offset="0"/><stop style="stop-color:#983a3a;stop-opacity:1" id="stop3600" offset="1"/></linearGradient><linearGradient id="linearGradient3612-0"><stop id="stop3614-7" offset="0" style="stop-color:#ff5959;stop-opacity:1"/><stop id="stop3616-4" offset="1" style="stop-color:#ffa8a8;stop-opacity:1"/></linearGradient><linearGradient id="linearGradient3602-3" x1="100" x2="100" y1="1012.362" y2="962.362" gradientTransform="translate(0,-10.000003)" gradientUnits="userSpaceOnUse" xlink:href="#linearGradient3596-7"/><linearGradient id="linearGradient3596-7"><stop style="stop-color:#d20000;stop-opacity:1" id="stop3598-9" offset="0"/><stop style="stop-color:#f55;stop-opacity:1" id="stop3600-0" offset="1"/></linearGradient><radialGradient id="radialGradient3781" cx="50" cy="50" r="30" fx="50" fy="50" gradientUnits="userSpaceOnUse" xlink:href="#linearGradient3718"/><linearGradient id="linearGradient3929" x1="30.875" x2="69.747" y1="72.308" y2="72.308" gradientTransform="translate(-0.25100081,949.35017)" gradientUnits="userSpaceOnUse" xlink:href="#linearGradient3923"/><filter id="filter3935" width="1.333" height="1.862" x="-.166" y="-.431"><feGaussianBlur id="feGaussianBlur3937" stdDeviation="2.624"/></filter><linearGradient id="linearGradient3929-7" x1="30.875" x2="69.747" y1="72.308" y2="72.308" gradientTransform="translate(-0.25100081,949.35017)" gradientUnits="userSpaceOnUse" xlink:href="#linearGradient3923-0"/><linearGradient id="linearGradient3923-0"><stop style="stop-color:#fef3b0;stop-opacity:1" id="stop3925-4" offset="0"/><stop style="stop-color:#dfdba4;stop-opacity:1" id="stop3927-9" offset="1"/></linearGradient><filter id="filter3935-6" width="1.333" height="1.862" x="-.166" y="-.431" color-interpolation-filters="sRGB"><feGaussianBlur id="feGaussianBlur3937-9" stdDeviation="2.624"/></filter><linearGradient id="linearGradient3958" x1="30.875" x2="69.747" y1="72.308" y2="72.308" gradientTransform="translate(35.531227,929.85423)" gradientUnits="userSpaceOnUse" xlink:href="#linearGradient3923-0"/><radialGradient id="radialGradient3781-9" cx="50" cy="50" r="30" fx="50" fy="50" gradientUnits="userSpaceOnUse" xlink:href="#linearGradient3718-0"/><linearGradient id="linearGradient3718-0"><stop style="stop-color:#000;stop-opacity:1" id="stop3720-7" offset="0"/><stop style="stop-color:#000;stop-opacity:1" id="stop3722-0" offset="1"/></linearGradient><radialGradient id="radialGradient7405" cx="50" cy="50" r="30" fx="50" fy="50" gradientUnits="userSpaceOnUse" xlink:href="#linearGradient3718-0"/><filter id="filter7438" width="1.608" height="1.608" x="-.304" y="-.304"><feGaussianBlur id="feGaussianBlur7440" stdDeviation="7.6"/></filter><linearGradient id="linearGradient6024" x1="24.5" x2="45.5" y1="35.117" y2="35.117" gradientTransform="translate(0,957.36218)" gradientUnits="userSpaceOnUse" xlink:href="#linearGradient6018"/><linearGradient id="linearGradient6024-6" x1="24.5" x2="45.5" y1="35.117" y2="35.117" gradientUnits="userSpaceOnUse" xlink:href="#linearGradient6018-0"/><linearGradient id="linearGradient6018-0"><stop style="stop-color:#500000;stop-opacity:1" id="stop6020-6" offset="0"/><stop style="stop-color:#9f1212;stop-opacity:1" id="stop6022-4" offset="1"/></linearGradient><linearGradient id="linearGradient6043" x1="24.5" x2="45.5" y1="35.117" y2="35.117" gradientTransform="matrix(-1,0,0,1,100,957.36218)" gradientUnits="userSpaceOnUse" xlink:href="#linearGradient6018-0"/><linearGradient id="linearGradient6072" x1="5" x2="65" y1="85" y2="35" gradientUnits="userSpaceOnUse" xlink:href="#linearGradient6066"/><linearGradient id="linearGradient6082" x1="35.977" x2="56.633" y1="10.529" y2="39.126" gradientUnits="userSpaceOnUse" xlink:href="#linearGradient6076"/></defs><metadata id="metadata7"/><g id="layer1" transform="translate(0,-952.36218)"><path style="fill:url(#radialGradient7405);fill-opacity:1;fill-rule:nonzero;stroke:none;stroke-width:2;stroke-miterlimit:4;stroke-opacity:1;stroke-dasharray:none;filter:url(#filter7438)" id="path3771-0" d="M 80,50 C 80,66.568542 66.568542,80 50,80 33.431458,80 20,66.568542 20,50 20,33.431458 33.431458,20 50,20 66.568542,20 80,33.431458 80,50 z" transform="translate(0,952.36218)"/><path style="fill:url(#radialGradient3781);fill-opacity:1;fill-rule:nonzero;stroke:#000;stroke-width:2;stroke-miterlimit:4;stroke-opacity:1;stroke-dasharray:none" id="path3771" d="M 80,50 C 80,66.568542 66.568542,80 50,80 33.431458,80 20,66.568542 20,50 20,33.431458 33.431458,20 50,20 66.568542,20 80,33.431458 80,50 z" transform="translate(0,952.36218)"/><path style="fill:url(#linearGradient6024);fill-opacity:1;stroke:#000;stroke-width:1px;stroke-linecap:butt;stroke-linejoin:miter;stroke-opacity:1" id="path6016" d="M 31.164266,987.59672 45,992.36218 l 0,5 -20,0 6.164266,-9.76546 z"/><path style="fill:url(#linearGradient6072);stroke:none;stroke-width:1px;stroke-linecap:butt;stroke-linejoin:miter;stroke-opacity:1;fill-opacity:1" id="path6064" d="m 20,55 c 0.493157,-7.13607 0,0 0,-10 C 40,60 50,65 75,65 70.044482,76.739857 55.268414,80.037664 45,80 34.884506,74.95681 24.186368,70.989269 20,55 z" transform="translate(0,952.36218)"/><path style="fill:url(#linearGradient6043);fill-opacity:1;stroke:#000;stroke-width:1px;stroke-linecap:butt;stroke-linejoin:miter;stroke-opacity:1" id="path6016-3" d="M 68.835734,987.59672 55,992.36218 l 0,5 20,0 -6.164266,-9.76546 z"/><path style="fill:url(#linearGradient6082);stroke:none;stroke-width:1px;stroke-linecap:butt;stroke-linejoin:miter;stroke-opacity:1;fill-opacity:1" id="path6074" d="M 28.597573,28.548585 C 42.586351,26.600642 56.57513,25.191275 70.563908,27.898461 64.809615,24.188908 57.975421,21.424268 50.333286,19.366576 39.181786,20.70849 34.013239,24.682904 28.597573,28.548585 z" transform="translate(0,952.36218)"/></g></svg>