<svg xmlns="http://www.w3.org/2000/svg" xmlns:svg="http://www.w3.org/2000/svg" xmlns:xlink="http://www.w3.org/1999/xlink" id="svg2" width="100" height="100" version="1.1"><defs id="defs4"><linearGradient id="linearGradient5836"><stop style="stop-color:#f4d626;stop-opacity:1" id="stop5838" offset="0"/><stop style="stop-color:#eb4600;stop-opacity:1" id="stop5840" offset="1"/></linearGradient><linearGradient id="linearGradient3718"><stop style="stop-color:#d00;stop-opacity:1" id="stop3720" offset="0"/><stop style="stop-color:#680505;stop-opacity:1" id="stop3722" offset="1"/></linearGradient><linearGradient id="linearGradient3612"><stop id="stop3614" offset="0" style="stop-color:#645151;stop-opacity:1"/><stop id="stop3616" offset="1" style="stop-color:#5a2929;stop-opacity:1"/></linearGradient><linearGradient id="linearGradient3596"><stop style="stop-color:#341c1c;stop-opacity:1" id="stop3598" offset="0"/><stop style="stop-color:#983a3a;stop-opacity:1" id="stop3600" offset="1"/></linearGradient><linearGradient id="linearGradient3612-0"><stop id="stop3614-7" offset="0" style="stop-color:#ff5959;stop-opacity:1"/><stop id="stop3616-4" offset="1" style="stop-color:#ffa8a8;stop-opacity:1"/></linearGradient><linearGradient id="linearGradient3602-3" x1="100" x2="100" y1="1012.362" y2="962.362" gradientTransform="translate(0,-10.000003)" gradientUnits="userSpaceOnUse" xlink:href="#linearGradient3596-7"/><linearGradient id="linearGradient3596-7"><stop style="stop-color:#d20000;stop-opacity:1" id="stop3598-9" offset="0"/><stop style="stop-color:#f55;stop-opacity:1" id="stop3600-0" offset="1"/></linearGradient><radialGradient id="radialGradient3781" cx="50" cy="50" r="30" fx="50" fy="50" gradientUnits="userSpaceOnUse" xlink:href="#linearGradient3718"/><linearGradient id="linearGradient5844" x1="24.138" x2="65" y1="67.061" y2="67.061" gradientUnits="userSpaceOnUse" xlink:href="#linearGradient5836"/><filter id="filter5862" width="1.585" height="1.991" x="-.293" y="-.496"><feGaussianBlur id="feGaussianBlur5864" stdDeviation="4.982"/></filter><linearGradient id="linearGradient5844-6" x1="24.138" x2="65" y1="67.061" y2="67.061" gradientUnits="userSpaceOnUse" xlink:href="#linearGradient5836-8"/><linearGradient id="linearGradient5836-8"><stop style="stop-color:#f4d626;stop-opacity:1" id="stop5838-5" offset="0"/><stop style="stop-color:#eb4600;stop-opacity:1" id="stop5840-1" offset="1"/></linearGradient><filter id="filter5862-8" width="1.585" height="1.991" x="-.293" y="-.496" color-interpolation-filters="sRGB"><feGaussianBlur id="feGaussianBlur5864-5" stdDeviation="4.982"/></filter><linearGradient id="linearGradient5885" x1="24.138" x2="65" y1="67.061" y2="67.061" gradientTransform="translate(10,917.36216)" gradientUnits="userSpaceOnUse" xlink:href="#linearGradient5836-8"/><radialGradient id="radialGradient3781-1" cx="50" cy="50" r="30" fx="50" fy="50" gradientUnits="userSpaceOnUse" xlink:href="#linearGradient3718-3"/><linearGradient id="linearGradient3718-3"><stop style="stop-color:#d00;stop-opacity:1" id="stop3720-0" offset="0"/><stop style="stop-color:#680505;stop-opacity:1" id="stop3722-7" offset="1"/></linearGradient><radialGradient id="radialGradient6688" cx="50" cy="50" r="30" fx="50" fy="50" gradientUnits="userSpaceOnUse" xlink:href="#linearGradient3718-3"/><filter id="filter6737" width="1.619" height="1.619" x="-.309" y="-.309"><feGaussianBlur id="feGaussianBlur6739" stdDeviation="7.733"/></filter></defs><metadata id="metadata7"/><g id="layer1" transform="translate(0,-952.36218)"><path style="fill:url(#radialGradient6688);fill-opacity:1;fill-rule:nonzero;stroke:none;stroke-width:2;stroke-miterlimit:4;stroke-opacity:1;stroke-dasharray:none;filter:url(#filter6737)" id="path3771-1" d="m 80,50 a 30,30 0 1 1 -60,0 30,30 0 1 1 60,0 z" transform="translate(0,952.36218)"/><path style="fill:url(#radialGradient3781);fill-opacity:1;fill-rule:nonzero;stroke:#000;stroke-width:2;stroke-miterlimit:4;stroke-opacity:1;stroke-dasharray:none" id="path3771" d="M 80,50 C 80,66.568542 66.568542,80 50,80 33.431458,80 20,66.568542 20,50 20,33.431458 33.431458,20 50,20 66.568542,20 80,33.431458 80,50 z" transform="translate(0,952.36218)"/><path style="fill:url(#linearGradient5885);fill-opacity:1;stroke:none;filter:url(#filter5862-8)" id="path5324-2" d="M 34.137875,980.44538 55,972.36218 l 20,20 c -15,5.00002 -27.56264,9.40152 -40.862125,-11.9168 z"/><path style="fill:#fff;fill-opacity:1;fill-rule:nonzero;stroke:#000;stroke-width:2;stroke-linecap:butt;stroke-linejoin:miter;stroke-miterlimit:4;stroke-opacity:1;stroke-dasharray:none" id="path3730-7" d="m 59.999999,39.956055 c 0,2.785694 -1.274262,5.043946 -2.846145,5.043946 -1.571882,0 -2.846145,-2.258252 -2.846145,-5.043946 0,-2.785695 1.274263,-5.043947 2.846145,-5.043947 1.571883,0 2.846145,2.258252 2.846145,5.043947 z" transform="matrix(-0.19999497,0.47904085,1.002112,0.49564354,11.335442,947.67919)"/><path style="fill:#fff;fill-opacity:1;fill-rule:nonzero;stroke:#000;stroke-width:2;stroke-linecap:butt;stroke-linejoin:miter;stroke-miterlimit:4;stroke-opacity:1;stroke-dasharray:none" id="path3730-7-9" d="m 59.999999,39.956055 c 0,2.785694 -1.274262,5.043946 -2.846145,5.043946 -1.571882,0 -2.846145,-2.258252 -2.846145,-5.043946 0,-2.785695 1.274263,-5.043947 2.846145,-5.043947 1.571883,0 2.846145,2.258252 2.846145,5.043947 z" transform="matrix(0.19999497,0.47904085,-1.002112,0.49564354,88.664558,947.67919)"/><path style="fill:url(#linearGradient5844);stroke:none;stroke-width:1px;stroke-linecap:butt;stroke-linejoin:miter;stroke-opacity:1;fill-opacity:1;filter:url(#filter5862)" id="path5324" d="M 24.137875,63.08325 45,55 65,75 C 50,80 37.43736,84.401546 24.137875,63.08325 z" transform="translate(0,952.36218)"/></g></svg>