<svg xmlns="http://www.w3.org/2000/svg" xmlns:svg="http://www.w3.org/2000/svg" xmlns:xlink="http://www.w3.org/1999/xlink" id="svg2" width="100" height="100" version="1.1"><defs id="defs4"><linearGradient id="linearGradient6591"><stop style="stop-color:#363636;stop-opacity:1" id="stop6593" offset="0"/><stop style="stop-color:#4a4a4a;stop-opacity:1" id="stop6595" offset="1"/></linearGradient><linearGradient id="linearGradient3718"><stop style="stop-color:#9d9d9d;stop-opacity:1" id="stop3720" offset="0"/><stop style="stop-color:silver;stop-opacity:1" id="stop3722" offset="1"/></linearGradient><linearGradient id="linearGradient3612"><stop id="stop3614" offset="0" style="stop-color:#645151;stop-opacity:1"/><stop id="stop3616" offset="1" style="stop-color:#5a2929;stop-opacity:1"/></linearGradient><linearGradient id="linearGradient3596"><stop style="stop-color:#341c1c;stop-opacity:1" id="stop3598" offset="0"/><stop style="stop-color:#983a3a;stop-opacity:1" id="stop3600" offset="1"/></linearGradient><linearGradient id="linearGradient3612-0"><stop id="stop3614-7" offset="0" style="stop-color:#ff5959;stop-opacity:1"/><stop id="stop3616-4" offset="1" style="stop-color:#ffa8a8;stop-opacity:1"/></linearGradient><linearGradient id="linearGradient3602-3" x1="100" x2="100" y1="1012.362" y2="962.362" gradientTransform="translate(0,-10.000003)" gradientUnits="userSpaceOnUse" xlink:href="#linearGradient3596-7"/><linearGradient id="linearGradient3596-7"><stop style="stop-color:#d20000;stop-opacity:1" id="stop3598-9" offset="0"/><stop style="stop-color:#f55;stop-opacity:1" id="stop3600-0" offset="1"/></linearGradient><radialGradient id="radialGradient3781" cx="50" cy="50" r="30" fx="50" fy="50" gradientUnits="userSpaceOnUse" xlink:href="#linearGradient3718"/><radialGradient id="radialGradient6599" cx="27.851" cy="51.627" r="7.649" fx="27.851" fy="51.627" gradientTransform="matrix(1,0,0,1.8137144,0,910.35263)" gradientUnits="userSpaceOnUse" xlink:href="#linearGradient6591"/><filter id="filter6613" width="2.072" height="1.573" x="-.536" y="-.286"><feGaussianBlur id="feGaussianBlur6615" stdDeviation="3.192"/></filter><radialGradient id="radialGradient3781-5" cx="50" cy="50" r="30" fx="50" fy="50" gradientUnits="userSpaceOnUse" xlink:href="#linearGradient3718-2"/><linearGradient id="linearGradient3718-2"><stop style="stop-color:#9d9d9d;stop-opacity:1" id="stop3720-4" offset="0"/><stop style="stop-color:silver;stop-opacity:1" id="stop3722-3" offset="1"/></linearGradient><filter id="filter6667" width="1.565" height="1.565" x="-.283" y="-.283"><feGaussianBlur id="feGaussianBlur6669" stdDeviation="7.067"/></filter></defs><metadata id="metadata7"/><g id="layer1" transform="translate(0,-952.36218)"><path style="fill:#000;fill-opacity:1;fill-rule:nonzero;stroke:#000;stroke-width:2;stroke-miterlimit:4;stroke-opacity:1;stroke-dasharray:none;filter:url(#filter6667)" id="path3771-5" d="m 80,50 a 30,30 0 1 1 -60,0 30,30 0 1 1 60,0 z" transform="translate(0,952.36218)"/><path style="fill:url(#radialGradient3781);fill-opacity:1;fill-rule:nonzero;stroke:#000;stroke-opacity:1;stroke-width:2;stroke-miterlimit:4;stroke-dasharray:none" id="path3771" d="M 80,50 C 80,66.568542 66.568542,80 50,80 33.431458,80 20,66.568542 20,50 20,33.431458 33.431458,20 50,20 66.568542,20 80,33.431458 80,50 z" transform="translate(0,952.36218)"/><path style="fill:#fff;fill-opacity:1;fill-rule:nonzero;stroke:#000;stroke-width:2;stroke-linecap:butt;stroke-linejoin:miter;stroke-miterlimit:4;stroke-opacity:1" id="path3730" d="m 59.999999,39.956055 c 0,2.785694 -1.274262,5.043946 -2.846145,5.043946 -1.571882,0 -2.846145,-2.258252 -2.846145,-5.043946 0,-2.785695 1.274263,-5.043947 2.846145,-5.043947 1.571883,0 2.846145,2.258252 2.846145,5.043947 z" transform="matrix(0.87838101,0,0,1,9.7971397,952.45007)"/><path style="fill:#fff;fill-opacity:1;fill-rule:nonzero;stroke:#000;stroke-width:2;stroke-linecap:butt;stroke-linejoin:miter;stroke-miterlimit:4;stroke-opacity:1;stroke-dasharray:none" id="path3730-2" d="m 59.999999,39.956055 c 0,2.785694 -1.274262,5.043946 -2.846145,5.043946 -1.571882,0 -2.846145,-2.258252 -2.846145,-5.043946 0,-2.785695 1.274263,-5.043947 2.846145,-5.043947 1.571883,0 2.846145,2.258252 2.846145,5.043947 z" transform="matrix(0.87838101,0,0,1,-10.20286,952.45007)"/><path style="fill:url(#radialGradient6599);fill-opacity:1;stroke:#000;stroke-width:1px;stroke-linecap:butt;stroke-linejoin:miter;stroke-opacity:1;filter:url(#filter6613);opacity:.62895928" id="path6079" d="M 21.58607,990.61598 35,1012.3622 l 35,15 c -25,20 -65,-10 -48.41393,-36.74622 z"/></g></svg>