<svg xmlns="http://www.w3.org/2000/svg" xmlns:svg="http://www.w3.org/2000/svg" xmlns:xlink="http://www.w3.org/1999/xlink" id="svg2" width="100" height="100" version="1.1"><defs id="defs4"><linearGradient id="linearGradient3923"><stop style="stop-color:#fef3b0;stop-opacity:1" id="stop3925" offset="0"/><stop style="stop-color:#fff;stop-opacity:1" id="stop3927" offset="1"/></linearGradient><linearGradient id="linearGradient3718"><stop style="stop-color:#ffed84;stop-opacity:1" id="stop3720" offset="0"/><stop style="stop-color:#fdf8d9;stop-opacity:1" id="stop3722" offset="1"/></linearGradient><linearGradient id="linearGradient3612"><stop id="stop3614" offset="0" style="stop-color:#645151;stop-opacity:1"/><stop id="stop3616" offset="1" style="stop-color:#5a2929;stop-opacity:1"/></linearGradient><linearGradient id="linearGradient3596"><stop style="stop-color:#341c1c;stop-opacity:1" id="stop3598" offset="0"/><stop style="stop-color:#983a3a;stop-opacity:1" id="stop3600" offset="1"/></linearGradient><linearGradient id="linearGradient3612-0"><stop id="stop3614-7" offset="0" style="stop-color:#ff5959;stop-opacity:1"/><stop id="stop3616-4" offset="1" style="stop-color:#ffa8a8;stop-opacity:1"/></linearGradient><linearGradient id="linearGradient3602-3" x1="100" x2="100" y1="1012.362" y2="962.362" gradientTransform="translate(0,-10.000003)" gradientUnits="userSpaceOnUse" xlink:href="#linearGradient3596-7"/><linearGradient id="linearGradient3596-7"><stop style="stop-color:#d20000;stop-opacity:1" id="stop3598-9" offset="0"/><stop style="stop-color:#f55;stop-opacity:1" id="stop3600-0" offset="1"/></linearGradient><radialGradient id="radialGradient3781" cx="50" cy="50" r="30" fx="50" fy="50" gradientUnits="userSpaceOnUse" xlink:href="#linearGradient3718"/><linearGradient id="linearGradient3929" x1="30.875" x2="69.747" y1="72.308" y2="72.308" gradientTransform="translate(-0.25100081,949.35017)" gradientUnits="userSpaceOnUse" xlink:href="#linearGradient3923"/><filter id="filter3935" width="1.333" height="1.862" x="-.166" y="-.431"><feGaussianBlur id="feGaussianBlur3937" stdDeviation="2.624"/></filter><linearGradient id="linearGradient3929-7" x1="30.875" x2="69.747" y1="72.308" y2="72.308" gradientTransform="translate(-0.25100081,949.35017)" gradientUnits="userSpaceOnUse" xlink:href="#linearGradient3923-0"/><linearGradient id="linearGradient3923-0"><stop style="stop-color:#fef3b0;stop-opacity:1" id="stop3925-4" offset="0"/><stop style="stop-color:#dfdba4;stop-opacity:1" id="stop3927-9" offset="1"/></linearGradient><filter id="filter3935-6" width="1.333" height="1.862" x="-.166" y="-.431" color-interpolation-filters="sRGB"><feGaussianBlur id="feGaussianBlur3937-9" stdDeviation="2.624"/></filter><linearGradient id="linearGradient3958" x1="30.875" x2="69.747" y1="72.308" y2="72.308" gradientTransform="translate(35.531227,929.85423)" gradientUnits="userSpaceOnUse" xlink:href="#linearGradient3923-0"/><radialGradient id="radialGradient3781-9" cx="50" cy="50" r="30" fx="50" fy="50" gradientUnits="userSpaceOnUse" xlink:href="#linearGradient3718-0"/><linearGradient id="linearGradient3718-0"><stop style="stop-color:#fffad4;stop-opacity:1" id="stop3720-7" offset="0"/><stop style="stop-color:#f5f13e;stop-opacity:1" id="stop3722-0" offset="1"/></linearGradient><radialGradient id="radialGradient7405" cx="50" cy="50" r="30" fx="50" fy="50" gradientUnits="userSpaceOnUse" xlink:href="#linearGradient3718-0"/><filter id="filter7438" width="1.608" height="1.608" x="-.304" y="-.304"><feGaussianBlur id="feGaussianBlur7440" stdDeviation="7.6"/></filter></defs><metadata id="metadata7"/><g id="layer1" transform="translate(0,-952.36218)"><path style="fill:url(#radialGradient7405);fill-opacity:1;fill-rule:nonzero;stroke:none;stroke-width:2;stroke-miterlimit:4;stroke-opacity:1;stroke-dasharray:none;filter:url(#filter7438)" id="path3771-0" d="M 80,50 C 80,66.568542 66.568542,80 50,80 33.431458,80 20,66.568542 20,50 20,33.431458 33.431458,20 50,20 66.568542,20 80,33.431458 80,50 z" transform="translate(0,952.36218)"/><path style="fill:url(#radialGradient3781);fill-opacity:1;fill-rule:nonzero;stroke:#000;stroke-width:2;stroke-miterlimit:4;stroke-opacity:1;stroke-dasharray:none" id="path3771" d="M 80,50 C 80,66.568542 66.568542,80 50,80 33.431458,80 20,66.568542 20,50 20,33.431458 33.431458,20 50,20 66.568542,20 80,33.431458 80,50 z" transform="translate(0,952.36218)"/><path style="fill:url(#linearGradient3958);fill-opacity:1;stroke:none;filter:url(#filter3935-6)" id="path3921-5" d="m 66.906329,1003.4991 18.624898,-8.64487 19.247003,8.24297 c -10.569231,5.7992 -25.442192,10.6492 -37.871901,0.4019 z" transform="matrix(-0.26870739,-0.96322185,0.96322185,-0.26870739,-873.46364,1347.8605)"/><path style="fill:url(#linearGradient3929);fill-opacity:1;stroke:none;filter:url(#filter3935)" id="path3921" d="m 31.1241,1022.9951 18.624899,-8.6449 19.246998,8.243 c -10.569226,5.7992 -25.442187,10.6492 -37.871897,0.4019 z"/><path style="fill:none;stroke:#000;stroke-width:2;stroke-linecap:butt;stroke-linejoin:miter;stroke-miterlimit:4;stroke-opacity:1;stroke-dasharray:none" id="path5720" d="m 34.921325,996.78775 5.059083,-9.42557 5.019592,10"/><path style="fill:none;stroke:#000;stroke-width:2;stroke-linecap:butt;stroke-linejoin:miter;stroke-miterlimit:4;stroke-opacity:1;stroke-dasharray:none" id="path5720-3" d="m 65.078675,996.78775 -5.059083,-9.42557 -5.019592,10"/></g></svg>