<svg xmlns="http://www.w3.org/2000/svg" xmlns:svg="http://www.w3.org/2000/svg" xmlns:xlink="http://www.w3.org/1999/xlink" id="svg2" width="35" height="35" version="1.1"><defs id="defs4"><linearGradient id="linearGradient4382"><stop style="stop-color:#000;stop-opacity:1" id="stop4384" offset="0"/><stop style="stop-color:#505050;stop-opacity:1" id="stop4386" offset="1"/></linearGradient><filter id="filter3662" width="2.237" height="2.237" x="-.619" y="-.619"><feGaussianBlur id="feGaussianBlur3664" stdDeviation="9.022"/></filter><radialGradient id="radialGradient4388" cx="17.563" cy="17.625" r="2.438" fx="17.563" fy="17.625" gradientTransform="matrix(1,0,0,0.97435897,0,0.45192308)" gradientUnits="userSpaceOnUse" xlink:href="#linearGradient4382"/><filter id="filter4456" width="1.347" height="1.357" x="-.174" y="-.178"><feGaussianBlur id="feGaussianBlur4458" stdDeviation=".353"/></filter></defs><metadata id="metadata7"/><g id="layer1" transform="translate(0,-1017.3622)"><path style="opacity:.3800905;fill:#000;fill-opacity:1;fill-rule:nonzero;stroke:none;filter:url(#filter3662)" id="path3592" d="M 35,17.5 C 35,27.164983 27.164983,35 17.5,35 7.8350169,35 0,27.164983 0,17.5 0,7.8350169 7.8350169,0 17.5,0 27.164983,0 35,7.8350169 35,17.5 z" transform="matrix(0.42857143,0,0,0.42857143,10,1027.3622)"/><path style="opacity:1;fill:url(#radialGradient4388);fill-opacity:1;fill-rule:nonzero;stroke:none;filter:url(#filter4456)" id="path4380" d="M 20,17.625 C 20,18.936676 18.908694,20 17.5625,20 16.216306,20 15.125,18.936676 15.125,17.625 c 0,-1.311676 1.091306,-2.375 2.4375,-2.375 1.346194,0 2.4375,1.063324 2.4375,2.375 z" transform="matrix(5.1282053,0,0,5.2631583,-72.564106,942.09903)"/></g></svg>