<svg xmlns="http://www.w3.org/2000/svg" xmlns:svg="http://www.w3.org/2000/svg" id="svg2" width="35" height="35" version="1.1"><defs id="defs4"><filter id="filter3662" width="2.237" height="2.237" x="-.619" y="-.619"><feGaussianBlur id="feGaussianBlur3664" stdDeviation="9.022"/></filter><filter id="filter3682" width="1.144" height="1.72" x="-.072" y="-.36"><feGaussianBlur id="feGaussianBlur3684" stdDeviation=".75"/></filter><filter id="filter3682-6" width="1.144" height="1.72" x="-.072" y="-.36" color-interpolation-filters="sRGB"><feGaussianBlur id="feGaussianBlur3684-4" stdDeviation=".75"/></filter><filter id="filter3682-6-8" width="1.144" height="1.72" x="-.072" y="-.36" color-interpolation-filters="sRGB"><feGaussianBlur id="feGaussianBlur3684-4-3" stdDeviation=".75"/></filter></defs><metadata id="metadata7"/><g id="layer1" transform="translate(0,-1017.3622)"><path style="opacity:.3800905;fill:#2dac00;fill-opacity:1;fill-rule:nonzero;stroke:none;filter:url(#filter3662)" id="path3592" d="m 35,17.5 a 17.5,17.5 0 1 1 -35,0 17.5,17.5 0 1 1 35,0 z" transform="matrix(0.42857143,0,0,0.42857143,10,1027.3622)"/><rect style="opacity:.70778282000000003;fill:#34b928;fill-opacity:1;fill-rule:nonzero;stroke:none;filter:url(#filter3682-6)" id="rect2818-7" width="25" height="5" x="5" y="1032.362" transform="matrix(0,-1,1,0,-1017.3622,1052.3622)"/><rect style="opacity:.70778282;fill:#34b928;fill-opacity:1;fill-rule:nonzero;stroke:none;filter:url(#filter3682-6-8)" id="rect2818-7-7" width="25" height="5" x="5" y="1032.362" transform="matrix(-1,0,0,-1,34.999983,2069.7244)"/></g></svg>