<svg xmlns="http://www.w3.org/2000/svg" xmlns:svg="http://www.w3.org/2000/svg" xmlns:xlink="http://www.w3.org/1999/xlink" id="svg2" width="35" height="35" version="1.1"><defs id="defs4"><marker id="Tail" orient="auto" refX="0" refY="0" style="overflow:visible"><g id="g4543" transform="scale(-1.2)"><path id="path4545" d="M -3.8048674,-3.9585227 L 0.54352094,0" style="fill:none;fill-rule:evenodd;stroke:#000;stroke-width:.8;marker-start:none;marker-end:none;stroke-linecap:round"/><path id="path4547" d="M -1.2866832,-3.9585227 L 3.0617053,0" style="fill:none;fill-rule:evenodd;stroke:#000;stroke-width:.8;marker-start:none;marker-end:none;stroke-linecap:round"/><path id="path4549" d="M 1.3053582,-3.9585227 L 5.6537466,0" style="fill:none;fill-rule:evenodd;stroke:#000;stroke-width:.8;marker-start:none;marker-end:none;stroke-linecap:round"/><path id="path4551" d="M -3.8048674,4.1775838 L 0.54352094,0.21974226" style="fill:none;fill-rule:evenodd;stroke:#000;stroke-width:.8;marker-start:none;marker-end:none;stroke-linecap:round"/><path id="path4553" d="M -1.2866832,4.1775838 L 3.0617053,0.21974226" style="fill:none;fill-rule:evenodd;stroke:#000;stroke-width:.8;marker-start:none;marker-end:none;stroke-linecap:round"/><path id="path4555" d="M 1.3053582,4.1775838 L 5.6537466,0.21974226" style="fill:none;fill-rule:evenodd;stroke:#000;stroke-width:.8;marker-start:none;marker-end:none;stroke-linecap:round"/></g></marker><linearGradient id="linearGradient4382"><stop style="stop-color:#eaef00;stop-opacity:1" id="stop4384" offset="0"/><stop style="stop-color:#f4f694;stop-opacity:1" id="stop4386" offset="1"/></linearGradient><filter id="filter3662" width="2.237" height="2.237" x="-.619" y="-.619"><feGaussianBlur id="feGaussianBlur3664" stdDeviation="9.022"/></filter><radialGradient id="radialGradient4388" cx="17.563" cy="17.625" r="2.438" fx="17.563" fy="17.625" gradientTransform="matrix(1,0,0,0.97435897,0,0.45192308)" gradientUnits="userSpaceOnUse" xlink:href="#linearGradient4382"/><filter id="filter4456" width="1.347" height="1.357" x="-.174" y="-.178"><feGaussianBlur id="feGaussianBlur4458" stdDeviation=".353"/></filter><filter id="filter4976"><feGaussianBlur id="feGaussianBlur4978" stdDeviation=".261"/></filter></defs><metadata id="metadata7"/><g id="layer1" transform="translate(0,-1017.3622)"><path style="opacity:.3800905;fill:#ffe84e;fill-opacity:1;fill-rule:nonzero;stroke:none;filter:url(#filter3662)" id="path3592" d="M 35,17.5 C 35,27.164983 27.164983,35 17.5,35 7.8350169,35 0,27.164983 0,17.5 0,7.8350169 7.8350169,0 17.5,0 27.164983,0 35,7.8350169 35,17.5 z" transform="matrix(0.42857143,0,0,0.42857143,10,1027.3622)"/><path style="opacity:.70778282;fill:url(#radialGradient4388);fill-opacity:1;fill-rule:nonzero;stroke:none;filter:url(#filter4456)" id="path4380" d="m 20,17.625 a 2.4375,2.375 0 1 1 -4.875,0 2.4375,2.375 0 1 1 4.875,0 z" transform="matrix(5.1282051,0,0,5.2631588,-72.564102,942.09902)"/><path style="opacity:.43891404;fill:none;stroke:#000;stroke-width:1;stroke-linecap:butt;stroke-linejoin:miter;stroke-miterlimit:4;stroke-opacity:1;stroke-dasharray:1,2;stroke-dashoffset:0;marker-start:url(#Tail);filter:url(#filter4976)" id="path4502" d="m 18,1034.3622 0,-5" transform="matrix(-1,0,0,-1,35.737127,2070.4889)"/></g></svg>