<svg xmlns="http://www.w3.org/2000/svg" xmlns:svg="http://www.w3.org/2000/svg" xmlns:xlink="http://www.w3.org/1999/xlink" id="svg4895" width="200" height="200" version="1.0"><metadata id="metadata77"/><defs id="defs3"><linearGradient id="linearGradient4993"><stop style="stop-color:#fff;stop-opacity:1" id="stop4995" offset="0"/><stop style="stop-color:#fff;stop-opacity:0" id="stop4997" offset="1"/></linearGradient><linearGradient id="linearGradient4864"><stop style="stop-color:#4c4c4c;stop-opacity:1" id="stop4866" offset="0"/><stop style="stop-color:#111;stop-opacity:1" id="stop4868" offset="1"/></linearGradient><linearGradient id="WhiteTransparent"><stop style="stop-color:white;stop-opacity:1" id="stop6" offset="0"/><stop style="stop-color:white;stop-opacity:0" id="stop8" offset="1"/></linearGradient><linearGradient id="BlackTransparent"><stop style="stop-color:black;stop-opacity:1" id="stop11" offset="0"/><stop style="stop-color:black;stop-opacity:0" id="stop13" offset="1"/></linearGradient><linearGradient id="lg1999" x1="637.03" x2="638.3" y1="69.99" y2="118.3" gradientTransform="matrix(0.1,0.1,-0.22,0.2,75.6,-33.53)" gradientUnits="userSpaceOnUse" xlink:href="#WhiteTransparent"/><linearGradient id="lg02" x1="512.7" x2="615.59" y1="254.36" y2="254.83" gradientTransform="matrix(0.0807,0.0775,-0.35,0.36,77.14,-45.89)" gradientUnits="userSpaceOnUse" xlink:href="#WhiteTransparent"/><linearGradient id="lg05" x1="543.1" x2="419.88" y1="286.56" y2="286.56" gradientTransform="matrix(0.0998,0.0998,-0.28,0.28,78.84,-44.8)" gradientUnits="userSpaceOnUse" spreadMethod="pad" xlink:href="#BlackTransparent"/><linearGradient id="lg09" x1="258.96" x2="258.96" y1="62.74" y2="-1.72" gradientTransform="matrix(0.33,0.33,-0.0944,0.0944,9.03,-48.1)" gradientUnits="userSpaceOnUse" xlink:href="#WhiteTransparent"/><linearGradient id="lg12" x1="146.15" x2="146.15" y1="288.57" y2="368.27" gradientTransform="matrix(0.3,0.3,-0.09,0.09,78.84,-44.8)" gradientUnits="userSpaceOnUse" xlink:href="#WhiteTransparent"/><linearGradient id="lg16" x1="577.03" x2="626.1" y1="124" y2="124" gradientTransform="matrix(0.0775,0.0775,-0.36,0.36,78.84,-44.8)" gradientUnits="userSpaceOnUse" spreadMethod="pad" xlink:href="#WhiteTransparent"/><linearGradient id="lg19" x1="2482.957" x2="2375.498" y1="6145.308" y2="6037.526" gradientUnits="userSpaceOnUse" xlink:href="#BlackTransparent"/><linearGradient id="lg51" x1="646.24" x2="607.66" y1="-252.6" y2="-186.26" gradientTransform="matrix(0.2,0,0,0.2,-80.94,88.3)" gradientUnits="userSpaceOnUse" xlink:href="#WhiteTransparent"/><linearGradient id="lg55" x1="550.96" x2="655.42" y1="-137.5" y2="-241.2" gradientTransform="matrix(0.26,0,0,0.26,-106.57,101.57)" gradientUnits="userSpaceOnUse" xlink:href="#WhiteTransparent"/><linearGradient id="lgdg" x1="73.88" x2="84.3" y1="66.2" y2="86.68" gradientTransform="translate(-0.30267,-3.20138)" gradientUnits="userSpaceOnUse" xlink:href="#BlackTransparent"/><clipPath id="clipoutline1" clipPathUnits="userSpaceOnUse"><path id="outline1" d="m 22.42,17.2 12.96,12.95 -2.5,8.78 -8.78,2.5 -12.96,-12.96 -5.86,5.86 14.89,21.46 17.56,-3.34 61.63,65.62 c 9.44,9.51 22.17,-4.75 13.34,-12.87 L 46.85,42.92 50.86,25.16 28.72,10.89 22.42,17.2 z m 81.06,91.97 c 1.68,-1.68 4.4,-1.68 6.08,0 1.68,1.68 1.68,4.4 0,6.08 -1.68,1.67 -4.4,1.67 -6.08,0 -1.68,-1.68 -1.68,-4.4 0,-6.08 z"/></clipPath><clipPath id="clipoutline2" clipPathUnits="userSpaceOnUse"><path id="outline2" d="m 55.8,12 0.76,0.16 c 8.84,-2.94 28.68,8.64 24.26,18.96 -1.12,1.62 -0.93,4.5 0.42,6.31 L 56.43,62.25 c -1.39,-1.39 -4.48,-1.36 -5.9,0 L 9.5,101.63 c -3.74,3.59 -0.8,6.64 0.78,8.25 l 7.36,7.36 c 1.61,1.6 5.86,3.76 8.88,0.56 L 65.24,76.99 c 1.35,-1.42 1.36,-4.47 0,-5.87 0,0 0.01,-0.02 0,-0.02 L 90.15,46.2 c 2.63,2.37 5.113827,2.574854 7.47,1.93 4.55057,-1.245432 7.08725,3.206643 9.81,6.46 l -1.23,1.21 c -1.82,1.84 -1.65,4.94 0.39,6.98 2.04,2.04 5.15,2.21 6.97,0.39 l 8.14,-8.13 c 1.82,-1.84 1.65,-4.94 -0.4,-6.97 -1.84,-1.85 -4.51,-2.09 -6.37,-0.77 -5.58,-6.26 -2.65,-7.2 -10.01,-15.35 L 91.13,17.86 C 81.2,8.12 68.3,8.13 55.8,12 z"/></clipPath><filter id="ShadowBlur" x="0" y="0" color-interpolation-filters="sRGB" filterUnits="userSpaceOnUse"><feGaussianBlur id="feGaussianBlur6" in="SourceGraphic" stdDeviation="2"/></filter><linearGradient id="linearGradient2637" x1="73.88" x2="84.3" y1="66.2" y2="86.68" gradientTransform="translate(-0.30267,-3.20138)" gradientUnits="userSpaceOnUse" xlink:href="#BlackTransparent"/><linearGradient id="linearGradient2646" x1="2482.957" x2="2375.498" y1="6145.308" y2="6037.526" gradientUnits="userSpaceOnUse" xlink:href="#BlackTransparent"/><linearGradient id="linearGradient2648" x1="577.03" x2="626.1" y1="124" y2="124" gradientTransform="matrix(0.0775,0.0775,-0.36,0.36,78.84,-44.8)" gradientUnits="userSpaceOnUse" spreadMethod="pad" xlink:href="#WhiteTransparent"/><linearGradient id="linearGradient2650" x1="146.15" x2="146.15" y1="288.57" y2="368.27" gradientTransform="matrix(0.3,0.3,-0.09,0.09,78.84,-44.8)" gradientUnits="userSpaceOnUse" xlink:href="#WhiteTransparent"/><linearGradient id="linearGradient2652" x1="258.96" x2="258.96" y1="62.74" y2="-1.72" gradientTransform="matrix(0.33,0.33,-0.0944,0.0944,9.03,-48.1)" gradientUnits="userSpaceOnUse" xlink:href="#WhiteTransparent"/><linearGradient id="linearGradient2654" x1="543.1" x2="419.88" y1="286.56" y2="286.56" gradientTransform="matrix(0.0998,0.0998,-0.28,0.28,78.84,-44.8)" gradientUnits="userSpaceOnUse" spreadMethod="pad" xlink:href="#BlackTransparent"/><linearGradient id="linearGradient2656" x1="512.7" x2="615.59" y1="254.36" y2="254.83" gradientTransform="matrix(0.0807,0.0775,-0.35,0.36,77.14,-45.89)" gradientUnits="userSpaceOnUse" xlink:href="#WhiteTransparent"/><linearGradient id="linearGradient2658" x1="637.03" x2="638.3" y1="69.99" y2="118.3" gradientTransform="matrix(0.1,0.1,-0.22,0.2,75.6,-33.53)" gradientUnits="userSpaceOnUse" xlink:href="#WhiteTransparent"/><linearGradient id="linearGradient2660" x1="550.96" x2="655.42" y1="-137.5" y2="-241.2" gradientTransform="matrix(0.26,0,0,0.26,-106.57,101.57)" gradientUnits="userSpaceOnUse" xlink:href="#WhiteTransparent"/><linearGradient id="linearGradient2662" x1="646.24" x2="607.66" y1="-252.6" y2="-186.26" gradientTransform="matrix(0.2,0,0,0.2,-80.94,88.3)" gradientUnits="userSpaceOnUse" xlink:href="#WhiteTransparent"/><filter id="filter4904"><feGaussianBlur id="feGaussianBlur4906" stdDeviation="4.553"/></filter><linearGradient id="linearGradient4989" x1="6.631" x2="183.667" y1="20.673" y2="156.499" gradientUnits="userSpaceOnUse" xlink:href="#linearGradient4864"/><linearGradient id="linearGradient4999" x1="16.717" x2="50.703" y1="59.507" y2="78.758" gradientUnits="userSpaceOnUse" xlink:href="#linearGradient4993"/><filter id="filter5505" width="1.24" height="1.24" x="-.12" y="-.12" color-interpolation-filters="sRGB"><feGaussianBlur id="feGaussianBlur5507" stdDeviation="10"/></filter></defs><style id="style31" type="text/css">.low-specularity{opacity:.25}.specularity{opacity:.5}.low-shade{opacity:.25}.aluminium2{fill:#d3d7cf}.aluminium6{fill:#2e3436}.outline-big{stroke:#000;stroke-width:8;opacity:.25;stroke-linejoin:round}.outline-small,.stroke-highlight{stroke-width:4;stroke-linejoin:round}.outline-small{stroke:#000;opacity:.5}.stroke-highlight{fill:none;stroke:#fff;stroke-opacity:.2}</style><path id="path5503" d="m 200,100 a 100,100 0 1 1 -0.0198,-1.991539" transform="matrix(0.76775432,0,0,0.76775432,23.224568,23.224568)" style="fill:none;stroke:#304f54;stroke-width:12.5;stroke-linecap:square;stroke-miterlimit:4;stroke-opacity:1;stroke-dasharray:none;filter:url(#filter5505)"/><path style="opacity:.75;fill:url(#linearGradient4989);fill-opacity:1;stroke:#000;stroke-width:5;stroke-linecap:square;stroke-miterlimit:4;stroke-opacity:1;stroke-dasharray:none" id="path4094" d="m 200,100 a 100,100 0 1 1 -0.0198,-1.991539" transform="matrix(0.83690902,0,0,0.83690902,16.309098,16.309098)"/><g id="hammer" transform="translate(34.679083,35.483191)"><use style="opacity:.25;stroke:#000;stroke-width:8;stroke-linejoin:round" id="use50" width="128" height="128" x="0" y="0" class="outline-big" xlink:href="#outline2"/><use style="opacity:.5;stroke:#000;stroke-width:4;stroke-linejoin:round" id="use52" width="128" height="128" x="0" y="0" class="outline-small stroke-aluminium5" xlink:href="#outline2"/><path style="fill:#d3d7cf" id="path54" d="M 82.92,35.75 53.47,65.2 62.3,74.03 91.75,44.59 82.92,35.75 z" class="aluminium2"/><path id="path56" d="M 88.93,41.76 59.48,71.2 62.3,74.03 91.75,44.59 88.93,41.76 z" class="specularity" style="opacity:.5;fill:url(#linearGradient2646)"/><path id="path58" d="M 86.46,37.04 57.13,66.37 60.92,70.16 89.5,40.08 86.46,37.04 z" style="fill:url(#linearGradient2648)"/><path style="fill:#2e3436" id="path60" d="m 55.8,12 0.76,0.16 c 8.84,-2.94 28.68,8.64 24.26,18.96 -1.12,1.62 -0.93,4.5 0.42,6.31 l 8.91,8.77 c 2.63,2.37 5.11,2.57 7.47,1.93 4.55,-1.23 7.08,3.2 9.81,6.46 l -1.23,1.21 c -1.82,1.84 -1.65,4.94 0.39,6.98 2.04,2.04 5.15,2.21 6.97,0.39 l 8.14,-8.13 c 1.82,-1.84 1.65,-4.94 -0.4,-6.97 -1.84,-1.85 -4.51,-2.09 -6.37,-0.77 -5.58,-6.26 -2.65,-7.2 -10.01,-15.35 L 91.13,17.86 C 81.2,8.12 68.3,8.13 55.8,12 z" class="aluminium6"/><path id="path62" d="m 114.93,47.3 c -5.58,-6.26 -2.65,-7.2 -10.01,-15.35 L 91.13,17.86 C 85.44,12.28 78.77,9.9 71.77,9.6 L 112.9,51.13 115.87535,48.4 114.93,47.3 z" class="specularity" style="opacity:.5;fill:url(#linearGradient2650)"/><path id="path64" d="m 81.45,28 c 0.05,1 -0.179343,2 -0.65,3.12 -1.1,1.62 -0.91,4.5 0.44,6.31 l 8.91,8.77 c 2.63,2.37 5.11,2.57 7.47,1.93 1.08,-0.33 2.06,-0.27 2.98,0 C 103.4,48.9 81.44,27.58 81.45,27.9 l 0,0.1 z" class="low-specularity" style="opacity:.5;fill:url(#linearGradient2652)"/><path id="path66" d="m 56.43,62.25 c -1.39,-1.39 -4.48,-1.36 -5.9,0 L 9.5,101.63 c -3.74,3.59 -0.82,6.64 0.78,8.25 l 7.36,7.36 c 1.61,1.6 5.86,3.76 8.88,0.56 L 65.24,76.99 c 1.35,-1.42 1.36,-4.47 0,-5.87 0,0 0.01,-0.02 0,-0.02 l -8.81,-8.85 z" style="fill:#3465a4"/><path id="path68" d="m 10.27,109.87 7.36,7.37 c 1.61,1.6 5.73,3.89 8.75,0.71 L 65.25,76.98 c 1.35,-1.43 1.39,-4.5 0,-5.88 l -8.83,-8.84 -46.15,47.61 z" class="low-shade" style="opacity:.5;fill:url(#linearGradient2654)"/><path id="path70" d="m 51.2,65.7 -38.88,38.04 c -1.62,1.56 -1.07,3.75 0.1,4.89 L 16.55,112.6 58.92,69 55,65.32 c -0.84,-0.8 -2.8,-0.57 -3.8,0.38 z" class="specularity" style="opacity:.5;fill:url(#linearGradient2656)"/><use style="fill:none;stroke:#fff;stroke-width:4;stroke-linejoin:round;stroke-opacity:.2" id="use72" width="128" height="128" x="0" y="0" class="stroke-highlight" clip-path="url(#clipoutline2)" xlink:href="#outline2"/><path id="path74" d="m 120.45,49.26 c 1.51,1.44 1.8,3.44 -0.28,5.36 l -3.87,3.63 c -2.08,1.95 -7.52,-3.25 -5.45,-5.19 l 3.88,-3.63 c 2.07,-1.95 4.21,-1.61 5.72,-0.17 z" style="fill:url(#linearGradient2658)"/></g><g id="g4872" transform="translate(34.679083,35.483191)" style="filter:url(#filter4904);fill-opacity:1;fill:#fff;opacity:1"><use id="use4874" width="128" height="128" x="0" y="0" class="outline-big" xlink:href="#outline2" style="opacity:.25;stroke:#000;stroke-width:8;stroke-linejoin:round;fill-opacity:1;fill:#fff"/><use id="use4876" width="128" height="128" x="0" y="0" class="outline-small stroke-aluminium5" xlink:href="#outline2" style="opacity:.5;stroke:#000;stroke-width:4;stroke-linejoin:round;fill-opacity:1;fill:#fff"/><path id="path4878" d="M 82.92,35.75 53.47,65.2 62.3,74.03 91.75,44.59 82.92,35.75 z" class="aluminium2" style="fill:#fff;fill-opacity:1"/><path style="opacity:.5;fill:#fff;fill-opacity:1" id="path4880" d="M 88.93,41.76 59.48,71.2 62.3,74.03 91.75,44.59 88.93,41.76 z" class="specularity"/><path style="fill:#fff;fill-opacity:1" id="path4882" d="M 86.46,37.04 57.13,66.37 60.92,70.16 89.5,40.08 86.46,37.04 z"/><path id="path4884" d="m 55.8,12 0.76,0.16 c 8.84,-2.94 28.68,8.64 24.26,18.96 -1.12,1.62 -0.93,4.5 0.42,6.31 l 8.91,8.77 c 2.63,2.37 5.11,2.57 7.47,1.93 4.55,-1.23 7.08,3.2 9.81,6.46 l -1.23,1.21 c -1.82,1.84 -1.65,4.94 0.39,6.98 2.04,2.04 5.15,2.21 6.97,0.39 l 8.14,-8.13 c 1.82,-1.84 1.65,-4.94 -0.4,-6.97 -1.84,-1.85 -4.51,-2.09 -6.37,-0.77 -5.58,-6.26 -2.65,-7.2 -10.01,-15.35 L 91.13,17.86 C 81.2,8.12 68.3,8.13 55.8,12 z" class="aluminium6" style="fill:#fff;fill-opacity:1"/><path style="opacity:.5;fill:#fff;fill-opacity:1" id="path4886" d="m 114.93,47.3 c -5.58,-6.26 -2.65,-7.2 -10.01,-15.35 L 91.13,17.86 C 85.44,12.28 78.77,9.9 71.77,9.6 L 112.9,51.13 115.87535,48.4 114.93,47.3 z" class="specularity"/><path style="opacity:.5;fill:#fff;fill-opacity:1" id="path4888" d="m 81.45,28 c 0.05,1 -0.179343,2 -0.65,3.12 -1.1,1.62 -0.91,4.5 0.44,6.31 l 8.91,8.77 c 2.63,2.37 5.11,2.57 7.47,1.93 1.08,-0.33 2.06,-0.27 2.98,0 C 103.4,48.9 81.44,27.58 81.45,27.9 l 0,0.1 z" class="low-specularity"/><path style="fill:#fff;fill-opacity:1" id="path4890" d="m 56.43,62.25 c -1.39,-1.39 -4.48,-1.36 -5.9,0 L 9.5,101.63 c -3.74,3.59 -0.82,6.64 0.78,8.25 l 7.36,7.36 c 1.61,1.6 5.86,3.76 8.88,0.56 L 65.24,76.99 c 1.35,-1.42 1.36,-4.47 0,-5.87 0,0 0.01,-0.02 0,-0.02 l -8.81,-8.85 z"/><path style="opacity:.5;fill:#fff;fill-opacity:1" id="path4892" d="m 10.27,109.87 7.36,7.37 c 1.61,1.6 5.73,3.89 8.75,0.71 L 65.25,76.98 c 1.35,-1.43 1.39,-4.5 0,-5.88 l -8.83,-8.84 -46.15,47.61 z" class="low-shade"/><path style="opacity:.5;fill:#fff;fill-opacity:1" id="path4894" d="m 51.2,65.7 -38.88,38.04 c -1.62,1.56 -1.07,3.75 0.1,4.89 L 16.55,112.6 58.92,69 55,65.32 c -0.84,-0.8 -2.8,-0.57 -3.8,0.38 z" class="specularity"/><use id="use4896" width="128" height="128" x="0" y="0" class="stroke-highlight" clip-path="url(#clipoutline2)" xlink:href="#outline2" style="fill:#fff;stroke:#fff;stroke-width:4;stroke-linejoin:round;stroke-opacity:.20000000000000001;fill-opacity:1"/><path style="fill:#fff;fill-opacity:1" id="path4898" d="m 120.45,49.26 c 1.51,1.44 1.8,3.44 -0.28,5.36 l -3.87,3.63 c -2.08,1.95 -7.52,-3.25 -5.45,-5.19 l 3.88,-3.63 c 2.07,-1.95 4.21,-1.61 5.72,-0.17 z"/></g><path style="fill:url(#linearGradient4999);fill-opacity:1;stroke:none" id="path4991" d="M 25.791673,134.80438 C 35.788659,100.27581 50.891756,40.370483 105.07719,18.025417 72.43049,19.811744 51.968992,26.903417 37.083185,46.44402 19.089701,70.064073 8.2754762,95.364175 25.791673,134.80438 z"/></svg>