<svg xmlns="http://www.w3.org/2000/svg" xmlns:svg="http://www.w3.org/2000/svg" xmlns:xlink="http://www.w3.org/1999/xlink" id="svg4895" width="200" height="200" version="1.0"><metadata id="metadata77"/><defs id="defs3"><linearGradient id="linearGradient5457"><stop id="stop5459" offset="0" style="stop-color:#fff;stop-opacity:1"/><stop id="stop5461" offset="1" style="stop-color:#fff;stop-opacity:0"/></linearGradient><linearGradient id="linearGradient4993"><stop id="stop4995" offset="0" style="stop-color:#fff;stop-opacity:1"/><stop id="stop4997" offset="1" style="stop-color:#fff;stop-opacity:0"/></linearGradient><linearGradient id="linearGradient4864"><stop id="stop4866" offset="0" style="stop-color:#4c4c4c;stop-opacity:1"/><stop id="stop4868" offset="1" style="stop-color:#111;stop-opacity:1"/></linearGradient><linearGradient id="WhiteTransparent"><stop id="stop6" offset="0" style="stop-color:white;stop-opacity:1"/><stop id="stop8" offset="1" style="stop-color:white;stop-opacity:0"/></linearGradient><linearGradient id="BlackTransparent"><stop id="stop11" offset="0" style="stop-color:black;stop-opacity:1"/><stop id="stop13" offset="1" style="stop-color:black;stop-opacity:0"/></linearGradient><linearGradient id="lg1999" x1="637.03" x2="638.3" y1="69.99" y2="118.3" gradientTransform="matrix(0.1,0.1,-0.22,0.2,75.6,-33.53)" gradientUnits="userSpaceOnUse" xlink:href="#WhiteTransparent"/><linearGradient id="lg02" x1="512.7" x2="615.59" y1="254.36" y2="254.83" gradientTransform="matrix(0.0807,0.0775,-0.35,0.36,77.14,-45.89)" gradientUnits="userSpaceOnUse" xlink:href="#WhiteTransparent"/><linearGradient id="lg05" x1="543.1" x2="419.88" y1="286.56" y2="286.56" gradientTransform="matrix(0.0998,0.0998,-0.28,0.28,78.84,-44.8)" gradientUnits="userSpaceOnUse" spreadMethod="pad" xlink:href="#BlackTransparent"/><linearGradient id="lg09" x1="258.96" x2="258.96" y1="62.74" y2="-1.72" gradientTransform="matrix(0.33,0.33,-0.0944,0.0944,9.03,-48.1)" gradientUnits="userSpaceOnUse" xlink:href="#WhiteTransparent"/><linearGradient id="lg12" x1="146.15" x2="146.15" y1="288.57" y2="368.27" gradientTransform="matrix(0.3,0.3,-0.09,0.09,78.84,-44.8)" gradientUnits="userSpaceOnUse" xlink:href="#WhiteTransparent"/><linearGradient id="lg16" x1="577.03" x2="626.1" y1="124" y2="124" gradientTransform="matrix(0.0775,0.0775,-0.36,0.36,78.84,-44.8)" gradientUnits="userSpaceOnUse" spreadMethod="pad" xlink:href="#WhiteTransparent"/><linearGradient id="lg19" x1="2482.957" x2="2375.498" y1="6145.308" y2="6037.526" gradientUnits="userSpaceOnUse" xlink:href="#BlackTransparent"/><linearGradient id="lg51" x1="646.24" x2="607.66" y1="-252.6" y2="-186.26" gradientTransform="matrix(0.2,0,0,0.2,-80.94,88.3)" gradientUnits="userSpaceOnUse" xlink:href="#WhiteTransparent"/><linearGradient id="lg55" x1="550.96" x2="655.42" y1="-137.5" y2="-241.2" gradientTransform="matrix(0.26,0,0,0.26,-106.57,101.57)" gradientUnits="userSpaceOnUse" xlink:href="#WhiteTransparent"/><linearGradient id="lgdg" x1="73.88" x2="84.3" y1="66.2" y2="86.68" gradientTransform="translate(-0.30267,-3.20138)" gradientUnits="userSpaceOnUse" xlink:href="#BlackTransparent"/><clipPath id="clipoutline1" clipPathUnits="userSpaceOnUse"><path id="outline1" d="m 22.42,17.2 12.96,12.95 -2.5,8.78 -8.78,2.5 -12.96,-12.96 -5.86,5.86 14.89,21.46 17.56,-3.34 61.63,65.62 c 9.44,9.51 22.17,-4.75 13.34,-12.87 L 46.85,42.92 50.86,25.16 28.72,10.89 22.42,17.2 z m 81.06,91.97 c 1.68,-1.68 4.4,-1.68 6.08,0 1.68,1.68 1.68,4.4 0,6.08 -1.68,1.67 -4.4,1.67 -6.08,0 -1.68,-1.68 -1.68,-4.4 0,-6.08 z"/></clipPath><clipPath id="clipoutline2" clipPathUnits="userSpaceOnUse"><path id="outline2" d="m 55.8,12 0.76,0.16 c 8.84,-2.94 28.68,8.64 24.26,18.96 -1.12,1.62 -0.93,4.5 0.42,6.31 L 56.43,62.25 c -1.39,-1.39 -4.48,-1.36 -5.9,0 L 9.5,101.63 c -3.74,3.59 -0.8,6.64 0.78,8.25 l 7.36,7.36 c 1.61,1.6 5.86,3.76 8.88,0.56 L 65.24,76.99 c 1.35,-1.42 1.36,-4.47 0,-5.87 0,0 0.01,-0.02 0,-0.02 L 90.15,46.2 c 2.63,2.37 5.113827,2.574854 7.47,1.93 4.55057,-1.245432 7.08725,3.206643 9.81,6.46 l -1.23,1.21 c -1.82,1.84 -1.65,4.94 0.39,6.98 2.04,2.04 5.15,2.21 6.97,0.39 l 8.14,-8.13 c 1.82,-1.84 1.65,-4.94 -0.4,-6.97 -1.84,-1.85 -4.51,-2.09 -6.37,-0.77 -5.58,-6.26 -2.65,-7.2 -10.01,-15.35 L 91.13,17.86 C 81.2,8.12 68.3,8.13 55.8,12 z"/></clipPath><filter id="ShadowBlur" x="0" y="0" color-interpolation-filters="sRGB" filterUnits="userSpaceOnUse"><feGaussianBlur id="feGaussianBlur6" in="SourceGraphic" stdDeviation="2"/></filter><linearGradient id="linearGradient2637" x1="73.88" x2="84.3" y1="66.2" y2="86.68" gradientTransform="translate(-0.30267,-3.20138)" gradientUnits="userSpaceOnUse" xlink:href="#BlackTransparent"/><linearGradient id="linearGradient2660" x1="550.96" x2="655.42" y1="-137.5" y2="-241.2" gradientTransform="matrix(0.26,0,0,0.26,-106.57,101.57)" gradientUnits="userSpaceOnUse" xlink:href="#WhiteTransparent"/><linearGradient id="linearGradient2662" x1="646.24" x2="607.66" y1="-252.6" y2="-186.26" gradientTransform="matrix(0.2,0,0,0.2,-80.94,88.3)" gradientUnits="userSpaceOnUse" xlink:href="#WhiteTransparent"/><linearGradient id="linearGradient4989" x1="6.631" x2="183.667" y1="20.673" y2="156.499" gradientUnits="userSpaceOnUse" xlink:href="#linearGradient4864"/><linearGradient id="linearGradient4999" x1="16.717" x2="50.703" y1="59.507" y2="78.758" gradientUnits="userSpaceOnUse" xlink:href="#linearGradient4993"/><linearGradient id="linearGradient2114" x1="16.887" x2="60.903" y1="6.216" y2="65.818" gradientTransform="matrix(0.968115,0,0,1.032935,3,2)" gradientUnits="userSpaceOnUse" xlink:href="#linearGradient2116"/><linearGradient id="linearGradient2084" x1="16.887" x2="60.903" y1="6.216" y2="65.818" gradientTransform="matrix(0.968115,0,0,1.032935,1.34375,1)" gradientUnits="userSpaceOnUse" xlink:href="#linearGradient2078"/><linearGradient id="linearGradient2078"><stop id="stop2080" offset="0" style="stop-color:#cad8f4;stop-opacity:1"/><stop id="stop2082" offset="1" style="stop-color:#d4ffce;stop-opacity:1"/></linearGradient><linearGradient id="linearGradient2116"><stop id="stop2118" offset="0" style="stop-color:#abb7ce;stop-opacity:1"/><stop id="stop2120" offset="1" style="stop-color:#8dba87;stop-opacity:1"/></linearGradient><linearGradient id="linearGradient5463" x1="65" x2="115" y1="100" y2="98.933" gradientUnits="userSpaceOnUse" xlink:href="#linearGradient5457"/><linearGradient id="linearGradient5465" x1="95" x2="155" y1="98.933" y2="98.933" gradientUnits="userSpaceOnUse" xlink:href="#linearGradient5457"/><filter id="filter5497" width="1.22" height="1.264" x="-.11" y="-.132"><feGaussianBlur id="feGaussianBlur5499" stdDeviation="4.125"/></filter><filter id="filter5505" width="1.24" height="1.24" x="-.12" y="-.12"><feGaussianBlur id="feGaussianBlur5507" stdDeviation="10"/></filter><linearGradient id="linearGradient5509" x1="6.631" x2="183.667" y1="20.673" y2="156.499" gradientUnits="userSpaceOnUse" xlink:href="#linearGradient4864"/></defs><style id="style31" type="text/css"/><path style="fill:none;stroke:#304f54;stroke-width:12.5;stroke-linecap:square;stroke-miterlimit:4;stroke-opacity:1;stroke-dasharray:none;filter:url(#filter5505)" id="path5503" d="m 200,100 a 100,100 0 1 1 -0.0198,-1.991539" transform="matrix(0.76775432,0,0,0.76775432,23.224568,23.224568)"/><path id="path4094" d="m 200,100 a 100,100 0 1 1 -0.0198,-1.991539" transform="matrix(0.83690902,0,0,0.83690902,16.309098,16.309098)" style="opacity:.75;fill:url(#linearGradient4989);fill-opacity:1;stroke:#000;stroke-width:5;stroke-linecap:square;stroke-miterlimit:4;stroke-opacity:1;stroke-dasharray:none"/><path id="path4991" d="M 25.791673,134.80438 C 35.788659,100.27581 50.891756,40.370483 105.07719,18.025417 72.43049,19.811744 51.968992,26.903417 37.083185,46.44402 19.089701,70.064073 8.2754762,95.364175 25.791673,134.80438 z" style="fill:url(#linearGradient4999);fill-opacity:1;stroke:none"/><g id="g5467" transform="translate(-165,1.067129)"><path style="fill:#fff;fill-opacity:.08457713;stroke:#5c8da7;stroke-width:10;stroke-linecap:butt;stroke-linejoin:miter;stroke-miterlimit:4;stroke-opacity:1;stroke-dasharray:none" id="path5453" d="M 100,136.43287 150,100 100,61.432871"/><path id="path5455" d="M 60,136.43287 110,100 60,61.432871" style="fill:#fff;fill-opacity:.08457713;stroke:#5c8da7;stroke-width:10;stroke-linecap:butt;stroke-linejoin:miter;stroke-miterlimit:4;stroke-opacity:1;stroke-dasharray:none"/></g><path style="fill:none;stroke:#fff;stroke-width:10;stroke-linecap:butt;stroke-linejoin:miter;stroke-miterlimit:4;stroke-opacity:1;stroke-dasharray:none;filter:url(#filter5497)" id="path5477" d="M -65,137.5 -15,101.06713 -65,62.5"/><path style="fill:none;stroke:#fff;stroke-width:10;stroke-linecap:butt;stroke-linejoin:miter;stroke-miterlimit:4;stroke-opacity:1;stroke-dasharray:none;filter:url(#filter5497)" id="path3185" d="M -105,137.5 -55,101.06713 -105,62.5"/><g id="g3955" transform="translate(-25,1.067129)"><path id="path3957" d="M 108,136.43287 158,100 108,61.432871 z" style="fill:#fff;fill-opacity:.08457713;stroke:#5c8da7;stroke-width:10;stroke-linecap:butt;stroke-linejoin:miter;stroke-miterlimit:4;stroke-opacity:1;stroke-dasharray:none"/></g><path id="path5479" d="M 83,137.5 133,101.06713 83,62.5 z" style="fill:#fff;fill-opacity:1;stroke:#fff;stroke-width:10;stroke-linecap:butt;stroke-linejoin:miter;stroke-miterlimit:4;stroke-opacity:1;stroke-dasharray:none;filter:url(#filter5497)"/></svg>