<svg xmlns="http://www.w3.org/2000/svg" xmlns:svg="http://www.w3.org/2000/svg" xmlns:xlink="http://www.w3.org/1999/xlink" id="svg4895" width="200" height="200" version="1.0"><metadata id="metadata77"/><defs id="defs3"><linearGradient id="linearGradient4993"><stop id="stop4995" offset="0" style="stop-color:#fff;stop-opacity:1"/><stop id="stop4997" offset="1" style="stop-color:#fff;stop-opacity:0"/></linearGradient><linearGradient id="linearGradient4864"><stop id="stop4866" offset="0" style="stop-color:#4c4c4c;stop-opacity:1"/><stop id="stop4868" offset="1" style="stop-color:#111;stop-opacity:1"/></linearGradient><linearGradient id="WhiteTransparent"><stop id="stop6" offset="0" style="stop-color:white;stop-opacity:1"/><stop id="stop8" offset="1" style="stop-color:white;stop-opacity:0"/></linearGradient><linearGradient id="BlackTransparent"><stop id="stop11" offset="0" style="stop-color:black;stop-opacity:1"/><stop id="stop13" offset="1" style="stop-color:black;stop-opacity:0"/></linearGradient><linearGradient id="lg1999" x1="637.03" x2="638.3" y1="69.99" y2="118.3" gradientTransform="matrix(0.1,0.1,-0.22,0.2,75.6,-33.53)" gradientUnits="userSpaceOnUse" xlink:href="#WhiteTransparent"/><linearGradient id="lg02" x1="512.7" x2="615.59" y1="254.36" y2="254.83" gradientTransform="matrix(0.0807,0.0775,-0.35,0.36,77.14,-45.89)" gradientUnits="userSpaceOnUse" xlink:href="#WhiteTransparent"/><linearGradient id="lg05" x1="543.1" x2="419.88" y1="286.56" y2="286.56" gradientTransform="matrix(0.0998,0.0998,-0.28,0.28,78.84,-44.8)" gradientUnits="userSpaceOnUse" spreadMethod="pad" xlink:href="#BlackTransparent"/><linearGradient id="lg09" x1="258.96" x2="258.96" y1="62.74" y2="-1.72" gradientTransform="matrix(0.33,0.33,-0.0944,0.0944,9.03,-48.1)" gradientUnits="userSpaceOnUse" xlink:href="#WhiteTransparent"/><linearGradient id="lg12" x1="146.15" x2="146.15" y1="288.57" y2="368.27" gradientTransform="matrix(0.3,0.3,-0.09,0.09,78.84,-44.8)" gradientUnits="userSpaceOnUse" xlink:href="#WhiteTransparent"/><linearGradient id="lg16" x1="577.03" x2="626.1" y1="124" y2="124" gradientTransform="matrix(0.0775,0.0775,-0.36,0.36,78.84,-44.8)" gradientUnits="userSpaceOnUse" spreadMethod="pad" xlink:href="#WhiteTransparent"/><linearGradient id="lg19" x1="2482.957" x2="2375.498" y1="6145.308" y2="6037.526" gradientUnits="userSpaceOnUse" xlink:href="#BlackTransparent"/><linearGradient id="lg51" x1="646.24" x2="607.66" y1="-252.6" y2="-186.26" gradientTransform="matrix(0.2,0,0,0.2,-80.94,88.3)" gradientUnits="userSpaceOnUse" xlink:href="#WhiteTransparent"/><linearGradient id="lg55" x1="550.96" x2="655.42" y1="-137.5" y2="-241.2" gradientTransform="matrix(0.26,0,0,0.26,-106.57,101.57)" gradientUnits="userSpaceOnUse" xlink:href="#WhiteTransparent"/><linearGradient id="lgdg" x1="73.88" x2="84.3" y1="66.2" y2="86.68" gradientTransform="translate(-0.30267,-3.20138)" gradientUnits="userSpaceOnUse" xlink:href="#BlackTransparent"/><clipPath id="clipoutline1" clipPathUnits="userSpaceOnUse"><path id="outline1" d="m 22.42,17.2 12.96,12.95 -2.5,8.78 -8.78,2.5 -12.96,-12.96 -5.86,5.86 14.89,21.46 17.56,-3.34 61.63,65.62 c 9.44,9.51 22.17,-4.75 13.34,-12.87 L 46.85,42.92 50.86,25.16 28.72,10.89 22.42,17.2 z m 81.06,91.97 c 1.68,-1.68 4.4,-1.68 6.08,0 1.68,1.68 1.68,4.4 0,6.08 -1.68,1.67 -4.4,1.67 -6.08,0 -1.68,-1.68 -1.68,-4.4 0,-6.08 z"/></clipPath><clipPath id="clipoutline2" clipPathUnits="userSpaceOnUse"><path id="outline2" d="m 55.8,12 0.76,0.16 c 8.84,-2.94 28.68,8.64 24.26,18.96 -1.12,1.62 -0.93,4.5 0.42,6.31 L 56.43,62.25 c -1.39,-1.39 -4.48,-1.36 -5.9,0 L 9.5,101.63 c -3.74,3.59 -0.8,6.64 0.78,8.25 l 7.36,7.36 c 1.61,1.6 5.86,3.76 8.88,0.56 L 65.24,76.99 c 1.35,-1.42 1.36,-4.47 0,-5.87 0,0 0.01,-0.02 0,-0.02 L 90.15,46.2 c 2.63,2.37 5.113827,2.574854 7.47,1.93 4.55057,-1.245432 7.08725,3.206643 9.81,6.46 l -1.23,1.21 c -1.82,1.84 -1.65,4.94 0.39,6.98 2.04,2.04 5.15,2.21 6.97,0.39 l 8.14,-8.13 c 1.82,-1.84 1.65,-4.94 -0.4,-6.97 -1.84,-1.85 -4.51,-2.09 -6.37,-0.77 -5.58,-6.26 -2.65,-7.2 -10.01,-15.35 L 91.13,17.86 C 81.2,8.12 68.3,8.13 55.8,12 z"/></clipPath><filter id="ShadowBlur" x="0" y="0" color-interpolation-filters="sRGB" filterUnits="userSpaceOnUse"><feGaussianBlur id="feGaussianBlur6" in="SourceGraphic" stdDeviation="2"/></filter><linearGradient id="linearGradient2637" x1="73.88" x2="84.3" y1="66.2" y2="86.68" gradientTransform="translate(-0.30267,-3.20138)" gradientUnits="userSpaceOnUse" xlink:href="#BlackTransparent"/><linearGradient id="linearGradient2646" x1="2482.957" x2="2375.498" y1="6145.308" y2="6037.526" gradientUnits="userSpaceOnUse" xlink:href="#BlackTransparent"/><linearGradient id="linearGradient2648" x1="577.03" x2="626.1" y1="124" y2="124" gradientTransform="matrix(0.0775,0.0775,-0.36,0.36,78.84,-44.8)" gradientUnits="userSpaceOnUse" spreadMethod="pad" xlink:href="#WhiteTransparent"/><linearGradient id="linearGradient2650" x1="146.15" x2="146.15" y1="288.57" y2="368.27" gradientTransform="matrix(0.3,0.3,-0.09,0.09,78.84,-44.8)" gradientUnits="userSpaceOnUse" xlink:href="#WhiteTransparent"/><linearGradient id="linearGradient2652" x1="258.96" x2="258.96" y1="62.74" y2="-1.72" gradientTransform="matrix(0.33,0.33,-0.0944,0.0944,9.03,-48.1)" gradientUnits="userSpaceOnUse" xlink:href="#WhiteTransparent"/><linearGradient id="linearGradient2654" x1="543.1" x2="419.88" y1="286.56" y2="286.56" gradientTransform="matrix(0.0998,0.0998,-0.28,0.28,78.84,-44.8)" gradientUnits="userSpaceOnUse" spreadMethod="pad" xlink:href="#BlackTransparent"/><linearGradient id="linearGradient2656" x1="512.7" x2="615.59" y1="254.36" y2="254.83" gradientTransform="matrix(0.0807,0.0775,-0.35,0.36,77.14,-45.89)" gradientUnits="userSpaceOnUse" xlink:href="#WhiteTransparent"/><linearGradient id="linearGradient2658" x1="637.03" x2="638.3" y1="69.99" y2="118.3" gradientTransform="matrix(0.1,0.1,-0.22,0.2,75.6,-33.53)" gradientUnits="userSpaceOnUse" xlink:href="#WhiteTransparent"/><linearGradient id="linearGradient2660" x1="550.96" x2="655.42" y1="-137.5" y2="-241.2" gradientTransform="matrix(0.26,0,0,0.26,-106.57,101.57)" gradientUnits="userSpaceOnUse" xlink:href="#WhiteTransparent"/><linearGradient id="linearGradient2662" x1="646.24" x2="607.66" y1="-252.6" y2="-186.26" gradientTransform="matrix(0.2,0,0,0.2,-80.94,88.3)" gradientUnits="userSpaceOnUse" xlink:href="#WhiteTransparent"/><linearGradient id="linearGradient4989" x1="6.631" x2="183.667" y1="20.673" y2="156.499" gradientUnits="userSpaceOnUse" xlink:href="#linearGradient4864"/><linearGradient id="linearGradient4999" x1="16.717" x2="50.703" y1="59.507" y2="78.758" gradientUnits="userSpaceOnUse" xlink:href="#linearGradient4993"/><linearGradient id="linearGradient2114" x1="16.887" x2="60.903" y1="6.216" y2="65.818" gradientTransform="matrix(0.968115,0,0,1.032935,3,2)" gradientUnits="userSpaceOnUse" xlink:href="#linearGradient2116"/><linearGradient id="linearGradient2084" x1="16.887" x2="60.903" y1="6.216" y2="65.818" gradientTransform="matrix(0.968115,0,0,1.032935,1.34375,1)" gradientUnits="userSpaceOnUse" xlink:href="#linearGradient2078"/><linearGradient id="linearGradient2078"><stop id="stop2080" offset="0" style="stop-color:#cad8f4;stop-opacity:1"/><stop id="stop2082" offset="1" style="stop-color:#d4ffce;stop-opacity:1"/></linearGradient><linearGradient id="linearGradient2116"><stop id="stop2118" offset="0" style="stop-color:#abb7ce;stop-opacity:1"/><stop id="stop2120" offset="1" style="stop-color:#8dba87;stop-opacity:1"/></linearGradient><filter id="filter5360" width="1.283" height="1.269" x="-.142" y="-.134"><feGaussianBlur id="feGaussianBlur5362" stdDeviation="3.381"/></filter><filter id="filter5505" width="1.24" height="1.24" x="-.12" y="-.12" color-interpolation-filters="sRGB"><feGaussianBlur id="feGaussianBlur5507" stdDeviation="10"/></filter></defs><style id="style31" type="text/css"/><path style="fill:none;stroke:#304f54;stroke-width:12.5;stroke-linecap:square;stroke-miterlimit:4;stroke-opacity:1;stroke-dasharray:none;filter:url(#filter5505)" id="path5503" d="m 200,100 a 100,100 0 1 1 -0.0198,-1.991539" transform="matrix(0.76775432,0,0,0.76775432,23.224568,23.224568)"/><path id="path4094" d="m 200,100 a 100,100 0 1 1 -0.0198,-1.991539" transform="matrix(0.83690902,0,0,0.83690902,16.309098,16.309098)" style="opacity:.75;fill:url(#linearGradient4989);fill-opacity:1;stroke:#000;stroke-width:5;stroke-linecap:square;stroke-miterlimit:4;stroke-opacity:1;stroke-dasharray:none"/><path id="path4991" d="M 25.791673,134.80438 C 35.788659,100.27581 50.891756,40.370483 105.07719,18.025417 72.43049,19.811744 51.968992,26.903417 37.083185,46.44402 19.089701,70.064073 8.2754762,95.364175 25.791673,134.80438 z" style="fill:url(#linearGradient4999);fill-opacity:1;stroke:none"/><g id="layer1" transform="matrix(1.9396523,0,0,1.9396523,37.931127,36.362678)"><path id="path2112" d="m 22.871808,3.6702632 c -0.141614,0.2253191 5.969,11.6014918 6.093325,11.8367928 0.124324,0.235301 6.060621,11.681039 6.326561,11.691019 0.188386,0.0071 3.04858,-4.638061 5.102066,-7.930067 5.977741,2.829126 10.145822,8.86532 10.145822,15.918445 0,9.784772 -7.941263,17.726034 -17.726035,17.726034 -9.784771,2e-6 -17.726034,-7.941262 -17.726034,-17.726034 0,-4.049661 1.41439,-7.743098 3.702642,-10.728915 -3.00767,-3.881907 -5.975282,-5.354479 -8.104996,-5.976707 C 7.1639818,23.146174 5,28.894398 5,35.186453 5,50.55026 17.449742,63 32.813547,63 48.177355,63 60.65625,50.550259 60.65625,35.186453 60.65625,24.516701 54.563483,15.36446 45.729063,10.725692 47.585168,7.7685948 49.527366,4.7873934 49.460859,4.6615218 49.336535,4.4262212 36.432273,4.0301007 36.166334,4.0201191 35.900395,4.0101377 23.013422,3.4449442 22.871808,3.6702632 z" style="fill:url(#linearGradient2114);fill-opacity:1;stroke:none"/><path id="path1301" d="m 21.215558,2.6702632 c -0.141614,0.2253191 5.969,11.6014918 6.093325,11.8367928 0.124324,0.235301 6.060621,11.681039 6.326561,11.691019 0.188386,0.0071 3.04858,-4.638061 5.102066,-7.930067 5.977741,2.829126 10.145822,8.86532 10.145822,15.918445 0,9.784772 -7.941263,17.726034 -17.726035,17.726034 -9.784771,2e-6 -17.726034,-7.941262 -17.726034,-17.726034 0,-4.049661 1.41439,-7.743098 3.702642,-10.728915 C 14.126235,19.575631 11.158623,18.103059 9.028909,17.480831 5.5077318,22.146174 3.34375,27.894398 3.34375,34.186453 3.34375,49.55026 15.793492,62 31.157297,62 46.521105,62 59,49.550259 59,34.186453 59,23.516701 52.907233,14.36446 44.072813,9.7256916 45.928918,6.7685948 47.871116,3.7873934 47.804609,3.6615218 47.680285,3.4262212 34.776023,3.0301007 34.510084,3.0201191 34.244145,3.0101377 21.357172,2.4449442 21.215558,2.6702632 z" style="fill:url(#linearGradient2084);fill-opacity:1;stroke:none"/><path id="path2136" d="M 22.666667,3.5 C 22.666667,3.5 30.5,4 32,4 c 1.5,0 6.5,-1 9.5,0 3,1 4.5,1 1,1 C 39,5 24,4.5 24,4.5 c 0,0 7,9 7,13 0,4 -8.333333,-14 -8.333333,-14 z" style="fill:#d7f1ff;fill-opacity:1;fill-rule:evenodd;stroke:none"/><path id="path2138" d="M 9.3333333,18.833333 C 9.3333333,18.833333 11.5,19 11,20 10.5,21 5,33 8,41.5 11,50 5,37 5,37 5,37 2.6666667,27.166667 9.3333333,18.833333 z" style="fill:#daf0fe;fill-opacity:1;fill-rule:evenodd;stroke:none"/></g><g style="fill:#fff;fill-opacity:1;filter:url(#filter5360)" id="g5346" transform="matrix(1.9396523,0,0,1.9396523,37.931127,36.362678)"><path style="fill:#fff;fill-opacity:1;stroke:none" id="path5348" d="m 22.871808,3.6702632 c -0.141614,0.2253191 5.969,11.6014918 6.093325,11.8367928 0.124324,0.235301 6.060621,11.681039 6.326561,11.691019 0.188386,0.0071 3.04858,-4.638061 5.102066,-7.930067 5.977741,2.829126 10.145822,8.86532 10.145822,15.918445 0,9.784772 -7.941263,17.726034 -17.726035,17.726034 -9.784771,2e-6 -17.726034,-7.941262 -17.726034,-17.726034 0,-4.049661 1.41439,-7.743098 3.702642,-10.728915 -3.00767,-3.881907 -5.975282,-5.354479 -8.104996,-5.976707 C 7.1639818,23.146174 5,28.894398 5,35.186453 5,50.55026 17.449742,63 32.813547,63 48.177355,63 60.65625,50.550259 60.65625,35.186453 60.65625,24.516701 54.563483,15.36446 45.729063,10.725692 47.585168,7.7685948 49.527366,4.7873934 49.460859,4.6615218 49.336535,4.4262212 36.432273,4.0301007 36.166334,4.0201191 35.900395,4.0101377 23.013422,3.4449442 22.871808,3.6702632 z"/><path style="fill:#fff;fill-opacity:1;stroke:none" id="path5350" d="m 21.215558,2.6702632 c -0.141614,0.2253191 5.969,11.6014918 6.093325,11.8367928 0.124324,0.235301 6.060621,11.681039 6.326561,11.691019 0.188386,0.0071 3.04858,-4.638061 5.102066,-7.930067 5.977741,2.829126 10.145822,8.86532 10.145822,15.918445 0,9.784772 -7.941263,17.726034 -17.726035,17.726034 -9.784771,2e-6 -17.726034,-7.941262 -17.726034,-17.726034 0,-4.049661 1.41439,-7.743098 3.702642,-10.728915 C 14.126235,19.575631 11.158623,18.103059 9.028909,17.480831 5.5077318,22.146174 3.34375,27.894398 3.34375,34.186453 3.34375,49.55026 15.793492,62 31.157297,62 46.521105,62 59,49.550259 59,34.186453 59,23.516701 52.907233,14.36446 44.072813,9.7256916 45.928918,6.7685948 47.871116,3.7873934 47.804609,3.6615218 47.680285,3.4262212 34.776023,3.0301007 34.510084,3.0201191 34.244145,3.0101377 21.357172,2.4449442 21.215558,2.6702632 z"/><path style="fill:#fff;fill-opacity:1;fill-rule:evenodd;stroke:none" id="path5352" d="M 22.666667,3.5 C 22.666667,3.5 30.5,4 32,4 c 1.5,0 6.5,-1 9.5,0 3,1 4.5,1 1,1 C 39,5 24,4.5 24,4.5 c 0,0 7,9 7,13 0,4 -8.333333,-14 -8.333333,-14 z"/><path style="fill:#fff;fill-opacity:1;fill-rule:evenodd;stroke:none" id="path5354" d="M 9.3333333,18.833333 C 9.3333333,18.833333 11.5,19 11,20 10.5,21 5,33 8,41.5 11,50 5,37 5,37 5,37 2.6666667,27.166667 9.3333333,18.833333 z"/></g></svg>