<svg xmlns="http://www.w3.org/2000/svg" xmlns:svg="http://www.w3.org/2000/svg" xmlns:xlink="http://www.w3.org/1999/xlink" id="svg3868" width="210mm" height="297mm" version="1.1"><defs id="defs3870"><linearGradient id="linearGradient5889"><stop style="stop-color:#f33;stop-opacity:1" id="stop5891" offset="0"/><stop id="stop5897" offset=".858" style="stop-color:#312626;stop-opacity:.49803922"/><stop style="stop-color:#000;stop-opacity:0" id="stop5893" offset="1"/></linearGradient><filter id="filter4128" width="1.301" height="2.204" x="-.15" y="-.602" color-interpolation-filters="sRGB"><feGaussianBlur id="feGaussianBlur4130" stdDeviation="18.808"/></filter><linearGradient id="linearGradient4874"><stop style="stop-color:#1a1a1a;stop-opacity:1" id="stop4876" offset="0"/><stop style="stop-color:#1a1a1a;stop-opacity:0" id="stop4878" offset="1"/></linearGradient><linearGradient id="linearGradient4866"><stop style="stop-color:#1a1a1a;stop-opacity:1" id="stop4868" offset="0"/><stop style="stop-color:#1a1a1a;stop-opacity:0" id="stop4870" offset="1"/></linearGradient><filter id="filter5292" color-interpolation-filters="sRGB"><feGaussianBlur id="feGaussianBlur5294" stdDeviation="4.688"/></filter><linearGradient id="linearGradient4874-9"><stop style="stop-color:#1a1a1a;stop-opacity:1" id="stop4876-7" offset="0"/><stop style="stop-color:#1a1a1a;stop-opacity:0" id="stop4878-3" offset="1"/></linearGradient><linearGradient id="linearGradient4866-4"><stop style="stop-color:#1a1a1a;stop-opacity:1" id="stop4868-5" offset="0"/><stop style="stop-color:#1a1a1a;stop-opacity:0" id="stop4870-8" offset="1"/></linearGradient><linearGradient id="linearGradient4882-2"><stop style="stop-color:#333;stop-opacity:1" id="stop4884-9" offset="0"/><stop style="stop-color:#1a1a1a;stop-opacity:1" id="stop4886-8" offset="1"/></linearGradient><linearGradient id="linearGradient4898-1"><stop style="stop-color:#1a1a1a;stop-opacity:1" id="stop4900-5" offset="0"/><stop style="stop-color:#1a1a1a;stop-opacity:0" id="stop4902-0" offset="1"/></linearGradient><linearGradient id="linearGradient4906-6"><stop style="stop-color:#666;stop-opacity:1" id="stop4908-1" offset="0"/><stop style="stop-color:#666;stop-opacity:0" id="stop4910-0" offset="1"/></linearGradient><linearGradient id="linearGradient4914-3"><stop style="stop-color:#666;stop-opacity:1" id="stop4916-2" offset="0"/><stop style="stop-color:#666;stop-opacity:0" id="stop4918-6" offset="1"/></linearGradient><linearGradient id="linearGradient4922-8"><stop style="stop-color:gray;stop-opacity:1" id="stop4924-2" offset="0"/><stop style="stop-color:gray;stop-opacity:0" id="stop4926-3" offset="1"/></linearGradient><filter id="filter5006-8-4" width="1.312" height="1.312" x="-.156" y="-.156" color-interpolation-filters="sRGB"><feGaussianBlur id="feGaussianBlur5008-2-9" stdDeviation=".325"/></filter><linearGradient id="linearGradient5075-8"><stop style="stop-color:#000;stop-opacity:.44782609" id="stop5077-7" offset="0"/><stop style="stop-color:#000;stop-opacity:0" id="stop5079-7" offset="1"/></linearGradient><linearGradient id="linearGradient4882"><stop style="stop-color:#333;stop-opacity:1" id="stop4884" offset="0"/><stop style="stop-color:#1a1a1a;stop-opacity:1" id="stop4886" offset="1"/></linearGradient><linearGradient id="linearGradient4898"><stop style="stop-color:#1a1a1a;stop-opacity:1" id="stop4900" offset="0"/><stop style="stop-color:#1a1a1a;stop-opacity:0" id="stop4902" offset="1"/></linearGradient><linearGradient id="linearGradient4906"><stop style="stop-color:#666;stop-opacity:1" id="stop4908" offset="0"/><stop style="stop-color:#666;stop-opacity:0" id="stop4910" offset="1"/></linearGradient><linearGradient id="linearGradient4914"><stop style="stop-color:#666;stop-opacity:1" id="stop4916" offset="0"/><stop style="stop-color:#666;stop-opacity:0" id="stop4918" offset="1"/></linearGradient><linearGradient id="linearGradient4922"><stop style="stop-color:gray;stop-opacity:1" id="stop4924" offset="0"/><stop style="stop-color:gray;stop-opacity:0" id="stop4926" offset="1"/></linearGradient><linearGradient id="linearGradient5296"><stop style="stop-color:#333;stop-opacity:1" id="stop5298" offset="0"/><stop style="stop-color:#666;stop-opacity:0" id="stop5300" offset="1"/></linearGradient><linearGradient id="linearGradient3645"><stop style="stop-color:#333;stop-opacity:1" id="stop3647" offset="0"/><stop style="stop-color:#666;stop-opacity:0" id="stop3649" offset="1"/></linearGradient><filter id="filter5006-8" width="1.312" height="1.312" x="-.156" y="-.156" color-interpolation-filters="sRGB"><feGaussianBlur id="feGaussianBlur5008-2" stdDeviation=".325"/></filter><linearGradient id="linearGradient5075"><stop style="stop-color:#000;stop-opacity:.44782609" id="stop5077" offset="0"/><stop style="stop-color:#000;stop-opacity:0" id="stop5079" offset="1"/></linearGradient><linearGradient id="linearGradient3658"><stop style="stop-color:#333;stop-opacity:1" id="stop3660" offset="0"/><stop style="stop-color:#666;stop-opacity:0" id="stop3662" offset="1"/></linearGradient><linearGradient id="linearGradient3665"><stop style="stop-color:#333;stop-opacity:1" id="stop3667" offset="0"/><stop style="stop-color:#666;stop-opacity:0" id="stop3669" offset="1"/></linearGradient><linearGradient id="linearGradient3672"><stop style="stop-color:#333;stop-opacity:1" id="stop3674" offset="0"/><stop style="stop-color:#666;stop-opacity:0" id="stop3676" offset="1"/></linearGradient><linearGradient id="linearGradient3683"><stop style="stop-color:#333;stop-opacity:1" id="stop3685" offset="0"/><stop style="stop-color:#666;stop-opacity:0" id="stop3687" offset="1"/></linearGradient><linearGradient id="linearGradient3690"><stop style="stop-color:#333;stop-opacity:1" id="stop3692" offset="0"/><stop style="stop-color:#666;stop-opacity:0" id="stop3694" offset="1"/></linearGradient><linearGradient id="linearGradient3701"><stop style="stop-color:#333;stop-opacity:1" id="stop3703" offset="0"/><stop style="stop-color:#666;stop-opacity:0" id="stop3705" offset="1"/></linearGradient><linearGradient id="linearGradient3708"><stop style="stop-color:#333;stop-opacity:1" id="stop3710" offset="0"/><stop style="stop-color:#666;stop-opacity:0" id="stop3712" offset="1"/></linearGradient><linearGradient id="linearGradient3719"><stop style="stop-color:#333;stop-opacity:1" id="stop3721" offset="0"/><stop style="stop-color:#666;stop-opacity:0" id="stop3723" offset="1"/></linearGradient><linearGradient id="linearGradient3726"><stop style="stop-color:#333;stop-opacity:1" id="stop3728" offset="0"/><stop style="stop-color:#666;stop-opacity:0" id="stop3730" offset="1"/></linearGradient><linearGradient id="linearGradient3737"><stop style="stop-color:#333;stop-opacity:1" id="stop3739" offset="0"/><stop style="stop-color:#666;stop-opacity:0" id="stop3741" offset="1"/></linearGradient><linearGradient id="linearGradient3744"><stop style="stop-color:#333;stop-opacity:1" id="stop3746" offset="0"/><stop style="stop-color:#666;stop-opacity:0" id="stop3748" offset="1"/></linearGradient><linearGradient id="linearGradient3755"><stop style="stop-color:#333;stop-opacity:1" id="stop3757" offset="0"/><stop style="stop-color:#666;stop-opacity:0" id="stop3759" offset="1"/></linearGradient><linearGradient id="linearGradient3762"><stop style="stop-color:#333;stop-opacity:1" id="stop3764" offset="0"/><stop style="stop-color:#666;stop-opacity:0" id="stop3766" offset="1"/></linearGradient><linearGradient id="linearGradient3773"><stop style="stop-color:#000;stop-opacity:.44782609" id="stop3775" offset="0"/><stop style="stop-color:#000;stop-opacity:0" id="stop3777" offset="1"/></linearGradient><linearGradient id="linearGradient3780"><stop style="stop-color:#000;stop-opacity:.44782609" id="stop3782" offset="0"/><stop style="stop-color:#000;stop-opacity:0" id="stop3784" offset="1"/></linearGradient><linearGradient id="linearGradient3787"><stop style="stop-color:#000;stop-opacity:.44782609" id="stop3789" offset="0"/><stop style="stop-color:#000;stop-opacity:0" id="stop3791" offset="1"/></linearGradient><linearGradient id="linearGradient3794"><stop style="stop-color:#000;stop-opacity:.44782609" id="stop3796" offset="0"/><stop style="stop-color:#000;stop-opacity:0" id="stop3798" offset="1"/></linearGradient><linearGradient id="linearGradient3801"><stop style="stop-color:#000;stop-opacity:.44782609" id="stop3803" offset="0"/><stop style="stop-color:#000;stop-opacity:0" id="stop3805" offset="1"/></linearGradient><linearGradient id="linearGradient3808"><stop style="stop-color:#000;stop-opacity:.44782609" id="stop3810" offset="0"/><stop style="stop-color:#000;stop-opacity:0" id="stop3812" offset="1"/></linearGradient><linearGradient id="linearGradient4775" x1="155" x2="160.5" y1="275" y2="275" gradientTransform="matrix(1,0,0,-1,154,404.95123)" gradientUnits="userSpaceOnUse" xlink:href="#linearGradient4874"/><linearGradient id="linearGradient4777" x1="245" x2="250.5" y1="275" y2="275" gradientTransform="matrix(1,0,0,-1,154,404.95123)" gradientUnits="userSpaceOnUse" spreadMethod="reflect" xlink:href="#linearGradient4866"/><linearGradient id="linearGradient4779" x1="200" x2="200" y1="230" y2="220" gradientTransform="matrix(1,0,0,-1,154,404.95123)" gradientUnits="userSpaceOnUse" xlink:href="#linearGradient4882"/><linearGradient id="linearGradient4781" x1="200" x2="200" y1="320" y2="330" gradientTransform="matrix(1,0,0,-1,154,404.95123)" gradientUnits="userSpaceOnUse" xlink:href="#linearGradient4898"/><linearGradient id="linearGradient4783" x1="195" x2="200" y1="180" y2="185" gradientTransform="matrix(1,0,0,-1,154,404.95123)" gradientUnits="userSpaceOnUse" xlink:href="#linearGradient4906"/><linearGradient id="linearGradient4785" x1="195" x2="200" y1="280" y2="275" gradientTransform="matrix(1,0,0,-1,154,404.95123)" gradientUnits="userSpaceOnUse" xlink:href="#linearGradient4914"/><linearGradient id="linearGradient4787" x1="195" x2="200" y1="360" y2="365" gradientTransform="matrix(1,0,0,-1,154,404.95123)" gradientUnits="userSpaceOnUse" xlink:href="#linearGradient4922"/><linearGradient id="linearGradient4789" x1="132.5" x2="149.643" y1="119.643" y2="125" gradientTransform="matrix(1,0,0,-1,154,404.95123)" gradientUnits="userSpaceOnUse" xlink:href="#linearGradient5075"/><linearGradient id="linearGradient4791" x1="132.5" x2="149.643" y1="119.643" y2="125" gradientTransform="matrix(1,0,0,-1,104,405.66552)" gradientUnits="userSpaceOnUse" xlink:href="#linearGradient5075"/><linearGradient id="linearGradient4793" x1="132.5" x2="149.643" y1="119.643" y2="125" gradientTransform="matrix(1,0,0,-1,53.285708,405.30838)" gradientUnits="userSpaceOnUse" xlink:href="#linearGradient5075"/><linearGradient id="linearGradient4795" x1="132.5" x2="149.643" y1="119.643" y2="125" gradientTransform="matrix(1,0,0,-1,204,404.95124)" gradientUnits="userSpaceOnUse" xlink:href="#linearGradient5075"/><linearGradient id="linearGradient4797" x1="132.5" x2="149.643" y1="119.643" y2="125" gradientTransform="matrix(1,0,0,-1,252.92857,404.5941)" gradientUnits="userSpaceOnUse" xlink:href="#linearGradient5075"/><linearGradient id="linearGradient4799" x1="132.5" x2="149.643" y1="119.643" y2="125" gradientTransform="matrix(1,0,0,-1,302.92857,404.23696)" gradientUnits="userSpaceOnUse" xlink:href="#linearGradient5075"/><linearGradient id="linearGradient4801" x1="132.5" x2="149.643" y1="119.643" y2="125" gradientTransform="matrix(1,0,0,-1,354.44635,404.74204)" gradientUnits="userSpaceOnUse" xlink:href="#linearGradient5075"/><linearGradient id="linearGradient4803" x1="155" x2="160.5" y1="275" y2="275" gradientTransform="translate(-625,577.36218)" gradientUnits="userSpaceOnUse" xlink:href="#linearGradient4874-9"/><linearGradient id="linearGradient4805" x1="245" x2="250.5" y1="275" y2="275" gradientTransform="translate(-625,577.36218)" gradientUnits="userSpaceOnUse" spreadMethod="reflect" xlink:href="#linearGradient4866-4"/><linearGradient id="linearGradient4807" x1="200" x2="200" y1="230" y2="220" gradientTransform="translate(-625,577.36218)" gradientUnits="userSpaceOnUse" xlink:href="#linearGradient4882-2"/><linearGradient id="linearGradient4809" x1="200" x2="200" y1="320" y2="330" gradientTransform="translate(-625,577.36218)" gradientUnits="userSpaceOnUse" xlink:href="#linearGradient4898-1"/><linearGradient id="linearGradient4811" x1="195" x2="200" y1="180" y2="185" gradientTransform="translate(-625,577.36218)" gradientUnits="userSpaceOnUse" xlink:href="#linearGradient4906-6"/><linearGradient id="linearGradient4813" x1="195" x2="200" y1="280" y2="275" gradientTransform="translate(-625,577.36218)" gradientUnits="userSpaceOnUse" xlink:href="#linearGradient4914-3"/><linearGradient id="linearGradient4815" x1="195" x2="200" y1="360" y2="365" gradientTransform="translate(-625,577.36218)" gradientUnits="userSpaceOnUse" xlink:href="#linearGradient4922-8"/><linearGradient id="linearGradient4817" x1="132.5" x2="149.643" y1="119.643" y2="125" gradientTransform="translate(-625,577.36218)" gradientUnits="userSpaceOnUse" xlink:href="#linearGradient5075-8"/><radialGradient id="radialGradient4819" cx="317.5" cy="207.5" r="2.5" fx="317.5" fy="207.5" gradientUnits="userSpaceOnUse" xlink:href="#linearGradient5296"/><radialGradient id="radialGradient4821" cx="317.5" cy="207.5" r="3.28" fx="317.5" fy="207.5" gradientUnits="userSpaceOnUse" xlink:href="#linearGradient5296"/><radialGradient id="radialGradient4823" cx="317.5" cy="207.5" r="2.5" fx="317.5" fy="207.5" gradientUnits="userSpaceOnUse" xlink:href="#linearGradient5296"/><radialGradient id="radialGradient4825" cx="317.5" cy="207.5" r="2.5" fx="317.5" fy="207.5" gradientUnits="userSpaceOnUse" xlink:href="#linearGradient5296"/><radialGradient id="radialGradient4827" cx="317.5" cy="207.5" r="3.28" fx="317.5" fy="207.5" gradientUnits="userSpaceOnUse" xlink:href="#linearGradient5296"/><radialGradient id="radialGradient4829" cx="317.5" cy="207.5" r="2.5" fx="317.5" fy="207.5" gradientUnits="userSpaceOnUse" xlink:href="#linearGradient5296"/><radialGradient id="radialGradient4831" cx="317.5" cy="207.5" r="3.28" fx="317.5" fy="207.5" gradientUnits="userSpaceOnUse" xlink:href="#linearGradient5296"/><radialGradient id="radialGradient4833" cx="317.5" cy="207.5" r="2.5" fx="317.5" fy="207.5" gradientUnits="userSpaceOnUse" xlink:href="#linearGradient5296"/><radialGradient id="radialGradient4835" cx="317.5" cy="207.5" r="3.28" fx="317.5" fy="207.5" gradientUnits="userSpaceOnUse" xlink:href="#linearGradient5296"/><radialGradient id="radialGradient4837" cx="317.5" cy="207.5" r="2.5" fx="317.5" fy="207.5" gradientUnits="userSpaceOnUse" xlink:href="#linearGradient5296"/><radialGradient id="radialGradient4839" cx="317.5" cy="207.5" r="3.28" fx="317.5" fy="207.5" gradientUnits="userSpaceOnUse" xlink:href="#linearGradient5296"/><radialGradient id="radialGradient4841" cx="317.5" cy="207.5" r="2.5" fx="317.5" fy="207.5" gradientUnits="userSpaceOnUse" xlink:href="#linearGradient5296"/><radialGradient id="radialGradient4843" cx="317.5" cy="207.5" r="3.28" fx="317.5" fy="207.5" gradientUnits="userSpaceOnUse" xlink:href="#linearGradient5296"/><radialGradient id="radialGradient4845" cx="317.5" cy="207.5" r="2.5" fx="317.5" fy="207.5" gradientUnits="userSpaceOnUse" xlink:href="#linearGradient5296"/><radialGradient id="radialGradient4847" cx="317.5" cy="207.5" r="3.28" fx="317.5" fy="207.5" gradientUnits="userSpaceOnUse" xlink:href="#linearGradient5296"/><filter id="filter4832" width="2.38" height="1.487" x="-.69" y="-.244" color-interpolation-filters="sRGB"><feGaussianBlur id="feGaussianBlur4834" stdDeviation="4.929"/></filter><filter id="filter4864" width="2.14" height="1.526" x="-.57" y="-.263" color-interpolation-filters="sRGB"><feGaussianBlur id="feGaussianBlur4866" stdDeviation="4.071"/></filter><filter id="filter4882" width="1.916" height="2.008" x="-.458" y="-.504" color-interpolation-filters="sRGB"><feGaussianBlur id="feGaussianBlur4884" stdDeviation="6"/></filter><filter id="filter4850" width="2.303" height="1.76" x="-.651" y="-.38" color-interpolation-filters="sRGB"><feGaussianBlur id="feGaussianBlur4852" stdDeviation="5.429"/></filter><filter id="filter4900" width="1.775" height="2.26" x="-.388" y="-.63" color-interpolation-filters="sRGB"><feGaussianBlur id="feGaussianBlur4902" stdDeviation="6"/></filter><filter id="filter4812" width="1.39" height="2.114" x="-.195" y="-.557" color-interpolation-filters="sRGB"><feGaussianBlur id="feGaussianBlur4814" stdDeviation="4.643"/></filter><filter id="filter4788" width="1.565" height="1.77" x="-.282" y="-.385" color-interpolation-filters="sRGB"><feGaussianBlur id="feGaussianBlur4790" stdDeviation="5.044"/></filter><filter id="filter4932" width="2.371" height="1.738" x="-.686" y="-.369" color-interpolation-filters="sRGB"><feGaussianBlur id="feGaussianBlur4934" stdDeviation="5.714"/></filter><filter id="filter4981" width="1.575" height="1.436" x="-.288" y="-.218" color-interpolation-filters="sRGB"><feGaussianBlur id="feGaussianBlur4983" stdDeviation="7.533"/></filter><filter id="filter4914" width="1.446" height="2.872" x="-.223" y="-.936" color-interpolation-filters="sRGB"><feGaussianBlur id="feGaussianBlur4916" stdDeviation="5.571"/></filter><filter id="filter4818" width="1.608" height="1.512" x="-.304" y="-.256" color-interpolation-filters="sRGB"><feGaussianBlur id="feGaussianBlur4820" stdDeviation="5.787"/></filter><filter id="filter4798" width="1.249" height="2.244" x="-.124" y="-.622" color-interpolation-filters="sRGB"><feGaussianBlur id="feGaussianBlur4800" stdDeviation="4.444"/></filter><linearGradient id="linearGradient4991" x1="272.106" x2="210.476" y1="332.1" y2="524.957" gradientTransform="matrix(0.24250261,-0.43276851,0.43879888,0.23401279,18.145672,489.11107)" gradientUnits="userSpaceOnUse" xlink:href="#linearGradient4985"/><linearGradient id="linearGradient4985"><stop style="stop-color:#fff;stop-opacity:1" id="stop4987" offset="0"/><stop style="stop-color:#fff;stop-opacity:0" id="stop4989" offset="1"/></linearGradient><linearGradient id="linearGradient5001" x1="319.48" x2="417.498" y1="684.486" y2="105.722" gradientUnits="userSpaceOnUse" xlink:href="#linearGradient4995"/><linearGradient id="linearGradient4995"><stop style="stop-color:#121212;stop-opacity:1" id="stop4997" offset="0"/><stop style="stop-color:#666;stop-opacity:0" id="stop4999" offset="1"/></linearGradient><filter id="filter5871" width="1.158" height="2.722" x="-.079" y="-.861"><feGaussianBlur id="feGaussianBlur5873" stdDeviation="16.57"/></filter><linearGradient id="linearGradient5895" x1="196.428" x2="226.611" y1="383.448" y2="429.41" gradientTransform="translate(1.0101525,0.50507627)" gradientUnits="userSpaceOnUse" xlink:href="#linearGradient5889"/><filter id="filter5913" width="2.144" height="2.383" x="-.572" y="-.691"><feGaussianBlur id="feGaussianBlur5915" stdDeviation="41.032"/></filter></defs><metadata id="metadata3873"/><g id="layer6"><rect style="opacity:.965625;fill:#000;fill-opacity:1;stroke:none" id="rect5887" width="751.429" height="1065.714" x="2.857" y=".934"/></g><g id="layer2"><path style="fill:#0f0;fill-opacity:1;stroke:#000;stroke-width:.86602545px;stroke-linecap:butt;stroke-linejoin:miter;stroke-opacity:1;filter:url(#filter4128)" id="path3207-7" d="m 200,461.77313 300,0 0,-74.99999 -300,0 z" transform="matrix(1,0,0,-1,4,716.7244)"/><path style="fill:#1f1f1f;fill-opacity:1;stroke:#000;stroke-width:.86602545px;stroke-linecap:butt;stroke-linejoin:miter;stroke-opacity:1" id="path3207" d="m 204,254.95124 300,0 0,74.99999 -300,0 z"/><path style="opacity:.7;fill:#a80;stroke:#000;stroke-width:1px;stroke-linecap:butt;stroke-linejoin:miter;stroke-opacity:1" id="path4132" d="m 204,254.95124 25,74.99999 25,0 -25,-74.99999 z"/><path style="opacity:.7;fill:#a80;stroke:#000;stroke-width:1px;stroke-linecap:butt;stroke-linejoin:miter;stroke-opacity:1" id="path4132-8" d="m 254,254.95124 25,74.99999 25,0 -25,-74.99999 z"/><path style="fill:#a80;fill-opacity:.59936912;stroke:#000;stroke-width:1px;stroke-linecap:butt;stroke-linejoin:miter;stroke-opacity:1" id="path4132-4" d="m 304,254.95124 25,74.99999 25,0 -25,-74.99999 z"/><path style="opacity:.7;fill:#a80;stroke:#000;stroke-width:1px;stroke-linecap:butt;stroke-linejoin:miter;stroke-opacity:1" id="path4132-0" d="m 354,254.95124 25,74.99999 25,0 -25,-74.99999 z"/><path style="opacity:.7;fill:#a80;stroke:#000;stroke-width:1px;stroke-linecap:butt;stroke-linejoin:miter;stroke-opacity:1" id="path4132-6" d="m 404,254.95124 25,74.99999 25,0 -25,-74.99999 z"/><path style="opacity:.7;fill:#a80;stroke:#000;stroke-width:1px;stroke-linecap:butt;stroke-linejoin:miter;stroke-opacity:1" id="path4132-49" d="m 454,254.95124 25,74.99999 25,0 -25,-74.99999 z"/><path style="fill:url(#linearGradient4775);fill-opacity:1;stroke:#000;stroke-width:1px;stroke-linecap:butt;stroke-linejoin:miter;stroke-opacity:1" id="path4344" d="m 304,254.95124 10,0 0,-250 -10,0 z"/><path style="fill:url(#linearGradient4777);fill-opacity:1;stroke:#000;stroke-width:1px;stroke-linecap:butt;stroke-linejoin:miter;stroke-opacity:1" id="path4346" d="m 404,254.95124 0,-250 -10,0 0,250 z"/><g id="g5250" transform="matrix(1,0,0,-1,779,982.3134)" style="filter:url(#filter5292)"><path id="path4132-61" d="m -575,727.36218 25,-75 25,0 -25,75 z" style="opacity:.7;fill:#a80;stroke:#000;stroke-width:1px;stroke-linecap:butt;stroke-linejoin:miter;stroke-opacity:1"/><path id="path4132-8-4" d="m -525,727.36218 25,-75 25,0 -25,75 z" style="opacity:.7;fill:#a80;stroke:#000;stroke-width:1px;stroke-linecap:butt;stroke-linejoin:miter;stroke-opacity:1"/><path id="path4132-4-6" d="m -475,727.36218 25,-75 25,0 -25,75 z" style="fill:#a80;fill-opacity:.59936912;stroke:#000;stroke-width:1px;stroke-linecap:butt;stroke-linejoin:miter;stroke-opacity:1"/><path id="path4132-0-2" d="m -425,727.36218 25,-75 25,0 -25,75 z" style="opacity:.7;fill:#a80;stroke:#000;stroke-width:1px;stroke-linecap:butt;stroke-linejoin:miter;stroke-opacity:1"/><path id="path4132-6-7" d="m -375,727.36218 25,-75 25,0 -25,75 z" style="opacity:.7;fill:#a80;stroke:#000;stroke-width:1px;stroke-linecap:butt;stroke-linejoin:miter;stroke-opacity:1"/><path id="path4132-49-9" d="m -325,727.36218 25,-75 25,0 -25,75 z" style="opacity:.7;fill:#a80;stroke:#000;stroke-width:1px;stroke-linecap:butt;stroke-linejoin:miter;stroke-opacity:1"/><path id="path4344-8" d="m -475,727.36218 10,0 0,250 -10,0 z" style="fill:url(#linearGradient4803);fill-opacity:1;stroke:#000;stroke-width:1px;stroke-linecap:butt;stroke-linejoin:miter;stroke-opacity:1"/><path id="path4346-0" d="m -375,727.36218 0,250 -10,0 0,-250 z" style="fill:url(#linearGradient4805);fill-opacity:1;stroke:#000;stroke-width:1px;stroke-linecap:butt;stroke-linejoin:miter;stroke-opacity:1"/><path id="path4348-3" d="m -465,797.36218 80,0 0,10 -80,0 z" style="fill:url(#linearGradient4807);fill-opacity:1;stroke:#000;stroke-width:1px;stroke-linecap:butt;stroke-linejoin:miter;stroke-opacity:1"/><path id="path4350-6" d="m -465,897.36218 75,0 5,0 0,10 -80,0 z" style="fill:url(#linearGradient4809);fill-opacity:1;stroke:#000;stroke-width:1px;stroke-linecap:butt;stroke-linejoin:miter;stroke-opacity:1"/><path id="path4352-7" d="m -465,787.36218 70,-60 10,0 0,10 -70,60 -10,0 z" style="fill:url(#linearGradient4811);fill-opacity:1;stroke:#000;stroke-width:1px;stroke-linecap:butt;stroke-linejoin:miter;stroke-opacity:1"/><path id="path4354-2" d="m -465,807.36218 0,10 70,80 5,0 5,0 0,-10 -70,-80 z" style="fill:url(#linearGradient4813);fill-opacity:1;stroke:#000;stroke-width:1px;stroke-linecap:butt;stroke-linejoin:miter;stroke-opacity:1"/><path id="path4356-7" d="m -395,907.36218 10,0 0,10 -70,60 -10,0 0,-10 z" style="fill:url(#linearGradient4815);fill-opacity:1;stroke:#000;stroke-width:1px;stroke-linecap:butt;stroke-linejoin:miter;stroke-opacity:1"/><path id="path4934-0" d="m 320,207.5 c 0,1.38071 -1.11929,2.5 -2.5,2.5 -1.38071,0 -2.5,-1.11929 -2.5,-2.5 0,-1.38071 1.11929,-2.5 2.5,-2.5 1.38071,0 2.5,1.11929 2.5,2.5 z" transform="translate(-697.5,597.36218)" style="fill:#666;fill-opacity:1;stroke:none"/><path style="fill:#666;fill-opacity:1;stroke:none;filter:url(#filter5006-8-4)" id="path4956-1" d="m 320,207.5 c 0,1.38071 -1.11929,2.5 -2.5,2.5 -1.38071,0 -2.5,-1.11929 -2.5,-2.5 0,-1.38071 1.11929,-2.5 2.5,-2.5 1.38071,0 2.5,1.11929 2.5,2.5 z" transform="translate(-697.5,597.36218)"/><path id="path5073-1" d="m -500,727.36218 25,-75 25,0 -25,75 z" style="fill:url(#linearGradient4817);fill-opacity:1;stroke:none"/></g><path style="fill:url(#linearGradient4779);fill-opacity:1;stroke:#000;stroke-width:1px;stroke-linecap:butt;stroke-linejoin:miter;stroke-opacity:1" id="path4348" d="m 314,184.95124 80,0 0,-10 -80,0 z"/><path style="fill:url(#linearGradient4781);fill-opacity:1;stroke:#000;stroke-width:1px;stroke-linecap:butt;stroke-linejoin:miter;stroke-opacity:1" id="path4350" d="m 314,84.95124 75,0 5,0 0,-10 -80,0 z"/><path style="fill:url(#linearGradient4783);fill-opacity:1;stroke:#000;stroke-width:1px;stroke-linecap:butt;stroke-linejoin:miter;stroke-opacity:1" id="path4352" d="m 314,194.95124 70,60 10,0 0,-10 -70,-60 -10,0 z"/><path style="fill:url(#linearGradient4785);fill-opacity:1;stroke:#000;stroke-width:1px;stroke-linecap:butt;stroke-linejoin:miter;stroke-opacity:1" id="path4354" d="m 314,174.95124 0,-10 70,-80 5,0 5,0 0,10 -70,80 z"/><path style="fill:url(#linearGradient4787);fill-opacity:1;stroke:#000;stroke-width:1px;stroke-linecap:butt;stroke-linejoin:miter;stroke-opacity:1" id="path4356" d="m 384,74.95124 10,0 0,-10 -70,-60 -10,0 0,10 z"/><path style="fill:url(#radialGradient4819);fill-opacity:1;stroke:none" id="path4934" d="m 320,207.5 a 2.5,2.5 0 1 1 -5,0 2.5,2.5 0 1 1 5,0 z" transform="matrix(1,0,0,-1,81.494925,387.45123)"/><path id="path4956" d="m 320,207.5 a 2.5,2.5 0 1 1 -5,0 2.5,2.5 0 1 1 5,0 z" transform="matrix(1,0,0,-1,81.494925,387.45123)" style="fill:url(#radialGradient4821);fill-opacity:1;stroke:none;filter:url(#filter5006-8)"/><path style="fill:url(#linearGradient4789);fill-opacity:1;stroke:none" id="path5073" d="m 279,254.95124 25,74.99999 25,0 -25,-74.99999 z"/><path id="path5306" d="m 320,207.5 a 2.5,2.5 0 1 1 -5,0 2.5,2.5 0 1 1 5,0 z" transform="matrix(1,0,0,-1,81.494925,387.45123)" style="fill:url(#radialGradient4823);fill-opacity:1;stroke:none"/><path style="fill:url(#radialGradient4825);fill-opacity:1;stroke:none" id="path5435" d="m 320,207.5 a 2.5,2.5 0 1 1 -5,0 2.5,2.5 0 1 1 5,0 z" transform="matrix(1,0,0,-1,-8.500002,387.45123)"/><path id="path5437" d="m 320,207.5 a 2.5,2.5 0 1 1 -5,0 2.5,2.5 0 1 1 5,0 z" transform="matrix(1,0,0,-1,-8.500002,387.45123)" style="fill:url(#radialGradient4827);fill-opacity:1;stroke:none;filter:url(#filter5006-8)"/><path id="path5439" d="m 320,207.5 a 2.5,2.5 0 1 1 -5,0 2.5,2.5 0 1 1 5,0 z" transform="matrix(1,0,0,-1,-8.500002,387.45123)" style="fill:url(#radialGradient4829);fill-opacity:1;stroke:none"/><path style="fill:url(#radialGradient4831);fill-opacity:1;stroke:none;filter:url(#filter5006-8)" id="path5441" d="m 320,207.5 a 2.5,2.5 0 1 1 -5,0 2.5,2.5 0 1 1 5,0 z" transform="matrix(1,0,0,-1,-8.500002,387.45123)"/><path style="fill:url(#radialGradient4833);fill-opacity:1;stroke:none" id="path5451" d="m 320,207.5 a 2.5,2.5 0 1 1 -5,0 2.5,2.5 0 1 1 5,0 z" transform="matrix(1,0,0,-1,-8.395402,287.45123)"/><path id="path5453" d="m 320,207.5 a 2.5,2.5 0 1 1 -5,0 2.5,2.5 0 1 1 5,0 z" transform="matrix(1,0,0,-1,-8.395402,287.45123)" style="fill:url(#radialGradient4835);fill-opacity:1;stroke:none;filter:url(#filter5006-8)"/><path id="path5455" d="m 320,207.5 a 2.5,2.5 0 1 1 -5,0 2.5,2.5 0 1 1 5,0 z" transform="matrix(1,0,0,-1,-8.395402,287.45123)" style="fill:url(#radialGradient4837);fill-opacity:1;stroke:none"/><path style="fill:url(#radialGradient4839);fill-opacity:1;stroke:none;filter:url(#filter5006-8)" id="path5457" d="m 320,207.5 a 2.5,2.5 0 1 1 -5,0 2.5,2.5 0 1 1 5,0 z" transform="matrix(1,0,0,-1,-8.395402,287.45123)"/><path id="path5467" d="m 320,207.5 a 2.5,2.5 0 1 1 -5,0 2.5,2.5 0 1 1 5,0 z" transform="matrix(1,0,0,-1,81.508178,287.45123)" style="fill:url(#radialGradient4841);fill-opacity:1;stroke:none"/><path style="fill:url(#radialGradient4843);fill-opacity:1;stroke:none;filter:url(#filter5006-8)" id="path5469" d="m 320,207.5 a 2.5,2.5 0 1 1 -5,0 2.5,2.5 0 1 1 5,0 z" transform="matrix(1,0,0,-1,81.508178,287.45123)"/><path style="fill:url(#radialGradient4845);fill-opacity:1;stroke:none" id="path5471" d="m 320,207.5 a 2.5,2.5 0 1 1 -5,0 2.5,2.5 0 1 1 5,0 z" transform="matrix(1,0,0,-1,81.508178,287.45123)"/><path id="path5473" d="m 320,207.5 a 2.5,2.5 0 1 1 -5,0 2.5,2.5 0 1 1 5,0 z" transform="matrix(1,0,0,-1,81.508178,287.45123)" style="fill:url(#radialGradient4847);fill-opacity:1;stroke:none;filter:url(#filter5006-8)"/><path id="path5483" d="m 229,255.66553 25,74.99999 25,0 -25,-74.99999 z" style="fill:url(#linearGradient4791);fill-opacity:1;stroke:none"/><path style="fill:url(#linearGradient4793);fill-opacity:1;stroke:none" id="path5487" d="m 203.5,330.29498 0,-74.34374 24.78125,74.34374 -24.78125,0 z"/><path id="path5491" d="m 329,254.95125 25,74.99999 25,0 -25,-74.99999 z" style="fill:url(#linearGradient4795);fill-opacity:1;stroke:none"/><path style="fill:url(#linearGradient4797);fill-opacity:1;stroke:none" id="path5495" d="m 377.92857,254.59411 25,74.99999 25,0 -25,-74.99999 z"/><path id="path5499" d="m 427.92857,254.23697 25,74.99999 25,0 -25,-74.99999 z" style="fill:url(#linearGradient4799);fill-opacity:1;stroke:none"/><path style="fill:url(#linearGradient4801);fill-opacity:1;stroke:none" id="path5503" d="m 504.4375,329.73248 -25,-74.99999 25,0 0.0937,0.28125 0,74.71874 -0.0937,0 z"/></g><g id="layer3"><path id="path4710-3" d="m 502.85713,513.79077 a 178.57143,172.85715 0 1 1 -357.14285,0 178.57143,172.85715 0 1 1 357.14285,0 z" transform="matrix(0.22727841,-0.40559953,0.4700626,0.25068583,0.43764944,463.68904)" style="fill:#666;fill-opacity:1;stroke:#3e3e3e;stroke-width:6.98605585;stroke-linejoin:round;stroke-miterlimit:4;stroke-opacity:1;stroke-dasharray:none"/><path id="path4822" d="m 340.58701,319.3252 14.2857,48.57143 2.8571,-45.71429 z" transform="matrix(0.24250261,-0.43276851,0.43879888,0.23401279,-67.058225,462.63098)" style="fill:#ff0;stroke:none;filter:url(#filter4832)"/><path style="fill:#ff0;stroke:#000;stroke-width:.49663574px;stroke-linecap:butt;stroke-linejoin:miter;stroke-opacity:1" id="path4740" d="m 155.65455,389.96183 24.77741,5.18394 -19.36653,-11.9342 z"/><path id="path4854" d="m 394.87271,336.46806 -2.8571,37.14285 17.1428,-31.42857 z" transform="matrix(0.24250261,-0.43276851,0.43879888,0.23401279,-67.058225,462.63098)" style="fill:#ff0;stroke:none;filter:url(#filter4864)"/><path id="path4868" d="m 403.44411,385.03946 25.7143,-28.5714 5.7143,25.7143 z" transform="matrix(0.24250261,-0.43276851,0.43879888,0.23401279,-67.058225,462.63098)" style="fill:#ff0;stroke:none;filter:url(#filter4882)"/><path style="fill:#ff0;stroke:#000;stroke-width:.49663574px;stroke-linecap:butt;stroke-linejoin:miter;stroke-opacity:1" id="path4742" d="m 176.34125,370.48034 15.60537,9.92836 -9.63365,-14.77355 z"/><path id="path4836" d="m 360.58701,379.32516 20,17.1429 0,-34.28572 z" transform="matrix(0.24250261,-0.43276851,0.43879888,0.23401279,-67.058225,462.63098)" style="fill:red;fill-opacity:1;stroke:none;filter:url(#filter4850)"/><path style="fill:red;fill-opacity:1;stroke:#000;stroke-width:.49663574px;stroke-linecap:butt;stroke-linejoin:miter;stroke-opacity:1" id="path4744" d="m 186.83251,395.34722 12.37235,-4.64372 -15.04454,-8.02329 z"/><path style="fill:#ff0;stroke:#000;stroke-width:.49663574px;stroke-linecap:butt;stroke-linejoin:miter;stroke-opacity:1" id="path4746" d="m 199.7329,378.13723 -6.30131,-17.81441 12.66914,3.54451 z"/><path id="path4886" d="m 443.44411,413.61086 37.1429,-22.8571 -5.7143,20 z" transform="matrix(0.24250261,-0.43276851,0.43879888,0.23401279,-67.058225,462.63098)" style="fill:red;fill-opacity:1;stroke:none;filter:url(#filter4900)"/><path style="fill:red;fill-opacity:1;stroke:#000;stroke-width:.49663574px;stroke-linecap:butt;stroke-linejoin:miter;stroke-opacity:1" id="path4748" d="m 221.97011,367.51257 -1.02242,-21.42313 7.39025,7.15323 z"/><path id="path4802" d="m 334.87271,407.89666 -54.2857,-20 -2.8571,17.1428 z" transform="matrix(0.24250261,-0.43276851,0.43879888,0.23401279,-67.058225,462.63098)" style="fill:red;fill-opacity:1;stroke:none;filter:url(#filter4812)"/><path style="fill:red;fill-opacity:1;stroke:#000;stroke-width:.49663574px;stroke-linecap:butt;stroke-linejoin:miter;stroke-opacity:1" id="path4750" d="m 193.13387,413.16165 -21.9404,18.81289 6.82939,5.2481 z"/><path id="path4762" d="m 323.44411,439.32516 -42.8571,20 2.8571,11.4286 z" transform="matrix(0.24250261,-0.43276851,0.43879888,0.23401279,-67.058225,462.63098)" style="fill:#ff0;stroke:none;filter:url(#filter4788)"/><path style="fill:#ff0;stroke:#000;stroke-width:.49663574px;stroke-linecap:butt;stroke-linejoin:miter;stroke-opacity:1" id="path4752" d="m 204.1532,425.46226 -1.61698,23.22747 5.70771,1.43797 z"/><path id="path4918" d="m 432.01561,445.03946 14.2857,37.1429 5.7143,-22.8572 z" transform="matrix(0.24250261,-0.43276851,0.43879888,0.23401279,-67.058225,462.63098)" style="fill:red;fill-opacity:1;stroke:none;filter:url(#filter4932)"/><path style="fill:red;fill-opacity:1;stroke:#000;stroke-width:.49663574px;stroke-linecap:butt;stroke-linejoin:miter;stroke-opacity:1" id="path4754" d="m 232.9895,379.81316 19.76258,2.50951 -8.64398,-7.82184 z"/><path id="path4904" d="m 423.44411,422.18236 60,2.8571 -8.5714,11.4286 z" transform="matrix(0.24250261,-0.43276851,0.43879888,0.23401279,-67.058225,462.63098)" style="fill:#ff0;stroke:none;filter:url(#filter4914)"/><path style="fill:#ff0;stroke:#000;stroke-width:.49663574px;stroke-linecap:butt;stroke-linejoin:miter;stroke-opacity:1" id="path4756" d="m 220.88121,378.17378 15.80386,-25.29752 2.93627,6.38387 z"/><path id="path4816" d="m 329.15841,385.03946 -45.7143,-48.5714 17.1429,-5.71429 z" transform="matrix(0.24250261,-0.43276851,0.43879888,0.23401279,-67.058225,462.63098)" style="fill:#ff0;stroke:none;filter:url(#filter4818)"/><path style="fill:#ff0;stroke:#000;stroke-width:.49663574px;stroke-linecap:butt;stroke-linejoin:miter;stroke-opacity:1" id="path4758" d="m 181.71843,410.28575 -32.39891,8.41738 1.64977,-8.75613 z"/><path id="path4792" d="m 329.15841,422.18236 -85.7143,0 2.8572,17.1428 z" transform="matrix(0.24250261,-0.43276851,0.43879888,0.23401279,-67.058225,462.63098)" style="fill:#ff0;stroke:none;filter:url(#filter4798)"/><path style="fill:#ff0;stroke:#000;stroke-width:.49663574px;stroke-linecap:butt;stroke-linejoin:miter;stroke-opacity:1" id="path4760" d="m 198.01669,418.97766 -20.78594,37.09445 8.21512,2.77513 z"/><path style="opacity:.253125;fill:url(#linearGradient4991);fill-opacity:1;stroke:none" id="path4964" d="m 297.58248,501.86292 c 19.82896,10.57485 45.23517,-2.84158 58.68914,7.67175 13.45398,10.51333 18.73537,19.71774 14.92604,25.34168 -4.27605,6.313 -29.77318,18.10748 -45.79325,14.50458 -16.02013,-3.60292 -32.75844,-6.46384 -48.21226,-15.23922 -22.66513,-12.87028 -37.63431,-39.58209 -45.10552,-56.07094 -7.47119,-16.48886 2.75075,-38.89421 6.06537,-44.80946 3.31459,-5.91521 9.20267,-0.36195 19.21929,9.31388 10.01667,9.67579 20.38217,48.71286 40.21119,59.28773 z"/><path style="opacity:.965625;fill:url(#linearGradient5001);fill-opacity:1;stroke:none" id="path4993" d="m 502.85713,513.79077 a 178.57143,172.85715 0 1 1 -0.0354,-3.44252" transform="matrix(0.22727841,-0.40559953,0.4700626,0.25068583,0.43764944,463.68904)"/><path style="fill:url(#linearGradient5895);fill-opacity:1;stroke:none" id="path4712" d="m 227.24261,430.65307 -30.81474,-29.28147 10.95384,-16.64212 22.76434,37.83611 z"/><path id="path4967" d="m 335.85311,486.71316 22.8572,-82.8571 40,2.8571 -45.7143,77.1429 z" transform="matrix(0.24250261,-0.43276851,0.43879888,0.23401279,-67.058225,462.63098)" style="fill:#990e0e;fill-opacity:1;stroke:none;filter:url(#filter4981)"/><path style="opacity:.965625;fill:#bf1200;fill-opacity:.52996844;stroke:none;filter:url(#filter5913)" id="path5899" d="m 305.06606,414.95593 a 86.115501,71.215752 0 1 1 -172.231,0 86.115501,71.215752 0 1 1 172.231,0 z"/></g><g id="layer4"><text id="text5843" x="111.429" y="663.791" xml:space="preserve" style="font-size:40px;font-style:normal;font-variant:normal;font-weight:400;font-stretch:normal;line-height:125%;letter-spacing:0;word-spacing:0;fill:#ab1901;fill-opacity:1;stroke:none;filter:url(#filter5871);font-family:Capture it;-inkscape-font-specification:Capture it"><tspan style="font-size:64px;fill:#ab1901;fill-opacity:1" id="tspan5845" x="111.429" y="663.791">AI and the Bomb</tspan></text><text style="font-size:40px;font-style:normal;font-variant:normal;font-weight:400;font-stretch:normal;line-height:125%;letter-spacing:0;word-spacing:0;fill:#000;fill-opacity:1;stroke:none;font-family:Capture it;-inkscape-font-specification:Capture it" id="text5071" x="111.429" y="663.791" xml:space="preserve"><tspan id="tspan5073" x="111.429" y="663.791" style="font-size:64px;fill:#fff;fill-opacity:1">AI and the Bomb</tspan></text></g><g id="layer5"><text style="font-size:40px;font-style:normal;font-variant:normal;font-weight:400;font-stretch:normal;line-height:125%;letter-spacing:0;word-spacing:0;fill:#000;fill-opacity:1;stroke:none;font-family:Capture it;-inkscape-font-specification:Capture it" id="text5876" x="44.105" y="832.926" xml:space="preserve"><tspan id="tspan5878" x="44.105" y="832.926" style="fill:#fff;fill-opacity:1">By: </tspan><tspan style="fill:#fff;fill-opacity:1" id="tspan5880" x="44.105" y="882.926">- Paul &apos;opatut&apos; BienkowsKI</tspan><tspan style="fill:#fff;fill-opacity:1" id="tspan5882" x="44.105" y="932.926">- FaBian &apos;zetaron&apos; Stegemann</tspan><tspan style="fill:#fff;fill-opacity:1" id="tspan5884" x="44.105" y="982.926">- Sven-Hendrik &apos;svenstaro&apos; Haase</tspan></text></g></svg>