<svg xmlns="http://www.w3.org/2000/svg" xmlns:svg="http://www.w3.org/2000/svg" xmlns:xlink="http://www.w3.org/1999/xlink" id="svg5003" width="1024" height="600" version="1.1"><defs id="defs5005"><linearGradient id="linearGradient4668"><stop style="stop-color:#858585;stop-opacity:1" id="stop4670" offset="0"/><stop style="stop-color:#0f0f0f;stop-opacity:1" id="stop4672" offset="1"/></linearGradient><filter id="filter4128" width="1.301" height="2.204" x="-.15" y="-.602" color-interpolation-filters="sRGB"><feGaussianBlur id="feGaussianBlur4130" stdDeviation="18.808"/></filter><linearGradient id="linearGradient4880" x1="155" x2="160.5" y1="275" y2="275" gradientTransform="matrix(0.46539238,0,0,0.47951434,421.59426,69.450145)" gradientUnits="userSpaceOnUse" xlink:href="#linearGradient4874"/><linearGradient id="linearGradient4874"><stop style="stop-color:#1a1a1a;stop-opacity:1" id="stop4876" offset="0"/><stop style="stop-color:#1a1a1a;stop-opacity:0" id="stop4878" offset="1"/></linearGradient><linearGradient id="linearGradient4872" x1="245" x2="250.5" y1="275" y2="275" gradientTransform="matrix(0.46539238,0,0,0.47951434,421.59426,69.450145)" gradientUnits="userSpaceOnUse" spreadMethod="reflect" xlink:href="#linearGradient4866"/><linearGradient id="linearGradient4866"><stop style="stop-color:#1a1a1a;stop-opacity:1" id="stop4868" offset="0"/><stop style="stop-color:#1a1a1a;stop-opacity:0" id="stop4870" offset="1"/></linearGradient><filter id="filter5292" color-interpolation-filters="sRGB"><feGaussianBlur id="feGaussianBlur5294" stdDeviation="4.688"/></filter><linearGradient id="linearGradient5268" x1="155" x2="160.5" y1="275" y2="275" gradientTransform="translate(-625,577.36218)" gradientUnits="userSpaceOnUse" xlink:href="#linearGradient4874-9"/><linearGradient id="linearGradient4874-9"><stop style="stop-color:#1a1a1a;stop-opacity:1" id="stop4876-7" offset="0"/><stop style="stop-color:#1a1a1a;stop-opacity:0" id="stop4878-3" offset="1"/></linearGradient><linearGradient id="linearGradient5270" x1="245" x2="250.5" y1="275" y2="275" gradientTransform="translate(-625,577.36218)" gradientUnits="userSpaceOnUse" spreadMethod="reflect" xlink:href="#linearGradient4866-4"/><linearGradient id="linearGradient4866-4"><stop style="stop-color:#1a1a1a;stop-opacity:1" id="stop4868-5" offset="0"/><stop style="stop-color:#1a1a1a;stop-opacity:0" id="stop4870-8" offset="1"/></linearGradient><linearGradient id="linearGradient5272" x1="200" x2="200" y1="230" y2="220" gradientTransform="translate(-625,577.36218)" gradientUnits="userSpaceOnUse" xlink:href="#linearGradient4882-2"/><linearGradient id="linearGradient4882-2"><stop style="stop-color:#333;stop-opacity:1" id="stop4884-9" offset="0"/><stop style="stop-color:#1a1a1a;stop-opacity:1" id="stop4886-8" offset="1"/></linearGradient><linearGradient id="linearGradient5274" x1="200" x2="200" y1="320" y2="330" gradientTransform="translate(-625,577.36218)" gradientUnits="userSpaceOnUse" xlink:href="#linearGradient4898-1"/><linearGradient id="linearGradient4898-1"><stop style="stop-color:#1a1a1a;stop-opacity:1" id="stop4900-5" offset="0"/><stop style="stop-color:#1a1a1a;stop-opacity:0" id="stop4902-0" offset="1"/></linearGradient><linearGradient id="linearGradient5276" x1="195" x2="200" y1="180" y2="185" gradientTransform="translate(-625,577.36218)" gradientUnits="userSpaceOnUse" xlink:href="#linearGradient4906-6"/><linearGradient id="linearGradient4906-6"><stop style="stop-color:#666;stop-opacity:1" id="stop4908-1" offset="0"/><stop style="stop-color:#666;stop-opacity:0" id="stop4910-0" offset="1"/></linearGradient><linearGradient id="linearGradient5278" x1="195" x2="200" y1="280" y2="275" gradientTransform="translate(-625,577.36218)" gradientUnits="userSpaceOnUse" xlink:href="#linearGradient4914-3"/><linearGradient id="linearGradient4914-3"><stop style="stop-color:#666;stop-opacity:1" id="stop4916-2" offset="0"/><stop style="stop-color:#666;stop-opacity:0" id="stop4918-6" offset="1"/></linearGradient><linearGradient id="linearGradient5280" x1="195" x2="200" y1="360" y2="365" gradientTransform="translate(-625,577.36218)" gradientUnits="userSpaceOnUse" xlink:href="#linearGradient4922-8"/><linearGradient id="linearGradient4922-8"><stop style="stop-color:gray;stop-opacity:1" id="stop4924-2" offset="0"/><stop style="stop-color:gray;stop-opacity:0" id="stop4926-3" offset="1"/></linearGradient><filter id="filter5006-8-4" width="1.312" height="1.312" x="-.156" y="-.156" color-interpolation-filters="sRGB"><feGaussianBlur id="feGaussianBlur5008-2-9" stdDeviation=".325"/></filter><linearGradient id="linearGradient5282" x1="132.5" x2="149.643" y1="119.643" y2="125" gradientTransform="translate(-625,577.36218)" gradientUnits="userSpaceOnUse" xlink:href="#linearGradient5075-8"/><linearGradient id="linearGradient5075-8"><stop style="stop-color:#000;stop-opacity:.44782609" id="stop5077-7" offset="0"/><stop style="stop-color:#000;stop-opacity:0" id="stop5079-7" offset="1"/></linearGradient><linearGradient id="linearGradient4888" x1="200" x2="200" y1="230" y2="220" gradientTransform="matrix(0.46539238,0,0,0.47951434,421.59426,69.450145)" gradientUnits="userSpaceOnUse" xlink:href="#linearGradient4882"/><linearGradient id="linearGradient4882"><stop style="stop-color:#333;stop-opacity:1" id="stop4884" offset="0"/><stop style="stop-color:#1a1a1a;stop-opacity:1" id="stop4886" offset="1"/></linearGradient><linearGradient id="linearGradient4904" x1="200" x2="200" y1="320" y2="330" gradientTransform="matrix(0.46539238,0,0,0.47951434,421.59426,69.450145)" gradientUnits="userSpaceOnUse" xlink:href="#linearGradient4898"/><linearGradient id="linearGradient4898"><stop style="stop-color:#1a1a1a;stop-opacity:1" id="stop4900" offset="0"/><stop style="stop-color:#1a1a1a;stop-opacity:0" id="stop4902" offset="1"/></linearGradient><linearGradient id="linearGradient4912" x1="195" x2="200" y1="180" y2="185" gradientTransform="matrix(0.46539238,0,0,0.47951434,421.59426,69.450145)" gradientUnits="userSpaceOnUse" xlink:href="#linearGradient4906"/><linearGradient id="linearGradient4906"><stop style="stop-color:#666;stop-opacity:1" id="stop4908" offset="0"/><stop style="stop-color:#666;stop-opacity:0" id="stop4910" offset="1"/></linearGradient><linearGradient id="linearGradient4920" x1="195" x2="200" y1="280" y2="275" gradientTransform="matrix(0.46539238,0,0,0.47951434,421.59426,69.450145)" gradientUnits="userSpaceOnUse" xlink:href="#linearGradient4914"/><linearGradient id="linearGradient4914"><stop style="stop-color:#666;stop-opacity:1" id="stop4916" offset="0"/><stop style="stop-color:#666;stop-opacity:0" id="stop4918" offset="1"/></linearGradient><linearGradient id="linearGradient4928" x1="195" x2="200" y1="360" y2="365" gradientTransform="matrix(0.46539238,0,0,0.47951434,421.59426,69.450145)" gradientUnits="userSpaceOnUse" xlink:href="#linearGradient4922"/><linearGradient id="linearGradient4922"><stop style="stop-color:gray;stop-opacity:1" id="stop4924" offset="0"/><stop style="stop-color:gray;stop-opacity:0" id="stop4926" offset="1"/></linearGradient><radialGradient id="radialGradient5304" cx="317.5" cy="207.5" r="2.5" fx="317.5" fy="207.5" gradientUnits="userSpaceOnUse" xlink:href="#linearGradient5296"/><linearGradient id="linearGradient5296"><stop style="stop-color:#333;stop-opacity:1" id="stop5298" offset="0"/><stop style="stop-color:#666;stop-opacity:0" id="stop5300" offset="1"/></linearGradient><radialGradient id="radialGradient5302" cx="317.5" cy="207.5" r="3.28" fx="317.5" fy="207.5" gradientUnits="userSpaceOnUse" xlink:href="#linearGradient5296"/><linearGradient id="linearGradient5096"><stop style="stop-color:#333;stop-opacity:1" id="stop5098" offset="0"/><stop style="stop-color:#666;stop-opacity:0" id="stop5100" offset="1"/></linearGradient><filter id="filter5006-8" width="1.312" height="1.312" x="-.156" y="-.156" color-interpolation-filters="sRGB"><feGaussianBlur id="feGaussianBlur5008-2" stdDeviation=".325"/></filter><linearGradient id="linearGradient5081" x1="132.5" x2="149.643" y1="119.643" y2="125" gradientTransform="matrix(0.46539238,0,0,0.47951434,421.59425,69.450135)" gradientUnits="userSpaceOnUse" xlink:href="#linearGradient5075"/><linearGradient id="linearGradient5075"><stop style="stop-color:#000;stop-opacity:.44782609" id="stop5077" offset="0"/><stop style="stop-color:#000;stop-opacity:0" id="stop5079" offset="1"/></linearGradient><radialGradient id="radialGradient5417" cx="317.5" cy="207.5" r="2.5" fx="317.5" fy="207.5" gradientUnits="userSpaceOnUse" xlink:href="#linearGradient5296"/><linearGradient id="linearGradient5109"><stop style="stop-color:#333;stop-opacity:1" id="stop5111" offset="0"/><stop style="stop-color:#666;stop-opacity:0" id="stop5113" offset="1"/></linearGradient><radialGradient id="radialGradient5443" cx="317.5" cy="207.5" r="2.5" fx="317.5" fy="207.5" gradientUnits="userSpaceOnUse" xlink:href="#linearGradient5296"/><linearGradient id="linearGradient5116"><stop style="stop-color:#333;stop-opacity:1" id="stop5118" offset="0"/><stop style="stop-color:#666;stop-opacity:0" id="stop5120" offset="1"/></linearGradient><radialGradient id="radialGradient5445" cx="317.5" cy="207.5" r="3.28" fx="317.5" fy="207.5" gradientUnits="userSpaceOnUse" xlink:href="#linearGradient5296"/><linearGradient id="linearGradient5123"><stop style="stop-color:#333;stop-opacity:1" id="stop5125" offset="0"/><stop style="stop-color:#666;stop-opacity:0" id="stop5127" offset="1"/></linearGradient><radialGradient id="radialGradient5447" cx="317.5" cy="207.5" r="2.5" fx="317.5" fy="207.5" gradientUnits="userSpaceOnUse" xlink:href="#linearGradient5296"/><linearGradient id="linearGradient5134"><stop style="stop-color:#333;stop-opacity:1" id="stop5136" offset="0"/><stop style="stop-color:#666;stop-opacity:0" id="stop5138" offset="1"/></linearGradient><radialGradient id="radialGradient5449" cx="317.5" cy="207.5" r="3.28" fx="317.5" fy="207.5" gradientUnits="userSpaceOnUse" xlink:href="#linearGradient5296"/><linearGradient id="linearGradient5141"><stop style="stop-color:#333;stop-opacity:1" id="stop5143" offset="0"/><stop style="stop-color:#666;stop-opacity:0" id="stop5145" offset="1"/></linearGradient><radialGradient id="radialGradient5459" cx="317.5" cy="207.5" r="2.5" fx="317.5" fy="207.5" gradientUnits="userSpaceOnUse" xlink:href="#linearGradient5296"/><linearGradient id="linearGradient5152"><stop style="stop-color:#333;stop-opacity:1" id="stop5154" offset="0"/><stop style="stop-color:#666;stop-opacity:0" id="stop5156" offset="1"/></linearGradient><radialGradient id="radialGradient5461" cx="317.5" cy="207.5" r="3.28" fx="317.5" fy="207.5" gradientUnits="userSpaceOnUse" xlink:href="#linearGradient5296"/><linearGradient id="linearGradient5159"><stop style="stop-color:#333;stop-opacity:1" id="stop5161" offset="0"/><stop style="stop-color:#666;stop-opacity:0" id="stop5163" offset="1"/></linearGradient><radialGradient id="radialGradient5463" cx="317.5" cy="207.5" r="2.5" fx="317.5" fy="207.5" gradientUnits="userSpaceOnUse" xlink:href="#linearGradient5296"/><linearGradient id="linearGradient5170"><stop style="stop-color:#333;stop-opacity:1" id="stop5172" offset="0"/><stop style="stop-color:#666;stop-opacity:0" id="stop5174" offset="1"/></linearGradient><radialGradient id="radialGradient5465" cx="317.5" cy="207.5" r="3.28" fx="317.5" fy="207.5" gradientUnits="userSpaceOnUse" xlink:href="#linearGradient5296"/><linearGradient id="linearGradient5177"><stop style="stop-color:#333;stop-opacity:1" id="stop5179" offset="0"/><stop style="stop-color:#666;stop-opacity:0" id="stop5181" offset="1"/></linearGradient><radialGradient id="radialGradient5475" cx="317.5" cy="207.5" r="2.5" fx="317.5" fy="207.5" gradientUnits="userSpaceOnUse" xlink:href="#linearGradient5296"/><linearGradient id="linearGradient5188"><stop style="stop-color:#333;stop-opacity:1" id="stop5190" offset="0"/><stop style="stop-color:#666;stop-opacity:0" id="stop5192" offset="1"/></linearGradient><radialGradient id="radialGradient5477" cx="317.5" cy="207.5" r="3.28" fx="317.5" fy="207.5" gradientUnits="userSpaceOnUse" xlink:href="#linearGradient5296"/><linearGradient id="linearGradient5195"><stop style="stop-color:#333;stop-opacity:1" id="stop5197" offset="0"/><stop style="stop-color:#666;stop-opacity:0" id="stop5199" offset="1"/></linearGradient><radialGradient id="radialGradient5479" cx="317.5" cy="207.5" r="2.5" fx="317.5" fy="207.5" gradientUnits="userSpaceOnUse" xlink:href="#linearGradient5296"/><linearGradient id="linearGradient5206"><stop style="stop-color:#333;stop-opacity:1" id="stop5208" offset="0"/><stop style="stop-color:#666;stop-opacity:0" id="stop5210" offset="1"/></linearGradient><radialGradient id="radialGradient5481" cx="317.5" cy="207.5" r="3.28" fx="317.5" fy="207.5" gradientUnits="userSpaceOnUse" xlink:href="#linearGradient5296"/><linearGradient id="linearGradient5213"><stop style="stop-color:#333;stop-opacity:1" id="stop5215" offset="0"/><stop style="stop-color:#666;stop-opacity:0" id="stop5217" offset="1"/></linearGradient><linearGradient id="linearGradient5485" x1="132.5" x2="149.643" y1="119.643" y2="125" gradientTransform="matrix(0.46539238,0,0,0.47951434,398.32463,69.107625)" gradientUnits="userSpaceOnUse" xlink:href="#linearGradient5075"/><linearGradient id="linearGradient5224"><stop style="stop-color:#000;stop-opacity:.44782609" id="stop5226" offset="0"/><stop style="stop-color:#000;stop-opacity:0" id="stop5228" offset="1"/></linearGradient><linearGradient id="linearGradient5489" x1="132.5" x2="149.643" y1="119.643" y2="125" gradientTransform="matrix(0.46539238,0,0,0.47951434,374.72259,69.278875)" gradientUnits="userSpaceOnUse" xlink:href="#linearGradient5075"/><linearGradient id="linearGradient5231"><stop style="stop-color:#000;stop-opacity:.44782609" id="stop5233" offset="0"/><stop style="stop-color:#000;stop-opacity:0" id="stop5235" offset="1"/></linearGradient><linearGradient id="linearGradient5493" x1="132.5" x2="149.643" y1="119.643" y2="125" gradientTransform="matrix(0.46539238,0,0,0.47951434,444.86387,69.450135)" gradientUnits="userSpaceOnUse" xlink:href="#linearGradient5075"/><linearGradient id="linearGradient5238"><stop style="stop-color:#000;stop-opacity:.44782609" id="stop5240" offset="0"/><stop style="stop-color:#000;stop-opacity:0" id="stop5242" offset="1"/></linearGradient><linearGradient id="linearGradient5497" x1="132.5" x2="149.643" y1="119.643" y2="125" gradientTransform="matrix(0.46539238,0,0,0.47951434,467.63486,69.621385)" gradientUnits="userSpaceOnUse" xlink:href="#linearGradient5075"/><linearGradient id="linearGradient5245"><stop style="stop-color:#000;stop-opacity:.44782609" id="stop5247" offset="0"/><stop style="stop-color:#000;stop-opacity:0" id="stop5249" offset="1"/></linearGradient><linearGradient id="linearGradient5501" x1="132.5" x2="149.643" y1="119.643" y2="125" gradientTransform="matrix(0.46539238,0,0,0.47951434,490.90447,69.792645)" gradientUnits="userSpaceOnUse" xlink:href="#linearGradient5075"/><linearGradient id="linearGradient5252"><stop style="stop-color:#000;stop-opacity:.44782609" id="stop5254" offset="0"/><stop style="stop-color:#000;stop-opacity:0" id="stop5256" offset="1"/></linearGradient><linearGradient id="linearGradient5520" x1="132.5" x2="149.643" y1="119.643" y2="125" gradientTransform="matrix(0.46539238,0,0,0.47951434,514.88046,69.550445)" gradientUnits="userSpaceOnUse" xlink:href="#linearGradient5075"/><linearGradient id="linearGradient5259"><stop style="stop-color:#000;stop-opacity:.44782609" id="stop5261" offset="0"/><stop style="stop-color:#000;stop-opacity:0" id="stop5263" offset="1"/></linearGradient><filter id="filter4736" color-interpolation-filters="sRGB"><feGaussianBlur id="feGaussianBlur4738" stdDeviation="6.508"/></filter><filter id="filter4832" width="2.38" height="1.487" x="-.69" y="-.244" color-interpolation-filters="sRGB"><feGaussianBlur id="feGaussianBlur4834" stdDeviation="4.929"/></filter><filter id="filter4864" width="2.14" height="1.526" x="-.57" y="-.263" color-interpolation-filters="sRGB"><feGaussianBlur id="feGaussianBlur4866" stdDeviation="4.071"/></filter><filter id="filter4882" width="1.916" height="2.008" x="-.458" y="-.504" color-interpolation-filters="sRGB"><feGaussianBlur id="feGaussianBlur4884" stdDeviation="6"/></filter><filter id="filter4850" width="2.303" height="1.76" x="-.651" y="-.38" color-interpolation-filters="sRGB"><feGaussianBlur id="feGaussianBlur4852" stdDeviation="5.429"/></filter><filter id="filter4900" width="1.775" height="2.26" x="-.388" y="-.63" color-interpolation-filters="sRGB"><feGaussianBlur id="feGaussianBlur4902" stdDeviation="6"/></filter><filter id="filter4812" width="1.39" height="2.114" x="-.195" y="-.557" color-interpolation-filters="sRGB"><feGaussianBlur id="feGaussianBlur4814" stdDeviation="4.643"/></filter><filter id="filter4788" width="1.565" height="1.77" x="-.282" y="-.385" color-interpolation-filters="sRGB"><feGaussianBlur id="feGaussianBlur4790" stdDeviation="5.044"/></filter><filter id="filter4932" width="2.371" height="1.738" x="-.686" y="-.369" color-interpolation-filters="sRGB"><feGaussianBlur id="feGaussianBlur4934" stdDeviation="5.714"/></filter><filter id="filter4981" width="1.575" height="1.436" x="-.288" y="-.218" color-interpolation-filters="sRGB"><feGaussianBlur id="feGaussianBlur4983" stdDeviation="7.533"/></filter><filter id="filter4914" width="1.446" height="2.872" x="-.223" y="-.936" color-interpolation-filters="sRGB"><feGaussianBlur id="feGaussianBlur4916" stdDeviation="5.571"/></filter><filter id="filter4818" width="1.608" height="1.512" x="-.304" y="-.256" color-interpolation-filters="sRGB"><feGaussianBlur id="feGaussianBlur4820" stdDeviation="5.787"/></filter><filter id="filter4798" width="1.249" height="2.244" x="-.124" y="-.622" color-interpolation-filters="sRGB"><feGaussianBlur id="feGaussianBlur4800" stdDeviation="4.444"/></filter><linearGradient id="linearGradient4991" x1="272.106" x2="210.476" y1="332.1" y2="524.957" gradientTransform="matrix(0.37126744,0,0,0.3485149,707.93288,48.952257)" gradientUnits="userSpaceOnUse" xlink:href="#linearGradient4985"/><linearGradient id="linearGradient4985"><stop style="stop-color:#fff;stop-opacity:1" id="stop4987" offset="0"/><stop style="stop-color:#fff;stop-opacity:0" id="stop4989" offset="1"/></linearGradient><linearGradient id="linearGradient5001" x1="319.48" x2="417.498" y1="684.486" y2="105.722" gradientUnits="userSpaceOnUse" xlink:href="#linearGradient4995"/><linearGradient id="linearGradient4995"><stop style="stop-color:#121212;stop-opacity:1" id="stop4997" offset="0"/><stop style="stop-color:#666;stop-opacity:0" id="stop4999" offset="1"/></linearGradient><filter id="filter6522" width="1.054" height="1.714" x="-.027" y="-.357" color-interpolation-filters="sRGB"><feGaussianBlur id="feGaussianBlur6524" stdDeviation="13.045"/></filter><linearGradient id="linearGradient3818" x1="155" x2="160.5" y1="275" y2="275" gradientTransform="matrix(0.46539238,0,0,0.47951434,347.3475,481.81233)" gradientUnits="userSpaceOnUse" xlink:href="#linearGradient4874"/><linearGradient id="linearGradient3820" x1="245" x2="250.5" y1="275" y2="275" gradientTransform="matrix(0.46539238,0,0,0.47951434,347.3475,481.81233)" gradientUnits="userSpaceOnUse" spreadMethod="reflect" xlink:href="#linearGradient4866"/><linearGradient id="linearGradient3822" x1="155" x2="160.5" y1="275" y2="275" gradientTransform="translate(-625,577.36218)" gradientUnits="userSpaceOnUse" xlink:href="#linearGradient4874-9"/><linearGradient id="linearGradient3824" x1="245" x2="250.5" y1="275" y2="275" gradientTransform="translate(-625,577.36218)" gradientUnits="userSpaceOnUse" spreadMethod="reflect" xlink:href="#linearGradient4866-4"/><linearGradient id="linearGradient3826" x1="200" x2="200" y1="230" y2="220" gradientTransform="translate(-625,577.36218)" gradientUnits="userSpaceOnUse" xlink:href="#linearGradient4882-2"/><linearGradient id="linearGradient3828" x1="200" x2="200" y1="320" y2="330" gradientTransform="translate(-625,577.36218)" gradientUnits="userSpaceOnUse" xlink:href="#linearGradient4898-1"/><linearGradient id="linearGradient3830" x1="195" x2="200" y1="180" y2="185" gradientTransform="translate(-625,577.36218)" gradientUnits="userSpaceOnUse" xlink:href="#linearGradient4906-6"/><linearGradient id="linearGradient3832" x1="195" x2="200" y1="280" y2="275" gradientTransform="translate(-625,577.36218)" gradientUnits="userSpaceOnUse" xlink:href="#linearGradient4914-3"/><linearGradient id="linearGradient3834" x1="195" x2="200" y1="360" y2="365" gradientTransform="translate(-625,577.36218)" gradientUnits="userSpaceOnUse" xlink:href="#linearGradient4922-8"/><linearGradient id="linearGradient3836" x1="132.5" x2="149.643" y1="119.643" y2="125" gradientTransform="translate(-625,577.36218)" gradientUnits="userSpaceOnUse" xlink:href="#linearGradient5075-8"/><linearGradient id="linearGradient3838" x1="200" x2="200" y1="230" y2="220" gradientTransform="matrix(0.46539238,0,0,0.47951434,347.3475,481.81233)" gradientUnits="userSpaceOnUse" xlink:href="#linearGradient4882"/><linearGradient id="linearGradient3840" x1="200" x2="200" y1="320" y2="330" gradientTransform="matrix(0.46539238,0,0,0.47951434,347.3475,481.81233)" gradientUnits="userSpaceOnUse" xlink:href="#linearGradient4898"/><linearGradient id="linearGradient3842" x1="195" x2="200" y1="180" y2="185" gradientTransform="matrix(0.46539238,0,0,0.47951434,347.3475,481.81233)" gradientUnits="userSpaceOnUse" xlink:href="#linearGradient4906"/><linearGradient id="linearGradient3844" x1="195" x2="200" y1="280" y2="275" gradientTransform="matrix(0.46539238,0,0,0.47951434,347.3475,481.81233)" gradientUnits="userSpaceOnUse" xlink:href="#linearGradient4914"/><linearGradient id="linearGradient3846" x1="195" x2="200" y1="360" y2="365" gradientTransform="matrix(0.46539238,0,0,0.47951434,347.3475,481.81233)" gradientUnits="userSpaceOnUse" xlink:href="#linearGradient4922"/><radialGradient id="radialGradient3848" cx="317.5" cy="207.5" r="2.5" fx="317.5" fy="207.5" gradientUnits="userSpaceOnUse" xlink:href="#linearGradient5296"/><radialGradient id="radialGradient3850" cx="317.5" cy="207.5" r="3.28" fx="317.5" fy="207.5" gradientUnits="userSpaceOnUse" xlink:href="#linearGradient5296"/><linearGradient id="linearGradient3852" x1="132.5" x2="149.643" y1="119.643" y2="125" gradientTransform="matrix(0.46539238,0,0,0.47951434,347.34749,481.81232)" gradientUnits="userSpaceOnUse" xlink:href="#linearGradient5075"/><radialGradient id="radialGradient3854" cx="317.5" cy="207.5" r="2.5" fx="317.5" fy="207.5" gradientUnits="userSpaceOnUse" xlink:href="#linearGradient5296"/><radialGradient id="radialGradient3856" cx="317.5" cy="207.5" r="2.5" fx="317.5" fy="207.5" gradientUnits="userSpaceOnUse" xlink:href="#linearGradient5296"/><radialGradient id="radialGradient3858" cx="317.5" cy="207.5" r="3.28" fx="317.5" fy="207.5" gradientUnits="userSpaceOnUse" xlink:href="#linearGradient5296"/><radialGradient id="radialGradient3860" cx="317.5" cy="207.5" r="2.5" fx="317.5" fy="207.5" gradientUnits="userSpaceOnUse" xlink:href="#linearGradient5296"/><radialGradient id="radialGradient3862" cx="317.5" cy="207.5" r="3.28" fx="317.5" fy="207.5" gradientUnits="userSpaceOnUse" xlink:href="#linearGradient5296"/><radialGradient id="radialGradient3864" cx="317.5" cy="207.5" r="2.5" fx="317.5" fy="207.5" gradientUnits="userSpaceOnUse" xlink:href="#linearGradient5296"/><radialGradient id="radialGradient3866" cx="317.5" cy="207.5" r="3.28" fx="317.5" fy="207.5" gradientUnits="userSpaceOnUse" xlink:href="#linearGradient5296"/><radialGradient id="radialGradient3868" cx="317.5" cy="207.5" r="2.5" fx="317.5" fy="207.5" gradientUnits="userSpaceOnUse" xlink:href="#linearGradient5296"/><radialGradient id="radialGradient3870" cx="317.5" cy="207.5" r="3.28" fx="317.5" fy="207.5" gradientUnits="userSpaceOnUse" xlink:href="#linearGradient5296"/><radialGradient id="radialGradient3872" cx="317.5" cy="207.5" r="2.5" fx="317.5" fy="207.5" gradientUnits="userSpaceOnUse" xlink:href="#linearGradient5296"/><radialGradient id="radialGradient3874" cx="317.5" cy="207.5" r="3.28" fx="317.5" fy="207.5" gradientUnits="userSpaceOnUse" xlink:href="#linearGradient5296"/><radialGradient id="radialGradient3876" cx="317.5" cy="207.5" r="2.5" fx="317.5" fy="207.5" gradientUnits="userSpaceOnUse" xlink:href="#linearGradient5296"/><radialGradient id="radialGradient3878" cx="317.5" cy="207.5" r="3.28" fx="317.5" fy="207.5" gradientUnits="userSpaceOnUse" xlink:href="#linearGradient5296"/><linearGradient id="linearGradient3880" x1="132.5" x2="149.643" y1="119.643" y2="125" gradientTransform="matrix(0.46539238,0,0,0.47951434,324.07787,481.46981)" gradientUnits="userSpaceOnUse" xlink:href="#linearGradient5075"/><linearGradient id="linearGradient3882" x1="132.5" x2="149.643" y1="119.643" y2="125" gradientTransform="matrix(0.46539238,0,0,0.47951434,300.47583,481.64106)" gradientUnits="userSpaceOnUse" xlink:href="#linearGradient5075"/><linearGradient id="linearGradient3884" x1="132.5" x2="149.643" y1="119.643" y2="125" gradientTransform="matrix(0.46539238,0,0,0.47951434,370.61711,481.81232)" gradientUnits="userSpaceOnUse" xlink:href="#linearGradient5075"/><linearGradient id="linearGradient3886" x1="132.5" x2="149.643" y1="119.643" y2="125" gradientTransform="matrix(0.46539238,0,0,0.47951434,393.3881,481.98357)" gradientUnits="userSpaceOnUse" xlink:href="#linearGradient5075"/><linearGradient id="linearGradient3888" x1="132.5" x2="149.643" y1="119.643" y2="125" gradientTransform="matrix(0.46539238,0,0,0.47951434,416.65771,482.15483)" gradientUnits="userSpaceOnUse" xlink:href="#linearGradient5075"/><linearGradient id="linearGradient3890" x1="132.5" x2="149.643" y1="119.643" y2="125" gradientTransform="matrix(0.46539238,0,0,0.47951434,440.6337,481.91263)" gradientUnits="userSpaceOnUse" xlink:href="#linearGradient5075"/><linearGradient id="linearGradient3892" x1="272.106" x2="210.476" y1="332.1" y2="524.957" gradientTransform="matrix(0.37126744,0,0,0.3485149,633.68612,461.31444)" gradientUnits="userSpaceOnUse" xlink:href="#linearGradient4985"/><linearGradient id="linearGradient3894" x1="319.48" x2="417.498" y1="684.486" y2="105.722" gradientUnits="userSpaceOnUse" xlink:href="#linearGradient4995"/><linearGradient id="linearGradient4674" x1="49" x2="71" y1="425" y2="425" gradientTransform="matrix(1,0,0,0.69565219,0,616.71)" gradientUnits="userSpaceOnUse" xlink:href="#linearGradient4668"/><linearGradient id="linearGradient4684" x1="49" x2="71" y1="425" y2="425" gradientTransform="matrix(1,0,0,0.69565219,890,616.71)" gradientUnits="userSpaceOnUse" xlink:href="#linearGradient4668"/><linearGradient id="linearGradient4686" x1="49" x2="71" y1="425" y2="425" gradientTransform="matrix(1,0,0,0.69565219,296.66666,616.71)" gradientUnits="userSpaceOnUse" xlink:href="#linearGradient4668"/><linearGradient id="linearGradient4688" x1="49" x2="71" y1="425" y2="425" gradientTransform="matrix(1,0,0,0.69565219,593.33331,616.71)" gradientUnits="userSpaceOnUse" xlink:href="#linearGradient4668"/><linearGradient id="linearGradient4686-0" x1="49" x2="71" y1="425" y2="425" gradientTransform="matrix(1,0,0,0.69565219,296.66666,616.71)" gradientUnits="userSpaceOnUse" xlink:href="#linearGradient4668-2"/><linearGradient id="linearGradient4668-2"><stop style="stop-color:#858585;stop-opacity:1" id="stop4670-0" offset="0"/><stop style="stop-color:#0f0f0f;stop-opacity:1" id="stop4672-1" offset="1"/></linearGradient><linearGradient id="linearGradient4705" x1="49" x2="71" y1="425" y2="425" gradientTransform="matrix(1,0,0,3.9565218,922.36219,-2186.5217)" gradientUnits="userSpaceOnUse" xlink:href="#linearGradient4668-2"/></defs><metadata id="metadata5008"/><g id="layer1" transform="translate(0,-452.36218)"><text id="text6502" x="172.767" y="468.564" transform="matrix(0.76383942,0,0,1.3091757,-74.246758,60)" xml:space="preserve" style="font-size:113.30353546px;font-style:normal;font-variant:normal;font-weight:400;font-stretch:normal;text-align:start;line-height:125%;letter-spacing:0;word-spacing:0;writing-mode:lr-tb;text-anchor:start;fill:#75c900;fill-opacity:1;stroke:none;filter:url(#filter6522);font-family:Sans;-inkscape-font-specification:Sans"><tspan id="tspan4361" x="172.767" y="468.564">AI and he B mb</tspan></text><text style="font-size:113.30353546px;font-style:normal;font-variant:normal;font-weight:400;font-stretch:normal;text-align:start;line-height:125%;letter-spacing:0;word-spacing:0;writing-mode:lr-tb;text-anchor:start;fill:#b3b3b3;fill-opacity:1;stroke:none;font-family:Capture it;-inkscape-font-specification:Capture it" id="text5011" x="75.565" y="514.394" transform="scale(0.76383942,1.3091757)" xml:space="preserve"><tspan id="tspan5013" x="75.565" y="514.394">AI and he B mb</tspan></text><path style="fill:red;fill-opacity:1;stroke:#000;stroke-width:.86602545px;stroke-linecap:butt;stroke-linejoin:miter;stroke-opacity:1;display:inline;filter:url(#filter4128)" id="path3207-7" d="m 326.792,42.512321 300,0 0,-74.999997 -300,0 z" transform="matrix(0.46539238,0,0,0.47951434,218.53061,533.35421)"/><path style="fill:#1f1f1f;fill-opacity:1;stroke:#000;stroke-width:.40911093px;stroke-linecap:butt;stroke-linejoin:miter;stroke-opacity:1;display:inline" id="path3207" d="m 370.61711,553.73947 139.61772,0 0,-35.96357 -139.61772,0 z"/><path style="opacity:.7;fill:#a80;stroke:#000;stroke-width:.47240061px;stroke-linecap:butt;stroke-linejoin:miter;stroke-opacity:1;display:inline" id="path4132" d="m 370.61711,553.73947 11.63481,-35.96357 11.63481,0 -11.63481,35.96357 z"/><path style="opacity:.7;fill:#a80;stroke:#000;stroke-width:.47240061px;stroke-linecap:butt;stroke-linejoin:miter;stroke-opacity:1;display:inline" id="path4132-8" d="m 393.88673,553.73947 11.63481,-35.96357 11.63481,0 -11.63481,35.96357 z"/><path style="fill:#a80;fill-opacity:.59936912;stroke:#000;stroke-width:.47240061px;stroke-linecap:butt;stroke-linejoin:miter;stroke-opacity:1;display:inline" id="path4132-4" d="m 417.15635,553.73947 11.63481,-35.96357 11.63481,0 -11.63481,35.96357 z"/><path style="opacity:.7;fill:#a80;stroke:#000;stroke-width:.47240061px;stroke-linecap:butt;stroke-linejoin:miter;stroke-opacity:1;display:inline" id="path4132-0" d="m 440.42597,553.73947 11.63481,-35.96357 11.63481,0 -11.63481,35.96357 z"/><path style="opacity:.7;fill:#a80;stroke:#000;stroke-width:.47240061px;stroke-linecap:butt;stroke-linejoin:miter;stroke-opacity:1;display:inline" id="path4132-6" d="m 463.69559,553.73947 11.63481,-35.96357 11.63481,0 -11.63481,35.96357 z"/><path style="opacity:.7;fill:#a80;stroke:#000;stroke-width:.47240061px;stroke-linecap:butt;stroke-linejoin:miter;stroke-opacity:1;display:inline" id="path4132-49" d="m 486.96521,553.73947 11.63481,-35.96357 11.63481,0 -11.63481,35.96357 z"/><path style="fill:url(#linearGradient3818);fill-opacity:1;stroke:#000;stroke-width:.47240061px;stroke-linecap:butt;stroke-linejoin:miter;stroke-opacity:1;display:inline" id="path4344" d="m 417.15635,553.73947 4.65392,0 0,119.87859 -4.65392,0 z"/><path style="fill:url(#linearGradient3820);fill-opacity:1;stroke:#000;stroke-width:.47240061px;stroke-linecap:butt;stroke-linejoin:miter;stroke-opacity:1;display:inline" id="path4346" d="m 463.69559,553.73947 0,119.87859 -4.65393,0 0,-119.87859 z"/><g id="g5250" transform="matrix(0.46539238,0,0,0.47951434,638.21773,204.95888)" style="display:inline;filter:url(#filter5292)"><path id="path4132-61" d="m -575,727.36218 25,-75 25,0 -25,75 z" style="opacity:.7;fill:#a80;stroke:#000;stroke-width:1px;stroke-linecap:butt;stroke-linejoin:miter;stroke-opacity:1"/><path id="path4132-8-4" d="m -525,727.36218 25,-75 25,0 -25,75 z" style="opacity:.7;fill:#a80;stroke:#000;stroke-width:1px;stroke-linecap:butt;stroke-linejoin:miter;stroke-opacity:1"/><path id="path4132-4-6" d="m -475,727.36218 25,-75 25,0 -25,75 z" style="fill:#a80;fill-opacity:.59936912;stroke:#000;stroke-width:1px;stroke-linecap:butt;stroke-linejoin:miter;stroke-opacity:1"/><path id="path4132-0-2" d="m -425,727.36218 25,-75 25,0 -25,75 z" style="opacity:.7;fill:#a80;stroke:#000;stroke-width:1px;stroke-linecap:butt;stroke-linejoin:miter;stroke-opacity:1"/><path id="path4132-6-7" d="m -375,727.36218 25,-75 25,0 -25,75 z" style="opacity:.7;fill:#a80;stroke:#000;stroke-width:1px;stroke-linecap:butt;stroke-linejoin:miter;stroke-opacity:1"/><path id="path4132-49-9" d="m -325,727.36218 25,-75 25,0 -25,75 z" style="opacity:.7;fill:#a80;stroke:#000;stroke-width:1px;stroke-linecap:butt;stroke-linejoin:miter;stroke-opacity:1"/><path id="path4344-8" d="m -475,727.36218 10,0 0,250 -10,0 z" style="fill:url(#linearGradient3822);fill-opacity:1;stroke:#000;stroke-width:1px;stroke-linecap:butt;stroke-linejoin:miter;stroke-opacity:1"/><path id="path4346-0" d="m -375,727.36218 0,250 -10,0 0,-250 z" style="fill:url(#linearGradient3824);fill-opacity:1;stroke:#000;stroke-width:1px;stroke-linecap:butt;stroke-linejoin:miter;stroke-opacity:1"/><path id="path4348-3" d="m -465,797.36218 80,0 0,10 -80,0 z" style="fill:url(#linearGradient3826);fill-opacity:1;stroke:#000;stroke-width:1px;stroke-linecap:butt;stroke-linejoin:miter;stroke-opacity:1"/><path id="path4350-6" d="m -465,897.36218 75,0 5,0 0,10 -80,0 z" style="fill:url(#linearGradient3828);fill-opacity:1;stroke:#000;stroke-width:1px;stroke-linecap:butt;stroke-linejoin:miter;stroke-opacity:1"/><path id="path4352-7" d="m -465,787.36218 70,-60 10,0 0,10 -70,60 -10,0 z" style="fill:url(#linearGradient3830);fill-opacity:1;stroke:#000;stroke-width:1px;stroke-linecap:butt;stroke-linejoin:miter;stroke-opacity:1"/><path id="path4354-2" d="m -465,807.36218 0,10 70,80 5,0 5,0 0,-10 -70,-80 z" style="fill:url(#linearGradient3832);fill-opacity:1;stroke:#000;stroke-width:1px;stroke-linecap:butt;stroke-linejoin:miter;stroke-opacity:1"/><path id="path4356-7" d="m -395,907.36218 10,0 0,10 -70,60 -10,0 0,-10 z" style="fill:url(#linearGradient3834);fill-opacity:1;stroke:#000;stroke-width:1px;stroke-linecap:butt;stroke-linejoin:miter;stroke-opacity:1"/><path id="path4934-0" d="m 320,207.5 c 0,1.38071 -1.11929,2.5 -2.5,2.5 -1.38071,0 -2.5,-1.11929 -2.5,-2.5 0,-1.38071 1.11929,-2.5 2.5,-2.5 1.38071,0 2.5,1.11929 2.5,2.5 z" transform="translate(-697.5,597.36218)" style="fill:#666;fill-opacity:1;stroke:none"/><path style="fill:#666;fill-opacity:1;stroke:none;filter:url(#filter5006-8-4)" id="path4956-1" d="m 320,207.5 c 0,1.38071 -1.11929,2.5 -2.5,2.5 -1.38071,0 -2.5,-1.11929 -2.5,-2.5 0,-1.38071 1.11929,-2.5 2.5,-2.5 1.38071,0 2.5,1.11929 2.5,2.5 z" transform="translate(-697.5,597.36218)"/><path id="path5073-1" d="m -500,727.36218 25,-75 25,0 -25,75 z" style="fill:url(#linearGradient3836);fill-opacity:1;stroke:none"/></g><path style="fill:url(#linearGradient3838);fill-opacity:1;stroke:#000;stroke-width:.47240061px;stroke-linecap:butt;stroke-linejoin:miter;stroke-opacity:1;display:inline" id="path4348" d="m 421.81027,587.30548 37.23139,0 0,4.79514 -37.23139,0 z"/><path style="fill:url(#linearGradient3840);fill-opacity:1;stroke:#000;stroke-width:.47240061px;stroke-linecap:butt;stroke-linejoin:miter;stroke-opacity:1;display:inline" id="path4350" d="m 421.81027,635.25691 34.90443,0 2.32696,0 0,4.79515 -37.23139,0 z"/><path style="fill:url(#linearGradient3842);fill-opacity:1;stroke:#000;stroke-width:.47240061px;stroke-linecap:butt;stroke-linejoin:miter;stroke-opacity:1;display:inline" id="path4352" d="m 421.81027,582.51033 32.57747,-28.77086 4.65392,0 0,4.79515 -32.57746,28.77086 -4.65393,0 z"/><path style="fill:url(#linearGradient3844);fill-opacity:1;stroke:#000;stroke-width:.47240061px;stroke-linecap:butt;stroke-linejoin:miter;stroke-opacity:1;display:inline" id="path4354" d="m 421.81027,592.10062 0,4.79514 32.57747,38.36115 2.32696,0 2.32696,0 0,-4.79514 -32.57746,-38.36115 z"/><path style="fill:url(#linearGradient3846);fill-opacity:1;stroke:#000;stroke-width:.47240061px;stroke-linecap:butt;stroke-linejoin:miter;stroke-opacity:1;display:inline" id="path4356" d="m 454.38774,640.05206 4.65392,0 0,4.79514 -32.57746,28.77086 -4.65393,0 0,-4.79514 z"/><path style="fill:url(#radialGradient3848);fill-opacity:1;stroke:none;display:inline" id="path4934" d="m 320,207.5 a 2.5,2.5 0 1 1 -5,0 2.5,2.5 0 1 1 5,0 z" transform="matrix(0.46539238,0,0,0.47951434,313.60419,490.20383)"/><path id="path4956" d="m 320,207.5 a 2.5,2.5 0 1 1 -5,0 2.5,2.5 0 1 1 5,0 z" transform="matrix(0.46539238,0,0,0.47951434,313.60419,490.20383)" style="fill:url(#radialGradient3850);fill-opacity:1;stroke:none;display:inline;filter:url(#filter5006-8)"/><path style="fill:url(#linearGradient3852);fill-opacity:1;stroke:none;display:inline" id="path5073" d="m 405.52154,553.73947 11.63481,-35.96357 11.63481,0 -11.63481,35.96357 z"/><path id="path5306" d="m 320,207.5 a 2.5,2.5 0 1 1 -5,0 2.5,2.5 0 1 1 5,0 z" transform="matrix(0.46539238,0,0,0.47951434,313.60419,490.20383)" style="fill:url(#radialGradient3854);fill-opacity:1;stroke:none;display:inline"/><path style="fill:url(#radialGradient3856);fill-opacity:1;stroke:none;display:inline" id="path5435" d="m 320,207.5 a 2.5,2.5 0 1 1 -5,0 2.5,2.5 0 1 1 5,0 z" transform="matrix(0.46539238,0,0,0.47951434,271.72123,490.20383)"/><path id="path5437" d="m 320,207.5 a 2.5,2.5 0 1 1 -5,0 2.5,2.5 0 1 1 5,0 z" transform="matrix(0.46539238,0,0,0.47951434,271.72123,490.20383)" style="fill:url(#radialGradient3858);fill-opacity:1;stroke:none;display:inline;filter:url(#filter5006-8)"/><path id="path5439" d="m 320,207.5 a 2.5,2.5 0 1 1 -5,0 2.5,2.5 0 1 1 5,0 z" transform="matrix(0.46539238,0,0,0.47951434,271.72123,490.20383)" style="fill:url(#radialGradient3860);fill-opacity:1;stroke:none;display:inline"/><path style="fill:url(#radialGradient3862);fill-opacity:1;stroke:none;display:inline;filter:url(#filter5006-8)" id="path5441" d="m 320,207.5 a 2.5,2.5 0 1 1 -5,0 2.5,2.5 0 1 1 5,0 z" transform="matrix(0.46539238,0,0,0.47951434,271.72123,490.20383)"/><path style="fill:url(#radialGradient3864);fill-opacity:1;stroke:none;display:inline" id="path5451" d="m 320,207.5 a 2.5,2.5 0 1 1 -5,0 2.5,2.5 0 1 1 5,0 z" transform="matrix(0.46539238,0,0,0.47951434,271.76991,538.15526)"/><path id="path5453" d="m 320,207.5 a 2.5,2.5 0 1 1 -5,0 2.5,2.5 0 1 1 5,0 z" transform="matrix(0.46539238,0,0,0.47951434,271.76991,538.15526)" style="fill:url(#radialGradient3866);fill-opacity:1;stroke:none;display:inline;filter:url(#filter5006-8)"/><path id="path5455" d="m 320,207.5 a 2.5,2.5 0 1 1 -5,0 2.5,2.5 0 1 1 5,0 z" transform="matrix(0.46539238,0,0,0.47951434,271.76991,538.15526)" style="fill:url(#radialGradient3868);fill-opacity:1;stroke:none;display:inline"/><path style="fill:url(#radialGradient3870);fill-opacity:1;stroke:none;display:inline;filter:url(#filter5006-8)" id="path5457" d="m 320,207.5 a 2.5,2.5 0 1 1 -5,0 2.5,2.5 0 1 1 5,0 z" transform="matrix(0.46539238,0,0,0.47951434,271.76991,538.15526)"/><path id="path5467" d="m 320,207.5 a 2.5,2.5 0 1 1 -5,0 2.5,2.5 0 1 1 5,0 z" transform="matrix(0.46539238,0,0,0.47951434,313.61035,538.15526)" style="fill:url(#radialGradient3872);fill-opacity:1;stroke:none;display:inline"/><path style="fill:url(#radialGradient3874);fill-opacity:1;stroke:none;display:inline;filter:url(#filter5006-8)" id="path5469" d="m 320,207.5 a 2.5,2.5 0 1 1 -5,0 2.5,2.5 0 1 1 5,0 z" transform="matrix(0.46539238,0,0,0.47951434,313.61035,538.15526)"/><path style="fill:url(#radialGradient3876);fill-opacity:1;stroke:none;display:inline" id="path5471" d="m 320,207.5 a 2.5,2.5 0 1 1 -5,0 2.5,2.5 0 1 1 5,0 z" transform="matrix(0.46539238,0,0,0.47951434,313.61035,538.15526)"/><path id="path5473" d="m 320,207.5 a 2.5,2.5 0 1 1 -5,0 2.5,2.5 0 1 1 5,0 z" transform="matrix(0.46539238,0,0,0.47951434,313.61035,538.15526)" style="fill:url(#radialGradient3878);fill-opacity:1;stroke:none;display:inline;filter:url(#filter5006-8)"/><path id="path5483" d="m 382.25192,553.39696 11.63481,-35.96357 11.63481,0 -11.63481,35.96357 z" style="fill:url(#linearGradient3880);fill-opacity:1;stroke:none;display:inline"/><path style="fill:url(#linearGradient3882);fill-opacity:1;stroke:none;display:inline" id="path5487" d="m 370.38442,517.61107 0,35.64889 11.533,-35.64889 -11.533,0 z"/><path id="path5491" d="m 428.79116,553.73947 11.63481,-35.96357 11.63481,0 -11.63481,35.96357 z" style="fill:url(#linearGradient3884);fill-opacity:1;stroke:none;display:inline"/><path style="fill:url(#linearGradient3886);fill-opacity:1;stroke:none;display:inline" id="path5495" d="m 451.56214,553.91072 11.63481,-35.96357 11.63481,0 -11.63481,35.96357 z"/><path id="path5499" d="m 474.83176,554.08198 11.63481,-35.96358 11.63481,0 -11.63481,35.96358 z" style="fill:url(#linearGradient3888);fill-opacity:1;stroke:none;display:inline"/><path style="fill:url(#linearGradient3890);fill-opacity:1;stroke:none;display:inline" id="path5503" d="m 510.43843,517.88079 -11.63481,35.96358 11.63481,0 0.0436,-0.13487 0,-35.82871 -0.0436,0 z"/><path id="path4710" d="m 502.85713,513.79077 a 178.57143,172.85715 0 1 1 -357.14285,0 178.57143,172.85715 0 1 1 357.14285,0 z" transform="matrix(0.37126744,0,0,0.08070339,657.44723,651.18122)" style="opacity:.85;fill:#0d0d0d;fill-opacity:1;stroke:none;display:inline;filter:url(#filter4736)"/><path style="fill:#000;stroke:#3c3c3c;stroke-width:.35971135;stroke-linecap:butt;stroke-linejoin:miter;stroke-miterlimit:4;stroke-opacity:1;stroke-dasharray:none;display:inline" id="path4712" d="m 745.93004,568.35666 8.48611,-28.87695 14.8507,0.99576 -16.97223,26.88543 z"/><path id="path4710-3" d="m 502.85713,513.79077 a 178.57143,172.85715 0 1 1 -357.14285,0 178.57143,172.85715 0 1 1 357.14285,0 z" transform="matrix(0.34795946,0,0,0.37334604,644.23986,441.77479)" style="fill:#666;fill-opacity:1;stroke:#3e3e3e;stroke-width:6.98605585;stroke-linejoin:round;stroke-miterlimit:4;stroke-opacity:1;stroke-dasharray:none;display:inline"/><path id="path4822" d="m 748.04551,-159.7623 14.28571,48.57143 2.85715,-45.71429 z" transform="matrix(0.37126744,0,0,0.3485149,469.88724,567.10722)" style="fill:#ff0;stroke:none;display:inline;filter:url(#filter4832)"/><path style="fill:#ff0;stroke:#000;stroke-width:.35971135px;stroke-linecap:butt;stroke-linejoin:miter;stroke-opacity:1;display:inline" id="path4740" d="m 747.61218,511.42766 5.30383,16.92787 1.06076,-15.93211 z"/><path id="path4854" d="m 802.33122,-142.61944 -2.85714,37.14285 17.14286,-31.42857 z" transform="matrix(0.37126744,0,0,0.3485149,469.88724,567.10722)" style="fill:#ff0;stroke:none;display:inline;filter:url(#filter4864)"/><path id="path4868" d="m 810.90265,-94.048012 25.71429,-28.571428 5.71428,25.714278 z" transform="matrix(0.37126744,0,0,0.3485149,469.88724,567.10722)" style="fill:#ff0;stroke:none;display:inline;filter:url(#filter4882)"/><path style="fill:#ff0;stroke:#000;stroke-width:.35971135px;stroke-linecap:butt;stroke-linejoin:miter;stroke-opacity:1;display:inline" id="path4742" d="m 767.7667,517.4022 -1.06076,12.94485 6.36458,-10.95334 z"/><path id="path4836" d="m 768.04551,-99.762302 20,17.14286 0,-34.285718 z" transform="matrix(0.37126744,0,0,0.3485149,469.88724,567.10722)" style="fill:red;fill-opacity:1;stroke:none;display:inline;filter:url(#filter4850)"/><path style="fill:red;fill-opacity:1;stroke:#000;stroke-width:.35971135px;stroke-linecap:butt;stroke-linejoin:miter;stroke-opacity:1;display:inline" id="path4744" d="m 755.03753,532.33856 7.42535,5.97455 0,-11.94909 z"/><path style="fill:#ff0;stroke:#000;stroke-width:.35971135px;stroke-linecap:butt;stroke-linejoin:miter;stroke-opacity:1;display:inline" id="path4746" d="m 770.949,534.33008 9.54687,-9.95758 2.12153,8.96182 z"/><path id="path4886" d="m 850.90265,-65.476594 37.14286,-22.857138 -5.71429,19.999998 z" transform="matrix(0.37126744,0,0,0.3485149,469.88724,567.10722)" style="fill:red;fill-opacity:1;stroke:none;display:inline;filter:url(#filter4900)"/><path style="fill:red;fill-opacity:1;stroke:#000;stroke-width:.35971135px;stroke-linecap:butt;stroke-linejoin:miter;stroke-opacity:1;display:inline" id="path4748" d="m 785.79969,544.28765 13.78994,-7.96606 -2.12154,6.9703 z"/><path id="path4802" d="m 742.33122,-71.190874 -54.2857,-19.999998 -2.85714,17.14286 z" transform="matrix(0.37126744,0,0,0.3485149,469.88724,567.10722)" style="fill:red;fill-opacity:1;stroke:none;display:inline;filter:url(#filter4812)"/><path style="fill:red;fill-opacity:1;stroke:#000;stroke-width:.35971135px;stroke-linecap:butt;stroke-linejoin:miter;stroke-opacity:1;display:inline" id="path4750" d="m 745.49066,542.29614 -20.15452,-6.97031 -1.06076,5.97455 z"/><path id="path4762" d="m 730.90265,-39.762304 -42.85713,20 2.85714,11.4285698 z" transform="matrix(0.37126744,0,0,0.3485149,469.88724,567.10722)" style="fill:#ff0;stroke:none;display:inline;filter:url(#filter4788)"/><path style="fill:#ff0;stroke:#000;stroke-width:.35971135px;stroke-linecap:butt;stroke-linejoin:miter;stroke-opacity:1;display:inline" id="path4752" d="m 741.2476,553.24946 -15.91146,6.9703 1.06076,3.98302 z"/><path id="path4918" d="M 839.47408,-34.048014 853.7598,3.0948358 859.47408,-19.762304 z" transform="matrix(0.37126744,0,0,0.3485149,469.88724,567.10722)" style="fill:red;fill-opacity:1;stroke:none;display:inline;filter:url(#filter4932)"/><path style="fill:red;fill-opacity:1;stroke:#000;stroke-width:.35971135px;stroke-linecap:butt;stroke-linejoin:miter;stroke-opacity:1;display:inline" id="path4754" d="m 781.55664,555.24098 5.30382,12.94484 2.12152,-7.96606 z"/><path id="path4967" d="m 743.31163,7.6256658 22.85715,-82.8571478 40,2.85715 -45.71429,77.1428478 z" transform="matrix(0.37126744,0,0,0.3485149,469.88724,567.10722)" style="fill:#ac3939;fill-opacity:1;stroke:none;display:inline;filter:url(#filter4981)"/><path id="path4904" d="m 830.90265,-56.905164 60,2.85715 -8.57143,11.42857 z" transform="matrix(0.37126744,0,0,0.3485149,469.88724,567.10722)" style="fill:#ff0;stroke:none;display:inline;filter:url(#filter4914)"/><path style="fill:#ff0;stroke:#000;stroke-width:.35971135px;stroke-linecap:butt;stroke-linejoin:miter;stroke-opacity:1;display:inline" id="path4756" d="m 778.37434,547.27492 22.27604,0.99575 -3.18229,3.98304 z"/><path id="path4816" d="m 736.61694,-94.048012 -45.71428,-48.571428 17.14285,-5.71429 z" transform="matrix(0.37126744,0,0,0.3485149,469.88724,567.10722)" style="fill:#ff0;stroke:none;display:inline;filter:url(#filter4818)"/><path style="fill:#ff0;stroke:#000;stroke-width:.35971135px;stroke-linecap:butt;stroke-linejoin:miter;stroke-opacity:1;display:inline" id="path4758" d="m 743.36913,534.33008 -16.97223,-16.92788 6.36459,-1.99151 z"/><path id="path4792" d="m 736.61694,-56.905164 -85.71428,0 2.85715,17.14286 z" transform="matrix(0.37126744,0,0,0.3485149,469.88724,567.10722)" style="fill:#ff0;stroke:none;display:inline;filter:url(#filter4798)"/><path style="fill:#ff0;stroke:#000;stroke-width:.35971135px;stroke-linecap:butt;stroke-linejoin:miter;stroke-opacity:1;display:inline" id="path4760" d="m 743.36913,547.27492 -31.82293,0 1.06077,5.97454 z"/><path style="opacity:.253125;fill:url(#linearGradient3892);fill-opacity:1;stroke:none;display:inline" id="path4964" d="m 723.69494,636.56141 c 0,15.74912 17.81099,26.68792 15.60602,38.51759 -2.20497,11.82967 -6.42413,18.21327 -11.48062,17.81092 -5.67601,-0.45164 -22.44767,-12.00179 -25.71102,-23.03276 -3.26334,-11.03097 -7.26975,-22.24688 -6.91717,-34.70396 0.5171,-18.27 12.88751,-36.57676 21.14678,-46.7955 8.25925,-10.21874 26.65878,-11.64534 31.73339,-11.64534 5.07462,0 3.48071,5.50346 0.61816,14.94421 -2.86257,9.44073 -24.99554,29.15571 -24.99554,44.90484 z"/><path style="opacity:.965625;fill:url(#linearGradient3894);fill-opacity:1;stroke:none;display:inline" id="path4993" d="m 502.85713,513.79077 a 178.57143,172.85715 0 1 1 -0.0354,-3.44252" transform="matrix(0.34795946,0,0,0.37334604,644.23986,441.77479)"/></g></svg>