<svg xmlns="http://www.w3.org/2000/svg" xmlns:svg="http://www.w3.org/2000/svg" xmlns:xlink="http://www.w3.org/1999/xlink" id="svg2" width="300" height="100" version="1.1"><defs id="defs4"><linearGradient id="linearGradient3798"><stop style="stop-color:#fff;stop-opacity:1" id="stop3800" offset="0"/><stop style="stop-color:#fff;stop-opacity:0" id="stop3802" offset="1"/></linearGradient><filter id="filter3767" width="1.065" height="1.25" x="-.032" y="-.125"><feGaussianBlur id="feGaussianBlur3769" stdDeviation="3.65"/></filter><linearGradient id="linearGradient3804" x1="150" x2="150" y1="60" y2="15" gradientUnits="userSpaceOnUse" xlink:href="#linearGradient3798"/></defs><metadata id="metadata7"/><g id="layer1" transform="translate(0,-952.36218)"><rect id="rect3757" width="270" height="70" x="14.495" y="967.362" rx="10" ry="10" style="color:#000;fill:none;stroke:#fff;stroke-width:2;stroke-opacity:1;marker:none;visibility:visible;display:inline;overflow:visible;filter:url(#filter3767);enable-background:accumulate"/><rect style="color:#000;fill:#0e0f0c;fill-opacity:1;fill-rule:nonzero;stroke:none;stroke-width:2;marker:none;visibility:visible;display:inline;overflow:visible;enable-background:accumulate" id="rect2987" width="270" height="70" x="14.495" y="967.362" rx="10" ry="10"/><path style="color:#000;fill:url(#linearGradient3804);stroke:none;stroke-width:2;stroke-linecap:round;stroke-linejoin:miter;stroke-miterlimit:4;stroke-opacity:1;stroke-dasharray:none;stroke-dashoffset:0;marker:none;visibility:visible;display:inline;overflow:visible;enable-background:accumulate;fill-opacity:1;opacity:.4" id="path3771" d="M 25 15 C 19.46 15 15 19.46 15 25 L 15 40.46875 C 52.018079 49.991849 98.920339 55.71875 150 55.71875 C 201.07966 55.71875 247.98192 49.991849 285 40.46875 L 285 25 C 285 19.46 280.54 15 275 15 L 25 15 z" transform="translate(0,952.36218)"/><rect style="opacity:.14379087;color:#000;fill:none;stroke:#fff;stroke-width:4;stroke-miterlimit:4;stroke-opacity:1;stroke-dasharray:none;marker:none;visibility:visible;display:inline;overflow:visible;enable-background:accumulate" id="rect3806" width="250.147" height="50.556" x="24.421" y="977.084" rx="8" ry="8"/><rect style="opacity:.20934646;color:#000;fill:none;stroke:#000;stroke-width:.5;stroke-miterlimit:4;stroke-opacity:1;stroke-dasharray:none;marker:none;visibility:visible;display:inline;overflow:visible;enable-background:accumulate" id="rect3816" width="270" height="70" x="14.495" y="967.362" rx="10" ry="10"/><rect style="color:#000;fill:none;stroke:#d0d2c7;stroke-width:.5;stroke-linecap:round;stroke-linejoin:miter;stroke-miterlimit:4;stroke-opacity:0;stroke-dasharray:none;stroke-dashoffset:0;marker:none;visibility:visible;display:inline;overflow:visible;enable-background:accumulate" id="rect3845" width="68.69" height="44.447" x="25.254" y="-67.18" rx="10" ry="10" transform="translate(0,952.36218)"/></g></svg>