<svg xmlns="http://www.w3.org/2000/svg" xmlns:svg="http://www.w3.org/2000/svg" xmlns:xlink="http://www.w3.org/1999/xlink" id="svg3197" width="400" height="400" version="1.1"><defs id="defs3199"><linearGradient id="linearGradient5249"><stop style="stop-color:#000;stop-opacity:1" id="stop5251" offset="0"/><stop style="stop-color:#000;stop-opacity:0" id="stop5253" offset="1"/></linearGradient><linearGradient id="linearGradient5296"><stop style="stop-color:#333;stop-opacity:1" id="stop5298" offset="0"/><stop style="stop-color:#666;stop-opacity:0" id="stop5300" offset="1"/></linearGradient><linearGradient id="linearGradient5075"><stop style="stop-color:#000;stop-opacity:.44782609" id="stop5077" offset="0"/><stop style="stop-color:#000;stop-opacity:0" id="stop5079" offset="1"/></linearGradient><linearGradient id="linearGradient4944"><stop style="stop-color:#363636;stop-opacity:1" id="stop4946" offset="0"/><stop style="stop-color:#000;stop-opacity:1" id="stop4948" offset="1"/></linearGradient><linearGradient id="linearGradient4922"><stop style="stop-color:gray;stop-opacity:1" id="stop4924" offset="0"/><stop style="stop-color:gray;stop-opacity:0" id="stop4926" offset="1"/></linearGradient><linearGradient id="linearGradient4914"><stop style="stop-color:#666;stop-opacity:1" id="stop4916" offset="0"/><stop style="stop-color:#666;stop-opacity:0" id="stop4918" offset="1"/></linearGradient><linearGradient id="linearGradient4906"><stop style="stop-color:#666;stop-opacity:1" id="stop4908" offset="0"/><stop style="stop-color:#666;stop-opacity:0" id="stop4910" offset="1"/></linearGradient><linearGradient id="linearGradient4898"><stop style="stop-color:#1a1a1a;stop-opacity:1" id="stop4900" offset="0"/><stop style="stop-color:#1a1a1a;stop-opacity:0" id="stop4902" offset="1"/></linearGradient><linearGradient id="linearGradient4882"><stop style="stop-color:#333;stop-opacity:1" id="stop4884" offset="0"/><stop style="stop-color:#1a1a1a;stop-opacity:1" id="stop4886" offset="1"/></linearGradient><linearGradient id="linearGradient4874"><stop style="stop-color:#1a1a1a;stop-opacity:1" id="stop4876" offset="0"/><stop style="stop-color:#1a1a1a;stop-opacity:0" id="stop4878" offset="1"/></linearGradient><linearGradient id="linearGradient4866"><stop style="stop-color:#1a1a1a;stop-opacity:1" id="stop4868" offset="0"/><stop style="stop-color:#1a1a1a;stop-opacity:0" id="stop4870" offset="1"/></linearGradient><filter id="filter4128" width="1.301" height="2.204" x="-.15" y="-.602"><feGaussianBlur id="feGaussianBlur4130" stdDeviation="18.808"/></filter><linearGradient id="linearGradient4872" x1="245" x2="250.5" y1="275" y2="275" gradientUnits="userSpaceOnUse" spreadMethod="reflect" xlink:href="#linearGradient4866"/><linearGradient id="linearGradient4880" x1="155" x2="160.5" y1="275" y2="275" gradientUnits="userSpaceOnUse" xlink:href="#linearGradient4874"/><linearGradient id="linearGradient4888" x1="200" x2="200" y1="230" y2="220" gradientUnits="userSpaceOnUse" xlink:href="#linearGradient4882"/><linearGradient id="linearGradient4904" x1="200" x2="200" y1="320" y2="330" gradientTransform="translate(0,652.36218)" gradientUnits="userSpaceOnUse" xlink:href="#linearGradient4898"/><linearGradient id="linearGradient4912" x1="195" x2="200" y1="180" y2="185" gradientUnits="userSpaceOnUse" xlink:href="#linearGradient4906"/><linearGradient id="linearGradient4920" x1="195" x2="200" y1="280" y2="275" gradientUnits="userSpaceOnUse" xlink:href="#linearGradient4914"/><linearGradient id="linearGradient4928" x1="195" x2="200" y1="360" y2="365" gradientTransform="translate(0,652.36218)" gradientUnits="userSpaceOnUse" xlink:href="#linearGradient4922"/><radialGradient id="radialGradient4950-6" cx="317.5" cy="207.5" r="5" fx="317.5" fy="207.5" gradientUnits="userSpaceOnUse" xlink:href="#linearGradient4944-6"/><linearGradient id="linearGradient4944-6"><stop style="stop-color:#363636;stop-opacity:1" id="stop4946-6" offset="0"/><stop style="stop-color:#000;stop-opacity:1" id="stop4948-5" offset="1"/></linearGradient><filter id="filter5006-8" width="1.312" height="1.312" x="-.156" y="-.156" color-interpolation-filters="sRGB"><feGaussianBlur id="feGaussianBlur5008-2" stdDeviation=".325"/></filter><radialGradient id="radialGradient5026" cx="317.5" cy="207.5" r="5" fx="317.5" fy="207.5" gradientUnits="userSpaceOnUse" xlink:href="#linearGradient4944-6"/><linearGradient id="linearGradient5028"><stop style="stop-color:#363636;stop-opacity:1" id="stop5030" offset="0"/><stop style="stop-color:#000;stop-opacity:1" id="stop5032" offset="1"/></linearGradient><linearGradient id="linearGradient5081" x1="132.5" x2="149.643" y1="119.643" y2="125" gradientUnits="userSpaceOnUse" xlink:href="#linearGradient5075"/><linearGradient id="linearGradient5075-8"><stop style="stop-color:#000;stop-opacity:.44782609" id="stop5077-7" offset="0"/><stop style="stop-color:#000;stop-opacity:0" id="stop5079-7" offset="1"/></linearGradient><filter id="filter5006-8-4" width="1.312" height="1.312" x="-.156" y="-.156" color-interpolation-filters="sRGB"><feGaussianBlur id="feGaussianBlur5008-2-9" stdDeviation=".325"/></filter><linearGradient id="linearGradient4922-8"><stop style="stop-color:gray;stop-opacity:1" id="stop4924-2" offset="0"/><stop style="stop-color:gray;stop-opacity:0" id="stop4926-3" offset="1"/></linearGradient><linearGradient id="linearGradient4914-3"><stop style="stop-color:#666;stop-opacity:1" id="stop4916-2" offset="0"/><stop style="stop-color:#666;stop-opacity:0" id="stop4918-6" offset="1"/></linearGradient><linearGradient id="linearGradient4906-6"><stop style="stop-color:#666;stop-opacity:1" id="stop4908-1" offset="0"/><stop style="stop-color:#666;stop-opacity:0" id="stop4910-0" offset="1"/></linearGradient><linearGradient id="linearGradient4898-1"><stop style="stop-color:#1a1a1a;stop-opacity:1" id="stop4900-5" offset="0"/><stop style="stop-color:#1a1a1a;stop-opacity:0" id="stop4902-0" offset="1"/></linearGradient><linearGradient id="linearGradient4882-2"><stop style="stop-color:#333;stop-opacity:1" id="stop4884-9" offset="0"/><stop style="stop-color:#1a1a1a;stop-opacity:1" id="stop4886-8" offset="1"/></linearGradient><linearGradient id="linearGradient4866-4"><stop style="stop-color:#1a1a1a;stop-opacity:1" id="stop4868-5" offset="0"/><stop style="stop-color:#1a1a1a;stop-opacity:0" id="stop4870-8" offset="1"/></linearGradient><linearGradient id="linearGradient4874-9"><stop style="stop-color:#1a1a1a;stop-opacity:1" id="stop4876-7" offset="0"/><stop style="stop-color:#1a1a1a;stop-opacity:0" id="stop4878-3" offset="1"/></linearGradient><filter id="filter5292"><feGaussianBlur id="feGaussianBlur5294" stdDeviation="4.688"/></filter><radialGradient id="radialGradient5302" cx="317.5" cy="207.5" r="3.28" fx="317.5" fy="207.5" gradientUnits="userSpaceOnUse" xlink:href="#linearGradient5296"/><radialGradient id="radialGradient5304" cx="317.5" cy="207.5" r="2.5" fx="317.5" fy="207.5" gradientUnits="userSpaceOnUse" xlink:href="#linearGradient5296"/><radialGradient id="radialGradient5417" cx="317.5" cy="207.5" r="2.5" fx="317.5" fy="207.5" gradientUnits="userSpaceOnUse" xlink:href="#linearGradient5296"/><radialGradient id="radialGradient5427" cx="317.5" cy="207.5" r="2.5" fx="317.5" fy="207.5" gradientUnits="userSpaceOnUse" xlink:href="#linearGradient5296"/><radialGradient id="radialGradient5429" cx="317.5" cy="207.5" r="3.28" fx="317.5" fy="207.5" gradientUnits="userSpaceOnUse" xlink:href="#linearGradient5296"/><radialGradient id="radialGradient5431" cx="317.5" cy="207.5" r="2.5" fx="317.5" fy="207.5" gradientUnits="userSpaceOnUse" xlink:href="#linearGradient5296"/><radialGradient id="radialGradient5433" cx="317.5" cy="207.5" r="3.28" fx="317.5" fy="207.5" gradientUnits="userSpaceOnUse" xlink:href="#linearGradient5296"/><radialGradient id="radialGradient5443" cx="317.5" cy="207.5" r="2.5" fx="317.5" fy="207.5" gradientUnits="userSpaceOnUse" xlink:href="#linearGradient5296"/><radialGradient id="radialGradient5445" cx="317.5" cy="207.5" r="3.28" fx="317.5" fy="207.5" gradientUnits="userSpaceOnUse" xlink:href="#linearGradient5296"/><radialGradient id="radialGradient5447" cx="317.5" cy="207.5" r="2.5" fx="317.5" fy="207.5" gradientUnits="userSpaceOnUse" xlink:href="#linearGradient5296"/><radialGradient id="radialGradient5449" cx="317.5" cy="207.5" r="3.28" fx="317.5" fy="207.5" gradientUnits="userSpaceOnUse" xlink:href="#linearGradient5296"/><radialGradient id="radialGradient5459" cx="317.5" cy="207.5" r="2.5" fx="317.5" fy="207.5" gradientUnits="userSpaceOnUse" xlink:href="#linearGradient5296"/><radialGradient id="radialGradient5461" cx="317.5" cy="207.5" r="3.28" fx="317.5" fy="207.5" gradientUnits="userSpaceOnUse" xlink:href="#linearGradient5296"/><radialGradient id="radialGradient5463" cx="317.5" cy="207.5" r="2.5" fx="317.5" fy="207.5" gradientUnits="userSpaceOnUse" xlink:href="#linearGradient5296"/><radialGradient id="radialGradient5465" cx="317.5" cy="207.5" r="3.28" fx="317.5" fy="207.5" gradientUnits="userSpaceOnUse" xlink:href="#linearGradient5296"/><radialGradient id="radialGradient5475" cx="317.5" cy="207.5" r="2.5" fx="317.5" fy="207.5" gradientUnits="userSpaceOnUse" xlink:href="#linearGradient5296"/><radialGradient id="radialGradient5477" cx="317.5" cy="207.5" r="3.28" fx="317.5" fy="207.5" gradientUnits="userSpaceOnUse" xlink:href="#linearGradient5296"/><radialGradient id="radialGradient5479" cx="317.5" cy="207.5" r="2.5" fx="317.5" fy="207.5" gradientUnits="userSpaceOnUse" xlink:href="#linearGradient5296"/><radialGradient id="radialGradient5481" cx="317.5" cy="207.5" r="3.28" fx="317.5" fy="207.5" gradientUnits="userSpaceOnUse" xlink:href="#linearGradient5296"/><linearGradient id="linearGradient5485" x1="132.5" x2="149.643" y1="119.643" y2="125" gradientTransform="translate(-50,651.64789)" gradientUnits="userSpaceOnUse" xlink:href="#linearGradient5075"/><linearGradient id="linearGradient5489" x1="132.5" x2="149.643" y1="119.643" y2="125" gradientTransform="translate(-100.71429,-0.35715)" gradientUnits="userSpaceOnUse" xlink:href="#linearGradient5075"/><linearGradient id="linearGradient5493" x1="132.5" x2="149.643" y1="119.643" y2="125" gradientTransform="translate(49.999996,652.36217)" gradientUnits="userSpaceOnUse" xlink:href="#linearGradient5075"/><linearGradient id="linearGradient5497" x1="132.5" x2="149.643" y1="119.643" y2="125" gradientTransform="translate(98.928568,652.71931)" gradientUnits="userSpaceOnUse" xlink:href="#linearGradient5075"/><linearGradient id="linearGradient5501" x1="132.5" x2="149.643" y1="119.643" y2="125" gradientTransform="translate(148.92857,653.07645)" gradientUnits="userSpaceOnUse" xlink:href="#linearGradient5075"/><linearGradient id="linearGradient5520" x1="132.5" x2="149.643" y1="119.643" y2="125" gradientTransform="translate(200.44635,0.20919)" gradientUnits="userSpaceOnUse" xlink:href="#linearGradient5075"/><linearGradient id="linearGradient5221" x1="200" x2="200" y1="1054.015" y2="1027.772" gradientTransform="matrix(0.99391881,0,0,3.8708804,-0.40993626,-3009.6248)" gradientUnits="userSpaceOnUse" xlink:href="#linearGradient5296"/><linearGradient id="linearGradient5255" x1="200" x2="200" y1="1057.362" y2="1027.362" gradientUnits="userSpaceOnUse" xlink:href="#linearGradient5249"/><filter id="filter5261" width="1.126" height="1.849" x="-.063" y="-.425"><feGaussianBlur id="feGaussianBlur5263" stdDeviation="3.844"/></filter><linearGradient id="linearGradient3979" x1="49.5" x2="100.5" y1="120" y2="120" gradientTransform="translate(5.3731342,644.19031)" gradientUnits="userSpaceOnUse" xlink:href="#linearGradient3973"/><linearGradient id="linearGradient3973"><stop style="stop-color:#f9d200;stop-opacity:1" id="stop3975" offset="0"/><stop style="stop-color:#d73500;stop-opacity:1" id="stop3977" offset="1"/></linearGradient><linearGradient id="linearGradient3733"><stop style="stop-color:#f9d200;stop-opacity:1" id="stop3735" offset="0"/><stop style="stop-color:#d73500;stop-opacity:1" id="stop3737" offset="1"/></linearGradient><linearGradient id="linearGradient11345" x1="132.5" x2="149.643" y1="119.643" y2="125" gradientTransform="translate(0,652.36218)" gradientUnits="userSpaceOnUse" xlink:href="#linearGradient5075-8"/><linearGradient id="linearGradient11350" x1="195" x2="200" y1="360" y2="365" gradientTransform="translate(0,652.36218)" gradientUnits="userSpaceOnUse" xlink:href="#linearGradient4922-8"/><linearGradient id="linearGradient11353" x1="195" x2="200" y1="280" y2="275" gradientTransform="translate(0,652.36218)" gradientUnits="userSpaceOnUse" xlink:href="#linearGradient4914-3"/><linearGradient id="linearGradient11356" x1="195" x2="200" y1="180" y2="185" gradientTransform="translate(0,652.36218)" gradientUnits="userSpaceOnUse" xlink:href="#linearGradient4906-6"/><linearGradient id="linearGradient11359" x1="200" x2="200" y1="320" y2="330" gradientTransform="translate(0,652.36218)" gradientUnits="userSpaceOnUse" xlink:href="#linearGradient4898-1"/><linearGradient id="linearGradient11362" x1="200" x2="200" y1="230" y2="220" gradientTransform="translate(0,652.36218)" gradientUnits="userSpaceOnUse" xlink:href="#linearGradient4882-2"/><linearGradient id="linearGradient11365" x1="245" x2="250.5" y1="275" y2="275" gradientTransform="translate(0,652.36218)" gradientUnits="userSpaceOnUse" spreadMethod="reflect" xlink:href="#linearGradient4866-4"/><linearGradient id="linearGradient11368" x1="155" x2="160.5" y1="275" y2="275" gradientTransform="translate(0,652.36218)" gradientUnits="userSpaceOnUse" xlink:href="#linearGradient4874-9"/></defs><metadata id="metadata3202"/><g id="layer1" transform="translate(0,-652.36218)"><path style="fill:#ff0101;stroke:#000;stroke-width:.86602544999999986px;stroke-linecap:butt;stroke-linejoin:miter;stroke-opacity:1;filter:url(#filter4128);fill-opacity:1" id="path3207-7" d="m 50,802.36218 300,0 0,-75 -300,0 z"/><path style="opacity:1;fill:#1f1f1f;stroke:#000;stroke-width:.86602544999999986px;stroke-linecap:butt;stroke-linejoin:miter;stroke-opacity:1;fill-opacity:1" id="path3207" d="m 50,802.36218 300,0 0,-75 -300,0 z"/><path style="opacity:.69999999999999996;fill:#555;stroke:#000;stroke-width:1px;stroke-linecap:butt;stroke-linejoin:miter;stroke-opacity:1;fill-opacity:1" id="path4132-8" d="m 100,802.36218 25,-75 25,0 -25,75 z"/><path style="opacity:1;fill:#555;stroke:#000;stroke-width:1px;stroke-linecap:butt;stroke-linejoin:miter;stroke-opacity:1;fill-opacity:.59936911" id="path4132-4" d="m 150,802.36218 25,-75 25,0 -25,75 z"/><path style="opacity:.69999999999999996;fill:#555;stroke:#000;stroke-width:1px;stroke-linecap:butt;stroke-linejoin:miter;stroke-opacity:1;fill-opacity:1" id="path4132-0" d="m 200,802.36218 25,-75 25,0 -25,75 z"/><path style="opacity:.69999999999999996;fill:#555;stroke:#000;stroke-width:1px;stroke-linecap:butt;stroke-linejoin:miter;stroke-opacity:1;fill-opacity:1" id="path4132-6" d="m 250,802.36218 25,-75 25,0 -25,75 z"/><path style="fill:url(#linearGradient4880);stroke:#000;stroke-width:1px;stroke-linecap:butt;stroke-linejoin:miter;stroke-opacity:1;fill-opacity:1" id="path4344" d="m 150,150 10,0 0,250 -10,0 z" transform="translate(0,652.36218)"/><path style="fill:url(#linearGradient4872);stroke:#000;stroke-width:1px;stroke-linecap:butt;stroke-linejoin:miter;stroke-opacity:1;fill-opacity:1" id="path4346" d="m 250,150 0,250 -10,0 0,-250 z" transform="translate(0,652.36218)"/><path style="opacity:.69999999999999996;fill:#555;stroke:#000;stroke-width:1px;stroke-linecap:butt;stroke-linejoin:miter;stroke-opacity:1;filter:url(#filter5292);fill-opacity:.89984226" id="path4132-8-4" d="m 100,802.36218 25,-75 25,0 -25,75 z"/><path style="fill:#555;fill-opacity:.89984226;stroke:#000;stroke-width:1px;stroke-linecap:butt;stroke-linejoin:miter;stroke-opacity:1;filter:url(#filter5292)" id="path4132-4-6" d="m 150,802.36218 25,-75 25,0 -25,75 z"/><path style="opacity:.69999999999999996;fill:#555;stroke:#000;stroke-width:1px;stroke-linecap:butt;stroke-linejoin:miter;stroke-opacity:1;filter:url(#filter5292);fill-opacity:.89984226" id="path4132-0-2" d="m 200,802.36218 25,-75 25,0 -25,75 z"/><path style="opacity:.69999999999999996;fill:#555;stroke:#000;stroke-width:1px;stroke-linecap:butt;stroke-linejoin:miter;stroke-opacity:1;filter:url(#filter5292);fill-opacity:.89984226" id="path4132-6-7" d="m 250,802.36218 25,-75 25,0 -25,75 z"/><path style="fill:url(#linearGradient11368);fill-opacity:1;stroke:#000;stroke-width:1px;stroke-linecap:butt;stroke-linejoin:miter;stroke-opacity:1;filter:url(#filter5292)" id="path4344-8" d="m 150,802.36218 10,0 0,250.00002 -10,0 z"/><path style="fill:url(#linearGradient11365);fill-opacity:1;stroke:#000;stroke-width:1px;stroke-linecap:butt;stroke-linejoin:miter;stroke-opacity:1;filter:url(#filter5292)" id="path4346-0" d="m 250,802.36218 0,250.00002 -10,0 0,-250.00002 z"/><path style="fill:url(#linearGradient11362);fill-opacity:1;stroke:#000;stroke-width:1px;stroke-linecap:butt;stroke-linejoin:miter;stroke-opacity:1;filter:url(#filter5292)" id="path4348-3" d="m 160,872.36218 80,0 0,10 -80,0 z"/><path style="fill:url(#linearGradient11359);fill-opacity:1;stroke:#000;stroke-width:1px;stroke-linecap:butt;stroke-linejoin:miter;stroke-opacity:1;filter:url(#filter5292)" id="path4350-6" d="m 160,972.36218 75,0 5,0 0,10 -80,0 z"/><path style="fill:url(#linearGradient11356);fill-opacity:1;stroke:#000;stroke-width:1px;stroke-linecap:butt;stroke-linejoin:miter;stroke-opacity:1;filter:url(#filter5292)" id="path4352-7" d="m 160,862.36218 70,-60 10,0 0,10 -70,60 -10,0 z"/><path style="fill:url(#linearGradient11353);fill-opacity:1;stroke:#000;stroke-width:1px;stroke-linecap:butt;stroke-linejoin:miter;stroke-opacity:1;filter:url(#filter5292)" id="path4354-2" d="m 160,882.36218 0,10 70,80 5,0 5,0 0,-10 -70,-80 z"/><path style="fill:url(#linearGradient11350);fill-opacity:1;stroke:#000;stroke-width:1px;stroke-linecap:butt;stroke-linejoin:miter;stroke-opacity:1;filter:url(#filter5292)" id="path4356-7" d="m 230,982.36218 10,0 0,10 -70,60.00002 -10,0 0,-10 z"/><path style="fill:#666;fill-opacity:1;stroke:none;filter:url(#filter5292)" id="path4934-0" d="m 320,207.5 a 2.5,2.5 0 1 1 -5,0 2.5,2.5 0 1 1 5,0 z" transform="translate(-72.5,672.36218)"/><path id="path4956-1" d="m 320,207.5 a 2.5,2.5 0 1 1 -5,0 2.5,2.5 0 1 1 5,0 z" transform="translate(-72.5,672.36218)" style="fill:#666;fill-opacity:1;stroke:none;filter:url(#filter5006-8-4)"/><path style="fill:url(#linearGradient11345);fill-opacity:1;stroke:none;filter:url(#filter5292)" id="path5073-1" d="m 125,802.36218 25,-75 25,0 -25,75 z"/><path style="fill:url(#linearGradient4888);stroke:#000;stroke-width:1px;stroke-linecap:butt;stroke-linejoin:miter;stroke-opacity:1;fill-opacity:1" id="path4348" d="m 160,220 80,0 0,10 -80,0 z" transform="translate(0,652.36218)"/><path style="fill:url(#linearGradient4904);fill-opacity:1;stroke:#000;stroke-width:1px;stroke-linecap:butt;stroke-linejoin:miter;stroke-opacity:1" id="path4350" d="m 160,972.36218 75,0 5,0 0,10 -80,0 z"/><path style="fill:url(#linearGradient4912);stroke:#000;stroke-width:1px;stroke-linecap:butt;stroke-linejoin:miter;stroke-opacity:1;fill-opacity:1" id="path4352" d="m 160,210 70,-60 10,0 0,10 -70,60 -10,0 z" transform="translate(0,652.36218)"/><path style="fill:url(#linearGradient4920);stroke:#000;stroke-width:1px;stroke-linecap:butt;stroke-linejoin:miter;stroke-opacity:1;fill-opacity:1" id="path4354" d="m 160,230 0,10 70,80 5,0 5,0 0,-10 -70,-80 z" transform="translate(0,652.36218)"/><path style="fill:url(#linearGradient4928);fill-opacity:1;stroke:#000;stroke-width:1px;stroke-linecap:butt;stroke-linejoin:miter;stroke-opacity:1" id="path4356" d="m 230,982.36218 10,0 0,10 -70,60.00002 -10,0 0,-10 z"/><path style="fill:url(#radialGradient5304);fill-opacity:1;stroke:none" id="path4934" d="m 320,207.5 c 0,1.38071 -1.11929,2.5 -2.5,2.5 -1.38071,0 -2.5,-1.11929 -2.5,-2.5 0,-1.38071 1.11929,-2.5 2.5,-2.5 1.38071,0 2.5,1.11929 2.5,2.5 z" transform="translate(-72.505076,669.86218)"/><path id="path4956" d="m 320,207.5 c 0,1.38071 -1.11929,2.5 -2.5,2.5 -1.38071,0 -2.5,-1.11929 -2.5,-2.5 0,-1.38071 1.11929,-2.5 2.5,-2.5 1.38071,0 2.5,1.11929 2.5,2.5 z" transform="translate(-72.505076,669.86218)" style="fill:url(#radialGradient5302);fill-opacity:1;stroke:none;filter:url(#filter5006-8)"/><path style="fill:url(#linearGradient5081);stroke:none;stroke-width:1px;stroke-linecap:butt;stroke-linejoin:miter;stroke-opacity:1;fill-opacity:1" id="path5073" d="m 125,150 25,-75 25,0 -25,75 z" transform="translate(0,652.36218)"/><path id="path5306" d="m 320,207.5 c 0,1.38071 -1.11929,2.5 -2.5,2.5 -1.38071,0 -2.5,-1.11929 -2.5,-2.5 0,-1.38071 1.11929,-2.5 2.5,-2.5 1.38071,0 2.5,1.11929 2.5,2.5 z" transform="translate(-72.505076,669.86218)" style="fill:url(#radialGradient5417);fill-opacity:1;stroke:none"/><path style="fill:url(#radialGradient5443);fill-opacity:1;stroke:none" id="path5435" d="m 320,207.5 c 0,1.38071 -1.11929,2.5 -2.5,2.5 -1.38071,0 -2.5,-1.11929 -2.5,-2.5 0,-1.38071 1.11929,-2.5 2.5,-2.5 1.38071,0 2.5,1.11929 2.5,2.5 z" transform="translate(-162.5,669.86218)"/><path id="path5437" d="m 320,207.5 c 0,1.38071 -1.11929,2.5 -2.5,2.5 -1.38071,0 -2.5,-1.11929 -2.5,-2.5 0,-1.38071 1.11929,-2.5 2.5,-2.5 1.38071,0 2.5,1.11929 2.5,2.5 z" transform="translate(-162.5,669.86218)" style="fill:url(#radialGradient5445);fill-opacity:1;stroke:none;filter:url(#filter5006-8)"/><path id="path5439" d="m 320,207.5 c 0,1.38071 -1.11929,2.5 -2.5,2.5 -1.38071,0 -2.5,-1.11929 -2.5,-2.5 0,-1.38071 1.11929,-2.5 2.5,-2.5 1.38071,0 2.5,1.11929 2.5,2.5 z" transform="translate(-162.5,669.86218)" style="fill:url(#radialGradient5447);fill-opacity:1;stroke:none"/><path style="fill:url(#radialGradient5449);fill-opacity:1;stroke:none;filter:url(#filter5006-8)" id="path5441" d="m 320,207.5 c 0,1.38071 -1.11929,2.5 -2.5,2.5 -1.38071,0 -2.5,-1.11929 -2.5,-2.5 0,-1.38071 1.11929,-2.5 2.5,-2.5 1.38071,0 2.5,1.11929 2.5,2.5 z" transform="translate(-162.5,669.86218)"/><path style="fill:url(#radialGradient5459);fill-opacity:1;stroke:none" id="path5451" d="m 320,207.5 c 0,1.38071 -1.11929,2.5 -2.5,2.5 -1.38071,0 -2.5,-1.11929 -2.5,-2.5 0,-1.38071 1.11929,-2.5 2.5,-2.5 1.38071,0 2.5,1.11929 2.5,2.5 z" transform="translate(-162.3954,769.86218)"/><path id="path5453" d="m 320,207.5 c 0,1.38071 -1.11929,2.5 -2.5,2.5 -1.38071,0 -2.5,-1.11929 -2.5,-2.5 0,-1.38071 1.11929,-2.5 2.5,-2.5 1.38071,0 2.5,1.11929 2.5,2.5 z" transform="translate(-162.3954,769.86218)" style="fill:url(#radialGradient5461);fill-opacity:1;stroke:none;filter:url(#filter5006-8)"/><path id="path5455" d="m 320,207.5 c 0,1.38071 -1.11929,2.5 -2.5,2.5 -1.38071,0 -2.5,-1.11929 -2.5,-2.5 0,-1.38071 1.11929,-2.5 2.5,-2.5 1.38071,0 2.5,1.11929 2.5,2.5 z" transform="translate(-162.3954,769.86218)" style="fill:url(#radialGradient5463);fill-opacity:1;stroke:none"/><path style="fill:url(#radialGradient5465);fill-opacity:1;stroke:none;filter:url(#filter5006-8)" id="path5457" d="m 320,207.5 c 0,1.38071 -1.11929,2.5 -2.5,2.5 -1.38071,0 -2.5,-1.11929 -2.5,-2.5 0,-1.38071 1.11929,-2.5 2.5,-2.5 1.38071,0 2.5,1.11929 2.5,2.5 z" transform="translate(-162.3954,769.86218)"/><path id="path5467" d="m 320,207.5 c 0,1.38071 -1.11929,2.5 -2.5,2.5 -1.38071,0 -2.5,-1.11929 -2.5,-2.5 0,-1.38071 1.11929,-2.5 2.5,-2.5 1.38071,0 2.5,1.11929 2.5,2.5 z" transform="translate(-72.491823,769.86218)" style="fill:url(#radialGradient5475);fill-opacity:1;stroke:none"/><path style="fill:url(#radialGradient5477);fill-opacity:1;stroke:none;filter:url(#filter5006-8)" id="path5469" d="m 320,207.5 c 0,1.38071 -1.11929,2.5 -2.5,2.5 -1.38071,0 -2.5,-1.11929 -2.5,-2.5 0,-1.38071 1.11929,-2.5 2.5,-2.5 1.38071,0 2.5,1.11929 2.5,2.5 z" transform="translate(-72.491823,769.86218)"/><path style="fill:url(#radialGradient5479);fill-opacity:1;stroke:none" id="path5471" d="m 320,207.5 c 0,1.38071 -1.11929,2.5 -2.5,2.5 -1.38071,0 -2.5,-1.11929 -2.5,-2.5 0,-1.38071 1.11929,-2.5 2.5,-2.5 1.38071,0 2.5,1.11929 2.5,2.5 z" transform="translate(-72.491823,769.86218)"/><path id="path5473" d="m 320,207.5 c 0,1.38071 -1.11929,2.5 -2.5,2.5 -1.38071,0 -2.5,-1.11929 -2.5,-2.5 0,-1.38071 1.11929,-2.5 2.5,-2.5 1.38071,0 2.5,1.11929 2.5,2.5 z" transform="translate(-72.491823,769.86218)" style="fill:url(#radialGradient5481);fill-opacity:1;stroke:none;filter:url(#filter5006-8)"/><path id="path5491" d="m 175,802.36217 25,-75 25,0 -25,75 z" style="fill:url(#linearGradient5493);fill-opacity:1;stroke:none"/><path style="fill:url(#linearGradient5497);fill-opacity:1;stroke:none" id="path5495" d="m 223.92857,802.71931 25,-75 25,0 -25,75 z"/><rect style="fill:url(#linearGradient5221);fill-opacity:1;stroke:#000;stroke-width:1;stroke-linecap:butt;stroke-linejoin:miter;stroke-miterlimit:4;stroke-opacity:1;stroke-dasharray:none" id="rect5213" width="145.835" height="73.573" x="127.082" y="979.838"/><rect id="rect5223" width="146.728" height="21.728" x="128.272" y="1030.634" transform="matrix(1.0003915,0,0,2.6892114,-1.7150642,-1777.9303)" style="fill:url(#linearGradient5255);fill-opacity:1;stroke:#000;stroke-width:3;stroke-linecap:butt;stroke-linejoin:miter;stroke-miterlimit:4;stroke-opacity:1;stroke-dasharray:none;filter:url(#filter5261)"/></g></svg>