<svg xmlns="http://www.w3.org/2000/svg" xmlns:svg="http://www.w3.org/2000/svg" xmlns:xlink="http://www.w3.org/1999/xlink" id="svg5403" width="400" height="400" version="1.1"><defs id="defs5405"><linearGradient id="linearGradient4834"><stop style="stop-color:#701b04;stop-opacity:1" id="stop4836" offset="0"/><stop style="stop-color:#a58751;stop-opacity:1" id="stop4838" offset="1"/></linearGradient><linearGradient id="linearGradient4824"><stop style="stop-color:#924a85;stop-opacity:.28368795" id="stop4826" offset="0"/><stop style="stop-color:#dc20f2;stop-opacity:0" id="stop4828" offset="1"/></linearGradient><linearGradient id="linearGradient4810"><stop style="stop-color:#7a224b;stop-opacity:1" id="stop4812" offset="0"/><stop style="stop-color:#4f0421;stop-opacity:1" id="stop4814" offset="1"/></linearGradient><linearGradient id="linearGradient5995"><stop id="stop5997" offset="0" style="stop-color:#482321;stop-opacity:1"/><stop id="stop5999" offset="1" style="stop-color:#1a1312;stop-opacity:1"/></linearGradient><linearGradient id="linearGradient5927"><stop style="stop-color:#242148;stop-opacity:1" id="stop5929" offset="0"/><stop style="stop-color:#050012;stop-opacity:1" id="stop5931" offset="1"/></linearGradient><linearGradient id="linearGradient5933" x1="200" x2="200" y1="24.5" y2="375.5" gradientTransform="matrix(1.0025063,0,0,1,0,652.36218)" gradientUnits="userSpaceOnUse" xlink:href="#linearGradient5927"/><linearGradient id="linearGradient5943" x1="199.5" x2="225.5" y1="100" y2="100" gradientUnits="userSpaceOnUse" xlink:href="#linearGradient5927"/><linearGradient id="linearGradient5943-6" x1="199.5" x2="225.5" y1="100" y2="100" gradientUnits="userSpaceOnUse" xlink:href="#linearGradient5937-9"/><linearGradient id="linearGradient5937-9"><stop style="stop-color:#000;stop-opacity:1" id="stop5939-1" offset="0"/><stop style="stop-color:#000;stop-opacity:0" id="stop5941-4" offset="1"/></linearGradient><linearGradient id="linearGradient5962" x1="199.5" x2="225.5" y1="100" y2="100" gradientTransform="matrix(-0.98,0,0,1,395.5,652.36218)" gradientUnits="userSpaceOnUse" xlink:href="#linearGradient5927"/><radialGradient id="radialGradient5993" cx="200" cy="262.5" r="125.5" fx="200" fy="262.5" gradientTransform="matrix(1,0,0,0.70119522,0,78.436255)" gradientUnits="userSpaceOnUse" xlink:href="#linearGradient5937-9"/><filter id="filter6009"><feGaussianBlur id="feGaussianBlur6011" stdDeviation="2.833"/></filter><filter id="filter6021"><feGaussianBlur id="feGaussianBlur6023" stdDeviation=".934"/></filter><filter id="filter6045"><feGaussianBlur id="feGaussianBlur6047" stdDeviation=".938"/></filter><radialGradient id="radialGradient4818" cx="200" cy="200" r="177.5" fx="200" fy="200" gradientTransform="matrix(1.0025063,0,0,1,0,652.36218)" gradientUnits="userSpaceOnUse" xlink:href="#linearGradient4810"/><radialGradient id="radialGradient4830" cx="125" cy="75" r="50" fx="125" fy="75" gradientUnits="userSpaceOnUse" xlink:href="#linearGradient4824"/><linearGradient id="linearGradient4840" x1="249.5" x2="300.5" y1="301.5" y2="301.5" gradientUnits="userSpaceOnUse" xlink:href="#linearGradient4810"/><linearGradient id="linearGradient4840-7" x1="249.5" x2="300.5" y1="301.5" y2="301.5" gradientUnits="userSpaceOnUse" xlink:href="#linearGradient4834-1"/><linearGradient id="linearGradient4834-1"><stop style="stop-color:#701b04;stop-opacity:1" id="stop4836-8" offset="0"/><stop style="stop-color:#a58751;stop-opacity:1" id="stop4838-4" offset="1"/></linearGradient><linearGradient id="linearGradient4859" x1="249.5" x2="300.5" y1="301.5" y2="301.5" gradientTransform="matrix(-1,0,0,1,400,652.36218)" gradientUnits="userSpaceOnUse" xlink:href="#linearGradient4810"/><radialGradient id="radialGradient4892" cx="200" cy="262.5" r="25.5" fx="200" fy="262.5" gradientTransform="matrix(1,0,0,3.4509804,0,-643.38235)" gradientUnits="userSpaceOnUse" xlink:href="#linearGradient4810"/></defs><metadata id="metadata5408"/><g id="layer1" transform="translate(0,-652.36218)"><path style="fill:url(#radialGradient4830);fill-opacity:1;stroke:none" id="path4822" d="m 175,75 c 0,27.61424 -22.38576,50 -50,50 -27.614237,0 -50,-22.38576 -50,-50 0,-27.614237 22.385763,-50 50,-50 27.61424,0 50,22.385763 50,50 z" transform="matrix(4,0,0,4,-300,552.36218)"/><path style="fill:url(#linearGradient5933);fill-opacity:1;stroke:url(#radialGradient4818);stroke-width:5.00626183;stroke-linecap:butt;stroke-linejoin:miter;stroke-miterlimit:4;stroke-opacity:1;stroke-dasharray:none" id="path5925" d="m 200.50125,677.36218 -50.12531,50 0,50 25.06266,25 0,25 -25.06266,75 -125.313283,-50 75.187973,125 75.18797,50.00002 50.12531,0 75.18797,-50.00002 75.18797,-125 -125.31328,50 -25.06266,-75 0,-25 25.06266,-25 0,-50 -50.12532,-50 z"/><path style="fill:url(#linearGradient5943);fill-opacity:1;stroke:#323232;stroke-width:2;stroke-linecap:butt;stroke-linejoin:miter;stroke-miterlimit:4;stroke-opacity:1;stroke-dasharray:none;filter:url(#filter6045)" id="path5935" d="m 200,150 25,-25 0,-50 -25,-25 0,100 z" transform="matrix(1.0025063,0,0,1,0,652.36218)"/><path style="fill:url(#linearGradient5962);fill-opacity:1;stroke:#323232;stroke-width:2;stroke-linecap:butt;stroke-linejoin:miter;stroke-miterlimit:4;stroke-opacity:1;stroke-dasharray:none;filter:url(#filter6021)" id="path5935-3" d="m 199.5,802.36218 -24.5,-25 0,-50 24.5,-25 0,100 z" transform="scale(1.0025063,1)"/><path style="fill:url(#radialGradient5993);fill-opacity:1;stroke:#000;stroke-width:1px;stroke-linecap:butt;stroke-linejoin:miter;stroke-opacity:1;filter:url(#filter6009)" id="path5983" d="m 75,250 50,75 75,25 75,-25 50,-75 -75,25 -50,-100 -50,100 -75,-25 z" transform="matrix(1.0025063,0,0,1,0,652.36218)"/><path style="fill:none;stroke:none" id="path4820" d="M 400,200 C 400,310.45695 310.45695,400 200,400 89.54305,400 0,310.45695 0,200 0,89.54305 89.54305,0 200,0 310.45695,0 400,89.54305 400,200 z" transform="matrix(1.0025063,0,0,1,0,652.36218)"/><path style="fill:url(#linearGradient4840);stroke:#000;stroke-width:5;stroke-linecap:butt;stroke-linejoin:miter;stroke-opacity:1;fill-opacity:1;opacity:1;stroke-miterlimit:4;stroke-dasharray:none" id="path4832" d="m 251,328 -1,-28 50,-25 0,25 -49,28 z" transform="translate(0,652.36218)"/><path style="fill:url(#linearGradient4859);fill-opacity:1;stroke:#000;stroke-width:5;stroke-linecap:butt;stroke-linejoin:miter;stroke-miterlimit:4;stroke-opacity:1;stroke-dasharray:none" id="path4832-7" d="m 149,980.36218 1,-28 -50,-25 0,25 49,28 z"/><path style="fill:url(#radialGradient4892);stroke:#000;stroke-width:5;stroke-linecap:butt;stroke-linejoin:miter;stroke-opacity:1;fill-opacity:1;stroke-miterlimit:4;stroke-dasharray:none" id="path4880" d="m 178,350 -3,-100 25,-75 25,75 0,100 -47,0 z" transform="translate(0,652.36218)"/></g></svg>