<svg xmlns="http://www.w3.org/2000/svg" xmlns:svg="http://www.w3.org/2000/svg" xmlns:xlink="http://www.w3.org/1999/xlink" id="svg3038" width="40" height="40" version="1.1"><defs id="defs3040"><radialGradient id="radialGradient4236" cx="410" cy="77.362" r="10" fx="410" fy="77.362" gradientTransform="translate(-165.64094,33.454302)" gradientUnits="userSpaceOnUse" xlink:href="#linearGradient4037"/><linearGradient id="linearGradient4037"><stop style="stop-color:#fff;stop-opacity:1" id="stop4039" offset="0"/><stop id="stop4045" offset=".5" style="stop-color:#fff;stop-opacity:.23884514"/><stop style="stop-color:#fff;stop-opacity:0" id="stop4041" offset="1"/></linearGradient><filter id="filter4055" width="1.383" height="1.383" x="-.192" y="-.192" color-interpolation-filters="sRGB"><feGaussianBlur id="feGaussianBlur4057" stdDeviation="1.596"/></filter><radialGradient id="radialGradient3088" cx="410" cy="77.362" r="10" fx="410" fy="77.362" gradientTransform="translate(-391.59373,956.45595)" gradientUnits="userSpaceOnUse" xlink:href="#linearGradient4037"/><filter id="filter3819" width="1.204" height="1.177" x="-.102" y="-.089"><feGaussianBlur id="feGaussianBlur3821" stdDeviation=".59"/></filter></defs><metadata id="metadata3043"/><g id="layer1" transform="translate(0,-1012.3622)"><path id="path4234" d="m 405,64.362183 0.4,7.307179 6.5282,-3.307179 -6.1282,4 6.1282,4 -6.5282,-3.30718 -0.4,7.30718 -0.4,-7.30718 -6.5282,3.307179 6.1282,-3.999999 -6.1282,-4.000001 6.5282,3.30718 z" transform="matrix(2.0460718,0,0,2.0460718,-808.65908,884.30398)" style="fill:#fff;fill-opacity:1;fill-rule:nonzero;stroke:none;filter:url(#filter3819)"/><path id="path4232" d="m 17.25,1021.8622 c -9.74119,0.4526 -14.64297,13.9956 -7.25,20.5 6.50635,7.161 19.821691,2.3532 20.343751,-7.2813 0.94079,-7.3388 -5.73872,-14.0868 -13.093751,-13.2187 z" transform="matrix(1.2631801,0,0,1.262858,-3.2814691,-273.17081)" style="fill:url(#radialGradient3088);fill-opacity:1;fill-rule:nonzero;stroke:none;filter:url(#filter4055)"/></g></svg>