<svg xmlns="http://www.w3.org/2000/svg" xmlns:svg="http://www.w3.org/2000/svg" xmlns:xlink="http://www.w3.org/1999/xlink" id="svg2" width="200" height="200" version="1.1"><defs id="defs4"><linearGradient id="linearGradient4393"><stop style="stop-color:#0e0500;stop-opacity:1" id="stop4395" offset="0"/><stop style="stop-color:#130d07;stop-opacity:1" id="stop4397" offset="1"/></linearGradient><linearGradient id="linearGradient4042"><stop id="stop4044" offset="0" style="stop-color:#000;stop-opacity:1"/><stop id="stop4046" offset="1" style="stop-color:#3f2e1f;stop-opacity:1"/></linearGradient><linearGradient id="linearGradient3816"><stop id="stop3818" offset="0" style="stop-color:#173600;stop-opacity:1"/><stop id="stop3820" offset="1" style="stop-color:#2e4a11;stop-opacity:.33333334"/></linearGradient><linearGradient id="linearGradient4038" x1="37.178" x2="20.203" y1="121.404" y2="102.679" gradientTransform="translate(-4.8148148,-52.222222)" gradientUnits="userSpaceOnUse" xlink:href="#linearGradient3816"/><linearGradient id="linearGradient4040" x1="37.178" x2="20.203" y1="121.404" y2="102.679" gradientTransform="translate(-4.6427904,-54.552923)" gradientUnits="userSpaceOnUse" xlink:href="#linearGradient3816"/><linearGradient id="linearGradient4048" x1="95" x2="95" y1="1052.362" y2="982.362" gradientUnits="userSpaceOnUse" xlink:href="#linearGradient4042"/><filter id="filter4050"><feGaussianBlur id="feGaussianBlur4052" stdDeviation=".676"/></filter><linearGradient id="linearGradient4048-3" x1="95" x2="95" y1="1052.362" y2="982.362" gradientUnits="userSpaceOnUse" xlink:href="#linearGradient4042-8"/><linearGradient id="linearGradient4042-8"><stop id="stop4044-0" offset="0" style="stop-color:#0b2400;stop-opacity:1"/><stop id="stop4046-9" offset="1" style="stop-color:#243f1f;stop-opacity:0"/></linearGradient><linearGradient id="linearGradient4232" x1="95" x2="93.691" y1="1052.362" y2="961.149" gradientTransform="translate(-4.9e-6,-4.9999992)" gradientUnits="userSpaceOnUse" xlink:href="#linearGradient4042-8"/><filter id="filter4295" width="1.141" height="1.245" x="-.071" y="-.123"><feGaussianBlur id="feGaussianBlur4297" stdDeviation="5.883"/></filter><filter id="filter4327"><feGaussianBlur id="feGaussianBlur4329" stdDeviation="1.244"/></filter><filter id="filter4349"><feGaussianBlur id="feGaussianBlur4351" stdDeviation=".113"/></filter><filter id="filter4365"><feGaussianBlur id="feGaussianBlur4367" stdDeviation="1.264"/></filter><filter id="filter4387"><feGaussianBlur id="feGaussianBlur4389" stdDeviation=".115"/></filter><linearGradient id="linearGradient4399" x1="-.5" x2="200.5" y1="171.33" y2="171.33" gradientUnits="userSpaceOnUse" xlink:href="#linearGradient4393"/><filter id="filter4405" width="1.073" height="1.293" x="-.037" y="-.146"><feGaussianBlur id="feGaussianBlur4407" stdDeviation="3.057"/></filter><filter id="filter4451"><feGaussianBlur id="feGaussianBlur4453" stdDeviation=".313"/></filter><linearGradient id="linearGradient4478" x1="37.178" x2="20.203" y1="121.404" y2="102.679" gradientTransform="translate(-4.8148148,-52.222222)" gradientUnits="userSpaceOnUse" xlink:href="#linearGradient3816"/><linearGradient id="linearGradient4480" x1="37.178" x2="20.203" y1="121.404" y2="102.679" gradientTransform="translate(-4.6427904,-54.552923)" gradientUnits="userSpaceOnUse" xlink:href="#linearGradient3816"/><linearGradient id="linearGradient4048-7" x1="95" x2="95" y1="1052.362" y2="982.362" gradientUnits="userSpaceOnUse" xlink:href="#linearGradient4042-7"/><linearGradient id="linearGradient4042-7"><stop id="stop4044-9" offset="0" style="stop-color:#000;stop-opacity:1"/><stop id="stop4046-8" offset="1" style="stop-color:#3f2e1f;stop-opacity:1"/></linearGradient><linearGradient id="linearGradient4799" x1="95" x2="95" y1="1052.362" y2="982.362" gradientTransform="translate(0,-25.12037)" gradientUnits="userSpaceOnUse" xlink:href="#linearGradient4042-7"/><linearGradient id="linearGradient6304" x1="37.178" x2="20.203" y1="121.404" y2="102.679" gradientTransform="translate(-3.495691,-31.217698)" gradientUnits="userSpaceOnUse" xlink:href="#linearGradient3816"/><linearGradient id="linearGradient6488" x1="37.178" x2="20.203" y1="121.404" y2="102.679" gradientTransform="translate(4.3254552,-73.577552)" gradientUnits="userSpaceOnUse" xlink:href="#linearGradient3816"/><linearGradient id="linearGradient6490" x1="37.178" x2="20.203" y1="121.404" y2="102.679" gradientTransform="translate(4.4974796,-75.908253)" gradientUnits="userSpaceOnUse" xlink:href="#linearGradient3816"/><linearGradient id="linearGradient6492" x1="37.178" x2="20.203" y1="121.404" y2="102.679" gradientTransform="translate(4.4974796,-75.908253)" gradientUnits="userSpaceOnUse" xlink:href="#linearGradient3816"/><linearGradient id="linearGradient6494" x1="37.178" x2="20.203" y1="121.404" y2="102.679" gradientTransform="translate(4.3254552,-73.577552)" gradientUnits="userSpaceOnUse" xlink:href="#linearGradient3816"/><linearGradient id="linearGradient6500" x1="-.5" x2="200.5" y1="171.33" y2="171.33" gradientTransform="translate(0,852.36218)" gradientUnits="userSpaceOnUse" xlink:href="#linearGradient4393"/><linearGradient id="linearGradient6500-1" x1="-.5" x2="200.5" y1="171.33" y2="171.33" gradientTransform="translate(0,852.36218)" gradientUnits="userSpaceOnUse" xlink:href="#linearGradient4393-3"/><linearGradient id="linearGradient4393-3"><stop style="stop-color:#0e0500;stop-opacity:1" id="stop4395-3" offset="0"/><stop style="stop-color:#130d07;stop-opacity:1" id="stop4397-0" offset="1"/></linearGradient><filter id="filter4451-0" color-interpolation-filters="sRGB"><feGaussianBlur id="feGaussianBlur4453-0" stdDeviation=".313"/></filter><linearGradient id="linearGradient6519" x1="-.5" x2="200.5" y1="171.33" y2="171.33" gradientTransform="translate(0.75041986,-146.33783)" gradientUnits="userSpaceOnUse" xlink:href="#linearGradient4393-3"/><linearGradient id="linearGradient6563" x1="-.5" x2="200.5" y1="171.33" y2="171.33" gradientTransform="translate(70,853.58101)" gradientUnits="userSpaceOnUse" xlink:href="#linearGradient4393-3"/><linearGradient id="linearGradient6565" x1="-.5" x2="200.5" y1="171.33" y2="171.33" gradientTransform="translate(0.37037034,852.36216)" gradientUnits="userSpaceOnUse" xlink:href="#linearGradient4393"/><filter id="filter6575"><feGaussianBlur id="feGaussianBlur6577" stdDeviation="1.558"/></filter><filter id="filter6589"><feGaussianBlur id="feGaussianBlur6591" stdDeviation=".312"/></filter></defs><metadata id="metadata7"/><g id="layer1" transform="translate(0,-852.36218)"><path style="fill:url(#linearGradient4048);fill-opacity:1;stroke:#000;stroke-width:1px;stroke-linecap:butt;stroke-linejoin:miter;stroke-opacity:1;filter:url(#filter4050)" id="path3025" d="m 0,987.48255 c 0,0 45.37037,2.65743 55.37037,-2.34259 10,-5 18.888889,12.22222 43.888889,7.22222 14.708711,-2.94174 49.547731,-3.60897 56.481481,-2.22222 25,5 44.25926,-2.77778 44.25926,-2.77778 l 0,65.00002 -200,0 z"/><path id="path4409" d="m 0.37037034,1011.2511 c 0,0 31.87642466,-13.14851 63.33333266,-7.7778 30.370371,5.1852 55.555557,-7.77781 75.555547,-1.1111 20,6.6666 12.24833,-7.76663 27.77778,-1.1111 20.74075,8.8889 33.33334,1.1111 33.33334,1.1111 l 0,40 c 0,0 -40,10 -50,5 -10,-5 -10,-15 -55,-10 -45,5 -70,15 -75,10 -5,-5 -19.99999966,-10 -19.99999966,-10 z" style="fill:url(#linearGradient6565);fill-opacity:1;stroke:none;filter:url(#filter6575)"/><g id="g6482" transform="translate(-6.5630769,65)" style="opacity:.75"><path id="path8492" d="m 8.6146968,907.65582 c 2.1488182,4.64057 6.1666772,11.1806 5.1450762,15.34396 1.118744,0.23306 2.237314,0.46616 3.355709,0.6993 0,0 -4.000114,-10.49077 -8.5007852,-16.04326 z m 5.1540422,0.58067 c 2.145445,4.64117 6.231891,11.08817 5.296831,15.27081 1.0684,0.22354 2.13664,0.44711 3.204721,0.6707 0,0 -4.005498,-10.3882 -8.501552,-15.94151 z m 4.99928,0.51205 c 2.241528,4.5966 6.465871,11.01187 5.632936,15.2145 1.073517,0.19829 2.146883,0.39662 3.220097,0.59497 0,0 -4.242434,-10.34824 -8.853033,-15.80947 z m 5.16319,0.4774 c 2.238152,4.59722 6.469464,10.89143 5.634239,15.09447 0.439487,0.0766 0.878949,0.15329 1.318387,0.22994 0.698567,0.12497 1.396324,0.25004 2.093153,0.37537 0,0 -1.299422,-3.00064 -3.224463,-6.62188 -1.630046,-3.06392 -3.708357,-6.57225 -5.821316,-9.0779 z m 4.98642,0.352 c 2.351334,4.54936 6.722234,10.86289 5.994043,15.07521 1.131319,0.1767 2.259991,0.35441 3.38554,0.53374 0,0 -4.637861,-10.24036 -9.379583,-15.60895 z m 4.987767,0.35907 c 2.460074,4.49461 6.942892,10.7197 6.306074,14.94298 1.141948,0.15395 2.280538,0.30994 3.415312,0.46862 0,0 -1.203903,-2.53995 -3.02427,-5.7358 -1.820366,-3.19586 -4.261932,-7.04609 -6.697116,-9.6758 z m 5.015203,0.24993 c 1.271629,2.22476 3.064426,4.86633 4.46144,7.48488 1.397013,2.61855 2.399397,5.21244 2.13437,7.32944 1.158294,0.12285 2.312575,0.24891 3.462416,0.37886 0,0 -1.259981,-2.50831 -3.151988,-5.66076 -1.892007,-3.15245 -4.423209,-6.9467 -6.906238,-9.53242 z m 4.965837,0.15686 c 1.321114,2.19628 3.17405,4.78912 4.631128,7.36932 1.457079,2.58019 2.519623,5.14552 2.320985,7.26811 1.148244,0.0845 2.292171,0.17336 3.431426,0.2672 0,0 -1.308398,-2.46489 -3.267118,-5.55913 -1.95872,-3.09423 -4.577635,-6.81443 -7.116421,-9.3455 z m 4.888708,0.0365 c 1.384874,2.15728 3.328137,4.67579 4.885328,7.19583 1.557192,2.52003 2.729356,5.0389 2.652116,7.1687 1.250982,-0.0196 2.497232,-0.0326 3.738532,-0.038 0,0 -1.485328,-2.36175 -3.648595,-5.33033 -2.163266,-2.96859 -5.017619,-6.53867 -7.627381,-8.99622 z m 4.881996,-0.11805 c 2.230148,3.28347 5.932861,7.12952 7.632413,10.68433 -0.402156,1.08269 -0.694873,2.13075 -0.577359,3.08726 -1.879316,-0.092 -2.659018,-0.19544 -2.456766,-0.48697 0.05993,-0.0797 0.203053,-0.10251 0.428328,-0.0793 0,0 0.128061,-0.96846 0.299531,-2.36683 0,0 0,0 0,0 0.03174,-0.53239 0.217463,-1.21255 0.538465,-1.98317 0.321003,-0.77062 0.774368,-1.62954 1.19978,-2.443 10e-7,0 10e-7,0 10e-7,0 -2.328829,-2.16013 -4.937858,-4.50898 -7.064393,-6.4123 z m 4.257317,-0.39992 c 0.63961,0.75831 1.390459,1.49657 2.196972,2.22369 0.236391,1.26578 0.03959,2.84082 0.31223,4.17398 0.154933,1.08533 0.224681,2.20424 0.230672,3.29815 0.006,1.09392 -0.05306,2.15976 -0.258188,3.13759 0.142175,-0.004 0.29063,-0.006 0.445186,-0.006 0.696927,0.0154 1.417818,0.0643 2.160857,0.14097 0,0 -0.308947,-1.10939 -0.82516,-2.77668 -0.234416,-0.73587 -0.453694,-1.57437 -0.665509,-2.45373 -0.211816,-0.87936 -0.418335,-1.79882 -0.683279,-2.70036 -0.421882,-1.15242 -0.451858,-2.53229 -0.813541,-3.5418 -0.724681,-0.50922 -1.431079,-1.011 -2.10024,-1.49618 z m 2.222819,-0.47333 c 0.552834,0.7302 0.983002,1.65651 1.569917,2.55737 0.839391,1.43359 1.531152,3.08883 2.162894,4.76713 0.752237,2.03443 1.110005,4.05128 0.712155,5.77574 0.865176,0.15161 1.755894,0.3343 2.669973,0.5401 0,0 -0.280808,-0.87598 -0.770712,-2.22912 -0.489904,-1.35315 -1.184819,-3.17944 -2.111457,-5.07328 -0.768269,-1.54687 -1.516181,-3.11918 -2.480295,-4.39409 0,0 -10e-7,0 -10e-7,0 -0.626415,-0.75378 -1.163136,-1.49177 -1.752474,-1.94385 z m 3.34199,-1.13764 c 0.907232,1.13951 1.802235,2.49901 2.669624,3.96541 1.056248,1.79778 1.975938,3.73339 2.546215,5.59158 0.570276,1.85819 0.797751,3.63439 0.408479,5.09547 0.911423,0.26246 1.843138,0.54247 2.793675,0.83263 0,0 -0.553647,-1.74061 -1.465102,-4.1304 -0.911455,-2.38978 -2.193356,-5.42686 -3.965609,-8.0161 -0.897488,-1.30405 -1.875507,-2.48792 -2.987282,-3.33859 z m 5.522051,-0.0622 c 1.213622,2.21756 2.644058,4.91808 3.666435,7.60466 1.022377,2.68658 1.696771,5.35207 1.322461,7.42745 -0.03504,0.18625 -0.07877,0.36772 -0.131763,0.54401 0.931064,0.3264 1.872087,0.65774 2.822596,0.99009 0,0 -0.463398,-1.57828 -1.237595,-3.83812 -0.657177,-1.86381 -1.492157,-4.18543 -2.544151,-6.47312 -1.051995,-2.28768 -2.351135,-4.54528 -3.897983,-6.25497 z m 5.556501,0.72795 c 1.035249,2.4177 2.33473,5.3626 3.273568,8.21421 0,0 0,0 0,0 0.943218,2.89098 1.514415,5.69528 0.834473,7.74055 1.059358,0.39299 2.129823,0.78413 3.211036,1.16804 0,0 -0.386369,-1.21086 -1.005014,-3.04118 -0.618645,-1.83033 -1.455134,-4.27872 -2.471472,-6.76956 -10e-7,0 -10e-7,0 -10e-7,0 -1.064486,-2.60006 -2.317417,-5.26077 -3.84259,-7.31206 z m 5.480225,1.15503 c 0.244748,0.72338 0.517685,1.49195 0.802432,2.28845 0.845825,2.32712 1.786439,4.90306 2.404222,7.32701 0.617784,2.42394 0.924672,4.70295 0.324301,6.42588 1.07282,0.41716 2.156764,0.82479 3.251989,1.21768 0,0 -0.746058,-2.29256 -1.77277,-5.35077 -1.026711,-3.05822 -2.314293,-6.88786 -3.947766,-10.03198 -0.337513,-0.65897 -0.690862,-1.28915 -1.062408,-1.87627 z m 4.998362,1.2425 c 0.769757,2.30665 1.855132,5.12163 2.727304,7.86754 0.872172,2.7459 1.563767,5.43533 1.254511,7.52703 -0.03745,0.24703 -0.0892,0.48558 -0.156875,0.71454 0.97899,0.39145 1.984336,0.77069 3.013155,1.12611 0,0 -0.6616,-1.82702 -1.53858,-4.37067 -0.662228,-1.9003 -1.443959,-4.20615 -2.313277,-6.49109 -0.869317,-2.28494 -1.83877,-4.55251 -2.986238,-6.37346 z m 5.148156,1.37239 c 0.622248,2.13872 1.545895,4.6991 2.371207,7.23 10e-7,0 10e-7,0 10e-7,0 0.531035,1.59097 1.002186,3.18312 1.2965,4.66405 0.294315,1.48093 0.411391,2.85416 0.1161,4.01075 1.050986,0.32249 2.121838,0.61363 3.209664,0.86156 0,0 -0.633565,-1.30384 -1.433646,-3.26352 -0.40004,-0.97984 -0.838401,-2.12415 -1.29207,-3.34792 -0.453668,-1.22377 -0.923524,-2.52691 -1.431048,-3.81869 -10e-7,0 -10e-7,0 -10e-7,0 -0.862613,-2.25918 -1.775622,-4.51081 -2.836707,-6.33623 z m 4.918217,1.19623 c 0.0658,0.24172 0.135957,0.48873 0.209961,0.74032 0.734702,2.31886 1.69129,5.04997 2.560417,7.64105 0.434564,1.29554 0.848023,2.55947 1.133786,3.74892 0.285764,1.18945 0.442359,2.30745 0.285878,3.30545 1.0899,0.2073 2.19499,0.36407 3.31303,0.4583 0.0911,0.007 0.18223,0.0126 0.27322,0.0182 0,0 -0.0793,-0.11376 -0.22327,-0.3244 0,0 0,0 0,0 -0.28574,-0.4237 -0.82431,-1.2337 -1.4378,-2.30063 -0.61349,-1.06692 -1.293086,-2.39233 -1.94102,-3.83977 -0.647934,-1.44743 -1.266068,-3.01696 -1.887617,-4.55269 -0.62155,-1.53572 -1.254509,-3.03651 -1.982182,-4.33576 -0.100598,-0.19043 -0.202018,-0.37691 -0.304403,-0.55899 z m 4.612151,0.80906 c 0.362171,1.51391 0.898391,3.21754 1.550831,4.92425 0.65243,1.70672 1.44302,3.41165 2.17693,5.03096 0.73541,1.64882 1.4154,3.19345 1.46614,4.61916 0.88194,0.0386 1.76034,0.0365 2.6337,-0.002 0,0 -0.51567,-0.62834 -1.27815,-1.6643 -0.76247,-1.03595 -1.75678,-2.48565 -2.62691,-4.14682 -0.76044,-1.414 -1.44453,-2.96391 -2.06814,-4.48331 -0.62361,-1.51939 -1.19627,-3.00767 -1.854361,-4.27797 m 3.624261,0.26007 c 0.27466,1.05231 0.65046,2.20352 1.13439,3.37571 0.68936,1.80205 1.77498,3.626 2.7588,5.3696 0.98383,1.74361 1.84606,3.42466 1.84526,5.01464 0.90053,0.0652 1.80769,0.0936 2.71741,0.089 0,0 -0.30819,-0.38748 -0.82366,-1.04184 -0.51548,-0.65437 -1.23542,-1.57726 -2.01838,-2.65989 -0.78296,-1.08263 -1.62562,-2.32565 -2.39026,-3.61429 -0.76464,-1.28864 -1.44675,-2.62248 -1.9714,-3.87915 0,0 0,0 0,-10e-6 -0.43851,-0.96102 -0.83227,-1.86723 -1.25216,-2.65381 z m 3.18992,-0.56199 c 0.36037,1.02898 0.8911,2.17359 1.55555,3.35497 0.66445,1.18139 1.46036,2.39911 2.25154,3.60386 1.58235,2.4095 3.15222,4.76976 3.11567,6.91281 0.96442,0.057 1.93683,0.0795 2.91065,0.071 0,0 -0.44592,-0.57978 -1.17786,-1.51834 -0.73194,-0.93855 -1.74623,-2.23929 -2.83094,-3.69364 -1.08472,-1.45435 -2.23385,-3.06313 -3.25206,-4.59738 -1.01822,-1.53425 -1.89593,-2.99201 -2.57255,-4.13328 z m 3.60582,-0.52335 c 0.89481,1.60687 2.19329,3.48046 3.55317,5.36366 1.35988,1.88319 2.75988,3.77608 3.58834,5.57229 0.39527,0.85622 0.6584,1.69405 0.71801,2.50199 0.0119,0.16191 0.0156,0.32264 0.0104,0.48207 0.0429,0.001 0.0859,0.002 0.12886,0.003 0.96805,0.026 1.94011,0.0284 2.91382,0.0118 0,0 -0.50859,-0.70365 -1.34982,-1.81014 -0.84124,-1.10649 -2.01201,-2.617 -3.30127,-4.25537 -1.05568,-1.352 -2.18507,-2.79746 -3.26477,-4.16808 -1.07969,-1.37063 -2.10591,-2.66574 -2.99674,-3.7014 z m 4.23798,-0.37849 c 1.44218,2.02789 3.51478,4.42609 5.32028,6.79965 1.8055,2.37357 3.31321,4.75351 3.29581,6.90038 1.03536,0.0157 2.07349,0.013 3.11093,-0.003 0,0 -1.68913,-2.32836 -4.01831,-5.1883 -2.32918,-2.85993 -5.25161,-6.26445 -7.70871,-8.50905 z m 4.84595,-0.54688 c 1.54183,1.99933 3.67541,4.36096 5.45805,6.73428 1.78263,2.37331 3.19674,4.77519 3.13278,6.92822 1.04125,0.0115 2.08133,0.0128 3.11631,0.009 0,0 -1.56448,-2.34683 -3.8281,-5.21807 -2.26362,-2.87123 -5.21566,-6.26715 -7.87904,-8.45374 z m 4.97555,-0.65687 c 1.61434,1.97394 3.80045,4.34386 5.57664,6.74963 1.77619,2.40578 3.13549,4.85325 3.06664,7.00404 0.63499,0.004 1.26735,0.008 1.89613,0.012 0.46705,0.004 0.93251,0.009 1.39599,0.0136 0,0 -1.47136,-2.27869 -3.65205,-5.09217 -2.29233,-2.95858 -5.39317,-6.50457 -8.28335,-8.68715 z m 5.49909,-0.68153 c 1.54564,2.03558 3.64317,4.44419 5.31586,6.88726 1.67268,2.44306 2.92152,4.91713 2.8295,7.05557 1.07793,0.0423 2.14288,0.0927 3.18952,0.15818 0,0 -1.40659,-2.42369 -3.53696,-5.39536 -2.13037,-2.97166 -5.0073,-6.47988 -7.79792,-8.70565 z m 5.26412,-0.56196 c 1.53917,2.0507 3.60715,4.52232 5.21681,7.03512 1.60966,2.51279 2.77045,5.05373 2.68812,7.17096 1.02475,0.0807 2.02871,0.18102 3.0066,0.30812 0,0 -1.27979,-2.51344 -3.29161,-5.58482 -2.01182,-3.07139 -4.79594,-6.68388 -7.61992,-8.92938 z m 5.60514,-0.37266 c 1.40448,2.14198 3.3268,4.69582 4.79013,7.27896 1.46333,2.58314 2.48213,5.17512 2.41654,7.26453 0.70178,0.0401 1.38913,0.0982 2.06044,0.17728 0.4908,0.0747 0.96822,0.15544 1.42976,0.24343 0,0 -1.14967,-2.47693 -3.06299,-5.53608 -1.00159,-1.58986 -2.20942,-3.33683 -3.52375,-4.98836 -1.31433,-1.65152 -2.73451,-3.20772 -4.11013,-4.43976 z m 5.44387,-0.089 c 1.2676,2.22914 3.08774,4.78945 4.42188,7.38491 1.33415,2.59546 2.18789,5.19615 2.21056,7.29906 0.9129,0.0901 1.75222,0.21922 2.49806,0.40059 0,0 -0.19158,-0.62305 -0.57901,-1.6418 -0.38742,-1.01876 -0.9809,-2.43218 -1.79175,-4.00162 -0.81086,-1.56943 -1.84197,-3.29345 -3.01186,-4.94017 -1.1699,-1.64672 -2.47538,-3.21477 -3.74788,-4.50097 z m 4.22143,0.0792 c 0.73929,1.06975 1.59686,2.23811 2.40562,3.47563 0.80877,1.23752 1.56536,2.54414 2.15981,3.86048 0.59445,1.31635 1.02616,2.64085 1.27643,3.89682 0.25027,1.25598 0.325,2.44115 0.25897,3.4916 0.61268,0.16141 1.14546,0.37625 1.58487,0.6564 0,0 -0.0274,-0.65611 -0.18892,-1.72365 -0.16149,-1.06754 -0.47448,-2.54574 -1.0622,-4.17326 -0.58772,-1.62752 -1.45575,-3.40262 -2.56892,-5.06561 -1.11318,-1.66298 -2.46683,-3.21176 -3.86566,-4.41841 z m 4.99963,0.0482 c 0.82488,1.38995 1.77092,2.95925 2.50533,4.62455 0.73441,1.66531 1.24643,3.42515 1.43412,5.11764 0.55058,2.08441 0.80694,4.02725 0.34888,5.57706 1.22529,0.31377 2.45164,0.61711 3.67863,0.91068 0,0 -1.62872,-4.22289 -3.66212,-8.90749 0,0 0,0 0,-10e-6 -0.38832,-1.34653 -0.96718,-2.69986 -1.70593,-3.95372 -0.73875,-1.25387 -1.63551,-2.40781 -2.59891,-3.36871 z m 5.03623,0.56955 c 0.0705,0.16344 0.14177,0.32938 0.21316,0.4977 0.93089,2.37936 2.32161,5.13606 3.3989,7.79205 1.0773,2.656 1.83588,5.21653 1.38371,7.22722 1.2537,0.2369 2.50717,0.46396 3.76008,0.68188 0,0 -1.1621,-2.47597 -2.80002,-5.69876 -1.63793,-3.22278 -3.72327,-7.19669 -5.71596,-10.17925 -0.0787,-0.1088 -0.15875,-0.21578 -0.23987,-0.32084 z m 4.62615,0.76096 c 1.10314,2.32068 2.77168,5.06728 4.11808,7.74944 1.34641,2.68216 2.36512,5.3055 2.04547,7.41402 1.24283,0.15537 2.48439,0.30211 3.72443,0.44092 0,0 -1.36419,-2.50794 -3.27417,-5.71292 -1.90998,-3.20499 -4.33651,-7.11249 -6.61381,-9.89146 z m 4.79968,0.45325 c 1.25396,2.24612 3.093,4.88525 4.59966,7.4821 1.50666,2.59685 2.6759,5.15663 2.48576,7.28088 1.22776,0.0839 2.45352,0.16037 3.67714,0.23013 0,0 -1.48914,-2.42935 -3.57247,-5.51896 -2.08333,-3.08961 -4.73413,-6.84546 -7.19011,-9.47405 m 4.86005,0.14542 c 1.38216,2.17246 3.3637,4.70748 5.00394,7.22063 1.64024,2.51315 2.93456,5.00913 2.85645,7.1408 1.21017,0.0211 2.41789,0.036 3.6231,0.0454 0,0 -1.59027,-2.35318 -3.81611,-5.33167 -2.22584,-2.9785 -5.06338,-6.5885 -7.66738,-9.07512 z m 4.89285,-0.13348 c 1.49091,2.10163 3.61036,4.53009 5.39596,6.95469 1.7856,2.4246 3.23293,4.84941 3.31238,6.98146 0.8571,-0.0177 1.71284,-0.038 2.56724,-0.0606 0.26743,-0.007 0.53486,-0.0138 0.8023,-0.0211 0,0 -0.27518,-0.37518 -0.75902,-1.01237 -0.94885,-1.25287 -2.70458,-3.52021 -4.75533,-5.94774 -2.05075,-2.42752 -4.38945,-5.01676 -6.56353,-6.89436 z m 4.90564,-0.38489 c 1.86587,2.39855 4.6126,5.20378 6.63374,7.96193 1.41054,1.92256 2.47045,3.82573 2.60071,5.57346 1.19904,-0.0874 2.39769,-0.17978 3.59585,-0.2774 0,0 -2.74474,-3.29948 -6.12963,-6.89399 0,0 0,0 0,0 -2.12762,-2.26098 -4.51638,-4.63852 -6.70067,-6.364 z m 4.90443,-0.60971 c 0.59812,0.71058 1.27817,1.45466 1.99531,2.22092 3.26363,3.48895 7.34981,7.40951 7.7672,10.88506 0.97192,-0.1065 1.9433,-0.21649 2.91407,-0.33007 0.23304,-0.0273 0.46631,-0.0547 0.69981,-0.0824 0,0 -0.24822,-0.27096 -0.68745,-0.74012 -0.86534,-0.92425 -2.47265,-2.61847 -4.38817,-4.53211 -1.91551,-1.91363 -4.1369,-4.04778 -6.27891,-5.83415 -0.68538,-0.57124 -1.36331,-1.10658 -2.02186,-1.5871 z m 4.65039,-0.80331 c 2.32951,2.43459 5.77251,5.30857 8.10754,8.16517 1.23723,1.51362 2.16491,3.02589 2.41852,4.48375 0.2379,-0.0752 0.47587,-0.1507 0.71388,-0.22652 0,0 0,0 0,0 0.28599,-0.0911 0.57464,-0.18271 0.86558,-0.27514 0,0 0,0 0,0 0.0778,-0.024 0.15699,-0.048 0.23755,-0.0721 0,0 0,0 0,0 0.0136,-1.66054 0.0271,-3.31701 0.0406,-4.96941 0.005,-0.58449 0.01,-1.16847 0.0144,-1.75195 2e-5,-0.002 3e-5,-0.004 2e-5,-0.006 0,0 2e-5,0.002 -2e-5,0.006 0,0 0,0 0,0 0,0 0,0 0,0 0,0 0,0 0,0 0,0 0,0 0,0 0,0 0,0 0,0 0,0 0,0 0,0 0,0 0,0 0,0 0,0 0,0 0,0 0,0 0,0 0,0 0,0 0,0 0,0 0,0 0,0 0,0 0,0 0,0 0,0 0,0 0,0 0,0 0,0 0,0 0,0 0,0 0,0 0,0 0,0 0,10e-6 0,10e-6 0,0 0,0 0,0 0,0 0,0 0,0 0,0 0,0 0,0 0,0 0,0 0,0 0,0 0,0 0,0 0,0 0,0 0,0 -5.2e-4,0.0645 -0.005,0.65504 -0.0144,1.74357 -0.009,1.11413 -0.0229,2.74985 -0.041,4.85638 0,0 0,10e-6 0,10e-6 0,0 0,0 0,0 -0.055,-0.0623 -0.13565,-0.15385 -0.2371,-0.27157 0,0 0,0 0,-10e-6 0,0 0,0 0,0 -0.20029,-0.23924 -0.49257,-0.58656 -0.85734,-1.01606 0,0 0,0 0,0 -0.75913,-0.89376 -1.84502,-2.14353 -3.1255,-3.51367 0,0 0,0 0,0 -2.29632,-2.45708 -5.21862,-5.30316 -8.12276,-7.15242 z" style="fill:url(#linearGradient6488);fill-opacity:1;stroke:none;filter:url(#filter4365)"/><path id="path3442" d="m 8.684177,902.93736 c 2.186364,4.64476 5.25376,15.93632 4.226123,20.0989 1.150459,0.23815 2.300734,0.47633 3.450825,0.71455 0,0 -3.104153,-15.25325 -7.676948,-20.81345 z m 9.86154,1.06375 c 2.279392,4.59996 5.708728,15.8021 4.869802,20.00419 1.088471,0.19929 2.176788,0.39862 3.264949,0.59797 0,0 -3.451552,-15.1347 -8.134751,-20.60216 z m 9.848391,0.81393 c 2.389823,4.55184 6.084204,15.66611 5.349094,19.87859 1.091164,0.17924 2.179991,0.35921 3.266046,0.54047 0,0 -3.799651,-15.04607 -8.61514,-20.41906 z m 9.890591,0.62115 c 1.24295,2.25246 2.875936,6.10007 4.120921,9.91618 1.244985,3.81612 2.105358,7.59935 1.839476,9.71696 1.205999,0.13246 2.407777,0.2681 3.60484,0.4077 0,0 -1.146315,-3.6914 -2.918327,-8.04222 -1.772013,-4.35083 -4.178973,-9.35911 -6.64691,-11.99862 z m 9.283458,0.22421 c 1.41501,2.15439 3.355415,5.89315 4.897405,9.63278 1.54199,3.73964 2.690022,7.47752 2.615322,9.60793 1.187318,0.0169 2.370141,0.0395 3.548211,0.0685 0,0 -1.39926,-3.60706 -3.493282,-7.82262 -2.094022,-4.21556 -4.899904,-9.03484 -7.567656,-11.48658 z m 9.099994,-0.4054 c 0.813232,1.03205 1.885565,2.36109 3.045646,3.84049 0.48587,0.97016 0.706441,2.10968 0.787379,3.28829 0.08094,1.17862 0.03509,2.38939 0.03626,3.49386 -0.03727,1.46043 -0.214422,2.87354 -0.431635,4.12971 -0.217213,1.25616 -0.47493,2.35453 -0.738973,3.18833 0.354911,-0.0613 0.778643,-0.0894 1.265367,-0.0929 0.680228,0.008 1.384323,0.0482 2.11051,0.11592 0,0 -0.0501,-1.51004 -0.270622,-3.74654 -0.103927,-1.00752 -0.189447,-2.15805 -0.309031,-3.3705 -0.119585,-1.21245 -0.277728,-2.48657 -0.578929,-3.74169 -0.227412,-0.83659 -0.43643,-1.71709 -0.746402,-2.5403 -0.309972,-0.82321 -0.724662,-1.58683 -1.321064,-2.20686 -1.013026,-0.88315 -1.981006,-1.68649 -2.848508,-2.35783 z m 5.446428,-1.33791 c 0.552962,0.38383 1.078456,0.87788 1.551443,1.44618 0.641628,0.75143 1.229372,1.62958 1.741444,2.5894 0.512072,0.95982 0.950445,2.00075 1.345761,3.0716 0,0 0,0 10e-7,0 0.834512,2.27018 1.407766,4.67437 1.701225,6.82699 0.293459,2.15262 0.317169,4.05297 -0.01846,5.30026 1.016639,0.26374 2.059941,0.55133 3.127407,0.85235 0,0 -0.365075,-1.99375 -1.016214,-4.7624 -0.65114,-2.76865 -1.606784,-6.31332 -3.167625,-9.45313 -0.466225,-0.93634 -0.980699,-1.83742 -1.574943,-2.65738 -0.594244,-0.81996 -1.269454,-1.5585 -2.018973,-2.1697 -0.501261,-0.42363 -1.06207,-0.78297 -1.671063,-1.04417 z m 11.883147,0.30251 c 0.814819,1.47884 1.61835,3.60351 2.2453,5.94333 0.62695,2.33981 1.09651,4.89688 1.394045,7.27649 0.373147,3.05745 0.436227,5.82653 -0.101321,7.41264 1.068737,0.39807 2.149465,0.79609 3.241788,1.18848 0,0 -0.201891,-1.2591 -0.544735,-3.18902 -0.342843,-1.92993 -0.81326,-4.5281 -1.450084,-7.22845 0,0 0,0 -10e-7,0 -0.501574,-2.1252 -1.095568,-4.31902 -1.873699,-6.31388 -0.77813,-1.99486 -1.750337,-3.79234 -2.911293,-5.08959 z m 11.077569,2.40122 c 0.847144,2.45997 1.603516,6.60174 2.099194,10.6377 0.247839,2.01797 0.437238,4.01369 0.50172,5.76486 0.06448,1.75117 8.39e-4,3.25819 -0.316356,4.27961 0.375245,0.14212 0.751906,0.28243 1.130003,0.42072 0.595009,0.22368 1.199946,0.44309 1.813996,0.65569 0,0 -0.217642,-1.2301 -0.53496,-3.11147 -0.426345,-2.45577 -0.97819,-6.01856 -1.674924,-9.50677 -0.696733,-3.4882 -1.590254,-6.91967 -3.018673,-9.14034 z m 10.011296,2.5385 c 0.273399,1.14194 0.537062,2.65673 0.803281,4.35618 0.472955,2.66225 0.852309,5.81646 1.234226,8.69786 0.190959,1.4407 0.376463,2.81375 0.493599,4.02716 0.117136,1.21342 0.162578,2.26798 0.03045,3.06696 1.069078,0.26319 2.156284,0.48291 3.259822,0.64759 0,0 -0.27561,-0.65966 -0.6693,-1.75466 -0.393699,-1.095 -0.886775,-2.62629 -1.335053,-4.37254 -0.448277,-1.74625 -0.849067,-3.70771 -1.23659,-5.65623 -0.387523,-1.94853 -0.772279,-3.88336 -1.299348,-5.57354 -0.371346,-1.31183 -0.783754,-2.48971 -1.281088,-3.43878 z m 8.036889,1.29379 c 0.14579,0.94656 0.27705,2.1922 0.47069,3.59072 0.19365,1.39852 0.45703,2.94919 0.84098,4.51999 0,0 0,0 0,0 0.46226,2.02448 1.20521,4.05227 1.88656,5.85972 0.68136,1.80745 1.28391,3.4009 1.37376,4.58014 0.77294,0.0468 1.54854,0.0651 2.32475,0.0574 0,0 -0.23657,-0.39103 -0.63211,-1.06473 -0.39553,-0.6737 -0.94761,-1.6311 -1.54232,-2.77139 -0.59471,-1.14028 -1.22964,-2.46395 -1.78972,-3.86574 -0.56009,-1.40179 -1.04238,-2.88155 -1.37105,-4.32706 0,0 0,0 0,0 -0.64276,-2.58607 -0.93394,-5.01293 -1.56154,-6.57903 z m 4.73297,-1.03734 c 0.36801,1.01738 0.90329,2.45741 1.60026,4.09177 0.69697,1.63437 1.55317,3.46178 2.42086,5.27624 1.73539,3.62892 3.50115,7.20416 3.4752,9.35127 0.90559,0.0613 1.81736,0.0946 2.72936,0.10218 0,0 -0.47895,-0.88557 -1.25989,-2.28353 -0.78094,-1.39795 -1.86037,-3.31187 -3.00642,-5.38066 -1.14606,-2.06878 -2.3526,-4.29375 -3.40007,-6.2869 -1.04748,-1.99316 -1.92297,-3.75174 -2.5593,-4.87037 z m 7.50551,-0.72989 c 1.47619,2.01067 3.66912,5.57208 5.54666,9.14381 1.87755,3.57173 3.40421,7.17455 3.32966,9.32486 1.04304,0.0156 2.08795,0.0147 3.13107,0.003 0,0 -1.70339,-3.54867 -4.08792,-7.61234 -2.38453,-4.06367 -5.42595,-8.63889 -7.91947,-10.85926 z m 9.86676,-1.26554 c 1.09755,1.35864 2.47307,3.45283 3.80289,5.79393 0,0 0,0 0,10e-6 1.8922,3.33758 3.70087,7.1804 4.48993,10.10716 0,0 0,0 0,0 0.28529,1.05536 0.43919,1.99198 0.4169,2.74363 0.27032,0.005 0.54006,0.0108 0.80915,0.0163 0.77101,0.0173 1.53774,0.0351 2.29839,0.056 0,0 -1.16321,-2.77921 -2.95927,-6.25942 -1.79605,-3.48021 -4.23827,-7.65578 -6.74342,-10.46419 0,0 0,0 0,0 -0.70405,-0.78434 -1.41417,-1.46321 -2.11457,-1.9934 z m 10.98323,-1.21056 c 1.49493,2.10145 3.4136,5.83317 4.90525,9.57402 1.49165,3.74084 2.59099,7.47506 2.50282,9.58763 1.13927,0.0819 2.25075,0.19096 3.32724,0.33738 0,0 -1.28031,-3.69058 -3.23657,-7.98784 -0.97814,-2.14863 -2.13243,-4.44633 -3.4059,-6.49649 -1.27346,-2.05017 -2.67005,-3.85145 -4.09284,-5.0147 z m 10.92787,-0.3598 c 0.67746,1.11512 1.47282,2.61385 2.24232,4.31239 0.76949,1.69854 1.51107,3.59654 2.13174,5.49275 1.24135,3.79242 1.9982,7.56865 2.0266,9.67971 0.82945,0.10091 1.5854,0.24227 2.25054,0.43625 0,0 -0.1387,-0.91557 -0.44419,-2.37746 -0.3055,-1.4619 -0.78727,-3.47008 -1.50005,-5.64293 -0.71278,-2.17284 -1.66224,-4.5096 -2.81382,-6.62145 -1.15158,-2.11186 -2.50553,-3.99684 -3.89314,-5.27926 z m 9.92218,0.24223 c 0.60859,0.99574 1.24758,2.29895 1.77904,3.78284 0.53146,1.48389 0.95184,3.14814 1.19056,4.84965 0,0 0,0 0,0 0.76201,4.52028 1.27424,9.2189 0.5925,11.55692 1.27519,0.30299 2.55111,0.59491 3.82733,0.8765 0,0 -0.42867,-2.16677 -1.13726,-5.19304 -0.70859,-3.02628 -1.68441,-6.91215 -2.81199,-10.35674 0,0 0,-10e-6 0,-10e-6 -0.7959,-2.20731 -2.02324,-4.17106 -3.44018,-5.51612 z m 9.52896,1.37299 c 1.10397,2.31338 2.58281,6.23184 3.76963,10.09272 1.18683,3.86088 2.06682,7.66815 1.75196,9.77786 1.29129,0.14264 2.58094,0.27616 3.86873,0.40137 0,0 -1.26838,-3.68541 -3.05917,-8.06155 -1.79079,-4.37613 -4.06005,-9.44615 -6.33115,-12.2104 z m 9.04287,0.4517 c 1.37929,2.16635 3.30593,5.8942 4.92157,9.60327 1.61565,3.70907 2.90658,7.40321 2.83056,9.53529 1.24956,0.01 2.4964,0.0136 3.74046,0.0115 0,0 -1.61941,-3.54465 -3.85299,-7.71206 -2.23359,-4.16741 -5.04227,-8.96265 -7.6396,-11.43797 z m 9.25524,-0.56064 c 1.68495,2.16374 4.17174,6.02279 6.21598,9.78707 1.79392,3.3019 3.24691,6.53451 3.39639,8.52331 1.23916,-0.0996 2.47782,-0.20471 3.71587,-0.31541 0,0 -3.25942,-5.59246 -7.00438,-10.78356 0,0 0,0 0,0 -2.07447,-2.87461 -4.3088,-5.62457 -6.32386,-7.21141 z" style="fill:url(#linearGradient6490);fill-opacity:1;stroke:none;filter:url(#filter4327)"/><path style="fill:url(#linearGradient6492);fill-opacity:1;stroke:none;filter:url(#filter4349)" id="path4331" d="m 8.684177,902.93736 c 2.186364,4.64476 5.25376,15.93632 4.226123,20.0989 1.150459,0.23815 2.300734,0.47633 3.450825,0.71455 0,0 -3.104153,-15.25325 -7.676948,-20.81345 z m 9.86154,1.06375 c 2.279392,4.59996 5.708728,15.8021 4.869802,20.00419 1.088471,0.19929 2.176788,0.39862 3.264949,0.59797 0,0 -3.451552,-15.1347 -8.134751,-20.60216 z m 9.848391,0.81393 c 2.389823,4.55184 6.084204,15.66611 5.349094,19.87859 1.091164,0.17924 2.179991,0.35921 3.266046,0.54047 0,0 -3.799651,-15.04607 -8.61514,-20.41906 z m 9.890591,0.62115 c 1.24295,2.25246 2.875936,6.10007 4.120921,9.91618 1.244985,3.81612 2.105358,7.59935 1.839476,9.71696 1.205999,0.13246 2.407777,0.2681 3.60484,0.4077 0,0 -1.146315,-3.6914 -2.918327,-8.04222 -1.772013,-4.35083 -4.178973,-9.35911 -6.64691,-11.99862 z m 9.283458,0.22421 c 1.41501,2.15439 3.355415,5.89315 4.897405,9.63278 1.54199,3.73964 2.690022,7.47752 2.615322,9.60793 1.187318,0.0169 2.370141,0.0395 3.548211,0.0685 0,0 -1.39926,-3.60706 -3.493282,-7.82262 -2.094022,-4.21556 -4.899904,-9.03484 -7.567656,-11.48658 z m 9.099994,-0.4054 c 0.813232,1.03205 1.885565,2.36109 3.045646,3.84049 0.48587,0.97016 0.706441,2.10968 0.787379,3.28829 0.08094,1.17862 0.03509,2.38939 0.03626,3.49386 -0.03727,1.46043 -0.214422,2.87354 -0.431635,4.12971 -0.217213,1.25616 -0.47493,2.35453 -0.738973,3.18833 0.354911,-0.0613 0.778643,-0.0894 1.265367,-0.0929 0.680228,0.008 1.384323,0.0482 2.11051,0.11592 0,0 -0.0501,-1.51004 -0.270622,-3.74654 -0.103927,-1.00752 -0.189447,-2.15805 -0.309031,-3.3705 -0.119585,-1.21245 -0.277728,-2.48657 -0.578929,-3.74169 -0.227412,-0.83659 -0.43643,-1.71709 -0.746402,-2.5403 -0.309972,-0.82321 -0.724662,-1.58683 -1.321064,-2.20686 -1.013026,-0.88315 -1.981006,-1.68649 -2.848508,-2.35783 z m 5.446428,-1.33791 c 0.552962,0.38383 1.078456,0.87788 1.551443,1.44618 0.641628,0.75143 1.229372,1.62958 1.741444,2.5894 0.512072,0.95982 0.950445,2.00075 1.345761,3.0716 0,0 0,0 10e-7,0 0.834512,2.27018 1.407766,4.67437 1.701225,6.82699 0.293459,2.15262 0.317169,4.05297 -0.01846,5.30026 1.016639,0.26374 2.059941,0.55133 3.127407,0.85235 0,0 -0.365075,-1.99375 -1.016214,-4.7624 -0.65114,-2.76865 -1.606784,-6.31332 -3.167625,-9.45313 -0.466225,-0.93634 -0.980699,-1.83742 -1.574943,-2.65738 -0.594244,-0.81996 -1.269454,-1.5585 -2.018973,-2.1697 -0.501261,-0.42363 -1.06207,-0.78297 -1.671063,-1.04417 z m 11.883147,0.30251 c 0.814819,1.47884 1.61835,3.60351 2.2453,5.94333 0.62695,2.33981 1.09651,4.89688 1.394045,7.27649 0.373147,3.05745 0.436227,5.82653 -0.101321,7.41264 1.068737,0.39807 2.149465,0.79609 3.241788,1.18848 0,0 -0.201891,-1.2591 -0.544735,-3.18902 -0.342843,-1.92993 -0.81326,-4.5281 -1.450084,-7.22845 0,0 0,0 -10e-7,0 -0.501574,-2.1252 -1.095568,-4.31902 -1.873699,-6.31388 -0.77813,-1.99486 -1.750337,-3.79234 -2.911293,-5.08959 z m 11.077569,2.40122 c 0.847144,2.45997 1.603516,6.60174 2.099194,10.6377 0.247839,2.01797 0.437238,4.01369 0.50172,5.76486 0.06448,1.75117 8.39e-4,3.25819 -0.316356,4.27961 0.375245,0.14212 0.751906,0.28243 1.130003,0.42072 0.595009,0.22368 1.199946,0.44309 1.813996,0.65569 0,0 -0.217642,-1.2301 -0.53496,-3.11147 -0.426345,-2.45577 -0.97819,-6.01856 -1.674924,-9.50677 -0.696733,-3.4882 -1.590254,-6.91967 -3.018673,-9.14034 z m 10.011296,2.5385 c 0.273399,1.14194 0.537062,2.65673 0.803281,4.35618 0.472955,2.66225 0.852309,5.81646 1.234226,8.69786 0.190959,1.4407 0.376463,2.81375 0.493599,4.02716 0.117136,1.21342 0.162578,2.26798 0.03045,3.06696 1.069078,0.26319 2.156284,0.48291 3.259822,0.64759 0,0 -0.27561,-0.65966 -0.6693,-1.75466 -0.393699,-1.095 -0.886775,-2.62629 -1.335053,-4.37254 -0.448277,-1.74625 -0.849067,-3.70771 -1.23659,-5.65623 -0.387523,-1.94853 -0.772279,-3.88336 -1.299348,-5.57354 -0.371346,-1.31183 -0.783754,-2.48971 -1.281088,-3.43878 z m 8.036889,1.29379 c 0.14579,0.94656 0.27705,2.1922 0.47069,3.59072 0.19365,1.39852 0.45703,2.94919 0.84098,4.51999 0,0 0,0 0,0 0.46226,2.02448 1.20521,4.05227 1.88656,5.85972 0.68136,1.80745 1.28391,3.4009 1.37376,4.58014 0.77294,0.0468 1.54854,0.0651 2.32475,0.0574 0,0 -0.23657,-0.39103 -0.63211,-1.06473 -0.39553,-0.6737 -0.94761,-1.6311 -1.54232,-2.77139 -0.59471,-1.14028 -1.22964,-2.46395 -1.78972,-3.86574 -0.56009,-1.40179 -1.04238,-2.88155 -1.37105,-4.32706 0,0 0,0 0,0 -0.64276,-2.58607 -0.93394,-5.01293 -1.56154,-6.57903 z m 4.73297,-1.03734 c 0.36801,1.01738 0.90329,2.45741 1.60026,4.09177 0.69697,1.63437 1.55317,3.46178 2.42086,5.27624 1.73539,3.62892 3.50115,7.20416 3.4752,9.35127 0.90559,0.0613 1.81736,0.0946 2.72936,0.10218 0,0 -0.47895,-0.88557 -1.25989,-2.28353 -0.78094,-1.39795 -1.86037,-3.31187 -3.00642,-5.38066 -1.14606,-2.06878 -2.3526,-4.29375 -3.40007,-6.2869 -1.04748,-1.99316 -1.92297,-3.75174 -2.5593,-4.87037 z m 7.50551,-0.72989 c 1.47619,2.01067 3.66912,5.57208 5.54666,9.14381 1.87755,3.57173 3.40421,7.17455 3.32966,9.32486 1.04304,0.0156 2.08795,0.0147 3.13107,0.003 0,0 -1.70339,-3.54867 -4.08792,-7.61234 -2.38453,-4.06367 -5.42595,-8.63889 -7.91947,-10.85926 z m 9.86676,-1.26554 c 1.09755,1.35864 2.47307,3.45283 3.80289,5.79393 0,0 0,0 0,10e-6 1.8922,3.33758 3.70087,7.1804 4.48993,10.10716 0,0 0,0 0,0 0.28529,1.05536 0.43919,1.99198 0.4169,2.74363 0.27032,0.005 0.54006,0.0108 0.80915,0.0163 0.77101,0.0173 1.53774,0.0351 2.29839,0.056 0,0 -1.16321,-2.77921 -2.95927,-6.25942 -1.79605,-3.48021 -4.23827,-7.65578 -6.74342,-10.46419 0,0 0,0 0,0 -0.70405,-0.78434 -1.41417,-1.46321 -2.11457,-1.9934 z m 10.98323,-1.21056 c 1.49493,2.10145 3.4136,5.83317 4.90525,9.57402 1.49165,3.74084 2.59099,7.47506 2.50282,9.58763 1.13927,0.0819 2.25075,0.19096 3.32724,0.33738 0,0 -1.28031,-3.69058 -3.23657,-7.98784 -0.97814,-2.14863 -2.13243,-4.44633 -3.4059,-6.49649 -1.27346,-2.05017 -2.67005,-3.85145 -4.09284,-5.0147 z m 10.92787,-0.3598 c 0.67746,1.11512 1.47282,2.61385 2.24232,4.31239 0.76949,1.69854 1.51107,3.59654 2.13174,5.49275 1.24135,3.79242 1.9982,7.56865 2.0266,9.67971 0.82945,0.10091 1.5854,0.24227 2.25054,0.43625 0,0 -0.1387,-0.91557 -0.44419,-2.37746 -0.3055,-1.4619 -0.78727,-3.47008 -1.50005,-5.64293 -0.71278,-2.17284 -1.66224,-4.5096 -2.81382,-6.62145 -1.15158,-2.11186 -2.50553,-3.99684 -3.89314,-5.27926 z m 9.92218,0.24223 c 0.60859,0.99574 1.24758,2.29895 1.77904,3.78284 0.53146,1.48389 0.95184,3.14814 1.19056,4.84965 0,0 0,0 0,0 0.76201,4.52028 1.27424,9.2189 0.5925,11.55692 1.27519,0.30299 2.55111,0.59491 3.82733,0.8765 0,0 -0.42867,-2.16677 -1.13726,-5.19304 -0.70859,-3.02628 -1.68441,-6.91215 -2.81199,-10.35674 0,0 0,-10e-6 0,-10e-6 -0.7959,-2.20731 -2.02324,-4.17106 -3.44018,-5.51612 z m 9.52896,1.37299 c 1.10397,2.31338 2.58281,6.23184 3.76963,10.09272 1.18683,3.86088 2.06682,7.66815 1.75196,9.77786 1.29129,0.14264 2.58094,0.27616 3.86873,0.40137 0,0 -1.26838,-3.68541 -3.05917,-8.06155 -1.79079,-4.37613 -4.06005,-9.44615 -6.33115,-12.2104 z m 9.04287,0.4517 c 1.37929,2.16635 3.30593,5.8942 4.92157,9.60327 1.61565,3.70907 2.90658,7.40321 2.83056,9.53529 1.24956,0.01 2.4964,0.0136 3.74046,0.0115 0,0 -1.61941,-3.54465 -3.85299,-7.71206 -2.23359,-4.16741 -5.04227,-8.96265 -7.6396,-11.43797 z m 9.25524,-0.56064 c 1.68495,2.16374 4.17174,6.02279 6.21598,9.78707 1.79392,3.3019 3.24691,6.53451 3.39639,8.52331 1.23916,-0.0996 2.47782,-0.20471 3.71587,-0.31541 0,0 -3.25942,-5.59246 -7.00438,-10.78356 0,0 0,0 0,0 -2.07447,-2.87461 -4.3088,-5.62457 -6.32386,-7.21141 z"/><path style="fill:url(#linearGradient6494);fill-opacity:1;stroke:none;filter:url(#filter4387)" id="path4369" d="m 8.6146968,907.65582 c 2.1488182,4.64057 6.1666772,11.1806 5.1450762,15.34396 1.118744,0.23306 2.237314,0.46616 3.355709,0.6993 0,0 -4.000114,-10.49077 -8.5007852,-16.04326 z m 5.1540422,0.58067 c 2.145445,4.64117 6.231891,11.08817 5.296831,15.27081 1.0684,0.22354 2.13664,0.44711 3.204721,0.6707 0,0 -4.005498,-10.3882 -8.501552,-15.94151 z m 4.99928,0.51205 c 2.241528,4.5966 6.465871,11.01187 5.632936,15.2145 1.073517,0.19829 2.146883,0.39662 3.220097,0.59497 0,0 -4.242434,-10.34824 -8.853033,-15.80947 z m 5.16319,0.4774 c 2.238152,4.59722 6.469464,10.89143 5.634239,15.09447 0.439487,0.0766 0.878949,0.15329 1.318387,0.22994 0.698567,0.12497 1.396324,0.25004 2.093153,0.37537 0,0 -1.299422,-3.00064 -3.224463,-6.62188 -1.630046,-3.06392 -3.708357,-6.57225 -5.821316,-9.0779 z m 4.98642,0.352 c 2.351334,4.54936 6.722234,10.86289 5.994043,15.07521 1.131319,0.1767 2.259991,0.35441 3.38554,0.53374 0,0 -4.637861,-10.24036 -9.379583,-15.60895 z m 4.987767,0.35907 c 2.460074,4.49461 6.942892,10.7197 6.306074,14.94298 1.141948,0.15395 2.280538,0.30994 3.415312,0.46862 0,0 -1.203903,-2.53995 -3.02427,-5.7358 -1.820366,-3.19586 -4.261932,-7.04609 -6.697116,-9.6758 z m 5.015203,0.24993 c 1.271629,2.22476 3.064426,4.86633 4.46144,7.48488 1.397013,2.61855 2.399397,5.21244 2.13437,7.32944 1.158294,0.12285 2.312575,0.24891 3.462416,0.37886 0,0 -1.259981,-2.50831 -3.151988,-5.66076 -1.892007,-3.15245 -4.423209,-6.9467 -6.906238,-9.53242 z m 4.965837,0.15686 c 1.321114,2.19628 3.17405,4.78912 4.631128,7.36932 1.457079,2.58019 2.519623,5.14552 2.320985,7.26811 1.148244,0.0845 2.292171,0.17336 3.431426,0.2672 0,0 -1.308398,-2.46489 -3.267118,-5.55913 -1.95872,-3.09423 -4.577635,-6.81443 -7.116421,-9.3455 z m 4.888708,0.0365 c 1.384874,2.15728 3.328137,4.67579 4.885328,7.19583 1.557192,2.52003 2.729356,5.0389 2.652116,7.1687 1.250982,-0.0196 2.497232,-0.0326 3.738532,-0.038 0,0 -1.485328,-2.36175 -3.648595,-5.33033 -2.163266,-2.96859 -5.017619,-6.53867 -7.627381,-8.99622 z m 4.881996,-0.11805 c 2.230148,3.28347 5.932861,7.12952 7.632413,10.68433 -0.402156,1.08269 -0.694873,2.13075 -0.577359,3.08726 -1.879316,-0.092 -2.659018,-0.19544 -2.456766,-0.48697 0.05993,-0.0797 0.203053,-0.10251 0.428328,-0.0793 0,0 0.128061,-0.96846 0.299531,-2.36683 0,0 0,0 0,0 0.03174,-0.53239 0.217463,-1.21255 0.538465,-1.98317 0.321003,-0.77062 0.774368,-1.62954 1.19978,-2.443 10e-7,0 10e-7,0 10e-7,0 -2.328829,-2.16013 -4.937858,-4.50898 -7.064393,-6.4123 z m 4.257317,-0.39992 c 0.63961,0.75831 1.390459,1.49657 2.196972,2.22369 0.236391,1.26578 0.03959,2.84082 0.31223,4.17398 0.154933,1.08533 0.224681,2.20424 0.230672,3.29815 0.006,1.09392 -0.05306,2.15976 -0.258188,3.13759 0.142175,-0.004 0.29063,-0.006 0.445186,-0.006 0.696927,0.0154 1.417818,0.0643 2.160857,0.14097 0,0 -0.308947,-1.10939 -0.82516,-2.77668 -0.234416,-0.73587 -0.453694,-1.57437 -0.665509,-2.45373 -0.211816,-0.87936 -0.418335,-1.79882 -0.683279,-2.70036 -0.421882,-1.15242 -0.451858,-2.53229 -0.813541,-3.5418 -0.724681,-0.50922 -1.431079,-1.011 -2.10024,-1.49618 z m 2.222819,-0.47333 c 0.552834,0.7302 0.983002,1.65651 1.569917,2.55737 0.839391,1.43359 1.531152,3.08883 2.162894,4.76713 0.752237,2.03443 1.110005,4.05128 0.712155,5.77574 0.865176,0.15161 1.755894,0.3343 2.669973,0.5401 0,0 -0.280808,-0.87598 -0.770712,-2.22912 -0.489904,-1.35315 -1.184819,-3.17944 -2.111457,-5.07328 -0.768269,-1.54687 -1.516181,-3.11918 -2.480295,-4.39409 0,0 -10e-7,0 -10e-7,0 -0.626415,-0.75378 -1.163136,-1.49177 -1.752474,-1.94385 z m 3.34199,-1.13764 c 0.907232,1.13951 1.802235,2.49901 2.669624,3.96541 1.056248,1.79778 1.975938,3.73339 2.546215,5.59158 0.570276,1.85819 0.797751,3.63439 0.408479,5.09547 0.911423,0.26246 1.843138,0.54247 2.793675,0.83263 0,0 -0.553647,-1.74061 -1.465102,-4.1304 -0.911455,-2.38978 -2.193356,-5.42686 -3.965609,-8.0161 -0.897488,-1.30405 -1.875507,-2.48792 -2.987282,-3.33859 z m 5.522051,-0.0622 c 1.213622,2.21756 2.644058,4.91808 3.666435,7.60466 1.022377,2.68658 1.696771,5.35207 1.322461,7.42745 -0.03504,0.18625 -0.07877,0.36772 -0.131763,0.54401 0.931064,0.3264 1.872087,0.65774 2.822596,0.99009 0,0 -0.463398,-1.57828 -1.237595,-3.83812 -0.657177,-1.86381 -1.492157,-4.18543 -2.544151,-6.47312 -1.051995,-2.28768 -2.351135,-4.54528 -3.897983,-6.25497 z m 5.556501,0.72795 c 1.035249,2.4177 2.33473,5.3626 3.273568,8.21421 0,0 0,0 0,0 0.943218,2.89098 1.514415,5.69528 0.834473,7.74055 1.059358,0.39299 2.129823,0.78413 3.211036,1.16804 0,0 -0.386369,-1.21086 -1.005014,-3.04118 -0.618645,-1.83033 -1.455134,-4.27872 -2.471472,-6.76956 -10e-7,0 -10e-7,0 -10e-7,0 -1.064486,-2.60006 -2.317417,-5.26077 -3.84259,-7.31206 z m 5.480225,1.15503 c 0.244748,0.72338 0.517685,1.49195 0.802432,2.28845 0.845825,2.32712 1.786439,4.90306 2.404222,7.32701 0.617784,2.42394 0.924672,4.70295 0.324301,6.42588 1.07282,0.41716 2.156764,0.82479 3.251989,1.21768 0,0 -0.746058,-2.29256 -1.77277,-5.35077 -1.026711,-3.05822 -2.314293,-6.88786 -3.947766,-10.03198 -0.337513,-0.65897 -0.690862,-1.28915 -1.062408,-1.87627 z m 4.998362,1.2425 c 0.769757,2.30665 1.855132,5.12163 2.727304,7.86754 0.872172,2.7459 1.563767,5.43533 1.254511,7.52703 -0.03745,0.24703 -0.0892,0.48558 -0.156875,0.71454 0.97899,0.39145 1.984336,0.77069 3.013155,1.12611 0,0 -0.6616,-1.82702 -1.53858,-4.37067 -0.662228,-1.9003 -1.443959,-4.20615 -2.313277,-6.49109 -0.869317,-2.28494 -1.83877,-4.55251 -2.986238,-6.37346 z m 5.148156,1.37239 c 0.622248,2.13872 1.545895,4.6991 2.371207,7.23 10e-7,0 10e-7,0 10e-7,0 0.531035,1.59097 1.002186,3.18312 1.2965,4.66405 0.294315,1.48093 0.411391,2.85416 0.1161,4.01075 1.050986,0.32249 2.121838,0.61363 3.209664,0.86156 0,0 -0.633565,-1.30384 -1.433646,-3.26352 -0.40004,-0.97984 -0.838401,-2.12415 -1.29207,-3.34792 -0.453668,-1.22377 -0.923524,-2.52691 -1.431048,-3.81869 -10e-7,0 -10e-7,0 -10e-7,0 -0.862613,-2.25918 -1.775622,-4.51081 -2.836707,-6.33623 z m 4.918217,1.19623 c 0.0658,0.24172 0.135957,0.48873 0.209961,0.74032 0.734702,2.31886 1.69129,5.04997 2.560417,7.64105 0.434564,1.29554 0.848023,2.55947 1.133786,3.74892 0.285764,1.18945 0.442359,2.30745 0.285878,3.30545 1.0899,0.2073 2.19499,0.36407 3.31303,0.4583 0.0911,0.007 0.18223,0.0126 0.27322,0.0182 0,0 -0.0793,-0.11376 -0.22327,-0.3244 0,0 0,0 0,0 -0.28574,-0.4237 -0.82431,-1.2337 -1.4378,-2.30063 -0.61349,-1.06692 -1.293086,-2.39233 -1.94102,-3.83977 -0.647934,-1.44743 -1.266068,-3.01696 -1.887617,-4.55269 -0.62155,-1.53572 -1.254509,-3.03651 -1.982182,-4.33576 -0.100598,-0.19043 -0.202018,-0.37691 -0.304403,-0.55899 z m 4.612151,0.80906 c 0.362171,1.51391 0.898391,3.21754 1.550831,4.92425 0.65243,1.70672 1.44302,3.41165 2.17693,5.03096 0.73541,1.64882 1.4154,3.19345 1.46614,4.61916 0.88194,0.0386 1.76034,0.0365 2.6337,-0.002 0,0 -0.51567,-0.62834 -1.27815,-1.6643 -0.76247,-1.03595 -1.75678,-2.48565 -2.62691,-4.14682 -0.76044,-1.414 -1.44453,-2.96391 -2.06814,-4.48331 -0.62361,-1.51939 -1.19627,-3.00767 -1.854361,-4.27797 m 3.624261,0.26007 c 0.27466,1.05231 0.65046,2.20352 1.13439,3.37571 0.68936,1.80205 1.77498,3.626 2.7588,5.3696 0.98383,1.74361 1.84606,3.42466 1.84526,5.01464 0.90053,0.0652 1.80769,0.0936 2.71741,0.089 0,0 -0.30819,-0.38748 -0.82366,-1.04184 -0.51548,-0.65437 -1.23542,-1.57726 -2.01838,-2.65989 -0.78296,-1.08263 -1.62562,-2.32565 -2.39026,-3.61429 -0.76464,-1.28864 -1.44675,-2.62248 -1.9714,-3.87915 0,0 0,0 0,-10e-6 -0.43851,-0.96102 -0.83227,-1.86723 -1.25216,-2.65381 z m 3.18992,-0.56199 c 0.36037,1.02898 0.8911,2.17359 1.55555,3.35497 0.66445,1.18139 1.46036,2.39911 2.25154,3.60386 1.58235,2.4095 3.15222,4.76976 3.11567,6.91281 0.96442,0.057 1.93683,0.0795 2.91065,0.071 0,0 -0.44592,-0.57978 -1.17786,-1.51834 -0.73194,-0.93855 -1.74623,-2.23929 -2.83094,-3.69364 -1.08472,-1.45435 -2.23385,-3.06313 -3.25206,-4.59738 -1.01822,-1.53425 -1.89593,-2.99201 -2.57255,-4.13328 z m 3.60582,-0.52335 c 0.89481,1.60687 2.19329,3.48046 3.55317,5.36366 1.35988,1.88319 2.75988,3.77608 3.58834,5.57229 0.39527,0.85622 0.6584,1.69405 0.71801,2.50199 0.0119,0.16191 0.0156,0.32264 0.0104,0.48207 0.0429,0.001 0.0859,0.002 0.12886,0.003 0.96805,0.026 1.94011,0.0284 2.91382,0.0118 0,0 -0.50859,-0.70365 -1.34982,-1.81014 -0.84124,-1.10649 -2.01201,-2.617 -3.30127,-4.25537 -1.05568,-1.352 -2.18507,-2.79746 -3.26477,-4.16808 -1.07969,-1.37063 -2.10591,-2.66574 -2.99674,-3.7014 z m 4.23798,-0.37849 c 1.44218,2.02789 3.51478,4.42609 5.32028,6.79965 1.8055,2.37357 3.31321,4.75351 3.29581,6.90038 1.03536,0.0157 2.07349,0.013 3.11093,-0.003 0,0 -1.68913,-2.32836 -4.01831,-5.1883 -2.32918,-2.85993 -5.25161,-6.26445 -7.70871,-8.50905 z m 4.84595,-0.54688 c 1.54183,1.99933 3.67541,4.36096 5.45805,6.73428 1.78263,2.37331 3.19674,4.77519 3.13278,6.92822 1.04125,0.0115 2.08133,0.0128 3.11631,0.009 0,0 -1.56448,-2.34683 -3.8281,-5.21807 -2.26362,-2.87123 -5.21566,-6.26715 -7.87904,-8.45374 z m 4.97555,-0.65687 c 1.61434,1.97394 3.80045,4.34386 5.57664,6.74963 1.77619,2.40578 3.13549,4.85325 3.06664,7.00404 0.63499,0.004 1.26735,0.008 1.89613,0.012 0.46705,0.004 0.93251,0.009 1.39599,0.0136 0,0 -1.47136,-2.27869 -3.65205,-5.09217 -2.29233,-2.95858 -5.39317,-6.50457 -8.28335,-8.68715 z m 5.49909,-0.68153 c 1.54564,2.03558 3.64317,4.44419 5.31586,6.88726 1.67268,2.44306 2.92152,4.91713 2.8295,7.05557 1.07793,0.0423 2.14288,0.0927 3.18952,0.15818 0,0 -1.40659,-2.42369 -3.53696,-5.39536 -2.13037,-2.97166 -5.0073,-6.47988 -7.79792,-8.70565 z m 5.26412,-0.56196 c 1.53917,2.0507 3.60715,4.52232 5.21681,7.03512 1.60966,2.51279 2.77045,5.05373 2.68812,7.17096 1.02475,0.0807 2.02871,0.18102 3.0066,0.30812 0,0 -1.27979,-2.51344 -3.29161,-5.58482 -2.01182,-3.07139 -4.79594,-6.68388 -7.61992,-8.92938 z m 5.60514,-0.37266 c 1.40448,2.14198 3.3268,4.69582 4.79013,7.27896 1.46333,2.58314 2.48213,5.17512 2.41654,7.26453 0.70178,0.0401 1.38913,0.0982 2.06044,0.17728 0.4908,0.0747 0.96822,0.15544 1.42976,0.24343 0,0 -1.14967,-2.47693 -3.06299,-5.53608 -1.00159,-1.58986 -2.20942,-3.33683 -3.52375,-4.98836 -1.31433,-1.65152 -2.73451,-3.20772 -4.11013,-4.43976 z m 5.44387,-0.089 c 1.2676,2.22914 3.08774,4.78945 4.42188,7.38491 1.33415,2.59546 2.18789,5.19615 2.21056,7.29906 0.9129,0.0901 1.75222,0.21922 2.49806,0.40059 0,0 -0.19158,-0.62305 -0.57901,-1.6418 -0.38742,-1.01876 -0.9809,-2.43218 -1.79175,-4.00162 -0.81086,-1.56943 -1.84197,-3.29345 -3.01186,-4.94017 -1.1699,-1.64672 -2.47538,-3.21477 -3.74788,-4.50097 z m 4.22143,0.0792 c 0.73929,1.06975 1.59686,2.23811 2.40562,3.47563 0.80877,1.23752 1.56536,2.54414 2.15981,3.86048 0.59445,1.31635 1.02616,2.64085 1.27643,3.89682 0.25027,1.25598 0.325,2.44115 0.25897,3.4916 0.61268,0.16141 1.14546,0.37625 1.58487,0.6564 0,0 -0.0274,-0.65611 -0.18892,-1.72365 -0.16149,-1.06754 -0.47448,-2.54574 -1.0622,-4.17326 -0.58772,-1.62752 -1.45575,-3.40262 -2.56892,-5.06561 -1.11318,-1.66298 -2.46683,-3.21176 -3.86566,-4.41841 z m 4.99963,0.0482 c 0.82488,1.38995 1.77092,2.95925 2.50533,4.62455 0.73441,1.66531 1.24643,3.42515 1.43412,5.11764 0.55058,2.08441 0.80694,4.02725 0.34888,5.57706 1.22529,0.31377 2.45164,0.61711 3.67863,0.91068 0,0 -1.62872,-4.22289 -3.66212,-8.90749 0,0 0,0 0,-10e-6 -0.38832,-1.34653 -0.96718,-2.69986 -1.70593,-3.95372 -0.73875,-1.25387 -1.63551,-2.40781 -2.59891,-3.36871 z m 5.03623,0.56955 c 0.0705,0.16344 0.14177,0.32938 0.21316,0.4977 0.93089,2.37936 2.32161,5.13606 3.3989,7.79205 1.0773,2.656 1.83588,5.21653 1.38371,7.22722 1.2537,0.2369 2.50717,0.46396 3.76008,0.68188 0,0 -1.1621,-2.47597 -2.80002,-5.69876 -1.63793,-3.22278 -3.72327,-7.19669 -5.71596,-10.17925 -0.0787,-0.1088 -0.15875,-0.21578 -0.23987,-0.32084 z m 4.62615,0.76096 c 1.10314,2.32068 2.77168,5.06728 4.11808,7.74944 1.34641,2.68216 2.36512,5.3055 2.04547,7.41402 1.24283,0.15537 2.48439,0.30211 3.72443,0.44092 0,0 -1.36419,-2.50794 -3.27417,-5.71292 -1.90998,-3.20499 -4.33651,-7.11249 -6.61381,-9.89146 z m 4.79968,0.45325 c 1.25396,2.24612 3.093,4.88525 4.59966,7.4821 1.50666,2.59685 2.6759,5.15663 2.48576,7.28088 1.22776,0.0839 2.45352,0.16037 3.67714,0.23013 0,0 -1.48914,-2.42935 -3.57247,-5.51896 -2.08333,-3.08961 -4.73413,-6.84546 -7.19011,-9.47405 m 4.86005,0.14542 c 1.38216,2.17246 3.3637,4.70748 5.00394,7.22063 1.64024,2.51315 2.93456,5.00913 2.85645,7.1408 1.21017,0.0211 2.41789,0.036 3.6231,0.0454 0,0 -1.59027,-2.35318 -3.81611,-5.33167 -2.22584,-2.9785 -5.06338,-6.5885 -7.66738,-9.07512 z m 4.89285,-0.13348 c 1.49091,2.10163 3.61036,4.53009 5.39596,6.95469 1.7856,2.4246 3.23293,4.84941 3.31238,6.98146 0.8571,-0.0177 1.71284,-0.038 2.56724,-0.0606 0.26743,-0.007 0.53486,-0.0138 0.8023,-0.0211 0,0 -0.27518,-0.37518 -0.75902,-1.01237 -0.94885,-1.25287 -2.70458,-3.52021 -4.75533,-5.94774 -2.05075,-2.42752 -4.38945,-5.01676 -6.56353,-6.89436 z m 4.90564,-0.38489 c 1.86587,2.39855 4.6126,5.20378 6.63374,7.96193 1.41054,1.92256 2.47045,3.82573 2.60071,5.57346 1.19904,-0.0874 2.39769,-0.17978 3.59585,-0.2774 0,0 -2.74474,-3.29948 -6.12963,-6.89399 0,0 0,0 0,0 -2.12762,-2.26098 -4.51638,-4.63852 -6.70067,-6.364 z m 4.90443,-0.60971 c 0.59812,0.71058 1.27817,1.45466 1.99531,2.22092 3.26363,3.48895 7.34981,7.40951 7.7672,10.88506 0.97192,-0.1065 1.9433,-0.21649 2.91407,-0.33007 0.23304,-0.0273 0.46631,-0.0547 0.69981,-0.0824 0,0 -0.24822,-0.27096 -0.68745,-0.74012 -0.86534,-0.92425 -2.47265,-2.61847 -4.38817,-4.53211 -1.91551,-1.91363 -4.1369,-4.04778 -6.27891,-5.83415 -0.68538,-0.57124 -1.36331,-1.10658 -2.02186,-1.5871 z m 4.65039,-0.80331 c 2.32951,2.43459 5.77251,5.30857 8.10754,8.16517 1.23723,1.51362 2.16491,3.02589 2.41852,4.48375 0.2379,-0.0752 0.47587,-0.1507 0.71388,-0.22652 0,0 0,0 0,0 0.28599,-0.0911 0.57464,-0.18271 0.86558,-0.27514 0,0 0,0 0,0 0.0778,-0.024 0.15699,-0.048 0.23755,-0.0721 0,0 0,0 0,0 0.0136,-1.66054 0.0271,-3.31701 0.0406,-4.96941 0.005,-0.58449 0.01,-1.16847 0.0144,-1.75195 2e-5,-0.002 3e-5,-0.004 2e-5,-0.006 0,0 2e-5,0.002 -2e-5,0.006 0,0 0,0 0,0 0,0 0,0 0,0 0,0 0,0 0,0 0,0 0,0 0,0 0,0 0,0 0,0 0,0 0,0 0,0 0,0 0,0 0,0 0,0 0,0 0,0 0,0 0,0 0,0 0,0 0,0 0,0 0,0 0,0 0,0 0,0 0,0 0,0 0,0 0,0 0,0 0,0 0,0 0,0 0,0 0,0 0,0 0,0 0,10e-6 0,10e-6 0,0 0,0 0,0 0,0 0,0 0,0 0,0 0,0 0,0 0,0 0,0 0,0 0,0 0,0 0,0 0,0 0,0 0,0 -5.2e-4,0.0645 -0.005,0.65504 -0.0144,1.74357 -0.009,1.11413 -0.0229,2.74985 -0.041,4.85638 0,0 0,10e-6 0,10e-6 0,0 0,0 0,0 -0.055,-0.0623 -0.13565,-0.15385 -0.2371,-0.27157 0,0 0,0 0,-10e-6 0,0 0,0 0,0 -0.20029,-0.23924 -0.49257,-0.58656 -0.85734,-1.01606 0,0 0,0 0,0 -0.75913,-0.89376 -1.84502,-2.14353 -3.1255,-3.51367 0,0 0,0 0,0 -2.29632,-2.45708 -5.21862,-5.30316 -8.12276,-7.15242 z"/></g><path style="fill:url(#linearGradient6565);fill-opacity:1;stroke:none;filter:url(#filter6589)" id="path6579" d="m 0.37037034,1011.2511 c 0,0 31.87642466,-13.14851 63.33333266,-7.7778 30.370371,5.1852 55.555557,-7.77781 75.555547,-1.1111 20,6.6666 12.24833,-7.76663 27.77778,-1.1111 20.74075,8.8889 33.33334,1.1111 33.33334,1.1111 l 0,40 c 0,0 -40,10 -50,5 -10,-5 -10,-15 -55,-10 -45,5 -70,15 -75,10 -5,-5 -19.99999966,-10 -19.99999966,-10 z"/><path style="opacity:.35294118;fill:url(#linearGradient4232);fill-opacity:1;stroke:none;filter:url(#filter4295)" id="path3025-9" d="M-18.148153 978.698605013C-18.148153 978.698605013 44.999995 984.028828822 54.999995 982.362179922C64.999995 980.695511022 75.523778 972.219666331 100.52378 970.553004097C115.23249 969.572422784 138.06625 980.233277069 145.0 980.695511022C170.0 982.362179922 211.11111 979.028842122 211.11111 979.028842122C211.11111 979.028842122 211.11111 997.362180022 211.11111 997.362180022C206.11111 1002.36218672 160.0 1017.36217349 125.0 1002.36218672C109.96479 995.918511421 100.0 997.362180022 90.0 1002.36218672C80.0 1007.36219342 11.851852 1009.49179628 -18.148148 996.991812859C-18.148148 996.991812859 -18.148153 978.698605013 -18.148153 978.698605013"/></g></svg>