<svg xmlns="http://www.w3.org/2000/svg" xmlns:svg="http://www.w3.org/2000/svg" xmlns:xlink="http://www.w3.org/1999/xlink" id="svg6327" width="200" height="200" version="1.1"><defs id="defs6329"><radialGradient id="radialGradient6291" cx="225" cy="895.487" r="35.5" fx="225" fy="895.487" gradientTransform="matrix(1,0,0,0.91197183,0,78.828097)" gradientUnits="userSpaceOnUse" xlink:href="#linearGradient6285"/><linearGradient id="linearGradient6285"><stop style="stop-color:#e40021;stop-opacity:1" id="stop6287" offset="0"/><stop style="stop-color:#7f001b;stop-opacity:1" id="stop6289" offset="1"/></linearGradient><radialGradient id="radialGradient6350" cx="225" cy="895.487" r="35.5" fx="225" fy="895.487" gradientTransform="matrix(1.7985739,0,0,1.6402488,-304.67913,-516.45947)" gradientUnits="userSpaceOnUse" xlink:href="#linearGradient6285"/><filter id="filter8955"><feGaussianBlur id="feGaussianBlur8957" stdDeviation=".18"/></filter><filter id="filter8032" width="1.545" height="1.545" x="-.273" y="-.273" color-interpolation-filters="sRGB"><feGaussianBlur id="feGaussianBlur8034" stdDeviation="1.136"/></filter><radialGradient id="radialGradient6350-8" cx="225" cy="895.487" r="35.5" fx="225" fy="895.487" gradientTransform="matrix(1.7985739,0,0,1.6402488,-304.67913,-511.35543)" gradientUnits="userSpaceOnUse" xlink:href="#linearGradient6285-7"/><linearGradient id="linearGradient6285-7"><stop style="stop-color:#e40021;stop-opacity:1" id="stop6287-4" offset="0"/><stop style="stop-color:#7f001b;stop-opacity:1" id="stop6289-9" offset="1"/></linearGradient><radialGradient id="radialGradient8987" cx="225" cy="895.487" r="35.5" fx="225" fy="895.487" gradientTransform="matrix(1.7985739,0,0,1.6402488,-304.67912,-516.45946)" gradientUnits="userSpaceOnUse" xlink:href="#linearGradient6285-7"/><filter id="filter9042" width="1.51" height="1.559" x="-.255" y="-.28"><feGaussianBlur id="feGaussianBlur9044" stdDeviation="13.364"/></filter></defs><metadata id="metadata6332"/><g id="layer1" transform="translate(0,-852.36218)"><path style="fill:url(#radialGradient6350);fill-opacity:1;stroke:#000;stroke-width:1.79857397px;stroke-linecap:butt;stroke-linejoin:miter;stroke-opacity:1;filter:url(#filter8955)" id="path6283" d="m 37.049916,928.75599 c 0,35.97147 44.964347,80.93571 62.950084,80.93571 17.98573,0 62.95008,-44.96424 62.95008,-80.93571 0,-44.96439 -53.95721,-44.96439 -62.95008,0 -8.992867,-44.96439 -62.950083,-44.96439 -62.950083,0 z"/><path style="fill:url(#radialGradient8987);fill-opacity:1;stroke:none;filter:url(#filter9042)" id="path6283-9" d="m 37.049916,928.75603 c 0,35.97147 44.964351,80.93557 62.950094,80.93557 17.98572,0 62.95007,-44.9641 62.95007,-80.93557 0,-44.96439 -53.95721,-44.96439 -62.95007,0 -8.992872,-44.96439 -62.950094,-44.96439 -62.950094,0 z"/></g></svg>