<svg xmlns="http://www.w3.org/2000/svg" xmlns:osb="http://www.openswatchbook.org/uri/2009/osb" xmlns:svg="http://www.w3.org/2000/svg" xmlns:xlink="http://www.w3.org/1999/xlink" id="svg2" width="200" height="200" version="1.1"><defs id="defs4"><linearGradient id="linearGradient4144"><stop style="stop-color:#000;stop-opacity:1" id="stop4146" offset="0"/><stop style="stop-color:#000;stop-opacity:0" id="stop4148" offset="1"/></linearGradient><linearGradient id="linearGradient4100"><stop style="stop-color:#000;stop-opacity:1" id="stop4102" offset="0"/><stop style="stop-color:#000;stop-opacity:0" id="stop4104" offset="1"/></linearGradient><linearGradient id="linearGradient7970"><stop style="stop-color:#656565;stop-opacity:.68794328" id="stop7972" offset="0"/><stop style="stop-color:#000;stop-opacity:0" id="stop7974" offset="1"/></linearGradient><linearGradient id="linearGradient7865"><stop style="stop-color:#212121;stop-opacity:1" id="stop7867" offset="0"/><stop style="stop-color:#000;stop-opacity:1" id="stop7869" offset="1"/></linearGradient><marker id="DotM" orient="auto" refX="0" refY="0" style="overflow:visible"><path id="path6493" d="M -2.5,-1.0 C -2.5,1.7600000 -4.7400000,4.0 -7.5,4.0 C -10.260000,4.0 -12.5,1.7600000 -12.5,-1.0 C -12.5,-3.7600000 -10.260000,-6.0 -7.5,-6.0 C -4.7400000,-6.0 -2.5,-3.7600000 -2.5,-1.0 z" transform="scale(0.4) translate(7.4, 1)" style="fill-rule:evenodd;stroke:#000;stroke-width:1pt;marker-start:none;marker-end:none"/></marker><marker id="DotS" orient="auto" refX="0" refY="0" style="overflow:visible"><path id="path6496" d="M -2.5,-1.0 C -2.5,1.7600000 -4.7400000,4.0 -7.5,4.0 C -10.260000,4.0 -12.5,1.7600000 -12.5,-1.0 C -12.5,-3.7600000 -10.260000,-6.0 -7.5,-6.0 C -4.7400000,-6.0 -2.5,-3.7600000 -2.5,-1.0 z" transform="scale(0.2) translate(7.4, 1)" style="fill-rule:evenodd;stroke:#000;stroke-width:1pt;marker-start:none;marker-end:none"/></marker><marker id="EmptyDiamondLstart" orient="auto" refX="0" refY="0" style="overflow:visible"><path id="path6544" d="M 0,-7.0710768 L -7.0710894,0 L 0,7.0710589 L 7.0710462,0 L 0,-7.0710768 z" transform="scale(0.8) translate(7,0)" style="fill-rule:evenodd;fill:#fff;stroke:#000;stroke-width:1pt;marker-start:none"/></marker><marker id="DotL" orient="auto" refX="0" refY="0" style="overflow:visible"><path id="path6490" d="M -2.5,-1.0 C -2.5,1.7600000 -4.7400000,4.0 -7.5,4.0 C -10.260000,4.0 -12.5,1.7600000 -12.5,-1.0 C -12.5,-3.7600000 -10.260000,-6.0 -7.5,-6.0 C -4.7400000,-6.0 -2.5,-3.7600000 -2.5,-1.0 z" transform="scale(0.8) translate(7.4, 1)" style="fill-rule:evenodd;stroke:#000;stroke-width:1pt;marker-start:none;marker-end:none"/></marker><marker id="Arrow1Lstart" orient="auto" refX="0" refY="0" style="overflow:visible"><path id="path6428" d="M 0.0,0.0 L 5.0,-5.0 L -12.5,0.0 L 5.0,5.0 L 0.0,0.0 z" transform="scale(0.8) translate(12.5,0)" style="fill-rule:evenodd;stroke:#000;stroke-width:1pt;marker-start:none"/></marker><linearGradient id="linearGradient6285"><stop style="stop-color:#e40021;stop-opacity:1" id="stop6287" offset="0"/><stop style="stop-color:#7f001b;stop-opacity:1" id="stop6289" offset="1"/></linearGradient><linearGradient id="linearGradient6275"><stop style="stop-color:#2d2d2d;stop-opacity:1" id="stop6277" offset="0"/><stop style="stop-color:#222;stop-opacity:1" id="stop6279" offset="1"/></linearGradient><linearGradient id="linearGradient6213"><stop style="stop-color:#434343;stop-opacity:1" id="stop6215" offset="0"/><stop style="stop-color:#4c4c4c;stop-opacity:1" id="stop6217" offset="1"/></linearGradient><linearGradient id="linearGradient4686"><stop style="stop-color:#a0113c;stop-opacity:1" id="stop4688" offset="0"/><stop style="stop-color:#000;stop-opacity:1" id="stop4690" offset="1"/></linearGradient><linearGradient id="linearGradient4296"><stop style="stop-color:#848484;stop-opacity:1" id="stop4298" offset="0"/><stop style="stop-color:#535353;stop-opacity:1" id="stop4300" offset="1"/></linearGradient><linearGradient id="linearGradient4128"><stop style="stop-color:#86121d;stop-opacity:1" id="stop4130" offset="0"/><stop style="stop-color:#363636;stop-opacity:1" id="stop4132" offset="1"/></linearGradient><linearGradient id="linearGradient3876"><stop style="stop-color:#696969;stop-opacity:1" id="stop3878" offset="0"/><stop style="stop-color:#3f3f3f;stop-opacity:1" id="stop3880" offset="1"/></linearGradient><linearGradient id="linearGradient3813" osb:paint="gradient"><stop style="stop-color:#727272;stop-opacity:1" id="stop3815" offset="0"/><stop style="stop-color:#a5a5a5;stop-opacity:1" id="stop3817" offset="1"/></linearGradient><linearGradient id="linearGradient3803"><stop style="stop-color:#454545;stop-opacity:1" id="stop3805" offset="0"/><stop style="stop-color:#2f2f2f;stop-opacity:1" id="stop3807" offset="1"/></linearGradient><linearGradient id="linearGradient3819-0" x1="140" x2="140" y1="1037.362" y2="1007.362" gradientUnits="userSpaceOnUse" xlink:href="#linearGradient3813-3"/><linearGradient id="linearGradient3813-3"><stop style="stop-color:#949494;stop-opacity:1" id="stop3815-5" offset="0"/><stop style="stop-color:#575757;stop-opacity:1" id="stop3817-5" offset="1"/></linearGradient><radialGradient id="radialGradient3884-8" cx="33.581" cy="103.278" r="8.625" fx="33.581" fy="103.278" gradientTransform="matrix(1,0,0,0.86012052,0,14.446509)" gradientUnits="userSpaceOnUse" xlink:href="#linearGradient3876-1"/><linearGradient id="linearGradient3876-1"><stop style="stop-color:#a1a1a1;stop-opacity:1" id="stop3878-9" offset="0"/><stop style="stop-color:#6d6d6d;stop-opacity:1" id="stop3880-8" offset="1"/></linearGradient><radialGradient id="radialGradient3901-6" cx="33.581" cy="103.278" r="8.625" fx="33.581" fy="103.278" gradientTransform="matrix(1,0,0,0.86012052,0,14.446509)" gradientUnits="userSpaceOnUse" xlink:href="#linearGradient3876-1-4"/><linearGradient id="linearGradient3876-1-4"><stop style="stop-color:#a1a1a1;stop-opacity:1" id="stop3878-9-8" offset="0"/><stop style="stop-color:#6d6d6d;stop-opacity:1" id="stop3880-8-5" offset="1"/></linearGradient><radialGradient id="radialGradient3935-1" cx="33.581" cy="103.278" r="8.625" fx="33.581" fy="103.278" gradientTransform="matrix(1,0,0,0.86012052,0,14.446509)" gradientUnits="userSpaceOnUse" xlink:href="#linearGradient3876-1-4-5"/><linearGradient id="linearGradient3876-1-4-5"><stop style="stop-color:#a1a1a1;stop-opacity:1" id="stop3878-9-8-9" offset="0"/><stop style="stop-color:#6d6d6d;stop-opacity:1" id="stop3880-8-5-7" offset="1"/></linearGradient><radialGradient id="radialGradient3969-6" cx="33.581" cy="103.278" r="8.625" fx="33.581" fy="103.278" gradientTransform="matrix(1,0,0,0.86012052,0,14.446509)" gradientUnits="userSpaceOnUse" xlink:href="#linearGradient3876-1-4-5-2"/><linearGradient id="linearGradient3876-1-4-5-2"><stop style="stop-color:#a1a1a1;stop-opacity:1" id="stop3878-9-8-9-8" offset="0"/><stop style="stop-color:#6d6d6d;stop-opacity:1" id="stop3880-8-5-7-9" offset="1"/></linearGradient><radialGradient id="radialGradient4003-0" cx="33.581" cy="103.278" r="8.625" fx="33.581" fy="103.278" gradientTransform="matrix(1,0,0,0.86012052,0,14.446509)" gradientUnits="userSpaceOnUse" xlink:href="#linearGradient3876-1-4-5-2-2"/><linearGradient id="linearGradient3876-1-4-5-2-2"><stop style="stop-color:#a1a1a1;stop-opacity:1" id="stop3878-9-8-9-8-7" offset="0"/><stop style="stop-color:#6d6d6d;stop-opacity:1" id="stop3880-8-5-7-9-2" offset="1"/></linearGradient><radialGradient id="radialGradient4037-1" cx="33.581" cy="103.278" r="8.625" fx="33.581" fy="103.278" gradientTransform="matrix(1,0,0,0.86012052,0,14.446509)" gradientUnits="userSpaceOnUse" xlink:href="#linearGradient3876-1-4-5-2-2-7"/><linearGradient id="linearGradient3876-1-4-5-2-2-7"><stop style="stop-color:#a1a1a1;stop-opacity:1" id="stop3878-9-8-9-8-7-7" offset="0"/><stop style="stop-color:#6d6d6d;stop-opacity:1" id="stop3880-8-5-7-9-2-9" offset="1"/></linearGradient><radialGradient id="radialGradient4071-8" cx="33.581" cy="103.278" r="8.625" fx="33.581" fy="103.278" gradientTransform="matrix(1,0,0,0.86012052,0,14.446509)" gradientUnits="userSpaceOnUse" xlink:href="#linearGradient3876-1-4-5-2-2-7-0"/><linearGradient id="linearGradient3876-1-4-5-2-2-7-0"><stop style="stop-color:#a1a1a1;stop-opacity:1" id="stop3878-9-8-9-8-7-7-5" offset="0"/><stop style="stop-color:#6d6d6d;stop-opacity:1" id="stop3880-8-5-7-9-2-9-2" offset="1"/></linearGradient><radialGradient id="radialGradient4136" cx="50" cy="25" r="5.375" fx="50" fy="25" gradientUnits="userSpaceOnUse" xlink:href="#linearGradient4128"/><linearGradient id="linearGradient3876-1-4-5-2-2-7-0-2"><stop style="stop-color:#a1a1a1;stop-opacity:1" id="stop3878-9-8-9-8-7-7-5-3" offset="0"/><stop style="stop-color:#6d6d6d;stop-opacity:1" id="stop3880-8-5-7-9-2-9-2-2" offset="1"/></linearGradient><linearGradient id="linearGradient3876-1-4-5-2-2-7-3"><stop style="stop-color:#a1a1a1;stop-opacity:1" id="stop3878-9-8-9-8-7-7-9" offset="0"/><stop style="stop-color:#6d6d6d;stop-opacity:1" id="stop3880-8-5-7-9-2-9-0" offset="1"/></linearGradient><linearGradient id="linearGradient3876-1-4-5-2-2-0"><stop style="stop-color:#a1a1a1;stop-opacity:1" id="stop3878-9-8-9-8-7-6" offset="0"/><stop style="stop-color:#6d6d6d;stop-opacity:1" id="stop3880-8-5-7-9-2-97" offset="1"/></linearGradient><linearGradient id="linearGradient3876-1-4-5-2-28"><stop style="stop-color:#a1a1a1;stop-opacity:1" id="stop3878-9-8-9-8-9" offset="0"/><stop style="stop-color:#6d6d6d;stop-opacity:1" id="stop3880-8-5-7-9-9" offset="1"/></linearGradient><linearGradient id="linearGradient3876-1-4-5-9"><stop style="stop-color:#a1a1a1;stop-opacity:1" id="stop3878-9-8-9-3" offset="0"/><stop style="stop-color:#6d6d6d;stop-opacity:1" id="stop3880-8-5-7-6" offset="1"/></linearGradient><linearGradient id="linearGradient3876-1-4-6"><stop style="stop-color:#a1a1a1;stop-opacity:1" id="stop3878-9-8-0" offset="0"/><stop style="stop-color:#6d6d6d;stop-opacity:1" id="stop3880-8-5-4" offset="1"/></linearGradient><linearGradient id="linearGradient3876-1-9"><stop style="stop-color:#a1a1a1;stop-opacity:1" id="stop3878-9-6" offset="0"/><stop style="stop-color:#6d6d6d;stop-opacity:1" id="stop3880-8-6" offset="1"/></linearGradient><linearGradient id="linearGradient3876-19"><stop style="stop-color:#a1a1a1;stop-opacity:1" id="stop3878-8" offset="0"/><stop style="stop-color:#6d6d6d;stop-opacity:1" id="stop3880-0" offset="1"/></linearGradient><linearGradient id="linearGradient3836-4" x1="140" x2="140" y1="1037.362" y2="1007.362" gradientTransform="matrix(1,0,0,1.0506381,-72.738429,-52.530125)" gradientUnits="userSpaceOnUse" xlink:href="#linearGradient3813-3-9"/><linearGradient id="linearGradient3813-3-9"><stop style="stop-color:#727272;stop-opacity:1" id="stop3815-5-0" offset="0"/><stop style="stop-color:#898989;stop-opacity:1" id="stop3817-5-5" offset="1"/></linearGradient><linearGradient id="linearGradient4302" x1="61.168" x2="36.647" y1="62.467" y2="51.527" gradientUnits="userSpaceOnUse" xlink:href="#linearGradient6275"/><linearGradient id="linearGradient3876-1-4-5-2-2-7-0-7"><stop style="stop-color:#a1a1a1;stop-opacity:1" id="stop3878-9-8-9-8-7-7-5-8" offset="0"/><stop style="stop-color:#6d6d6d;stop-opacity:1" id="stop3880-8-5-7-9-2-9-2-5" offset="1"/></linearGradient><linearGradient id="linearGradient3876-1-4-5-2-2-7-6"><stop style="stop-color:#a1a1a1;stop-opacity:1" id="stop3878-9-8-9-8-7-7-0" offset="0"/><stop style="stop-color:#6d6d6d;stop-opacity:1" id="stop3880-8-5-7-9-2-9-9" offset="1"/></linearGradient><linearGradient id="linearGradient3876-1-4-5-2-2-4"><stop style="stop-color:#a1a1a1;stop-opacity:1" id="stop3878-9-8-9-8-7-9" offset="0"/><stop style="stop-color:#6d6d6d;stop-opacity:1" id="stop3880-8-5-7-9-2-0" offset="1"/></linearGradient><linearGradient id="linearGradient3876-1-4-5-2-4"><stop style="stop-color:#a1a1a1;stop-opacity:1" id="stop3878-9-8-9-8-4" offset="0"/><stop style="stop-color:#6d6d6d;stop-opacity:1" id="stop3880-8-5-7-9-3" offset="1"/></linearGradient><linearGradient id="linearGradient3876-1-4-5-5"><stop style="stop-color:#a1a1a1;stop-opacity:1" id="stop3878-9-8-9-1" offset="0"/><stop style="stop-color:#6d6d6d;stop-opacity:1" id="stop3880-8-5-7-3" offset="1"/></linearGradient><linearGradient id="linearGradient3876-1-4-60"><stop style="stop-color:#a1a1a1;stop-opacity:1" id="stop3878-9-8-6" offset="0"/><stop style="stop-color:#6d6d6d;stop-opacity:1" id="stop3880-8-5-9" offset="1"/></linearGradient><linearGradient id="linearGradient3876-1-0"><stop style="stop-color:#a1a1a1;stop-opacity:1" id="stop3878-9-86" offset="0"/><stop style="stop-color:#6d6d6d;stop-opacity:1" id="stop3880-8-7" offset="1"/></linearGradient><linearGradient id="linearGradient3876-4"><stop style="stop-color:#a1a1a1;stop-opacity:1" id="stop3878-4" offset="0"/><stop style="stop-color:#6d6d6d;stop-opacity:1" id="stop3880-6" offset="1"/></linearGradient><linearGradient id="linearGradient3836-0" x1="140" x2="140" y1="1037.362" y2="1007.362" gradientTransform="matrix(1.4687143,0,0,1.5430872,-121.8056,-556.59569)" gradientUnits="userSpaceOnUse" xlink:href="#linearGradient3813-3-5"/><linearGradient id="linearGradient3813-3-5"><stop style="stop-color:#727272;stop-opacity:1" id="stop3815-5-5" offset="0"/><stop style="stop-color:#898989;stop-opacity:1" id="stop3817-5-3" offset="1"/></linearGradient><linearGradient id="linearGradient3813-3-0"><stop style="stop-color:#727272;stop-opacity:1" id="stop3815-5-8" offset="0"/><stop style="stop-color:#898989;stop-opacity:1" id="stop3817-5-2" offset="1"/></linearGradient><linearGradient id="linearGradient3876-0"><stop style="stop-color:#a1a1a1;stop-opacity:1" id="stop3878-1" offset="0"/><stop style="stop-color:#6d6d6d;stop-opacity:1" id="stop3880-08" offset="1"/></linearGradient><linearGradient id="linearGradient3876-1-6"><stop style="stop-color:#a1a1a1;stop-opacity:1" id="stop3878-9-7" offset="0"/><stop style="stop-color:#6d6d6d;stop-opacity:1" id="stop3880-8-8" offset="1"/></linearGradient><linearGradient id="linearGradient3876-1-4-2"><stop style="stop-color:#a1a1a1;stop-opacity:1" id="stop3878-9-8-1" offset="0"/><stop style="stop-color:#6d6d6d;stop-opacity:1" id="stop3880-8-5-3" offset="1"/></linearGradient><linearGradient id="linearGradient3876-1-4-5-93"><stop style="stop-color:#a1a1a1;stop-opacity:1" id="stop3878-9-8-9-5" offset="0"/><stop style="stop-color:#6d6d6d;stop-opacity:1" id="stop3880-8-5-7-4" offset="1"/></linearGradient><linearGradient id="linearGradient3876-1-4-5-2-27"><stop style="stop-color:#a1a1a1;stop-opacity:1" id="stop3878-9-8-9-8-79" offset="0"/><stop style="stop-color:#6d6d6d;stop-opacity:1" id="stop3880-8-5-7-9-1" offset="1"/></linearGradient><linearGradient id="linearGradient3876-1-4-5-2-2-04"><stop style="stop-color:#a1a1a1;stop-opacity:1" id="stop3878-9-8-9-8-7-78" offset="0"/><stop style="stop-color:#6d6d6d;stop-opacity:1" id="stop3880-8-5-7-9-2-7" offset="1"/></linearGradient><linearGradient id="linearGradient3876-1-4-5-2-2-7-8"><stop style="stop-color:#a1a1a1;stop-opacity:1" id="stop3878-9-8-9-8-7-7-08" offset="0"/><stop style="stop-color:#6d6d6d;stop-opacity:1" id="stop3880-8-5-7-9-2-9-6" offset="1"/></linearGradient><radialGradient id="radialGradient4105-1" cx="33.581" cy="103.278" r="8.625" fx="33.581" fy="103.278" gradientTransform="matrix(1,0,0,0.86012052,0,14.446509)" gradientUnits="userSpaceOnUse" xlink:href="#linearGradient3876-1-4-5-2-2-7-0-4"/><linearGradient id="linearGradient3876-1-4-5-2-2-7-0-4"><stop style="stop-color:#a1a1a1;stop-opacity:1" id="stop3878-9-8-9-8-7-7-5-5" offset="0"/><stop style="stop-color:#6d6d6d;stop-opacity:1" id="stop3880-8-5-7-9-2-9-2-25" offset="1"/></linearGradient><linearGradient id="linearGradient4656" x1="140" x2="140" y1="1037.362" y2="1007.362" gradientTransform="matrix(1.4687143,0,0,1.5430872,-121.8056,-556.59569)" gradientUnits="userSpaceOnUse" xlink:href="#linearGradient3813-3"/><radialGradient id="radialGradient4658" cx="33.581" cy="103.278" r="8.625" fx="33.581" fy="103.278" gradientTransform="matrix(1,0,0,0.86012052,0,14.446509)" gradientUnits="userSpaceOnUse" xlink:href="#linearGradient3876"/><radialGradient id="radialGradient4660" cx="33.581" cy="103.278" r="8.625" fx="33.581" fy="103.278" gradientTransform="matrix(1,0,0,0.86012052,0,14.446509)" gradientUnits="userSpaceOnUse" xlink:href="#linearGradient3876-1"/><radialGradient id="radialGradient4662" cx="33.581" cy="103.278" r="8.625" fx="33.581" fy="103.278" gradientTransform="matrix(1,0,0,0.86012052,0,14.446509)" gradientUnits="userSpaceOnUse" xlink:href="#linearGradient3876-1-4"/><radialGradient id="radialGradient4664" cx="33.581" cy="103.278" r="8.625" fx="33.581" fy="103.278" gradientTransform="matrix(1,0,0,0.86012052,0,14.446509)" gradientUnits="userSpaceOnUse" xlink:href="#linearGradient3876-1-4-5"/><radialGradient id="radialGradient4666" cx="33.581" cy="103.278" r="8.625" fx="33.581" fy="103.278" gradientTransform="matrix(1,0,0,0.86012052,0,14.446509)" gradientUnits="userSpaceOnUse" xlink:href="#linearGradient3876-1-4-5-2"/><radialGradient id="radialGradient4668" cx="33.581" cy="103.278" r="8.625" fx="33.581" fy="103.278" gradientTransform="matrix(1,0,0,0.86012052,0,14.446509)" gradientUnits="userSpaceOnUse" xlink:href="#linearGradient3876-1-4-5-2-2"/><radialGradient id="radialGradient4670" cx="33.581" cy="103.278" r="8.625" fx="33.581" fy="103.278" gradientTransform="matrix(1,0,0,0.86012052,0,14.446509)" gradientUnits="userSpaceOnUse" xlink:href="#linearGradient3876-1-4-5-2-2-7"/><radialGradient id="radialGradient4672" cx="33.581" cy="103.278" r="8.625" fx="33.581" fy="103.278" gradientTransform="matrix(1,0,0,0.86012052,0,14.446509)" gradientUnits="userSpaceOnUse" xlink:href="#linearGradient3876-1-4-5-2-2-7-0"/><radialGradient id="radialGradient4692" cx="122.26" cy="58.839" r="13.244" fx="122.26" fy="58.839" gradientUnits="userSpaceOnUse" xlink:href="#linearGradient4686"/><linearGradient id="linearGradient6219" x1="108.34" x2="150.28" y1="945.734" y2="945.734" gradientTransform="matrix(0.97280045,0,0,1,4.2068119,-2.6213405)" gradientUnits="userSpaceOnUse" xlink:href="#linearGradient6213"/><radialGradient id="radialGradient6291-1" cx="225" cy="895.487" r="35.5" fx="225" fy="895.487" gradientTransform="matrix(1,0,0,0.91197183,0,78.828097)" gradientUnits="userSpaceOnUse" xlink:href="#linearGradient6285-9"/><linearGradient id="linearGradient6285-9"><stop style="stop-color:#e40021;stop-opacity:1" id="stop6287-9" offset="0"/><stop style="stop-color:#7f001b;stop-opacity:1" id="stop6289-3" offset="1"/></linearGradient><radialGradient id="radialGradient6350" cx="225" cy="895.487" r="35.5" fx="225" fy="895.487" gradientTransform="matrix(0.42719661,-0.19730941,0.17994062,0.38959127,-179.18648,645.83415)" gradientUnits="userSpaceOnUse" xlink:href="#linearGradient6285-9"/><linearGradient id="linearGradient6408" x1="100" x2="100" y1="175" y2="50" gradientUnits="userSpaceOnUse" xlink:href="#linearGradient3803"/><linearGradient id="linearGradient6421" x1="57.353" x2="97.632" y1="953.968" y2="953.968" gradientUnits="userSpaceOnUse" xlink:href="#linearGradient6275"/><marker id="DotM-7" orient="auto" refX="0" refY="0" style="overflow:visible"><path id="path6493-0" d="m -2.5,-1 c 0,2.76 -2.24,5 -5,5 -2.76,0 -5,-2.24 -5,-5 0,-2.76 2.24,-5 5,-5 2.76,0 5,2.24 5,5 z" transform="matrix(0.4,0,0,0.4,2.96,0.4)" style="fill-rule:evenodd;stroke:#000;stroke-width:1pt;marker-start:none;marker-end:none"/></marker><marker id="DotM-1" orient="auto" refX="0" refY="0" style="overflow:visible"><path id="path6493-3" d="m -2.5,-1 c 0,2.76 -2.24,5 -5,5 -2.76,0 -5,-2.24 -5,-5 0,-2.76 2.24,-5 5,-5 2.76,0 5,2.24 5,5 z" transform="matrix(0.4,0,0,0.4,2.96,0.4)" style="fill-rule:evenodd;stroke:#000;stroke-width:1pt;marker-start:none;marker-end:none"/></marker><linearGradient id="linearGradient7875" x1="77.971" x2="94.788" y1="97.695" y2="97.695" gradientTransform="translate(-439.62177,787.75263)" gradientUnits="userSpaceOnUse" xlink:href="#linearGradient7865"/><radialGradient id="radialGradient7887" cx="57.5" cy="67.5" r="2.875" fx="57.5" fy="67.5" gradientUnits="userSpaceOnUse" spreadMethod="pad" xlink:href="#linearGradient6275"/><marker id="DotM-8" orient="auto" refX="0" refY="0" style="overflow:visible"><path id="path6493-2" d="m -2.5,-1 c 0,2.76 -2.24,5 -5,5 -2.76,0 -5,-2.24 -5,-5 0,-2.76 2.24,-5 5,-5 2.76,0 5,2.24 5,5 z" transform="matrix(0.4,0,0,0.4,2.96,0.4)" style="fill-rule:evenodd;stroke:#000;stroke-width:1pt;marker-start:none;marker-end:none"/></marker><radialGradient id="radialGradient7887-2" cx="57.5" cy="67.5" r="2.875" fx="57.5" fy="67.5" gradientUnits="userSpaceOnUse" spreadMethod="pad" xlink:href="#linearGradient6275-1"/><linearGradient id="linearGradient6275-1"><stop style="stop-color:#2d2d2d;stop-opacity:1" id="stop6277-2" offset="0"/><stop style="stop-color:#222;stop-opacity:1" id="stop6279-9" offset="1"/></linearGradient><radialGradient id="radialGradient7915" cx="57.5" cy="67.5" r="2.875" fx="57.5" fy="67.5" gradientUnits="userSpaceOnUse" spreadMethod="pad" xlink:href="#linearGradient6275-1"/><linearGradient id="linearGradient6421-1" x1="57.353" x2="97.632" y1="953.968" y2="953.968" gradientUnits="userSpaceOnUse" xlink:href="#linearGradient6275-4"/><linearGradient id="linearGradient6275-4"><stop style="stop-color:#2d2d2d;stop-opacity:.15602838" id="stop6277-6" offset="0"/><stop style="stop-color:#222;stop-opacity:1" id="stop6279-0" offset="1"/></linearGradient><linearGradient id="linearGradient7949" x1="57.353" x2="97.632" y1="953.968" y2="953.968" gradientTransform="translate(-0.57775428,-0.33821346)" gradientUnits="userSpaceOnUse" xlink:href="#linearGradient6275-4"/><linearGradient id="linearGradient7976" x1="59.423" x2="95.513" y1="102.373" y2="102.373" gradientUnits="userSpaceOnUse" xlink:href="#linearGradient7970"/><radialGradient id="radialGradient4136-0" cx="50" cy="25" r="5.375" fx="50" fy="25" gradientUnits="userSpaceOnUse" xlink:href="#linearGradient4128-0"/><linearGradient id="linearGradient4128-0"><stop style="stop-color:#86121d;stop-opacity:1" id="stop4130-8" offset="0"/><stop style="stop-color:#363636;stop-opacity:1" id="stop4132-2" offset="1"/></linearGradient><filter id="filter8032" width="1.545" height="1.545" x="-.273" y="-.273"><feGaussianBlur id="feGaussianBlur8034" stdDeviation="1.136"/></filter><filter id="filter8044"><feGaussianBlur id="feGaussianBlur8046" stdDeviation=".319"/></filter><linearGradient id="linearGradient8057" x1="147.726" x2="130.729" y1="1042.405" y2="1006.942" gradientTransform="matrix(1.8218395,0,0,1.914094,-148.70206,-947.27101)" gradientUnits="userSpaceOnUse" xlink:href="#linearGradient3876"/><radialGradient id="radialGradient8061" cx="33.581" cy="103.278" r="8.625" fx="33.581" fy="103.278" gradientTransform="matrix(1,0,0,0.86012052,0,14.446509)" gradientUnits="userSpaceOnUse" xlink:href="#linearGradient3876"/><radialGradient id="radialGradient8063" cx="33.581" cy="103.278" r="8.625" fx="33.581" fy="103.278" gradientTransform="matrix(1,0,0,0.86012052,0,14.446509)" gradientUnits="userSpaceOnUse" xlink:href="#linearGradient3876"/><radialGradient id="radialGradient8065" cx="33.581" cy="103.278" r="8.625" fx="33.581" fy="103.278" gradientTransform="matrix(1,0,0,0.86012052,0,14.446509)" gradientUnits="userSpaceOnUse" xlink:href="#linearGradient3876"/><radialGradient id="radialGradient8067" cx="33.581" cy="103.278" r="8.625" fx="33.581" fy="103.278" gradientTransform="matrix(1,0,0,0.86012052,0,14.446509)" gradientUnits="userSpaceOnUse" xlink:href="#linearGradient3876"/><radialGradient id="radialGradient8069" cx="33.581" cy="103.278" r="8.625" fx="33.581" fy="103.278" gradientTransform="matrix(1,0,0,0.86012052,0,14.446509)" gradientUnits="userSpaceOnUse" xlink:href="#linearGradient3876"/><radialGradient id="radialGradient8071" cx="33.581" cy="103.278" r="8.625" fx="33.581" fy="103.278" gradientTransform="matrix(1,0,0,0.86012052,0,14.446509)" gradientUnits="userSpaceOnUse" xlink:href="#linearGradient3876"/><radialGradient id="radialGradient8073" cx="33.581" cy="103.278" r="8.625" fx="33.581" fy="103.278" gradientTransform="matrix(1,0,0,0.86012052,0,14.446509)" gradientUnits="userSpaceOnUse" xlink:href="#linearGradient3876"/><filter id="filter8123" width="1.952" height="1.952" x="-.476" y="-.476"><feGaussianBlur id="feGaussianBlur8125" stdDeviation="1.983"/></filter><filter id="filter8159" width="1.272" height="1.211" x="-.136" y="-.106"><feGaussianBlur id="feGaussianBlur8161" stdDeviation="1.992"/></filter><filter id="filter8235"><feGaussianBlur id="feGaussianBlur8237" stdDeviation=".143"/></filter><filter id="filter8259"><feGaussianBlur id="feGaussianBlur8261" stdDeviation=".129"/></filter><filter id="filter8267"><feGaussianBlur id="feGaussianBlur8269" stdDeviation=".163"/></filter><filter id="filter8291"><feGaussianBlur id="feGaussianBlur8293" stdDeviation=".1"/></filter><filter id="filter8299"><feGaussianBlur id="feGaussianBlur8301" stdDeviation=".212"/></filter><filter id="filter8335"><feGaussianBlur id="feGaussianBlur8337" stdDeviation=".202"/></filter><filter id="filter8339"><feGaussianBlur id="feGaussianBlur8341" stdDeviation=".202"/></filter><filter id="filter8343"><feGaussianBlur id="feGaussianBlur8345" stdDeviation=".13"/></filter><filter id="filter8347"><feGaussianBlur id="feGaussianBlur8349" stdDeviation=".202"/></filter><filter id="filter8351"><feGaussianBlur id="feGaussianBlur8353" stdDeviation=".202"/></filter><filter id="filter8355"><feGaussianBlur id="feGaussianBlur8357" stdDeviation=".13"/></filter><filter id="filter8359"><feGaussianBlur id="feGaussianBlur8361" stdDeviation=".202"/></filter><filter id="filter8363"><feGaussianBlur id="feGaussianBlur8365" stdDeviation=".13"/></filter><filter id="filter8371"><feGaussianBlur id="feGaussianBlur8373" stdDeviation=".169"/></filter><filter id="filter8399"><feGaussianBlur id="feGaussianBlur8401" stdDeviation=".106"/></filter><filter id="filter8403"><feGaussianBlur id="feGaussianBlur8405" stdDeviation=".106"/></filter><linearGradient id="linearGradient4106" x1="50.75" x2="52.5" y1="60.875" y2="77.5" gradientUnits="userSpaceOnUse" xlink:href="#linearGradient4100"/><linearGradient id="linearGradient4106-0" x1="50.75" x2="52.5" y1="60.875" y2="77.5" gradientUnits="userSpaceOnUse" xlink:href="#linearGradient4100-7"/><linearGradient id="linearGradient4100-7"><stop style="stop-color:#000;stop-opacity:1" id="stop4102-8" offset="0"/><stop style="stop-color:#000;stop-opacity:0" id="stop4104-6" offset="1"/></linearGradient><linearGradient id="linearGradient4123" x1="46.875" x2="65.5" y1="59" y2="65.375" gradientTransform="translate(6.1875002,844.04968)" gradientUnits="userSpaceOnUse" xlink:href="#linearGradient4100-7"/><linearGradient id="linearGradient4150" x1="103.75" x2="97.75" y1="165.963" y2="111.963" gradientUnits="userSpaceOnUse" xlink:href="#linearGradient4144"/></defs><metadata id="metadata7"/><g id="layer1" transform="translate(0,-852.36218)"><rect style="fill:url(#linearGradient6421);fill-opacity:1;fill-rule:nonzero;stroke:#000;stroke-width:.75;stroke-linecap:butt;stroke-linejoin:miter;stroke-miterlimit:4;stroke-opacity:1;stroke-dasharray:none;stroke-dashoffset:0" id="rect6411" width="39.528" height="47.491" x="57.728" y="930.222" ry="0"/><path style="fill:url(#radialGradient6350);fill-opacity:1;stroke:#000;stroke-width:.4705613px;stroke-linecap:butt;stroke-linejoin:miter;stroke-opacity:1" id="path6283" d="m 60.525708,951.61241 c 3.946189,8.54394 19.558839,14.29111 23.830804,12.31802 4.271967,-1.9731 10.019143,-17.58574 6.072953,-26.12968 -4.932734,-10.67991 -17.748627,-4.76063 -14.951877,6.90583 -7.068716,-9.69336 -19.884614,-3.77408 -14.95188,6.90583 z" mask="none"/><path style="fill:none;stroke:#000;stroke-width:1px;stroke-linecap:butt;stroke-linejoin:miter;stroke-opacity:1;marker-end:url(#DotM)" id="path6423-5-2" d="m 96.176322,930.76796 c 0.44187,20.66156 -7.039604,5.37897 -7.513022,9.94521 -0.949662,9.1597 -5.757167,-1.21283 -5.757167,-1.21283"/><path style="fill:none;stroke:#000;stroke-width:1px;stroke-linecap:butt;stroke-linejoin:miter;stroke-opacity:1;marker-end:url(#DotM)" id="path6423" d="m 58.439412,117.53076 c 13.507894,-15.64072 5.293493,5.71608 11.801634,-5.26097 7.849003,-13.238644 11.232879,-6.11409 11.232879,-6.11409" transform="translate(0,852.36218)"/><path style="fill:none;stroke:#000;stroke-width:1px;stroke-linecap:butt;stroke-linejoin:miter;stroke-opacity:1;marker-end:url(#DotM)" id="path6423-5" d="m 63.969128,930.17058 c 18.276317,9.64736 -5.083208,4.4158 -1.321429,7.0471 7.545964,5.27828 7.344597,13.2684 7.344597,13.2684"/><rect style="fill:url(#linearGradient7875);fill-opacity:1;fill-rule:nonzero;stroke:#000;stroke-width:.75;stroke-linecap:butt;stroke-linejoin:miter;stroke-miterlimit:4;stroke-opacity:1;stroke-dasharray:none;stroke-dashoffset:0" id="rect7863" width="20.648" height="4.478" x="-361.276" y="883.102" transform="matrix(0.89046725,-0.45504733,0.45504733,0.89046725,0,0)"/><path style="fill:url(#linearGradient6408);fill-opacity:1;fill-rule:nonzero;stroke:#000;stroke-width:1;stroke-linecap:butt;stroke-linejoin:miter;stroke-miterlimit:4;stroke-opacity:1;stroke-dasharray:none;stroke-dashoffset:0;filter:url(#filter8371)" id="rect3007" d="M 64.0625 50 C 56.264436 50 50 56.264436 50 64.0625 L 50 160.9375 C 50 168.73556 56.264436 175 64.0625 175 L 135.9375 175 C 143.73556 175 150 168.73556 150 160.9375 L 150 64.0625 C 150 56.264436 143.73556 50 135.9375 50 L 64.0625 50 z M 60 80 L 95 80 L 95 105 L 60 125 L 60 80 z" transform="translate(0,852.36218)"/><path style="fill:url(#linearGradient4150);fill-opacity:1;stroke:none" id="path4142" d="M 50.347602,155.92517 84.500001,136 113.75,126.5 l 29,14 5,5.5 2.25,-12.25 -0.5,-26.25 -29.5,-6 -17,0 L 84.356512,111.56825 50.25,113.5 z" transform="translate(0,852.36218)"/><path style="fill:url(#linearGradient4123);fill-opacity:1;stroke:none" id="path4098-8" d="m 58.3125,920.04968 8.125,12.125 14.500001,-30.25 -20.875,0.75 z"/><path style="fill:url(#linearGradient4106);fill-opacity:1;stroke:none" id="path4098" d="m 50,67.999999 0.75,11.5 15.6875,0.312501 -8.125,-12.125 z" transform="translate(0,852.36218)"/><path style="fill:#ef004d;fill-opacity:.23660714999999999;fill-rule:nonzero;stroke:none;filter:url(#filter8123)" id="path4126-2-8" d="m 55,25 c 0,2.761424 -2.238576,5 -5,5 -2.761424,0 -5,-2.238576 -5,-5 0,-2.761424 2.238576,-5 5,-5 2.761424,0 5,2.238576 5,5 z" transform="matrix(1.5,0,0,1.5,60,882.36218)"/><path style="fill:url(#linearGradient8057);fill-opacity:1;fill-rule:nonzero;stroke:#000;stroke-width:1.82183957000000007;stroke-miterlimit:4;stroke-opacity:1;stroke-dasharray:10.93103699999999989,1.82183948999999989;stroke-dashoffset:0;filter:url(#filter8235)" id="rect2987-7-8" d="m 111.34446,965.46427 c 18.21839,0 45.54598,18.2185 45.54598,45.16103 0,27.7125 -9.1092,27.7124 -87.35669,27.7124 -31.062875,0 -31.062875,-9.109 -31.062875,-18.2182 0,-18.2184 54.655184,-54.65523 72.873585,-54.65523 z"/><path style="fill:url(#radialGradient4658);fill-opacity:1;fill-rule:nonzero;stroke:#2c2c2c;stroke-width:.76173656999999984;stroke-linecap:butt;stroke-linejoin:miter;stroke-miterlimit:4;stroke-opacity:1;stroke-dasharray:none;stroke-dashoffset:0;filter:url(#filter8343)" id="path3855" d="m 41.825615,103.27826 c 0,3.88696 -3.691176,7.03796 -8.244473,7.03796 -4.553296,0 -8.244472,-3.151 -8.244472,-7.03796 0,-3.886961 3.691176,-7.037965 8.244472,-7.037965 4.553297,0 8.244473,3.151004 8.244473,7.037965 z" transform="matrix(1.6573287,0,0,1.9414421,-2.8073888,821.44239)"/><path style="fill:url(#radialGradient8065);fill-opacity:1;fill-rule:nonzero;stroke:#2c2c2c;stroke-width:.76173656999999984;stroke-linecap:butt;stroke-linejoin:miter;stroke-miterlimit:4;stroke-opacity:1;stroke-dasharray:none;stroke-dashoffset:0;filter:url(#filter8363)" id="path3855-1" d="m 41.825615,103.27826 c 0,3.88696 -3.691176,7.03796 -8.244473,7.03796 -4.553296,0 -8.244472,-3.151 -8.244472,-7.03796 0,-3.886961 3.691176,-7.037965 8.244472,-7.037965 4.553297,0 8.244473,3.151004 8.244473,7.037965 z" transform="matrix(1.6573287,0,0,1.9414421,85.724462,818.63099)"/><path style="fill:url(#radialGradient8069);fill-opacity:1;fill-rule:nonzero;stroke:#2c2c2c;stroke-width:.76173656999999984;stroke-linecap:butt;stroke-linejoin:miter;stroke-miterlimit:4;stroke-opacity:1;stroke-dasharray:none;stroke-dashoffset:0;filter:url(#filter8355)" id="path3855-1-0" d="m 41.825615,103.27826 c 0,3.88696 -3.691176,7.03796 -8.244473,7.03796 -4.553296,0 -8.244472,-3.151 -8.244472,-7.03796 0,-3.886961 3.691176,-7.037965 8.244472,-7.037965 4.553297,0 8.244473,3.151004 8.244473,7.037965 z" transform="matrix(1.6573287,0,0,1.9414421,57.113802,779.79852)"/><path style="fill:url(#radialGradient8063);fill-opacity:1;fill-rule:nonzero;stroke:#2c2c2c;stroke-width:.76173656999999984;stroke-linecap:butt;stroke-linejoin:miter;stroke-miterlimit:4;stroke-opacity:1;stroke-dasharray:none;stroke-dashoffset:0;filter:url(#filter8335)" id="path3855-1-0-0" d="m 41.825615,103.27826 c 0,3.88696 -3.691176,7.03796 -8.244473,7.03796 -4.553296,0 -8.244472,-3.151 -8.244472,-7.03796 0,-3.886961 3.691176,-7.037965 8.244472,-7.037965 4.553297,0 8.244473,3.151004 8.244473,7.037965 z" transform="matrix(1.0648606,0,0,1.2474081,77.375902,899.46825)"/><path style="fill:url(#radialGradient8073);fill-opacity:1;fill-rule:nonzero;stroke:#2c2c2c;stroke-width:.76173656999999984;stroke-linecap:butt;stroke-linejoin:miter;stroke-miterlimit:4;stroke-opacity:1;stroke-dasharray:none;stroke-dashoffset:0;filter:url(#filter8347)" id="path3855-1-0-0-5" d="m 41.825615,103.27826 c 0,3.88696 -3.691176,7.03796 -8.244473,7.03796 -4.553296,0 -8.244472,-3.151 -8.244472,-7.03796 0,-3.886961 3.691176,-7.037965 8.244472,-7.037965 4.553297,0 8.244473,3.151004 8.244473,7.037965 z" transform="matrix(1.0648606,0,0,1.2474081,31.216552,870.52705)"/><path style="fill:url(#radialGradient8071);fill-opacity:1;fill-rule:nonzero;stroke:#2c2c2c;stroke-width:.76173656999999984;stroke-linecap:butt;stroke-linejoin:miter;stroke-miterlimit:4;stroke-opacity:1;stroke-dasharray:none;stroke-dashoffset:0;filter:url(#filter8351)" id="path3855-1-0-0-5-8" d="m 41.825615,103.27826 c 0,3.88696 -3.691176,7.03796 -8.244473,7.03796 -4.553296,0 -8.244472,-3.151 -8.244472,-7.03796 0,-3.886961 3.691176,-7.037965 8.244472,-7.037965 4.553297,0 8.244473,3.151004 8.244473,7.037965 z" transform="matrix(1.0648606,0,0,1.2474081,49.900101,857.70502)"/><path style="fill:url(#radialGradient8067);fill-opacity:1;fill-rule:nonzero;stroke:#2c2c2c;stroke-width:.76173656999999984;stroke-linecap:butt;stroke-linejoin:miter;stroke-miterlimit:4;stroke-opacity:1;stroke-dasharray:none;stroke-dashoffset:0;filter:url(#filter8359)" id="path3855-1-0-0-5-8-7" d="m 41.825615,103.27826 c 0,3.88696 -3.691176,7.03796 -8.244473,7.03796 -4.553296,0 -8.244472,-3.151 -8.244472,-7.03796 0,-3.886961 3.691176,-7.037965 8.244472,-7.037965 4.553297,0 8.244473,3.151004 8.244473,7.037965 z" transform="matrix(1.0648606,0,0,1.2474081,104.11902,862.46747)"/><path style="fill:url(#radialGradient8061);fill-opacity:1;fill-rule:nonzero;stroke:#2c2c2c;stroke-width:.76173656999999984;stroke-linecap:butt;stroke-linejoin:miter;stroke-miterlimit:4;stroke-opacity:1;stroke-dasharray:none;stroke-dashoffset:0;filter:url(#filter8339)" id="path3855-1-0-0-5-8-7-0" d="m 41.825615,103.27826 c 0,3.88696 -3.691176,7.03796 -8.244473,7.03796 -4.553296,0 -8.244472,-3.151 -8.244472,-7.03796 0,-3.886961 3.691176,-7.037965 8.244472,-7.037965 4.553297,0 8.244473,3.151004 8.244473,7.037965 z" transform="matrix(1.0648606,0,0,1.2474081,43.305908,899.46823)"/><path style="fill:#ef000e;fill-opacity:.23660715;fill-rule:nonzero;stroke:none;stroke-width:.75;stroke-linecap:butt;stroke-linejoin:miter;stroke-miterlimit:4;stroke-opacity:1;stroke-dasharray:none;stroke-dashoffset:0;filter:url(#filter8032)" id="path4126-2" d="m 55,25 c 0,2.761424 -2.238576,5 -5,5 -2.761424,0 -5,-2.238576 -5,-5 0,-2.761424 2.238576,-5 5,-5 2.761424,0 5,2.238576 5,5 z" transform="matrix(3,0,0,3,-95,802.86218)"/><path style="fill:none;stroke:#000;stroke-width:1px;stroke-linecap:butt;stroke-linejoin:miter;stroke-opacity:1;filter:url(#filter8299)" id="path4124" d="M 100,50 75,10 55,25 l 0,0" transform="translate(0,852.36218)"/><path style="fill:url(#radialGradient4136);fill-opacity:1;fill-rule:nonzero;stroke:#000;stroke-width:.75;stroke-linecap:butt;stroke-linejoin:miter;stroke-miterlimit:4;stroke-opacity:1;stroke-dasharray:none;stroke-dashoffset:0;filter:url(#filter8291)" id="path4126" d="m 55,25 c 0,2.761424 -2.238576,5 -5,5 -2.761424,0 -5,-2.238576 -5,-5 0,-2.761424 2.238576,-5 5,-5 2.761424,0 5,2.238576 5,5 z" transform="matrix(1.5,0,0,1.5,-20,840.36218)"/><path style="fill:url(#linearGradient4302);fill-opacity:1;stroke:#000;stroke-width:1px;stroke-linecap:butt;stroke-linejoin:miter;stroke-opacity:1;filter:url(#filter8267)" id="path4294" d="M 45,40 65,55 60,70 30,65 z" transform="translate(0,852.36218)"/><path style="fill:url(#radialGradient4692);fill-opacity:1;fill-rule:nonzero;stroke:#000;stroke-width:.75;stroke-linecap:butt;stroke-linejoin:miter;stroke-miterlimit:4;stroke-opacity:1;stroke-dasharray:none;stroke-dashoffset:0;filter:url(#filter8044)" id="path4676" d="m 135.12892,58.838543 c 0,7.107585 -5.76184,12.869421 -12.86942,12.869421 -7.10759,0 -12.86942,-5.761836 -12.86942,-12.869421 0,-7.107585 5.76183,-12.869421 12.86942,-12.869421 7.10758,0 12.86942,5.761836 12.86942,12.869421 z" transform="matrix(0.53247781,0,0,0.54469607,70.386776,887.59716)"/><rect style="fill:url(#linearGradient6219);fill-opacity:1;fill-rule:nonzero;stroke:#000;stroke-width:.81043964999999984;stroke-linecap:butt;stroke-linejoin:miter;stroke-miterlimit:4;stroke-opacity:1;stroke-dasharray:none;stroke-dashoffset:0;filter:url(#filter8259)" id="rect4710" width="40" height="11.501" x="110" y="937.362" ry="0"/><rect style="fill:#000;fill-opacity:1;fill-rule:nonzero;stroke:#000;stroke-width:.62298614;stroke-linecap:butt;stroke-linejoin:miter;stroke-miterlimit:4;stroke-opacity:1;stroke-dasharray:none;stroke-dashoffset:0" id="rect6221" width="5" height="10.981" x="140" y="937.362"/><rect style="fill:#000;fill-opacity:1;fill-rule:nonzero;stroke:#000;stroke-width:.62298614;stroke-linecap:butt;stroke-linejoin:miter;stroke-miterlimit:4;stroke-opacity:1;stroke-dasharray:none;stroke-dashoffset:0" id="rect6221-6" width="5" height="10.981" x="130" y="937.362"/><rect style="fill:#000;fill-opacity:1;fill-rule:nonzero;stroke:#000;stroke-width:.62298614;stroke-linecap:butt;stroke-linejoin:miter;stroke-miterlimit:4;stroke-opacity:1;stroke-dasharray:none;stroke-dashoffset:0" id="rect6221-8" width="5" height="10.981" x="120" y="937.362"/><rect style="fill:#000;fill-opacity:1;fill-rule:nonzero;stroke:#000;stroke-width:.62298614;stroke-linecap:butt;stroke-linejoin:miter;stroke-miterlimit:4;stroke-opacity:1;stroke-dasharray:none;stroke-dashoffset:0" id="rect6221-89" width="5" height="10.981" x="110" y="937.362"/><path style="fill:url(#radialGradient7887);fill-opacity:1;fill-rule:nonzero;stroke:#000;stroke-width:.75;stroke-linecap:butt;stroke-linejoin:miter;stroke-miterlimit:4;stroke-opacity:1;stroke-dasharray:none;stroke-dashoffset:0;filter:url(#filter8403)" id="path7879" d="M 60,67.5 C 60,68.880712 58.880712,70 57.5,70 56.119288,70 55,68.880712 55,67.5 55,66.119288 56.119288,65 57.5,65 c 1.380712,0 2.5,1.119288 2.5,2.5 z" transform="translate(-0.89132243,849.94916)"/><path style="fill:url(#radialGradient7915);fill-opacity:1;fill-rule:nonzero;stroke:#000;stroke-width:.75;stroke-linecap:butt;stroke-linejoin:miter;stroke-miterlimit:4;stroke-opacity:1;stroke-dasharray:none;stroke-dashoffset:0;filter:url(#filter8399)" id="path7879-2" d="M 60,67.5 C 60,68.880712 58.880712,70 57.5,70 56.119288,70 55,68.880712 55,67.5 55,66.119288 56.119288,65 57.5,65 c 1.380712,0 2.5,1.119288 2.5,2.5 z" transform="translate(2.1216126,841.68988)"/><path style="fill:url(#linearGradient7976);stroke:#000;stroke-width:1px;stroke-linecap:butt;stroke-linejoin:miter;stroke-opacity:1;fill-opacity:1;filter:url(#filter8159)" id="path7968" d="m 60.023782,79.751351 -0.100542,45.244059 35.089279,-20.00793 0,-25.135586 z" transform="translate(0,852.36218)"/></g></svg>