<svg xmlns="http://www.w3.org/2000/svg" xmlns:svg="http://www.w3.org/2000/svg" xmlns:xlink="http://www.w3.org/1999/xlink" id="svg2" width="200" height="200" version="1.1"><defs id="defs4"><linearGradient id="linearGradient5363"><stop style="stop-color:#000;stop-opacity:1" id="stop5365" offset="0"/><stop style="stop-color:#000;stop-opacity:0" id="stop5367" offset="1"/></linearGradient><linearGradient id="linearGradient5319"><stop style="stop-color:#000;stop-opacity:1" id="stop5321" offset="0"/><stop style="stop-color:#000;stop-opacity:0" id="stop5323" offset="1"/></linearGradient><linearGradient id="linearGradient5145"><stop style="stop-color:#fff;stop-opacity:1" id="stop5147" offset="0"/><stop style="stop-color:#fff;stop-opacity:0" id="stop5150" offset="1"/></linearGradient><linearGradient id="linearGradient5117"><stop id="stop5119" offset="0" style="stop-color:#376076;stop-opacity:1"/><stop id="stop5121" offset="1" style="stop-color:#6f818b;stop-opacity:1"/></linearGradient><linearGradient id="linearGradient5043"><stop style="stop-color:#0900dd;stop-opacity:.53191489" id="stop5045" offset="0"/><stop style="stop-color:#0d2cff;stop-opacity:.25531915" id="stop5047" offset="1"/></linearGradient><linearGradient id="linearGradient4301"><stop id="stop4303" offset="0" style="stop-color:#28333a;stop-opacity:1"/><stop id="stop4305" offset="1" style="stop-color:#475258;stop-opacity:1"/></linearGradient><linearGradient id="linearGradient4245"><stop style="stop-color:#475b66;stop-opacity:1" id="stop4247" offset="0"/><stop style="stop-color:#6f818b;stop-opacity:1" id="stop4249" offset="1"/></linearGradient><linearGradient id="linearGradient4237"><stop style="stop-color:#14298e;stop-opacity:1" id="stop4239" offset="0"/><stop style="stop-color:#475b66;stop-opacity:1" id="stop4241" offset="1"/></linearGradient><linearGradient id="linearGradient5580"><stop style="stop-color:#2c3d5d;stop-opacity:1" id="stop5582" offset="0"/><stop style="stop-color:#000;stop-opacity:0" id="stop5584" offset="1"/></linearGradient><linearGradient id="linearGradient5484"><stop id="stop5486" offset="0" style="stop-color:#000;stop-opacity:1"/><stop id="stop5488" offset="1" style="stop-color:#000;stop-opacity:0"/></linearGradient><linearGradient id="linearGradient5147"><stop style="stop-color:#fff;stop-opacity:.50354612" id="stop5149" offset="0"/><stop style="stop-color:#fff;stop-opacity:0" id="stop5151" offset="1"/></linearGradient><linearGradient id="linearGradient5131"><stop id="stop5133" offset="0" style="stop-color:#373d64;stop-opacity:1"/><stop id="stop5135" offset="1" style="stop-color:#121316;stop-opacity:.9178744"/></linearGradient><linearGradient id="linearGradient5021"><stop style="stop-color:#041224;stop-opacity:.85106385" id="stop5023" offset="0"/><stop style="stop-color:#898989;stop-opacity:.81560284" id="stop5025" offset="1"/></linearGradient><linearGradient id="linearGradient4895"><stop style="stop-color:#fff;stop-opacity:.52482271" id="stop4897" offset="0"/><stop style="stop-color:#fff;stop-opacity:0" id="stop4899" offset="1"/></linearGradient><linearGradient id="linearGradient4821"><stop style="stop-color:#000f12;stop-opacity:.90070921" id="stop4823" offset="0"/><stop style="stop-color:#454174;stop-opacity:.65248227" id="stop4825" offset="1"/></linearGradient><linearGradient id="linearGradient4787"><stop style="stop-color:#005f65;stop-opacity:1" id="stop4789" offset="0"/><stop style="stop-color:#4dd2f1;stop-opacity:1" id="stop4791" offset="1"/></linearGradient><linearGradient id="linearGradient4730"><stop id="stop4732" offset="0" style="stop-color:#2c2959;stop-opacity:1"/><stop id="stop4734" offset="1" style="stop-color:#12172c;stop-opacity:1"/></linearGradient><linearGradient id="linearGradient4722"><stop style="stop-color:#191941;stop-opacity:1" id="stop4724" offset="0"/><stop style="stop-color:#000;stop-opacity:0" id="stop4726" offset="1"/></linearGradient><linearGradient id="linearGradient4712"><stop style="stop-color:#34316a;stop-opacity:1" id="stop4714" offset="0"/><stop style="stop-color:#4d5472;stop-opacity:1" id="stop4716" offset="1"/></linearGradient><linearGradient id="linearGradient4536"><stop style="stop-color:#0071b1;stop-opacity:.63829786" id="stop4538" offset="0"/><stop style="stop-color:#003c53;stop-opacity:.65957445" id="stop4540" offset="1"/></linearGradient><linearGradient id="linearGradient4524"><stop style="stop-color:#373d64;stop-opacity:1" id="stop4526" offset="0"/><stop style="stop-color:#121316;stop-opacity:1" id="stop4528" offset="1"/></linearGradient><linearGradient id="linearGradient4542" x1="107.076" x2="191.929" y1="68.428" y2="68.428" gradientTransform="translate(-0.50507627,851.35203)" gradientUnits="userSpaceOnUse" xlink:href="#linearGradient4536"/><linearGradient id="linearGradient4542-7" x1="107.076" x2="191.929" y1="68.428" y2="68.428" gradientTransform="translate(-0.50507627,851.35203)" gradientUnits="userSpaceOnUse" xlink:href="#linearGradient4536-8"/><linearGradient id="linearGradient4536-8"><stop style="stop-color:#0071b1;stop-opacity:.63829786" id="stop4538-2" offset="0"/><stop style="stop-color:#003c53;stop-opacity:.65957445" id="stop4540-5" offset="1"/></linearGradient><linearGradient id="linearGradient4532-1" x1="7.071" x2="197.485" y1="102.268" y2="102.268" gradientTransform="matrix(-0.00647633,0.83593082,-0.83593082,-0.00647633,188.41699,869.25884)" gradientUnits="userSpaceOnUse" xlink:href="#linearGradient4524-9"/><linearGradient id="linearGradient4524-9"><stop style="stop-color:#373d64;stop-opacity:1" id="stop4526-0" offset="0"/><stop style="stop-color:#121316;stop-opacity:1" id="stop4528-5" offset="1"/></linearGradient><linearGradient id="linearGradient4577-1" x1="107.076" x2="191.929" y1="68.428" y2="68.428" gradientTransform="translate(-90.913724,904.1325)" gradientUnits="userSpaceOnUse" xlink:href="#linearGradient4536-8-0"/><linearGradient id="linearGradient4536-8-0"><stop style="stop-color:#e6f6ff;stop-opacity:.63829786" id="stop4538-2-3" offset="0"/><stop style="stop-color:#96e2ff;stop-opacity:.65957445" id="stop4540-5-7" offset="1"/></linearGradient><linearGradient id="linearGradient4718" x1="34.855" x2="83.676" y1="76.004" y2="100.753" gradientTransform="translate(-11.616754,799.32917)" gradientUnits="userSpaceOnUse" xlink:href="#linearGradient4712"/><linearGradient id="linearGradient4728" x1="33.34" x2="81.817" y1="96.459" y2="109.591" gradientTransform="translate(-11.616754,799.32917)" gradientUnits="userSpaceOnUse" xlink:href="#linearGradient4730"/><linearGradient id="linearGradient4728-4" x1="33.34" x2="81.817" y1="96.459" y2="109.591" gradientTransform="translate(-11.616754,799.32917)" gradientUnits="userSpaceOnUse" xlink:href="#linearGradient4730-9"/><linearGradient id="linearGradient4730-9"><stop id="stop4732-8" offset="0" style="stop-color:#2c2959;stop-opacity:1"/><stop id="stop4734-1" offset="1" style="stop-color:#12172c;stop-opacity:1"/></linearGradient><linearGradient id="linearGradient4712-3"><stop style="stop-color:#34316a;stop-opacity:1" id="stop4714-9" offset="0"/><stop style="stop-color:#4d5472;stop-opacity:1" id="stop4716-3" offset="1"/></linearGradient><linearGradient id="linearGradient4793" x1="108.091" x2="54.038" y1="131.057" y2="77.519" gradientTransform="translate(-19.192898,855.89771)" gradientUnits="userSpaceOnUse" xlink:href="#linearGradient4787"/><linearGradient id="linearGradient4793-9" x1="108.091" x2="54.038" y1="131.057" y2="77.519" gradientTransform="translate(-19.192898,855.89771)" gradientUnits="userSpaceOnUse" xlink:href="#linearGradient4787-7"/><linearGradient id="linearGradient4787-7"><stop style="stop-color:#005f65;stop-opacity:1" id="stop4789-3" offset="0"/><stop style="stop-color:#4dd2f1;stop-opacity:1" id="stop4791-8" offset="1"/></linearGradient><linearGradient id="linearGradient4901" x1="17.678" x2="50.508" y1="113.885" y2="113.885" gradientTransform="matrix(0.98794232,0,0,1,11.71724,848.32157)" gradientUnits="userSpaceOnUse" xlink:href="#linearGradient4895"/><linearGradient id="linearGradient4901-0" x1="17.678" x2="50.508" y1="113.885" y2="113.885" gradientTransform="translate(11.616754,848.32157)" gradientUnits="userSpaceOnUse" xlink:href="#linearGradient4895-5"/><linearGradient id="linearGradient4895-5"><stop style="stop-color:#fff;stop-opacity:.52482271" id="stop4897-9" offset="0"/><stop style="stop-color:#fff;stop-opacity:0" id="stop4899-2" offset="1"/></linearGradient><linearGradient id="linearGradient4918" x1="17.678" x2="50.508" y1="113.885" y2="113.885" gradientTransform="matrix(0.98794232,0,0,1,23.942403,832.41166)" gradientUnits="userSpaceOnUse" xlink:href="#linearGradient4895-5"/><linearGradient id="linearGradient4918-8" x1="17.678" x2="50.508" y1="113.885" y2="113.885" gradientTransform="translate(23.991123,832.41166)" gradientUnits="userSpaceOnUse" xlink:href="#linearGradient4895-5-5"/><linearGradient id="linearGradient4895-5-5"><stop style="stop-color:#fff;stop-opacity:.52482271" id="stop4897-9-2" offset="0"/><stop style="stop-color:#fff;stop-opacity:0" id="stop4899-2-8" offset="1"/></linearGradient><linearGradient id="linearGradient4952" x1="17.678" x2="50.508" y1="113.885" y2="113.885" gradientTransform="matrix(0.87567908,0.46298408,-0.45740157,0.8863666,93.832314,813.40596)" gradientUnits="userSpaceOnUse" xlink:href="#linearGradient4895-5-5"/><linearGradient id="linearGradient4918-4" x1="17.678" x2="50.508" y1="113.885" y2="113.885" gradientTransform="translate(23.991123,832.41166)" gradientUnits="userSpaceOnUse" xlink:href="#linearGradient4895-5-3"/><linearGradient id="linearGradient4895-5-3"><stop style="stop-color:#fff;stop-opacity:.52482271" id="stop4897-9-3" offset="0"/><stop style="stop-color:#fff;stop-opacity:0" id="stop4899-2-4" offset="1"/></linearGradient><linearGradient id="linearGradient5044" x1="17.678" x2="50.508" y1="113.885" y2="113.885" gradientTransform="matrix(0.98794232,0,0,1,28.433278,829.88629)" gradientUnits="userSpaceOnUse" xlink:href="#linearGradient4895-5-3"/><linearGradient id="linearGradient4901-4" x1="17.678" x2="50.508" y1="113.885" y2="113.885" gradientTransform="translate(11.616754,848.32157)" gradientUnits="userSpaceOnUse" xlink:href="#linearGradient4895-53"/><linearGradient id="linearGradient4895-53"><stop style="stop-color:#fff;stop-opacity:.52482271" id="stop4897-8" offset="0"/><stop style="stop-color:#fff;stop-opacity:0" id="stop4899-1" offset="1"/></linearGradient><linearGradient id="linearGradient5078" x1="17.678" x2="50.508" y1="113.885" y2="113.885" gradientTransform="matrix(0.98794232,0,0,1,16.457609,846.5538)" gradientUnits="userSpaceOnUse" xlink:href="#linearGradient4895-53"/><linearGradient id="linearGradient4952-3" x1="17.678" x2="50.508" y1="113.885" y2="113.885" gradientTransform="matrix(0.8863666,0.46298408,-0.46298408,0.8863666,94.73403,813.40596)" gradientUnits="userSpaceOnUse" xlink:href="#linearGradient4895-5-5-1"/><linearGradient id="linearGradient4895-5-5-1"><stop style="stop-color:#fff;stop-opacity:.52482271" id="stop4897-9-2-5" offset="0"/><stop style="stop-color:#fff;stop-opacity:0" id="stop4899-2-8-8" offset="1"/></linearGradient><linearGradient id="linearGradient5112" x1="17.678" x2="50.508" y1="113.885" y2="113.885" gradientTransform="matrix(0.87567908,0.46298408,-0.45740157,0.8863666,97.388275,818.3936)" gradientUnits="userSpaceOnUse" xlink:href="#linearGradient4895-5-5-1"/><linearGradient id="linearGradient5153" x1="89.404" x2="93.434" y1="120.703" y2="138.886" gradientTransform="matrix(0.98794232,0,0,1,0.2405568,852.36218)" gradientUnits="userSpaceOnUse" xlink:href="#linearGradient5147"/><linearGradient id="linearGradient5153-5" x1="89.404" x2="93.434" y1="120.703" y2="138.886" gradientUnits="userSpaceOnUse" xlink:href="#linearGradient5147-0"/><linearGradient id="linearGradient5147-0"><stop style="stop-color:#fff;stop-opacity:.50354612" id="stop5149-1" offset="0"/><stop style="stop-color:#fff;stop-opacity:0" id="stop5151-5" offset="1"/></linearGradient><linearGradient id="linearGradient5170-7" x1="89.404" x2="93.434" y1="120.703" y2="138.886" gradientTransform="translate(5.0507609,754.37739)" gradientUnits="userSpaceOnUse" xlink:href="#linearGradient5147-0-0"/><linearGradient id="linearGradient5147-0-0"><stop style="stop-color:#fff;stop-opacity:.50354612" id="stop5149-1-6" offset="0"/><stop style="stop-color:#fff;stop-opacity:0" id="stop5151-5-2" offset="1"/></linearGradient><linearGradient id="linearGradient5204" x1="96.98" x2="101.01" y1="120.703" y2="132.825" gradientTransform="matrix(0.98794232,0,0,1,-52.651984,754.62992)" gradientUnits="userSpaceOnUse" xlink:href="#linearGradient5147-0-0"/><linearGradient id="linearGradient5204-7" x1="96.98" x2="101.01" y1="120.703" y2="132.825" gradientTransform="translate(-53.538086,754.62992)" gradientUnits="userSpaceOnUse" xlink:href="#linearGradient5147-0-0-9"/><linearGradient id="linearGradient5147-0-0-9"><stop style="stop-color:#000;stop-opacity:1" id="stop5149-1-6-8" offset="0"/><stop style="stop-color:#000;stop-opacity:0" id="stop5151-5-2-8" offset="1"/></linearGradient><linearGradient id="linearGradient5044-9" x1="17.678" x2="50.508" y1="113.885" y2="113.885" gradientTransform="translate(28.536809,829.88629)" gradientUnits="userSpaceOnUse" xlink:href="#linearGradient4895-5-3-0"/><linearGradient id="linearGradient4895-5-3-0"><stop style="stop-color:#fff;stop-opacity:.52482271" id="stop4897-9-3-0" offset="0"/><stop style="stop-color:#fff;stop-opacity:0" id="stop4899-2-4-0" offset="1"/></linearGradient><linearGradient id="linearGradient5272-5" x1="17.678" x2="50.508" y1="113.885" y2="113.885" gradientTransform="matrix(0.81575221,0.57840153,-0.57840153,0.81575221,95.458959,825.22437)" gradientUnits="userSpaceOnUse" xlink:href="#linearGradient4895-5-3-0-7"/><linearGradient id="linearGradient4895-5-3-0-7"><stop style="stop-color:#fff;stop-opacity:.52482271" id="stop4897-9-3-0-6" offset="0"/><stop style="stop-color:#fff;stop-opacity:0" id="stop4899-2-4-0-9" offset="1"/></linearGradient><linearGradient id="linearGradient5306" x1="17.678" x2="50.508" y1="113.885" y2="113.885" gradientTransform="matrix(1.5481557,-0.03146296,0.07646533,0.63701493,-2.8809243,859.98338)" gradientUnits="userSpaceOnUse" xlink:href="#linearGradient4787-7"/><linearGradient id="linearGradient5272-7" x1="17.678" x2="50.508" y1="113.885" y2="113.885" gradientTransform="matrix(0.81575221,0.57840153,-0.57840153,0.81575221,90.913273,824.71929)" gradientUnits="userSpaceOnUse" xlink:href="#linearGradient4895-5-3-0-6"/><linearGradient id="linearGradient4895-5-3-0-6"><stop style="stop-color:#fff;stop-opacity:.52482271" id="stop4897-9-3-0-68" offset="0"/><stop style="stop-color:#fff;stop-opacity:0" id="stop4899-2-4-0-7" offset="1"/></linearGradient><linearGradient id="linearGradient5340" x1="28.375" x2="49.197" y1="110.634" y2="102.431" gradientTransform="matrix(0.80591613,0.57840153,-0.57142735,0.81575221,96.862591,819.52723)" gradientUnits="userSpaceOnUse" xlink:href="#linearGradient4895-5-3-0-6"/><linearGradient id="linearGradient5272-6" x1="17.678" x2="50.508" y1="113.885" y2="113.885" gradientTransform="matrix(0.81575221,0.57840153,-0.57840153,0.81575221,90.913273,824.71929)" gradientUnits="userSpaceOnUse" xlink:href="#linearGradient4895-5-3-0-5"/><linearGradient id="linearGradient4895-5-3-0-5"><stop style="stop-color:#fff;stop-opacity:.52482271" id="stop4897-9-3-0-3" offset="0"/><stop style="stop-color:#fff;stop-opacity:0" id="stop4899-2-4-0-76" offset="1"/></linearGradient><linearGradient id="linearGradient4827-7" x1="61.635" x2="101.505" y1="145.452" y2="74.236" gradientUnits="userSpaceOnUse" xlink:href="#linearGradient4821-2"/><linearGradient id="linearGradient4821-2"><stop style="stop-color:#000f12;stop-opacity:.90070921" id="stop4823-6" offset="0"/><stop style="stop-color:#454174;stop-opacity:.65248227" id="stop4825-4" offset="1"/></linearGradient><linearGradient id="linearGradient5153-4" x1="89.404" x2="93.434" y1="120.703" y2="138.886" gradientUnits="userSpaceOnUse" xlink:href="#linearGradient5147-01"/><linearGradient id="linearGradient5147-01"><stop style="stop-color:#fff;stop-opacity:.50354612" id="stop5149-2" offset="0"/><stop style="stop-color:#fff;stop-opacity:0" id="stop5151-8" offset="1"/></linearGradient><linearGradient id="linearGradient5431-1" x1="89.404" x2="93.434" y1="120.703" y2="138.886" gradientTransform="translate(73.236056,800.33933)" gradientUnits="userSpaceOnUse" xlink:href="#linearGradient5147-01-5"/><linearGradient id="linearGradient5147-01-5"><stop style="stop-color:#fff;stop-opacity:.50354612" id="stop5149-2-2" offset="0"/><stop style="stop-color:#fff;stop-opacity:0" id="stop5151-8-0" offset="1"/></linearGradient><linearGradient id="linearGradient5465-0" x1="89.404" x2="94.323" y1="120.703" y2="171.016" gradientTransform="matrix(-0.99348128,0.11399539,-0.11399539,-0.99348128,283.96931,1130.6936)" gradientUnits="userSpaceOnUse" xlink:href="#linearGradient5484-1"/><linearGradient id="linearGradient5484-1"><stop id="stop5486-6" offset="0" style="stop-color:#000;stop-opacity:1"/><stop id="stop5488-0" offset="1" style="stop-color:#000;stop-opacity:0"/></linearGradient><linearGradient id="linearGradient5170-4" x1="89.404" x2="93.434" y1="120.703" y2="138.886" gradientTransform="matrix(0.98794232,0,0,1,5.2304172,754.37739)" gradientUnits="userSpaceOnUse" xlink:href="#linearGradient5147-0-6"/><linearGradient id="linearGradient5147-0-6"><stop style="stop-color:#fff;stop-opacity:.50354612" id="stop5149-1-0" offset="0"/><stop style="stop-color:#fff;stop-opacity:0" id="stop5151-5-5" offset="1"/></linearGradient><linearGradient id="linearGradient5465-5" x1="89.404" x2="94.323" y1="120.703" y2="171.016" gradientTransform="matrix(-0.9815022,0.11399539,-0.11262087,-0.99348128,280.78586,1130.6936)" gradientUnits="userSpaceOnUse" xlink:href="#linearGradient5484-0"/><linearGradient id="linearGradient5484-0"><stop id="stop5486-4" offset="0" style="stop-color:#000;stop-opacity:1"/><stop id="stop5488-9" offset="1" style="stop-color:#000;stop-opacity:0"/></linearGradient><linearGradient id="linearGradient4279-9" x1="-123.486" x2="-134.608" y1="360.235" y2="353.164" gradientUnits="userSpaceOnUse" xlink:href="#linearGradient4245-6"/><linearGradient id="linearGradient4245-6"><stop style="stop-color:#475b66;stop-opacity:1" id="stop4247-5" offset="0"/><stop style="stop-color:#6f818b;stop-opacity:1" id="stop4249-6" offset="1"/></linearGradient><linearGradient id="linearGradient4299-2" x1="-108.586" x2="-79.807" y1="356.069" y2="356.069" gradientUnits="userSpaceOnUse" xlink:href="#linearGradient4301-0"/><linearGradient id="linearGradient4301-0"><stop id="stop4303-7" offset="0" style="stop-color:#28333a;stop-opacity:1"/><stop id="stop4305-4" offset="1" style="stop-color:#475258;stop-opacity:1"/></linearGradient><linearGradient id="linearGradient4374-8" x1="-108.586" x2="-79.807" y1="356.069" y2="356.069" gradientTransform="translate(204.25678,609.29952)" gradientUnits="userSpaceOnUse" xlink:href="#linearGradient4301-0-6"/><linearGradient id="linearGradient4301-0-6"><stop id="stop4303-7-9" offset="0" style="stop-color:#28333a;stop-opacity:1"/><stop id="stop4305-4-3" offset="1" style="stop-color:#475258;stop-opacity:1"/></linearGradient><linearGradient id="linearGradient4340-3" x1="-132.704" x2="-127.789" y1="365.286" y2="349.503" gradientTransform="translate(219.51411,596.55455)" gradientUnits="userSpaceOnUse" xlink:href="#linearGradient4245-6-7"/><linearGradient id="linearGradient4245-6-7"><stop style="stop-color:#475b66;stop-opacity:1" id="stop4247-5-4" offset="0"/><stop style="stop-color:#6f818b;stop-opacity:1" id="stop4249-6-3" offset="1"/></linearGradient><linearGradient id="linearGradient4323-7" x1="-124.875" x2="-96.601" y1="397.548" y2="397.422" gradientTransform="translate(227.59533,578.24554)" gradientUnits="userSpaceOnUse" xlink:href="#linearGradient4245-1"/><linearGradient id="linearGradient4245-1"><stop style="stop-color:#475b66;stop-opacity:1" id="stop4247-3" offset="0"/><stop style="stop-color:#6f818b;stop-opacity:1" id="stop4249-9" offset="1"/></linearGradient><linearGradient id="linearGradient4299-6" x1="-108.586" x2="-79.807" y1="356.069" y2="356.069" gradientTransform="translate(227.59533,578.24554)" gradientUnits="userSpaceOnUse" xlink:href="#linearGradient4301-4"/><linearGradient id="linearGradient4301-4"><stop id="stop4303-2" offset="0" style="stop-color:#28333a;stop-opacity:1"/><stop id="stop4305-0" offset="1" style="stop-color:#475258;stop-opacity:1"/></linearGradient><linearGradient id="linearGradient4289-2" x1="-94.325" x2="-78.292" y1="358.639" y2="358.134" gradientTransform="translate(227.59533,578.24554)" gradientUnits="userSpaceOnUse" xlink:href="#linearGradient4245-1"/><linearGradient id="linearGradient4432"><stop style="stop-color:#475b66;stop-opacity:1" id="stop4434" offset="0"/><stop style="stop-color:#6f818b;stop-opacity:1" id="stop4436" offset="1"/></linearGradient><linearGradient id="linearGradient4279-95" x1="-123.486" x2="-134.608" y1="360.235" y2="353.164" gradientTransform="translate(227.59533,578.24554)" gradientUnits="userSpaceOnUse" xlink:href="#linearGradient4245-1"/><linearGradient id="linearGradient4439"><stop style="stop-color:#475b66;stop-opacity:1" id="stop4441" offset="0"/><stop style="stop-color:#6f818b;stop-opacity:1" id="stop4443" offset="1"/></linearGradient><linearGradient id="linearGradient4269-7" x1="-125.45" x2="-106.324" y1="350.222" y2="350.222" gradientTransform="translate(227.59533,578.24554)" gradientUnits="userSpaceOnUse" xlink:href="#linearGradient4245-1"/><linearGradient id="linearGradient4446"><stop style="stop-color:#475b66;stop-opacity:1" id="stop4448" offset="0"/><stop style="stop-color:#6f818b;stop-opacity:1" id="stop4450" offset="1"/></linearGradient><linearGradient id="linearGradient4251-4" x1="-110.878" x2="-101.759" y1="375.267" y2="363.65" gradientTransform="translate(227.59533,578.24554)" gradientUnits="userSpaceOnUse" xlink:href="#linearGradient4245-1"/><linearGradient id="linearGradient4453"><stop style="stop-color:#475b66;stop-opacity:1" id="stop4455" offset="0"/><stop style="stop-color:#6f818b;stop-opacity:1" id="stop4457" offset="1"/></linearGradient><linearGradient id="linearGradient4313-6" x1="-127.148" x2="-92.647" y1="400.136" y2="343.442" gradientTransform="translate(0,852.36218)" gradientUnits="userSpaceOnUse" xlink:href="#linearGradient4301-4"/><linearGradient id="linearGradient4460"><stop id="stop4462" offset="0" style="stop-color:#28333a;stop-opacity:1"/><stop id="stop4464" offset="1" style="stop-color:#475258;stop-opacity:1"/></linearGradient><linearGradient id="linearGradient4475" x1="-127.148" x2="-92.647" y1="400.136" y2="343.442" gradientTransform="translate(227.59533,578.24554)" gradientUnits="userSpaceOnUse" xlink:href="#linearGradient4301-4"/><linearGradient id="linearGradient4700" x1="-108.586" x2="-79.807" y1="356.069" y2="356.069" gradientTransform="matrix(1.9915781,0,0,1.9915781,282.5771,271.99969)" gradientUnits="userSpaceOnUse" xlink:href="#linearGradient4301-0-6"/><linearGradient id="linearGradient4702" x1="-132.704" x2="-127.789" y1="365.286" y2="349.503" gradientTransform="matrix(1.9915781,0,0,1.9915781,312.96326,246.61709)" gradientUnits="userSpaceOnUse" xlink:href="#linearGradient4245-6-7"/><linearGradient id="linearGradient4704" x1="-124.875" x2="-96.601" y1="397.548" y2="397.422" gradientTransform="matrix(1.9915781,0,0,1.9915781,329.05764,210.15326)" gradientUnits="userSpaceOnUse" xlink:href="#linearGradient4245-1"/><linearGradient id="linearGradient4706" x1="-108.586" x2="-79.807" y1="356.069" y2="356.069" gradientTransform="matrix(1.9915781,0,0,1.9915781,329.05764,210.15326)" gradientUnits="userSpaceOnUse" xlink:href="#linearGradient4301-4"/><linearGradient id="linearGradient4708" x1="-94.325" x2="-78.292" y1="358.639" y2="358.134" gradientTransform="matrix(1.9915781,0,0,1.9915781,329.05764,210.15326)" gradientUnits="userSpaceOnUse" xlink:href="#linearGradient4245-1"/><linearGradient id="linearGradient4710" x1="-123.486" x2="-134.608" y1="360.235" y2="353.164" gradientTransform="matrix(1.9915781,0,0,1.9915781,329.05764,210.15326)" gradientUnits="userSpaceOnUse" xlink:href="#linearGradient4245-1"/><linearGradient id="linearGradient4713" x1="-125.45" x2="-106.324" y1="350.222" y2="350.222" gradientTransform="matrix(1.9915781,0,0,1.9915781,329.05764,210.15326)" gradientUnits="userSpaceOnUse" xlink:href="#linearGradient4245-1"/><linearGradient id="linearGradient4715" x1="-110.878" x2="-101.759" y1="375.267" y2="363.65" gradientTransform="matrix(1.9915781,0,0,1.9915781,329.05764,210.15326)" gradientUnits="userSpaceOnUse" xlink:href="#linearGradient4245-1"/><linearGradient id="linearGradient4717" x1="-127.148" x2="-92.647" y1="400.136" y2="343.442" gradientTransform="matrix(2.0732558,-1.1969948,1.1969948,2.0732558,-105.31628,48.889219)" gradientUnits="userSpaceOnUse" xlink:href="#linearGradient4301-4"/><filter id="filter4729" width="1.257" height="1.277" x="-.129" y="-.139"><feGaussianBlur id="feGaussianBlur4731" stdDeviation="7.546"/></filter><filter id="filter4915" width="1.471" height="1.468" x="-.236" y="-.234"><feGaussianBlur id="feGaussianBlur4917" stdDeviation="3.543"/></filter><filter id="filter4999" width="1.39" height="1.621" x="-.195" y="-.31"><feGaussianBlur id="feGaussianBlur5001" stdDeviation="5.038"/></filter><filter id="filter5003" width="1.67" height="1.665" x="-.335" y="-.332"><feGaussianBlur id="feGaussianBlur5005" stdDeviation="5.038"/></filter><filter id="filter5007" width="1.458" height="1.609" x="-.229" y="-.304"><feGaussianBlur id="feGaussianBlur5009" stdDeviation="5.038"/></filter><filter id="filter5011" width="1.692" height="1.725" x="-.346" y="-.362"><feGaussianBlur id="feGaussianBlur5013" stdDeviation="5.038"/></filter><filter id="filter5015" width="1.445" height="1.54" x="-.222" y="-.27"><feGaussianBlur id="feGaussianBlur5017" stdDeviation="5.038"/></filter><filter id="filter5019" width="1.342" height="1.682" x="-.171" y="-.341"><feGaussianBlur id="feGaussianBlur5021" stdDeviation="5.038"/></filter><filter id="filter5023" width="1.404" height="1.462" x="-.202" y="-.231"><feGaussianBlur id="feGaussianBlur5025" stdDeviation="5.038"/></filter><filter id="filter5027" width="1.388" height="1.529" x="-.194" y="-.265"><feGaussianBlur id="feGaussianBlur5029" stdDeviation="5.038"/></filter><linearGradient id="linearGradient5039" x1="54.759" x2="78.806" y1="32.52" y2="48.234" gradientUnits="userSpaceOnUse" xlink:href="#linearGradient4453"/><linearGradient id="linearGradient5049" x1="48.212" x2="91.638" y1="86.732" y2="89.089" gradientUnits="userSpaceOnUse" xlink:href="#linearGradient5043"/><filter id="filter5063"><feGaussianBlur id="feGaussianBlur5065" stdDeviation=".659"/></filter><linearGradient id="linearGradient5049-7" x1="48.212" x2="91.638" y1="86.732" y2="89.089" gradientUnits="userSpaceOnUse" xlink:href="#linearGradient5043-6"/><linearGradient id="linearGradient5043-6"><stop style="stop-color:#0900dd;stop-opacity:.53191489" id="stop5045-5" offset="0"/><stop style="stop-color:#0d2cff;stop-opacity:.25531915" id="stop5047-1" offset="1"/></linearGradient><filter id="filter5063-1" color-interpolation-filters="sRGB"><feGaussianBlur id="feGaussianBlur5065-4" stdDeviation=".659"/></filter><linearGradient id="linearGradient5084" x1="48.212" x2="91.638" y1="86.732" y2="89.089" gradientTransform="translate(56.568543,878.94416)" gradientUnits="userSpaceOnUse" xlink:href="#linearGradient5043-6"/><linearGradient id="linearGradient5115" x1="35.903" x2="139.041" y1="106.636" y2="106.636" gradientTransform="matrix(1.0410116,-0.60102831,0.60102831,1.0410116,-61.883353,915.20909)" gradientUnits="userSpaceOnUse" xlink:href="#linearGradient5117"/><filter id="filter5139"><feGaussianBlur id="feGaussianBlur5141" stdDeviation=".189"/></filter><linearGradient id="linearGradient5152" x1="88.257" x2="94.543" y1="37.054" y2="48.315" gradientTransform="matrix(1.0410116,-0.60102834,0.60102834,1.0410116,-61.883355,915.20914)" gradientUnits="userSpaceOnUse" xlink:href="#linearGradient5145"/><linearGradient id="linearGradient5152-8" x1="88.257" x2="94.543" y1="37.054" y2="48.315" gradientUnits="userSpaceOnUse" xlink:href="#linearGradient5145-6"/><linearGradient id="linearGradient5145-6"><stop style="stop-color:#fff;stop-opacity:1" id="stop5147-1" offset="0"/><stop style="stop-color:#fff;stop-opacity:0" id="stop5150-6" offset="1"/></linearGradient><linearGradient id="linearGradient5169" x1="88.257" x2="94.543" y1="37.054" y2="48.315" gradientTransform="matrix(1.0410116,-0.60102834,0.60102834,1.0410116,-92.787465,930.93947)" gradientUnits="userSpaceOnUse" xlink:href="#linearGradient5145-6"/><linearGradient id="linearGradient5169-0" x1="88.257" x2="94.543" y1="37.054" y2="48.315" gradientTransform="translate(-28.808055,850.84047)" gradientUnits="userSpaceOnUse" xlink:href="#linearGradient5145-6-9"/><linearGradient id="linearGradient5145-6-9"><stop style="stop-color:#fff;stop-opacity:1" id="stop5147-1-4" offset="0"/><stop style="stop-color:#fff;stop-opacity:0" id="stop5150-6-9" offset="1"/></linearGradient><linearGradient id="linearGradient5203" x1="88.257" x2="100.043" y1="37.054" y2="48.315" gradientTransform="matrix(1.0410116,-0.60102834,0.60102834,1.0410116,-63.88581,982.88748)" gradientUnits="userSpaceOnUse" xlink:href="#linearGradient5145-6-9"/><linearGradient id="linearGradient5230" x1="137.517" x2="126.732" y1="112.528" y2="115.147" gradientUnits="userSpaceOnUse" xlink:href="#linearGradient5145-6-9"/><linearGradient id="linearGradient5230-1" x1="137.517" x2="126.732" y1="112.528" y2="115.147" gradientUnits="userSpaceOnUse" xlink:href="#linearGradient5145-6-9-4"/><linearGradient id="linearGradient5145-6-9-4"><stop style="stop-color:#fff;stop-opacity:1" id="stop5147-1-4-0" offset="0"/><stop style="stop-color:#fff;stop-opacity:0" id="stop5150-6-9-1" offset="1"/></linearGradient><linearGradient id="linearGradient5247" x1="137.517" x2="126.732" y1="112.528" y2="115.147" gradientTransform="translate(-0.26188975,848.95759)" gradientUnits="userSpaceOnUse" xlink:href="#linearGradient5145-6-9-4"/><filter id="filter5276" width="2.313" height="1.825" x="-.656" y="-.413"><feGaussianBlur id="feGaussianBlur5278" stdDeviation="3.151"/></filter><linearGradient id="linearGradient5280" x1="148.516" x2="126.732" y1="103.624" y2="115.147" gradientTransform="matrix(1.0410116,-0.60102834,0.60102834,1.0410116,-56.377239,915.30177)" gradientUnits="userSpaceOnUse" xlink:href="#linearGradient5145-6-9"/><linearGradient id="linearGradient5284" x1="-127.148" x2="-92.647" y1="400.136" y2="343.442" gradientTransform="matrix(1.9915781,0,0,1.9915781,329.05764,210.15326)" gradientUnits="userSpaceOnUse" xlink:href="#linearGradient4301-4"/><linearGradient id="linearGradient5286" x1="-110.878" x2="-101.759" y1="375.267" y2="363.65" gradientTransform="matrix(2.0732558,-1.1969948,1.1969948,2.0732558,-105.31628,48.889219)" gradientUnits="userSpaceOnUse" xlink:href="#linearGradient4245-1"/><linearGradient id="linearGradient5288" x1="-125.45" x2="-106.324" y1="350.222" y2="350.222" gradientTransform="matrix(2.0732558,-1.1969948,1.1969948,2.0732558,-105.31628,48.889219)" gradientUnits="userSpaceOnUse" xlink:href="#linearGradient4245-1"/><linearGradient id="linearGradient5290" x1="-123.486" x2="-134.608" y1="360.235" y2="353.164" gradientTransform="matrix(2.0732558,-1.1969948,1.1969948,2.0732558,-105.31628,48.889219)" gradientUnits="userSpaceOnUse" xlink:href="#linearGradient4245-1"/><linearGradient id="linearGradient5292" x1="-94.325" x2="-78.292" y1="358.639" y2="358.134" gradientTransform="matrix(2.0732558,-1.1969948,1.1969948,2.0732558,-105.31628,48.889219)" gradientUnits="userSpaceOnUse" xlink:href="#linearGradient4245-1"/><linearGradient id="linearGradient5294" x1="-108.586" x2="-79.807" y1="356.069" y2="356.069" gradientTransform="matrix(2.0732558,-1.1969948,1.1969948,2.0732558,-105.31628,48.889219)" gradientUnits="userSpaceOnUse" xlink:href="#linearGradient4301-4"/><linearGradient id="linearGradient5296" x1="-124.875" x2="-96.601" y1="397.548" y2="397.422" gradientTransform="matrix(2.0732558,-1.1969948,1.1969948,2.0732558,-105.31628,48.889219)" gradientUnits="userSpaceOnUse" xlink:href="#linearGradient4245-1"/><linearGradient id="linearGradient5298" x1="-132.704" x2="-127.789" y1="365.286" y2="349.503" gradientTransform="matrix(2.0732558,-1.1969948,1.1969948,2.0732558,-100.15493,96.521668)" gradientUnits="userSpaceOnUse" xlink:href="#linearGradient4245-6-7"/><linearGradient id="linearGradient5300" x1="-108.586" x2="-79.807" y1="356.069" y2="356.069" gradientTransform="matrix(2.0732558,-1.1969948,1.1969948,2.0732558,-116.53161,141.20818)" gradientUnits="userSpaceOnUse" xlink:href="#linearGradient4301-0-6"/><linearGradient id="linearGradient5302" x1="-110.878" x2="-101.759" y1="375.267" y2="363.65" gradientTransform="matrix(1.9915781,0,0,1.9915781,329.05764,210.15326)" gradientUnits="userSpaceOnUse" xlink:href="#linearGradient4245-1"/><linearGradient id="linearGradient5304" x1="-125.45" x2="-106.324" y1="350.222" y2="350.222" gradientTransform="matrix(1.9915781,0,0,1.9915781,329.05764,210.15326)" gradientUnits="userSpaceOnUse" xlink:href="#linearGradient4245-1"/><linearGradient id="linearGradient5307" x1="-123.486" x2="-134.608" y1="360.235" y2="353.164" gradientTransform="matrix(1.9915781,0,0,1.9915781,329.05764,210.15326)" gradientUnits="userSpaceOnUse" xlink:href="#linearGradient4245-1"/><linearGradient id="linearGradient5309" x1="-94.325" x2="-78.292" y1="358.639" y2="358.134" gradientTransform="matrix(1.9915781,0,0,1.9915781,329.05764,210.15326)" gradientUnits="userSpaceOnUse" xlink:href="#linearGradient4245-1"/><linearGradient id="linearGradient5311" x1="-108.586" x2="-79.807" y1="356.069" y2="356.069" gradientTransform="matrix(1.9915781,0,0,1.9915781,329.05764,210.15326)" gradientUnits="userSpaceOnUse" xlink:href="#linearGradient4301-4"/><linearGradient id="linearGradient5313" x1="-124.875" x2="-96.601" y1="397.548" y2="397.422" gradientTransform="matrix(1.9915781,0,0,1.9915781,329.05764,210.15326)" gradientUnits="userSpaceOnUse" xlink:href="#linearGradient4245-1"/><linearGradient id="linearGradient5315" x1="-132.704" x2="-127.789" y1="365.286" y2="349.503" gradientTransform="matrix(1.9915781,0,0,1.9915781,312.96326,246.61709)" gradientUnits="userSpaceOnUse" xlink:href="#linearGradient4245-6-7"/><linearGradient id="linearGradient5317" x1="-108.586" x2="-79.807" y1="356.069" y2="356.069" gradientTransform="matrix(1.9915781,0,0,1.9915781,282.5771,271.99969)" gradientUnits="userSpaceOnUse" xlink:href="#linearGradient4301-0-6"/><linearGradient id="linearGradient5325" x1="106.935" x2="108.941" y1="1014.904" y2="990.089" gradientTransform="matrix(1.0928473,0,0,1.0928473,-9.4204844,-88.250123)" gradientUnits="userSpaceOnUse" xlink:href="#linearGradient5319"/><linearGradient id="linearGradient5152-6" x1="88.257" x2="94.543" y1="37.054" y2="48.315" gradientTransform="matrix(0.95256822,-0.54996552,0.54996552,0.95256822,-48.005673,918.20628)" gradientUnits="userSpaceOnUse" xlink:href="#linearGradient5145-7"/><linearGradient id="linearGradient5145-7"><stop style="stop-color:#fff;stop-opacity:1" id="stop5147-4" offset="0"/><stop style="stop-color:#fff;stop-opacity:0" id="stop5150-3" offset="1"/></linearGradient><linearGradient id="linearGradient5342" x1="86.515" x2="92.592" y1="28.661" y2="45.245" gradientTransform="matrix(-1.4131301,-0.60102834,-0.81587105,1.0410116,307.08751,905.96485)" gradientUnits="userSpaceOnUse" xlink:href="#linearGradient5145-7"/><linearGradient id="linearGradient5369" x1="111.481" x2="100.741" y1="165.185" y2="93.704" gradientTransform="matrix(1.0928473,0,0,1.0928473,-9.4204844,843.25159)" gradientUnits="userSpaceOnUse" xlink:href="#linearGradient5363"/><filter id="filter5441" width="1.342" height="1.748" x="-.171" y="-.374"><feGaussianBlur id="feGaussianBlur5443" stdDeviation="4.735"/></filter></defs><metadata id="metadata7"/><g id="layer1" transform="translate(0,-852.36218)"><path id="path4719" d="m 139.94866,1000.7694 9.05309,-21.12391 c 0,0 -1.0059,-1.00574 -4.0236,-5.02953 -3.01768,-4.02359 16.09438,-21.12388 16.09438,-21.12388 0,0 14.08259,-8.04716 9.0531,-20.11792 -5.0295,-12.07075 -5.81788,-34.62736 -80.471909,-44.25944 -14.341474,0.62496 -23.318726,-1.71734 -31.182871,15.0884 -8.277954,17.69 -23.135665,45.26538 -23.135665,45.26538 l -5.029492,16.09454 85.501387,54.31846 z" transform="matrix(1.0410116,-0.60102834,0.60102834,1.0410116,-574.17718,27.890203)" style="fill:url(#linearGradient5284);fill-opacity:1;stroke:#000;stroke-width:1.99157822px;stroke-linecap:butt;stroke-linejoin:miter;stroke-opacity:.38647341;filter:url(#filter4729)"/><path style="fill:url(#linearGradient4717);fill-opacity:1;stroke:#000;stroke-width:2.39399004px;stroke-linecap:butt;stroke-linejoin:miter;stroke-opacity:.38647341" id="path4233" d="m 173.00177,985.58968 -3.27169,-27.43141 c 0,0 -1.65164,-0.44242 -7.21151,-2.8175 -5.55973,-2.37489 4.05839,-31.66339 4.05839,-31.66339 0,0 9.82356,-16.84122 -2.66705,-26.38415 -12.49064,-9.54292 -26.86851,-32.55077 -110.373382,2.29131 -14.554022,9.27023 -25.307235,12.22744 -23.393175,34.44898 2.014745,23.39079 3.12128,61.02698 3.12128,61.02698 l 4.437515,19.7774 121.654872,5.1574 z"/><path style="fill:#000;fill-opacity:1;stroke:none;filter:url(#filter5441)" id="path5371" d="m 93.703704,40 63.333336,8.888889 C 156.37704,70.009016 137.91893,70.52081 118.88889,70.37037 82.211718,64.287215 90.433896,51.789867 93.703704,40 z" transform="matrix(1.1336854,0,0,1.1461897,-12.654859,841.72412)"/><path style="fill:url(#linearGradient5084);fill-opacity:1;stroke:#000;stroke-width:1px;stroke-linecap:butt;stroke-linejoin:miter;stroke-opacity:.31400966;filter:url(#filter5063-1)" id="path5041-8" d="m 103.70899,964.49762 22.52266,-10.73755 c 24.61779,-1.04756 11.78512,21.4751 23.57023,26.71293 l -34.83156,28.8081 z" transform="matrix(1.0410116,-0.60102834,0.60102834,1.0410116,-574.17718,27.890203)"/><path style="fill:url(#linearGradient5286);fill-opacity:1;stroke:#000;stroke-width:2.39399004px;stroke-linecap:butt;stroke-linejoin:miter;stroke-opacity:.47826089" id="path4235" d="m 144.62765,926.4029 c 8.40474,6.00751 12.36682,14.58001 12.36682,14.58001 -8.54182,10.85503 -32.3813,15.73364 -45.08351,21.09268 0,0 -27.572534,0.12274 -34.725526,-10.55663 0,0 -7.26743,-12.58755 5.007304,-18.68696 10.5646,-9.06146 17.999792,-6.44329 30.503532,-8.72608 0,0 14.44292,4.49594 31.93138,2.29698 z"/><path style="fill:url(#linearGradient5288);fill-opacity:1;stroke:#000;stroke-width:2.39399004px;stroke-linecap:butt;stroke-linejoin:miter;stroke-opacity:.47826089" id="path4253" d="m 77.945012,891.07709 c -5.551685,16.06304 -3.326846,28.89409 25.407888,30.70714 0,0 -41.006676,2.73229 -48.741771,0.21708 -5.419429,-4.55015 -9.370921,-16.23092 -9.370921,-16.23092 10.007364,-9.26798 32.704804,-14.6933 32.704804,-14.6933 z"/><path style="fill:url(#linearGradient5290);fill-opacity:1;stroke:#000;stroke-width:2.39399004px;stroke-linecap:butt;stroke-linejoin:miter;stroke-opacity:.39613528" id="path4271" d="m 30.990921,939.12897 60.519327,-16.09219 c -23.091587,11.30484 -29.58122,23.83338 -4.176972,38.71291 L 32.605019,947.97041 z"/><path style="fill:url(#linearGradient5292);fill-opacity:1;stroke:#000;stroke-width:2.39399004px;stroke-linecap:butt;stroke-linejoin:miter;stroke-opacity:.37198067" id="path4281" d="m 113.98066,900.29016 c 9.48213,3.20746 13.70782,-3.54737 34.98848,9.81766 5.85761,-2.30934 9.57395,-6.83341 10.81143,-13.92106 -10.57179,-13.40074 -29.85996,-14.09193 -44.37531,-12.77549 0,0 -6.84404,12.32874 -1.4246,16.87889 z"/><path style="fill:url(#linearGradient5294);fill-opacity:1;stroke:#000;stroke-width:2.39399004px;stroke-linecap:butt;stroke-linejoin:miter;stroke-opacity:.42028988" id="path4291" d="m 113.79407,883.6435 c -2.71773,4.36134 -4.91179,8.42061 -2.11023,14.48219 17.86782,-0.81937 28.7612,4.20385 41.03137,11.21558 6.11854,-3.2865 7.21671,-6.5063 8.64695,-11.62424 0,0 4.08092,7.06835 -3.08721,13.99913 0,0 -9.63483,8.70406 -22.97807,9.77587 -12.29608,0.46722 -34.40271,-4.57103 -42.723571,-12.33287 -5.223217,-7.38824 -4.39207,-14.51525 0.879388,-21.45064 8.271753,-3.61356 15.581723,-4.54412 20.341373,-4.06502 z"/><path style="fill:url(#linearGradient5296);fill-opacity:1;stroke:#000;stroke-width:2.39399004px;stroke-linecap:butt;stroke-linejoin:miter;stroke-opacity:.41545895" id="path4315" d="m 102.42678,1016.9119 c 0,0 32.82901,-3.5959 45.34361,-13.9623 12.51452,-10.36666 22.17307,-38.98059 22.17307,-38.98059 l 2.79652,21.77181 -13.42348,33.57978 z"/><path style="fill:url(#linearGradient5298);fill-opacity:1;stroke:#000;stroke-width:2.39399004px;stroke-linecap:butt;stroke-linejoin:miter;stroke-opacity:.39613528" id="path4271-3" d="m 33.974132,977.5476 62.697564,-6.87817 c -23.09157,11.30482 -29.437978,30.73177 -4.033734,45.61117 l -54.342069,-2.8326 c -3.982515,-12.3539 -5.441868,-24.32349 -4.321761,-35.9004 z"/><path style="fill:url(#linearGradient5300);fill-opacity:1;stroke:#000;stroke-width:2.39399004px;stroke-linecap:butt;stroke-linejoin:miter;stroke-opacity:.42028988" id="path4291-7" d="m 108.46751,968.02495 c 45.09111,-0.98206 40.72009,4.08834 43.26891,16.90484 0,0 2.49134,12.17462 -4.67669,19.10561 0,0 -9.63477,8.704 -22.97806,9.7758 -13.60272,2.2131 -34.586029,4.6187 -40.596747,-6.2308 -9.970959,-7.69453 -6.917795,-20.64319 -1.24753,-27.55286 6.981618,-7.05723 21.470437,-12.48175 26.230117,-12.00259 z"/><path id="path4919" d="m 144.12539,946.32579 c 3.55638,7.82411 2.84511,15.64823 2.84511,15.64823 -10.66917,4.26755 -29.87368,-2.13377 -41.25413,-3.55636 0,0 -19.915769,-11.38048 -20.627044,-22.04977 0,0 0,-12.09166 11.380438,-11.38027 11.380446,-2.13397 15.648116,2.84498 25.606016,6.40133 0,0 8.53534,9.2467 22.04961,14.93684 z" transform="matrix(1.0410116,-0.60102834,0.60102834,1.0410116,-574.17718,27.890203)" style="fill:url(#linearGradient5302);fill-opacity:1;stroke:#000;stroke-width:1.99157822px;stroke-linecap:butt;stroke-linejoin:miter;stroke-opacity:.47826089;filter:url(#filter4999)"/><path id="path4921" d="m 110.77759,893.13831 c -10.68121,9.26342 -14.415443,19.43302 5.53244,32.69155 0,0 -30.67989,-15.08839 -35.206452,-20.11792 -2.011794,-5.5324 0,-15.59148 0,-15.59148 11.06489,-2.51455 29.674012,3.01785 29.674012,3.01785 z" transform="matrix(1.0410116,-0.60102834,0.60102834,1.0410116,-574.17718,27.890203)" style="fill:url(#linearGradient5304);fill-opacity:1;stroke:#000;stroke-width:1.99157822px;stroke-linecap:butt;stroke-linejoin:miter;stroke-opacity:.47826089;filter:url(#filter5003)"/><path id="path4923" d="m 56.962011,908.2267 50.294939,13.57958 c -21.338693,-1.46043 -31.225464,4.86641 -19.112089,26.1534 L 54.447265,915.26793 z" transform="matrix(1.0410116,-0.60102834,0.60102834,1.0410116,-574.17718,27.890203)" style="fill:url(#linearGradient5307);fill-opacity:1;stroke:#000;stroke-width:1.99157822px;stroke-linecap:butt;stroke-linejoin:miter;stroke-opacity:.39613528;filter:url(#filter5007)"/><path id="path4925" d="m 132.90737,914.76505 c 5.49727,6.25495 11.35138,3.1461 21.12387,21.62675 5.18071,0.77273 9.73996,-0.94083 13.57964,-5.53241 -2.04239,-14.05197 -15.65111,-22.57294 -26.65632,-27.66222 0,0 -10.05899,6.03548 -8.04719,11.56788 z" transform="matrix(1.0410116,-0.60102834,0.60102834,1.0410116,-574.17718,27.890203)" style="fill:url(#linearGradient5309);fill-opacity:1;stroke:#000;stroke-width:1.99157822px;stroke-linecap:butt;stroke-linejoin:miter;stroke-opacity:.37198067;filter:url(#filter5011)"/><path id="path4927" d="m 139.69718,902.6943 c -3.77211,2.01169 -7.04129,4.02358 -7.54424,9.55598 13.21374,6.84188 18.97249,14.99201 24.89601,25.14746 5.77515,0.17726 7.90563,-1.68567 11.06488,-4.77799 0,0 0,6.78989 -8.04719,8.80158 0,0 -10.56193,2.26322 -20.62094,-2.51476 -9.05308,-4.778 -22.88419,-17.60316 -25.65041,-26.65629 -0.68992,-7.49549 2.87339,-12.28445 9.55603,-15.08839 7.46248,0.83726 13.11604,3.20744 16.34586,5.53241 z" transform="matrix(1.0410116,-0.60102834,0.60102834,1.0410116,-574.17718,27.890203)" style="fill:url(#linearGradient5311);fill-opacity:1;stroke:#000;stroke-width:1.99157822px;stroke-linecap:butt;stroke-linejoin:miter;stroke-opacity:.42028988;filter:url(#filter5015)"/><path id="path4929" d="m 76.074086,993.97968 c 0,0 25.147454,11.06472 38.475634,8.80162 13.32816,-2.2632 32.18876,-18.86069 32.18876,-18.86069 l -7.0413,16.84879 -23.63862,18.6091 z" transform="matrix(1.0410116,-0.60102834,0.60102834,1.0410116,-574.17718,27.890203)" style="fill:url(#linearGradient5313);fill-opacity:1;stroke:#000;stroke-width:1.99157822px;stroke-linecap:butt;stroke-linejoin:miter;stroke-opacity:.41545895;filter:url(#filter5019)"/><path id="path4931" d="m 43.130899,937.1464 48.031658,21.12388 c -21.338676,-1.46043 -33.991671,9.89595 -21.878294,31.18293 L 31.3116,964.80864 c 2.269442,-10.55696 6.196855,-19.78753 11.819299,-27.66224 z" transform="matrix(1.0410116,-0.60102834,0.60102834,1.0410116,-574.17718,27.890203)" style="fill:url(#linearGradient5315);fill-opacity:1;stroke:#000;stroke-width:1.99157822px;stroke-linecap:butt;stroke-linejoin:miter;stroke-opacity:.39613528;filter:url(#filter5023)"/><path id="path4933" d="m 100.76087,961.27158 c 32.89451,18.04828 27.63635,19.88313 24.14158,30.177 0,0 -3.26918,9.80752 -11.31638,11.81942 0,0 -10.56192,2.2633 -20.620908,-2.5148 -10.720689,-4.06363 -26.838786,-11.05861 -26.656317,-21.37538 -3.983036,-9.69101 3.602665,-17.74993 10.561932,-20.36946 7.965413,-2.18038 20.660273,-0.0618 23.890093,2.26322 z" transform="matrix(1.0410116,-0.60102834,0.60102834,1.0410116,-574.17718,27.890203)" style="fill:url(#linearGradient5317);fill-opacity:1;stroke:#000;stroke-width:1.99157822px;stroke-linecap:butt;stroke-linejoin:miter;stroke-opacity:.42028988;filter:url(#filter5027)"/><path style="opacity:.79185522;fill:url(#linearGradient5039);fill-opacity:1;stroke:#000;stroke-width:1px;stroke-linecap:butt;stroke-linejoin:miter;stroke-opacity:.37198067;filter:url(#filter5139)" id="path5031" d="m 58.401782,54.650273 -5.76161,-18.59429 16.761049,-6.023502 10.213765,6.809176 0.785674,16.237267 -6.547285,6.023503 z" transform="matrix(1.0410116,-0.60102834,0.60102834,1.0410116,-61.883355,915.20914)"/><path style="fill:url(#linearGradient5049);fill-opacity:1;stroke:#000;stroke-width:1px;stroke-linecap:butt;stroke-linejoin:miter;stroke-opacity:.31400966;filter:url(#filter5063)" id="path5041" d="m 47.140453,85.553458 17.546723,-11.523222 22.52266,20.42753 1.571349,9.689984 z" transform="matrix(1.0410116,-0.60102834,0.60102834,1.0410116,-61.883355,915.20914)"/><path style="opacity:.67420816;fill:url(#linearGradient5115);fill-opacity:1;stroke:#000;stroke-width:1.20205665px;stroke-linecap:butt;stroke-linejoin:miter;stroke-opacity:.29468599" id="path5107" d="m 143.51808,937.90767 c 11.92579,3.65641 27.93359,47.12317 21.88221,47.34534 -17.88979,7.42061 -27.07666,-9.45128 -43.26494,-8.82734 -29.145325,1.12334 -62.570571,31.39943 -83.999325,24.50543 -10.776533,-17.40629 26.475368,-52.36354 32.231515,-57.50439 15.160438,-15.29605 31.16313,20.17149 50.60644,8.95084 13.87072,-8.00411 14.74996,-19.7847 22.5441,-14.46988 z"/><path style="opacity:.43891404;fill:url(#linearGradient5152);fill-opacity:1;stroke:none" id="path5143" d="m 45.520287,905.42694 c 7.650756,-6.09887 17.155368,-11.21224 31.763142,-13.61284 -1.971523,8.78081 -1.533064,12.68751 -0.865317,16.13049 -8.354458,1.1811 -15.11788,6.43625 -22.828037,12.08925 z"/><path style="opacity:.43891404;fill:url(#linearGradient5169);fill-opacity:1;stroke:none" id="path5143-0" d="m 14.616176,921.15727 14.530826,-16.38658 14.924735,1.92497 c -5.032621,12.79344 -9.101933,20.8038 -16.90843,26.12003 z"/><path style="opacity:.43891404;fill:url(#linearGradient5203);fill-opacity:1;stroke:none" id="path5143-0-6" d="m 38.566064,1001.0463 c -10.46926,-14.01362 18.25394,-48.2386 37.914612,-61.51252 l 8.558548,1.60189 c -51.924751,39.60424 -24.971801,53.02088 -20.485736,55.81209 -9.846691,4.58574 -18.403101,5.66354 -25.987424,4.09854 z"/><path style="fill:url(#linearGradient5280);fill-opacity:1;stroke:none" id="path5222" d="m 140.42348,935.69573 c 12.09367,5.11745 14.64321,17.09571 20.50168,26.69534 l 4.54515,12.27974 c -11.23233,-10.47694 -9.33848,-34.81359 -40.52208,-24.22428 5.01172,-4.86732 6.85371,-8.66234 15.47525,-14.7508 z"/><path style="fill:url(#linearGradient5325);fill-opacity:1;stroke:none" id="path5282" d="m 150.31374,999.50044 -35.25236,-15.98658 -38.177546,10.5744 c 1.296178,12.92764 7.120004,23.20484 30.361496,23.28634 42.5741,-5.5491 40.50666,-13.854 43.06841,-17.87416 z"/><path style="opacity:.43891404;fill:url(#linearGradient5342);fill-opacity:1;stroke:none" id="path5143-09" d="m 161.29151,894.56363 c -8.54923,-4.53956 -14.0584,-9.27265 -26.52205,-11.1843 2.67625,8.78081 -0.34749,13.09227 -1.25392,16.53525 11.34083,1.18109 9.18866,3.60294 19.65488,9.25594 4.28577,-5.90802 5.85319,-10.71674 8.12109,-14.60689 z"/><path style="fill:url(#linearGradient5369);fill-opacity:1;stroke:none" id="path5361" d="M 37.936232,1014.8691 33.079133,995.84546 31.055342,948.8935 163.4113,937.15551 l -3.23807,15.78557 9.71419,5.26186 8.90469,62.33276 z"/></g></svg>