<svg xmlns="http://www.w3.org/2000/svg" xmlns:svg="http://www.w3.org/2000/svg" xmlns:xlink="http://www.w3.org/1999/xlink" id="svg2" width="200" height="200" version="1.1"><defs id="defs4"><linearGradient id="linearGradient7980"><stop style="stop-color:#000;stop-opacity:1" id="stop7982" offset="0"/><stop style="stop-color:#000;stop-opacity:0" id="stop7984" offset="1"/></linearGradient><linearGradient id="linearGradient7962"><stop id="stop7964" offset="0" style="stop-color:#34316a;stop-opacity:1"/><stop id="stop7966" offset="1" style="stop-color:#4d5472;stop-opacity:1"/></linearGradient><linearGradient id="linearGradient7936"><stop style="stop-color:#000;stop-opacity:1" id="stop7938" offset="0"/><stop style="stop-color:#000;stop-opacity:0" id="stop7940" offset="1"/></linearGradient><linearGradient id="linearGradient7808"><stop style="stop-color:#000;stop-opacity:1" id="stop7810" offset="0"/><stop style="stop-color:#000;stop-opacity:0" id="stop7812" offset="1"/></linearGradient><linearGradient id="linearGradient5580"><stop style="stop-color:#2c3d5d;stop-opacity:1" id="stop5582" offset="0"/><stop style="stop-color:#000;stop-opacity:0" id="stop5584" offset="1"/></linearGradient><linearGradient id="linearGradient5484"><stop id="stop5486" offset="0" style="stop-color:#000;stop-opacity:1"/><stop id="stop5488" offset="1" style="stop-color:#000;stop-opacity:0"/></linearGradient><linearGradient id="linearGradient5147"><stop style="stop-color:#fff;stop-opacity:.50354612" id="stop5149" offset="0"/><stop style="stop-color:#fff;stop-opacity:0" id="stop5151" offset="1"/></linearGradient><linearGradient id="linearGradient5131"><stop id="stop5133" offset="0" style="stop-color:#373d64;stop-opacity:1"/><stop id="stop5135" offset="1" style="stop-color:#121316;stop-opacity:.9178744"/></linearGradient><linearGradient id="linearGradient5021"><stop style="stop-color:#041224;stop-opacity:.85106385" id="stop5023" offset="0"/><stop style="stop-color:#898989;stop-opacity:.81560284" id="stop5025" offset="1"/></linearGradient><linearGradient id="linearGradient4895"><stop style="stop-color:#fff;stop-opacity:.52482271" id="stop4897" offset="0"/><stop style="stop-color:#fff;stop-opacity:0" id="stop4899" offset="1"/></linearGradient><linearGradient id="linearGradient4821"><stop style="stop-color:#000f12;stop-opacity:.90070921" id="stop4823" offset="0"/><stop style="stop-color:#454174;stop-opacity:.65248227" id="stop4825" offset="1"/></linearGradient><linearGradient id="linearGradient4787"><stop style="stop-color:#005f65;stop-opacity:1" id="stop4789" offset="0"/><stop style="stop-color:#4dd2f1;stop-opacity:1" id="stop4791" offset="1"/></linearGradient><linearGradient id="linearGradient4730"><stop id="stop4732" offset="0" style="stop-color:#2c2959;stop-opacity:1"/><stop id="stop4734" offset="1" style="stop-color:#12172c;stop-opacity:1"/></linearGradient><linearGradient id="linearGradient4722"><stop style="stop-color:#191941;stop-opacity:1" id="stop4724" offset="0"/><stop style="stop-color:#000;stop-opacity:0" id="stop4726" offset="1"/></linearGradient><linearGradient id="linearGradient4712"><stop style="stop-color:#34316a;stop-opacity:1" id="stop4714" offset="0"/><stop style="stop-color:#4d5472;stop-opacity:1" id="stop4716" offset="1"/></linearGradient><linearGradient id="linearGradient4536"><stop style="stop-color:#0071b1;stop-opacity:.63829786" id="stop4538" offset="0"/><stop style="stop-color:#003c53;stop-opacity:.65957445" id="stop4540" offset="1"/></linearGradient><linearGradient id="linearGradient4524"><stop style="stop-color:#373d64;stop-opacity:1" id="stop4526" offset="0"/><stop style="stop-color:#121316;stop-opacity:1" id="stop4528" offset="1"/></linearGradient><linearGradient id="linearGradient4542" x1="107.076" x2="191.929" y1="68.428" y2="68.428" gradientTransform="translate(-0.50507627,851.35203)" gradientUnits="userSpaceOnUse" xlink:href="#linearGradient4536"/><linearGradient id="linearGradient4542-7" x1="107.076" x2="191.929" y1="68.428" y2="68.428" gradientTransform="translate(-0.50507627,851.35203)" gradientUnits="userSpaceOnUse" xlink:href="#linearGradient4536-8"/><linearGradient id="linearGradient4536-8"><stop style="stop-color:#0071b1;stop-opacity:.63829786" id="stop4538-2" offset="0"/><stop style="stop-color:#003c53;stop-opacity:.65957445" id="stop4540-5" offset="1"/></linearGradient><linearGradient id="linearGradient4532-1" x1="7.071" x2="197.485" y1="102.268" y2="102.268" gradientTransform="matrix(-0.00647633,0.83593082,-0.83593082,-0.00647633,188.41699,869.25884)" gradientUnits="userSpaceOnUse" xlink:href="#linearGradient4524-9"/><linearGradient id="linearGradient4524-9"><stop style="stop-color:#373d64;stop-opacity:1" id="stop4526-0" offset="0"/><stop style="stop-color:#121316;stop-opacity:1" id="stop4528-5" offset="1"/></linearGradient><linearGradient id="linearGradient4577-1" x1="107.076" x2="191.929" y1="68.428" y2="68.428" gradientTransform="translate(-90.913724,904.1325)" gradientUnits="userSpaceOnUse" xlink:href="#linearGradient4536-8-0"/><linearGradient id="linearGradient4536-8-0"><stop style="stop-color:#e6f6ff;stop-opacity:.63829786" id="stop4538-2-3" offset="0"/><stop style="stop-color:#96e2ff;stop-opacity:.65957445" id="stop4540-5-7" offset="1"/></linearGradient><linearGradient id="linearGradient4718" x1="34.855" x2="83.676" y1="76.004" y2="100.753" gradientTransform="translate(-11.616754,799.32917)" gradientUnits="userSpaceOnUse" xlink:href="#linearGradient4712"/><linearGradient id="linearGradient4728" x1="33.34" x2="81.817" y1="96.459" y2="109.591" gradientTransform="translate(-11.616754,799.32917)" gradientUnits="userSpaceOnUse" xlink:href="#linearGradient4730"/><linearGradient id="linearGradient4728-4" x1="33.34" x2="81.817" y1="96.459" y2="109.591" gradientTransform="translate(-11.616754,799.32917)" gradientUnits="userSpaceOnUse" xlink:href="#linearGradient4730-9"/><linearGradient id="linearGradient4730-9"><stop id="stop4732-8" offset="0" style="stop-color:#2c2959;stop-opacity:1"/><stop id="stop4734-1" offset="1" style="stop-color:#12172c;stop-opacity:1"/></linearGradient><linearGradient id="linearGradient4712-3"><stop style="stop-color:#34316a;stop-opacity:1" id="stop4714-9" offset="0"/><stop style="stop-color:#4d5472;stop-opacity:1" id="stop4716-3" offset="1"/></linearGradient><linearGradient id="linearGradient4793" x1="108.091" x2="54.038" y1="131.057" y2="77.519" gradientTransform="translate(-19.192898,855.89771)" gradientUnits="userSpaceOnUse" xlink:href="#linearGradient4787"/><linearGradient id="linearGradient4793-9" x1="108.091" x2="54.038" y1="131.057" y2="77.519" gradientTransform="translate(-19.192898,855.89771)" gradientUnits="userSpaceOnUse" xlink:href="#linearGradient4787-7"/><linearGradient id="linearGradient4787-7"><stop style="stop-color:#005f65;stop-opacity:1" id="stop4789-3" offset="0"/><stop style="stop-color:#4dd2f1;stop-opacity:1" id="stop4791-8" offset="1"/></linearGradient><linearGradient id="linearGradient4901" x1="17.678" x2="50.508" y1="113.885" y2="113.885" gradientTransform="matrix(0.98794232,0,0,1,11.71724,848.32157)" gradientUnits="userSpaceOnUse" xlink:href="#linearGradient4895"/><linearGradient id="linearGradient4901-0" x1="17.678" x2="50.508" y1="113.885" y2="113.885" gradientTransform="translate(11.616754,848.32157)" gradientUnits="userSpaceOnUse" xlink:href="#linearGradient4895-5"/><linearGradient id="linearGradient4895-5"><stop style="stop-color:#fff;stop-opacity:.52482271" id="stop4897-9" offset="0"/><stop style="stop-color:#fff;stop-opacity:0" id="stop4899-2" offset="1"/></linearGradient><linearGradient id="linearGradient4918" x1="17.678" x2="50.508" y1="113.885" y2="113.885" gradientTransform="matrix(0.98794232,0,0,1,23.942403,832.41166)" gradientUnits="userSpaceOnUse" xlink:href="#linearGradient4895-5"/><linearGradient id="linearGradient4918-8" x1="17.678" x2="50.508" y1="113.885" y2="113.885" gradientTransform="translate(23.991123,832.41166)" gradientUnits="userSpaceOnUse" xlink:href="#linearGradient4895-5-5"/><linearGradient id="linearGradient4895-5-5"><stop style="stop-color:#fff;stop-opacity:.52482271" id="stop4897-9-2" offset="0"/><stop style="stop-color:#fff;stop-opacity:0" id="stop4899-2-8" offset="1"/></linearGradient><linearGradient id="linearGradient4952" x1="17.678" x2="50.508" y1="113.885" y2="113.885" gradientTransform="matrix(0.87567908,0.46298408,-0.45740157,0.8863666,93.832314,813.40596)" gradientUnits="userSpaceOnUse" xlink:href="#linearGradient4895-5-5"/><linearGradient id="linearGradient4918-4" x1="17.678" x2="50.508" y1="113.885" y2="113.885" gradientTransform="translate(23.991123,832.41166)" gradientUnits="userSpaceOnUse" xlink:href="#linearGradient4895-5-3"/><linearGradient id="linearGradient4895-5-3"><stop style="stop-color:#fff;stop-opacity:.52482271" id="stop4897-9-3" offset="0"/><stop style="stop-color:#fff;stop-opacity:0" id="stop4899-2-4" offset="1"/></linearGradient><linearGradient id="linearGradient5044" x1="17.678" x2="50.508" y1="113.885" y2="113.885" gradientTransform="matrix(0.98794232,0,0,1,28.433278,829.88629)" gradientUnits="userSpaceOnUse" xlink:href="#linearGradient4895-5-3"/><linearGradient id="linearGradient4901-4" x1="17.678" x2="50.508" y1="113.885" y2="113.885" gradientTransform="translate(11.616754,848.32157)" gradientUnits="userSpaceOnUse" xlink:href="#linearGradient4895-53"/><linearGradient id="linearGradient4895-53"><stop style="stop-color:#fff;stop-opacity:.52482271" id="stop4897-8" offset="0"/><stop style="stop-color:#fff;stop-opacity:0" id="stop4899-1" offset="1"/></linearGradient><linearGradient id="linearGradient5078" x1="17.678" x2="50.508" y1="113.885" y2="113.885" gradientTransform="matrix(0.98794232,0,0,1,16.457609,846.5538)" gradientUnits="userSpaceOnUse" xlink:href="#linearGradient4895-53"/><linearGradient id="linearGradient4952-3" x1="17.678" x2="50.508" y1="113.885" y2="113.885" gradientTransform="matrix(0.8863666,0.46298408,-0.46298408,0.8863666,94.73403,813.40596)" gradientUnits="userSpaceOnUse" xlink:href="#linearGradient4895-5-5-1"/><linearGradient id="linearGradient4895-5-5-1"><stop style="stop-color:#fff;stop-opacity:.52482271" id="stop4897-9-2-5" offset="0"/><stop style="stop-color:#fff;stop-opacity:0" id="stop4899-2-8-8" offset="1"/></linearGradient><linearGradient id="linearGradient5112" x1="17.678" x2="50.508" y1="113.885" y2="113.885" gradientTransform="matrix(0.87567908,0.46298408,-0.45740157,0.8863666,97.388275,818.3936)" gradientUnits="userSpaceOnUse" xlink:href="#linearGradient4895-5-5-1"/><linearGradient id="linearGradient5153" x1="89.404" x2="93.434" y1="120.703" y2="138.886" gradientTransform="matrix(0.98794232,0,0,1,0.2405568,852.36218)" gradientUnits="userSpaceOnUse" xlink:href="#linearGradient5147"/><linearGradient id="linearGradient5153-5" x1="89.404" x2="93.434" y1="120.703" y2="138.886" gradientUnits="userSpaceOnUse" xlink:href="#linearGradient5147-0"/><linearGradient id="linearGradient5147-0"><stop style="stop-color:#fff;stop-opacity:.50354612" id="stop5149-1" offset="0"/><stop style="stop-color:#fff;stop-opacity:0" id="stop5151-5" offset="1"/></linearGradient><linearGradient id="linearGradient5170-7" x1="89.404" x2="93.434" y1="120.703" y2="138.886" gradientTransform="translate(5.0507609,754.37739)" gradientUnits="userSpaceOnUse" xlink:href="#linearGradient5147-0-0"/><linearGradient id="linearGradient5147-0-0"><stop style="stop-color:#fff;stop-opacity:.50354612" id="stop5149-1-6" offset="0"/><stop style="stop-color:#fff;stop-opacity:0" id="stop5151-5-2" offset="1"/></linearGradient><linearGradient id="linearGradient5204" x1="96.98" x2="101.01" y1="120.703" y2="132.825" gradientTransform="matrix(0.98794232,0,0,1,-52.651984,754.62992)" gradientUnits="userSpaceOnUse" xlink:href="#linearGradient5147-0-0"/><linearGradient id="linearGradient5204-7" x1="96.98" x2="101.01" y1="120.703" y2="132.825" gradientTransform="translate(-53.538086,754.62992)" gradientUnits="userSpaceOnUse" xlink:href="#linearGradient5147-0-0-9"/><linearGradient id="linearGradient5147-0-0-9"><stop style="stop-color:#000;stop-opacity:1" id="stop5149-1-6-8" offset="0"/><stop style="stop-color:#000;stop-opacity:0" id="stop5151-5-2-8" offset="1"/></linearGradient><linearGradient id="linearGradient5044-9" x1="17.678" x2="50.508" y1="113.885" y2="113.885" gradientTransform="translate(28.536809,829.88629)" gradientUnits="userSpaceOnUse" xlink:href="#linearGradient4895-5-3-0"/><linearGradient id="linearGradient4895-5-3-0"><stop style="stop-color:#fff;stop-opacity:.52482271" id="stop4897-9-3-0" offset="0"/><stop style="stop-color:#fff;stop-opacity:0" id="stop4899-2-4-0" offset="1"/></linearGradient><linearGradient id="linearGradient5272-5" x1="17.678" x2="50.508" y1="113.885" y2="113.885" gradientTransform="matrix(0.81575221,0.57840153,-0.57840153,0.81575221,95.458959,825.22437)" gradientUnits="userSpaceOnUse" xlink:href="#linearGradient4895-5-3-0-7"/><linearGradient id="linearGradient4895-5-3-0-7"><stop style="stop-color:#fff;stop-opacity:.52482271" id="stop4897-9-3-0-6" offset="0"/><stop style="stop-color:#fff;stop-opacity:0" id="stop4899-2-4-0-9" offset="1"/></linearGradient><linearGradient id="linearGradient5306" x1="17.678" x2="50.508" y1="113.885" y2="113.885" gradientTransform="matrix(1.5481557,-0.03146296,0.07646533,0.63701493,-2.8809243,859.98338)" gradientUnits="userSpaceOnUse" xlink:href="#linearGradient4787-7"/><linearGradient id="linearGradient5272-7" x1="17.678" x2="50.508" y1="113.885" y2="113.885" gradientTransform="matrix(0.81575221,0.57840153,-0.57840153,0.81575221,90.913273,824.71929)" gradientUnits="userSpaceOnUse" xlink:href="#linearGradient4895-5-3-0-6"/><linearGradient id="linearGradient4895-5-3-0-6"><stop style="stop-color:#fff;stop-opacity:.52482271" id="stop4897-9-3-0-68" offset="0"/><stop style="stop-color:#fff;stop-opacity:0" id="stop4899-2-4-0-7" offset="1"/></linearGradient><linearGradient id="linearGradient5340" x1="28.375" x2="49.197" y1="110.634" y2="102.431" gradientTransform="matrix(0.80591613,0.57840153,-0.57142735,0.81575221,96.862591,819.52723)" gradientUnits="userSpaceOnUse" xlink:href="#linearGradient4895-5-3-0-6"/><linearGradient id="linearGradient5272-6" x1="17.678" x2="50.508" y1="113.885" y2="113.885" gradientTransform="matrix(0.81575221,0.57840153,-0.57840153,0.81575221,90.913273,824.71929)" gradientUnits="userSpaceOnUse" xlink:href="#linearGradient4895-5-3-0-5"/><linearGradient id="linearGradient4895-5-3-0-5"><stop style="stop-color:#fff;stop-opacity:.52482271" id="stop4897-9-3-0-3" offset="0"/><stop style="stop-color:#fff;stop-opacity:0" id="stop4899-2-4-0-76" offset="1"/></linearGradient><linearGradient id="linearGradient4827-7" x1="61.635" x2="101.505" y1="145.452" y2="74.236" gradientUnits="userSpaceOnUse" xlink:href="#linearGradient4821-2"/><linearGradient id="linearGradient4821-2"><stop style="stop-color:#000f12;stop-opacity:.90070921" id="stop4823-6" offset="0"/><stop style="stop-color:#454174;stop-opacity:.65248227" id="stop4825-4" offset="1"/></linearGradient><linearGradient id="linearGradient5153-4" x1="89.404" x2="93.434" y1="120.703" y2="138.886" gradientUnits="userSpaceOnUse" xlink:href="#linearGradient5147-01"/><linearGradient id="linearGradient5147-01"><stop style="stop-color:#fff;stop-opacity:.50354612" id="stop5149-2" offset="0"/><stop style="stop-color:#fff;stop-opacity:0" id="stop5151-8" offset="1"/></linearGradient><linearGradient id="linearGradient5431-1" x1="89.404" x2="93.434" y1="120.703" y2="138.886" gradientTransform="translate(73.236056,800.33933)" gradientUnits="userSpaceOnUse" xlink:href="#linearGradient5147-01-5"/><linearGradient id="linearGradient5147-01-5"><stop style="stop-color:#fff;stop-opacity:.50354612" id="stop5149-2-2" offset="0"/><stop style="stop-color:#fff;stop-opacity:0" id="stop5151-8-0" offset="1"/></linearGradient><linearGradient id="linearGradient5465-0" x1="89.404" x2="94.323" y1="120.703" y2="171.016" gradientTransform="matrix(-0.99348128,0.11399539,-0.11399539,-0.99348128,283.96931,1130.6936)" gradientUnits="userSpaceOnUse" xlink:href="#linearGradient5484-1"/><linearGradient id="linearGradient5484-1"><stop id="stop5486-6" offset="0" style="stop-color:#000;stop-opacity:1"/><stop id="stop5488-0" offset="1" style="stop-color:#000;stop-opacity:0"/></linearGradient><linearGradient id="linearGradient5586" x1="19.766" x2="79.229" y1="41.406" y2="41.406" gradientUnits="userSpaceOnUse" xlink:href="#linearGradient5580"/><linearGradient id="linearGradient5170-4" x1="89.404" x2="93.434" y1="120.703" y2="138.886" gradientTransform="matrix(0.98794232,0,0,1,5.2304172,754.37739)" gradientUnits="userSpaceOnUse" xlink:href="#linearGradient5147-0-6"/><linearGradient id="linearGradient5147-0-6"><stop style="stop-color:#fff;stop-opacity:.50354612" id="stop5149-1-0" offset="0"/><stop style="stop-color:#fff;stop-opacity:0" id="stop5151-5-5" offset="1"/></linearGradient><linearGradient id="linearGradient5661" x1="92.471" x2="107.749" y1="96.964" y2="138.381" gradientTransform="matrix(0.95493625,0.25323268,-0.25632335,0.96659109,2.5749161,777.88562)" gradientUnits="userSpaceOnUse" xlink:href="#linearGradient5147-0-6"/><linearGradient id="linearGradient5465-5" x1="89.404" x2="94.323" y1="120.703" y2="171.016" gradientTransform="matrix(-0.9815022,0.11399539,-0.11262087,-0.99348128,280.78586,1130.6936)" gradientUnits="userSpaceOnUse" xlink:href="#linearGradient5484-0"/><linearGradient id="linearGradient5484-0"><stop id="stop5486-4" offset="0" style="stop-color:#000;stop-opacity:1"/><stop id="stop5488-9" offset="1" style="stop-color:#000;stop-opacity:0"/></linearGradient><linearGradient id="linearGradient5238-6" x1="88.393" x2="109.091" y1="115.652" y2="140.401" gradientTransform="matrix(0.98794232,0,0,1,-55.56198,783.34027)" gradientUnits="userSpaceOnUse" xlink:href="#linearGradient5147-0-0-9-9"/><linearGradient id="linearGradient5147-0-0-9-9"><stop style="stop-color:#000;stop-opacity:1" id="stop5149-1-6-8-1" offset="0"/><stop style="stop-color:#000;stop-opacity:0" id="stop5151-5-2-8-4" offset="1"/></linearGradient><linearGradient id="linearGradient7646-7" x1="68.522" x2="93.379" y1="179.352" y2="178.828" gradientTransform="matrix(-0.40328833,-0.90188056,0.91288787,-0.4082104,-15.368619,1053.8264)" gradientUnits="userSpaceOnUse" xlink:href="#linearGradient5147-0-0-9-9-7"/><linearGradient id="linearGradient5147-0-0-9-9-7"><stop style="stop-color:#000;stop-opacity:1" id="stop5149-1-6-8-1-6" offset="0"/><stop style="stop-color:#000;stop-opacity:0" id="stop5151-5-2-8-4-6" offset="1"/></linearGradient><linearGradient id="linearGradient7726" x1="101.203" x2="112.415" y1="865.599" y2="1042.881" gradientTransform="translate(2.0203051,-1.5152288)" gradientUnits="userSpaceOnUse" xlink:href="#linearGradient4730-9"/><linearGradient id="linearGradient7736" x1="60.069" x2="123.234" y1="154.515" y2="36.328" gradientTransform="translate(12.626907,894.78858)" gradientUnits="userSpaceOnUse" xlink:href="#linearGradient4787-7"/><filter id="filter7746" width="1.291" height="1.265" x="-.146" y="-.132"><feGaussianBlur id="feGaussianBlur7748" stdDeviation="5.795"/></filter><filter id="filter7764"><feGaussianBlur id="feGaussianBlur7766" stdDeviation="4.186"/></filter><linearGradient id="linearGradient7768" x1="101.203" x2="112.415" y1="865.599" y2="1042.881" gradientTransform="translate(2.0203051,-1.5152288)" gradientUnits="userSpaceOnUse" xlink:href="#linearGradient4730-9"/><filter id="filter7802"><feGaussianBlur id="feGaussianBlur7804" stdDeviation=".856"/></filter><linearGradient id="linearGradient7814" x1="22.228" x2="132.906" y1="72.667" y2="72.667" gradientUnits="userSpaceOnUse" xlink:href="#linearGradient5580"/><filter id="filter7820" width="1.128" height="1.255" x="-.064" y="-.127"><feGaussianBlur id="feGaussianBlur7822" stdDeviation="2.57"/></filter><filter id="filter7830"><feGaussianBlur id="feGaussianBlur7832" stdDeviation=".321"/></filter><linearGradient id="linearGradient7814-0" x1="22.228" x2="132.906" y1="72.667" y2="72.667" gradientUnits="userSpaceOnUse" xlink:href="#linearGradient5580-6"/><linearGradient id="linearGradient5580-6"><stop style="stop-color:#2c3d5d;stop-opacity:1" id="stop5582-4" offset="0"/><stop style="stop-color:#000;stop-opacity:0" id="stop5584-3" offset="1"/></linearGradient><filter id="filter7830-0" color-interpolation-filters="sRGB"><feGaussianBlur id="feGaussianBlur7832-5" stdDeviation=".321"/></filter><linearGradient id="linearGradient7851" x1="22.228" x2="132.906" y1="72.667" y2="72.667" gradientTransform="translate(23.762641,919.08615)" gradientUnits="userSpaceOnUse" xlink:href="#linearGradient5580-6"/><linearGradient id="linearGradient7874" x1="22.228" x2="132.906" y1="72.667" y2="72.667" gradientTransform="translate(-2.3959502e-7,852.36218)" gradientUnits="userSpaceOnUse" xlink:href="#linearGradient5580"/><linearGradient id="linearGradient7814-4" x1="22.228" x2="132.906" y1="72.667" y2="72.667" gradientUnits="userSpaceOnUse" xlink:href="#linearGradient5580-5"/><linearGradient id="linearGradient5580-5"><stop style="stop-color:#2c3d5d;stop-opacity:1" id="stop5582-8" offset="0"/><stop style="stop-color:#000;stop-opacity:0" id="stop5584-5" offset="1"/></linearGradient><filter id="filter7820-1" width="1.128" height="1.255" x="-.064" y="-.127" color-interpolation-filters="sRGB"><feGaussianBlur id="feGaussianBlur7822-9" stdDeviation="2.57"/></filter><linearGradient id="linearGradient7893" x1="22.228" x2="132.906" y1="72.667" y2="72.667" gradientTransform="translate(23.762651,919.08615)" gradientUnits="userSpaceOnUse" xlink:href="#linearGradient5580-5"/><linearGradient id="linearGradient7942" x1="57.347" x2="99.037" y1="28.875" y2="28.875" gradientUnits="userSpaceOnUse" xlink:href="#linearGradient7936"/><filter id="filter7948" width="1.213" height="1.236" x="-.107" y="-.118"><feGaussianBlur id="feGaussianBlur7950" stdDeviation="1.809"/></filter><linearGradient id="linearGradient7960" x1="46.977" x2="52.523" y1="48.73" y2="14.89" gradientUnits="userSpaceOnUse" xlink:href="#linearGradient7962"/><filter id="filter7974" width="1.18" height="1.336" x="-.09" y="-.168"><feGaussianBlur id="feGaussianBlur7976" stdDeviation="2.333"/></filter><linearGradient id="linearGradient7986" x1="97.985" x2="70.206" y1="69.438" y2="25.496" gradientUnits="userSpaceOnUse" xlink:href="#linearGradient7980"/><linearGradient id="linearGradient7996" x1="124.249" x2="183.398" y1="43.912" y2="43.912" gradientUnits="userSpaceOnUse" xlink:href="#linearGradient7962"/><filter id="filter8000" width="1.609" height="1.776" x="-.305" y="-.388"><feGaussianBlur id="feGaussianBlur8002" stdDeviation="7.508"/></filter><linearGradient id="linearGradient7986-2" x1="97.985" x2="70.206" y1="69.438" y2="25.496" gradientUnits="userSpaceOnUse" xlink:href="#linearGradient7980-9"/><linearGradient id="linearGradient7980-9"><stop style="stop-color:#000;stop-opacity:1" id="stop7982-0" offset="0"/><stop style="stop-color:#000;stop-opacity:0" id="stop7984-7" offset="1"/></linearGradient><linearGradient id="linearGradient8019" x1="80.521" x2="69.712" y1="66.938" y2="35.885" gradientTransform="matrix(0.52660319,0.85011121,-0.85011121,0.52660319,150.61549,820.38621)" gradientUnits="userSpaceOnUse" xlink:href="#linearGradient7980-9"/></defs><metadata id="metadata7"/><g id="layer1" transform="translate(0,-852.36218)"><path style="fill:url(#linearGradient7736);fill-opacity:1;stroke:#000;stroke-width:1px;stroke-linecap:butt;stroke-linejoin:miter;stroke-opacity:1;filter:url(#filter7746)" id="path7728" d="m 73.741136,958.92307 c 5.303459,-0.10553 10.401432,1.71113 15.657364,2.0203 1.512614,0.089 3.030458,0 4.545686,0 1.34687,0 2.69374,0 4.04061,0 1.346871,0 2.696364,0.084 4.040614,0 1.35471,-0.0847 2.69374,-0.33672 4.04061,-0.50507 3.60736,-0.45092 4.22492,-0.31837 7.57614,-1.51523 1.20749,-0.43125 2.32805,-1.08399 3.53554,-1.51523 1.15426,-0.41224 2.38127,-0.59792 3.53553,-1.01015 1.20749,-0.43125 2.33882,-1.05496 3.53554,-1.51523 0.99382,-0.38224 2.03663,-0.62792 3.03045,-1.01016 0.42794,-0.16459 5.13172,-2.24662 6.06092,-2.52538 0.82226,-0.24667 1.68359,-0.33671 2.52538,-0.50507 3.18574,-0.63715 1.66692,-0.50508 4.54569,-0.50508 1.47821,0 3.19953,-0.30262 4.54568,0.50508 0.40833,0.24499 0.6292,0.72444 1.01016,1.01015 0.30116,0.22588 0.70898,0.2792 1.01015,0.50508 1.2749,0.95617 1.22234,1.8335 2.0203,3.03045 0.85916,1.28874 0.47983,-0.63132 1.01016,2.02031 0.066,0.33018 0,0.67343 0,1.01015 0,0.67344 0,1.34687 0,2.02031 0,0.16835 -0.0532,0.34535 0,0.50507 0.11904,0.35715 0.50507,0.63369 0.50507,1.01015 0,0.37647 -0.44318,0.63882 -0.50507,1.01016 -0.30963,1.85774 0.45773,1.93084 -0.50508,3.53553 -0.245,0.40833 -0.71268,0.63831 -1.01015,1.01015 -0.83166,1.03957 -1.54101,2.66053 -2.52538,3.53554 -0.9074,0.80657 -1.98179,1.40858 -3.03046,2.0203 -2.06536,1.20479 -3.76685,1.89973 -6.06092,2.52538 -0.82821,0.22588 -1.68359,0.33672 -2.52538,0.50508 -0.84179,0.16836 -1.67044,0.42735 -2.52538,0.50508 -1.006,0.0915 -2.02031,0 -3.03046,0 -1.17851,0 -2.35702,0 -3.53553,0 -12.43664,1.55458 3.00462,-0.64385 -7.07107,1.51523 -1.32722,0.2844 -2.70173,0.28192 -4.04061,0.50507 -2.62913,0.43819 -6.94001,1.42999 -9.59645,2.02031 -5.742172,1.27603 -3.05322,0.58373 -8.081222,2.0203 -1.178512,0.33672 -2.381269,0.59792 -3.535534,1.01015 -1.207485,0.43125 -2.338815,1.05496 -3.535534,1.51523 -0.993821,0.38224 -2.041821,0.6147 -3.030458,1.01016 -1.602028,0.64081 -2.168793,1.10914 -3.535534,2.0203 -0.505076,0.33672 -1.085996,0.58092 -1.515228,1.01015 -0.266199,0.2662 -0.296253,0.69692 -0.505077,1.01016 -0.132071,0.1981 -0.373004,0.30696 -0.505076,0.50507 -0.208823,0.31324 -0.238878,0.74396 -0.505076,1.01015 -0.119048,0.11905 -0.336718,0 -0.505076,0 1.255833,4.23635 -11.718009,1.71984 -19.192899,0 0.05952,-0.17857 0.133587,-0.3528 0.218872,-0.52154 0.08529,-0.16874 0.181793,-0.33199 0.286205,-0.48861 0.39621,-0.59432 1.086657,-0.9438 1.515228,-1.51523 0.225877,-0.30117 0.296253,-0.69691 0.505077,-1.01015 0.132071,-0.19811 0.373004,-0.30697 0.505076,-0.50508 0.208823,-0.31323 0.296253,-0.69691 0.505076,-1.01015 0.132072,-0.19811 0.373005,-0.30697 0.505076,-0.50507 0.956831,0.0575 0.336718,-1.17852 0.505077,-1.51523 0.212959,-0.42592 0.797193,-0.58424 1.010152,-1.01016 0.07529,-0.15058 -0.119047,-0.38602 0,-0.50507 0.119048,-0.11905 0.386029,0.11905 0.505077,0 0.119047,-0.11905 -0.07529,-0.35449 0,-0.50508 0.106479,-0.21296 0.398596,-0.29212 0.505076,-0.50507 0.07529,-0.15059 -0.07529,-0.3545 0,-0.50508 0.106479,-0.21296 0.398597,-0.29212 0.505076,-0.50508 0.07529,-0.15058 -0.119048,-0.38603 0,-0.50507 0.119048,-0.11905 0.386029,0.11904 0.505076,0 0.119048,-0.11905 -0.07529,-0.35449 0,-0.50508 0.10648,-0.21296 0.398597,-0.29212 0.505077,-0.50508 0.07529,-0.15058 0,-0.33671 0,-0.50507 0,-0.33672 -0.10648,-0.69072 0,-1.01015 0.07529,-0.22588 0.429784,-0.2792 0.505076,-0.50508 0.106479,-0.31944 -0.06604,-0.67997 0,-1.01015 0.104412,-0.52206 0.336717,-1.01016 0.505076,-1.51523 0.168359,-0.50508 0.336718,-1.01015 0.505076,-1.51523 0.336718,-1.01015 0.614698,-2.04182 1.010153,-3.03046 0.139814,-0.34953 0.386029,-0.65301 0.505076,-1.01015 0.10648,-0.31944 -0.150584,-0.70898 0,-1.01015 0.10648,-0.21296 0.429784,-0.2792 0.505076,-0.50508 0.114535,-0.3436 -0.133905,-2.25757 0,-2.52538 0.10648,-0.21296 0.398597,-0.29212 0.505077,-0.50508 0.100129,-0.20026 -0.103256,-1.41197 0,-1.51523 0.119047,-0.11904 0.386028,0.11905 0.505076,0 0.119048,-0.11904 -0.119048,-0.38603 0,-0.50507 0.119048,-0.11905 0.386029,0.11904 0.505076,0 0.119048,-0.11905 -0.119047,-0.38603 0,-0.50508 0.119048,-0.11905 0.386029,0.11905 0.505077,0 0.119047,-0.11905 -0.119048,-0.38603 0,-0.50508 0.119047,-0.11904 0.386028,0.11905 0.505076,0 0.119047,-0.11904 0.02768,-0.339 0,-0.50507 -0.141131,-0.84679 -0.336717,-1.68359 -0.505076,-2.52538 z" transform="matrix(0.44330878,-0.89636897,0.89636897,0.44330878,-825.16208,625.56762)"/><path id="path7824-4" d="m 52.011026,969.1789 c 7.578924,-14.16368 12.509536,-38.75838 21.80246,-57.17555 8.319921,-16.48883 56.878194,2.19688 68.137004,4.04214 18.45599,3.02484 19.2087,33.49276 30.57069,49.1334 21.2152,29.20433 -31.07577,42.79051 -50.26867,38.24481 -19.1929,-4.54568 -24.748732,16.6675 -60.609149,8.0812 -3.473245,-0.8316 -16.384457,-29.70747 -9.632335,-42.326 z" transform="matrix(0.04440201,-0.99901374,-0.99901374,-0.04440201,1057.8372,1117.0659)" style="fill:url(#linearGradient7851);fill-opacity:1;stroke:#000;stroke-width:1px;stroke-linecap:butt;stroke-linejoin:miter;stroke-opacity:.23671498;filter:url(#filter7830-0)"/><path style="fill:url(#linearGradient7893);fill-opacity:1;stroke:#000;stroke-width:1px;stroke-linecap:butt;stroke-linejoin:miter;stroke-opacity:1;filter:url(#filter7820-1)" id="path7806-9" d="m 51.505959,968.16874 c 7.572545,-14.14431 12.037333,-37.54733 21.986221,-56.72733 8.489865,-16.36722 57.11418,2.66364 68.45832,4.60408 18.43448,3.15326 19.75638,33.1092 30.57068,49.1334 19.67856,29.15891 -31.07576,42.79051 -50.26866,38.24481 -19.1929,-4.54568 -25.253818,16.1624 -60.609149,8.0812 -3.481627,-0.7958 -17.052588,-30.41971 -10.137412,-43.33616 z" transform="matrix(0.04440201,-0.99901374,-0.99901374,-0.04440201,1057.8372,1117.0659)"/></g></svg>