<svg xmlns="http://www.w3.org/2000/svg" xmlns:svg="http://www.w3.org/2000/svg" xmlns:xlink="http://www.w3.org/1999/xlink" id="svg2" width="210mm" height="297mm" version="1.1"><defs id="defs4"><linearGradient id="linearGradient4037"><stop style="stop-color:#fff;stop-opacity:1" id="stop4039" offset="0"/><stop id="stop4045" offset=".5" style="stop-color:#fff;stop-opacity:.23884514"/><stop style="stop-color:#fff;stop-opacity:0" id="stop4041" offset="1"/></linearGradient><linearGradient id="linearGradient3775"><stop style="stop-color:#333;stop-opacity:1" id="stop3777" offset="0"/><stop style="stop-color:#979797;stop-opacity:1" id="stop3779" offset="1"/></linearGradient><linearGradient id="linearGradient3985" x1="0" x2="0" y1="1052.362" y2="-7.638" gradientTransform="matrix(1.027027,0,0,1,-156.57364,-31.314729)" gradientUnits="userSpaceOnUse" xlink:href="#linearGradient3775"/><radialGradient id="radialGradient4110" cx="410" cy="77.362" r="10" fx="410" fy="77.362" gradientTransform="translate(-1.7531593,1.1328729)" gradientUnits="userSpaceOnUse" xlink:href="#linearGradient4037"/><filter id="filter4156"><feGaussianBlur id="feGaussianBlur4158" stdDeviation="11.834"/></filter><radialGradient id="radialGradient4236" cx="410" cy="77.362" r="10" fx="410" fy="77.362" gradientTransform="translate(-165.64094,33.454302)" gradientUnits="userSpaceOnUse" xlink:href="#linearGradient4037"/></defs><metadata id="metadata7"/><g id="layer1"><path id="path4118" d="m 341.4375,79.5 0,31.4375 -98.59375,0 0,32.84375 8.59375,0 0,315.71875 -37.15625,0 0,545.7188 247.15625,0 0,-1.4376 65.71875,0 0,-352.8437 -65.71875,0 0,-191.4375 -32.875,0 0,-315.71875 8.59375,0 0,-32.84375 -31.4375,0 0,-31.4375 -64.28125,0 z" transform="translate(2,0)" style="opacity:.55322583000000003;fill:#1c1c1c;fill-opacity:1;fill-rule:nonzero;stroke:none;filter:url(#filter4156)"/><path style="fill:#2a2a2a;fill-opacity:1;fill-rule:nonzero;stroke:#222;stroke-opacity:1" id="path4116" d="m 341.4375,79.5 0,31.4375 -98.59375,0 0,32.84375 8.59375,0 0,315.71875 -37.15625,0 0,545.7188 247.15625,0 0,-1.4376 65.71875,0 0,-352.8437 -65.71875,0 0,-191.4375 -32.875,0 0,-315.71875 8.59375,0 0,-32.84375 -31.4375,0 0,-31.4375 -64.28125,0 z" transform="translate(2,0)"/><path style="fill:#b6b6b6;fill-opacity:1;fill-rule:nonzero;stroke:none" id="path4230" d="m 265,147.375 0,20 30,0 0,-20 -30,0 z"/><path style="fill:#cdcdcd;fill-opacity:1;fill-rule:nonzero;stroke:none" id="path4228" d="m 305,147.375 0,20 30,0 0,-20 -30,0 z"/><path style="fill:#323232;fill-opacity:1;fill-rule:nonzero;stroke:none" id="path4226" d="m 345,147.375 0,20 30,0 0,-20 -30,0 z"/><path style="fill:#505050;fill-opacity:1;fill-rule:nonzero;stroke:none" id="path4224" d="m 385,147.375 0,20 30,0 0,-20 -30,0 z"/><path style="fill:#505050;fill-opacity:1;fill-rule:nonzero;stroke:none" id="path4222" d="m 265,187.375 0,20 30,0 0,-20 -30,0 z"/><path style="fill:#b6b6b6;fill-opacity:1;fill-rule:nonzero;stroke:none" id="path4220" d="m 305,187.375 0,20 30,0 0,-20 -30,0 z"/><path style="fill:#b6b6b6;fill-opacity:1;fill-rule:nonzero;stroke:none" id="path4218" d="m 345,187.375 0,20 30,0 0,-20 -30,0 z"/><path style="fill:#323232;fill-opacity:1;fill-rule:nonzero;stroke:none" id="path4216" d="m 385,187.375 0,20 30,0 0,-20 -30,0 z"/><path style="fill:#b6b6b6;fill-opacity:1;fill-rule:nonzero;stroke:none" id="path4214" d="m 265,227.375 0,20 30,0 0,-20 -30,0 z"/><path style="fill:#505050;fill-opacity:1;fill-rule:nonzero;stroke:none" id="path4212" d="m 305,227.375 0,20 30,0 0,-20 -30,0 z"/><path style="fill:#b6b6b6;fill-opacity:1;fill-rule:nonzero;stroke:none" id="path4210" d="m 345,227.375 0,20 30,0 0,-20 -30,0 z"/><path style="fill:#878787;fill-opacity:1;fill-rule:nonzero;stroke:none" id="path4208" d="m 385,227.375 0,20 30,0 0,-20 -30,0 z"/><path style="fill:#323232;fill-opacity:1;fill-rule:nonzero;stroke:none" id="path4206" d="m 265,267.375 0,20 30,0 0,-20 -30,0 z"/><path style="fill:#505050;fill-opacity:1;fill-rule:nonzero;stroke:none" id="path4204" d="m 305,267.375 0,20 30,0 0,-20 -30,0 z"/><path style="fill:#b6b6b6;fill-opacity:1;fill-rule:nonzero;stroke:none" id="path4202" d="m 345,267.375 0,20 30,0 0,-20 -30,0 z"/><path style="fill:#b6b6b6;fill-opacity:1;fill-rule:nonzero;stroke:none" id="path4200" d="m 385,267.375 0,20 30,0 0,-20 -30,0 z"/><path style="fill:#b6b6b6;fill-opacity:1;fill-rule:nonzero;stroke:none" id="path4198" d="m 265,307.375 0,20 30,0 0,-20 -30,0 z"/><path style="fill:#cdcdcd;fill-opacity:1;fill-rule:nonzero;stroke:none" id="path4196" d="m 305,307.375 0,20 30,0 0,-20 -30,0 z"/><path style="fill:#b6b6b6;fill-opacity:1;fill-rule:nonzero;stroke:none" id="path4194" d="m 345,307.375 0,20 30,0 0,-20 -30,0 z"/><path style="fill:#505050;fill-opacity:1;fill-rule:nonzero;stroke:none" id="path4192" d="m 385,307.375 0,20 30,0 0,-20 -30,0 z"/><path style="fill:#505050;fill-opacity:1;fill-rule:nonzero;stroke:none" id="path4190" d="m 265,347.375 0,20 30,0 0,-20 -30,0 z"/><path style="fill:#b6b6b6;fill-opacity:1;fill-rule:nonzero;stroke:none" id="path4188" d="m 305,347.375 0,20 30,0 0,-20 -30,0 z"/><path style="fill:#505050;fill-opacity:1;fill-rule:nonzero;stroke:none" id="path4186" d="m 345,347.375 0,20 30,0 0,-20 -30,0 z"/><path style="fill:#b6b6b6;fill-opacity:1;fill-rule:nonzero;stroke:none" id="path4184" d="m 385,347.375 0,20 30,0 0,-20 -30,0 z"/><path style="fill:#b6b6b6;fill-opacity:1;fill-rule:nonzero;stroke:none" id="path4182" d="m 265,387.375 0,20 30,0 0,-20 -30,0 z"/><path style="fill:#cdcdcd;fill-opacity:1;fill-rule:nonzero;stroke:none" id="path4180" d="m 305,387.375 0,20 30,0 0,-20 -30,0 z"/><path style="fill:#505050;fill-opacity:1;fill-rule:nonzero;stroke:none" id="path4178" d="m 345,387.375 0,20 30,0 0,-20 -30,0 z"/><path style="fill:#323232;fill-opacity:1;fill-rule:nonzero;stroke:none" id="path4176" d="m 385,387.375 0,20 30,0 0,-20 -30,0 z"/><path style="fill:#b6b6b6;fill-opacity:1;fill-rule:nonzero;stroke:none" id="path4174" d="m 265,427.34375 0,20 30,0 0,-20 -30,0 z"/><path style="fill:#b6b6b6;fill-opacity:1;fill-rule:nonzero;stroke:none" id="path4172" d="m 305,427.34375 0,20 30,0 0,-20 -30,0 z"/><path style="fill:#b6b6b6;fill-opacity:1;fill-rule:nonzero;stroke:none" id="path4170" d="m 345,427.34375 0,20 30,0 0,-20 -30,0 z"/><path style="fill:#505050;fill-opacity:1;fill-rule:nonzero;stroke:none" id="rect3981" d="m 385,427.34375 0,20 30,0 0,-20 -30,0 z"/></g></svg>