<svg xmlns="http://www.w3.org/2000/svg" xmlns:svg="http://www.w3.org/2000/svg" xmlns:xlink="http://www.w3.org/1999/xlink" id="svg2" width="200" height="200" version="1.1"><defs id="defs4"><linearGradient id="linearGradient3979"><stop style="stop-color:#fff;stop-opacity:1" id="stop3981" offset="0"/><stop style="stop-color:#fff;stop-opacity:0" id="stop3983" offset="1"/></linearGradient><linearGradient id="linearGradient3819"><stop style="stop-color:#fffe9d;stop-opacity:1" id="stop3821" offset="0"/><stop style="stop-color:#ffee02;stop-opacity:1" id="stop3823" offset="1"/></linearGradient><linearGradient id="linearGradient3809"><stop style="stop-color:#fff;stop-opacity:1" id="stop3811" offset="0"/><stop style="stop-color:#fff;stop-opacity:0" id="stop3813" offset="1"/></linearGradient><linearGradient id="linearGradient3765"><stop style="stop-color:#181818;stop-opacity:1" id="stop3767" offset="0"/><stop style="stop-color:#676767;stop-opacity:1" id="stop3769" offset="1"/></linearGradient><linearGradient id="linearGradient3771" x1="100" x2="100" y1="150" y2="25" gradientTransform="matrix(-1,0,0,1,200,852.36218)" gradientUnits="userSpaceOnUse" xlink:href="#linearGradient3765"/><linearGradient id="linearGradient3771-0" x1="100" x2="100" y1="150" y2="25" gradientUnits="userSpaceOnUse" xlink:href="#linearGradient3765-6"/><linearGradient id="linearGradient3765-6"><stop style="stop-color:#3c424a;stop-opacity:1" id="stop3767-4" offset="0"/><stop style="stop-color:#bdcae3;stop-opacity:1" id="stop3769-6" offset="1"/></linearGradient><linearGradient id="linearGradient3788" x1="100" x2="100" y1="105" y2="55" gradientTransform="matrix(-1,0,0,1,200,852.36216)" gradientUnits="userSpaceOnUse" xlink:href="#linearGradient3765-6"/><linearGradient id="linearGradient3815" x1="65" x2="90" y1="60" y2="65" gradientTransform="matrix(-1,0,0,1,200,852.36218)" gradientUnits="userSpaceOnUse" xlink:href="#linearGradient3809"/><radialGradient id="radialGradient3827" cx="52.5" cy="976.301" r="14.12" fx="52.5" fy="976.301" gradientTransform="matrix(1,0,0,0.82373961,0,172.08315)" gradientUnits="userSpaceOnUse" xlink:href="#linearGradient3819"/><filter id="filter3893"><feGaussianBlur id="feGaussianBlur3895" stdDeviation=".495"/></filter><radialGradient id="radialGradient3827-1" cx="52.5" cy="976.301" r="14.12" fx="52.5" fy="976.301" gradientTransform="matrix(1,0,0,0.82373961,0,172.08315)" gradientUnits="userSpaceOnUse" xlink:href="#linearGradient3819-9"/><linearGradient id="linearGradient3819-9"><stop style="stop-color:#fffe9d;stop-opacity:1" id="stop3821-0" offset="0"/><stop style="stop-color:#ffee02;stop-opacity:1" id="stop3823-9" offset="1"/></linearGradient><filter id="filter3893-8" color-interpolation-filters="sRGB"><feGaussianBlur id="feGaussianBlur3895-8" stdDeviation=".495"/></filter><radialGradient id="radialGradient3914" cx="52.5" cy="976.301" r="14.12" fx="52.5" fy="976.301" gradientTransform="matrix(1,0,0,0.82373961,48,174.08315)" gradientUnits="userSpaceOnUse" xlink:href="#linearGradient3819-9"/><radialGradient id="radialGradient3914-0" cx="52.5" cy="976.301" r="14.12" fx="52.5" fy="976.301" gradientTransform="matrix(1,0,0,0.82373961,48,172.08315)" gradientUnits="userSpaceOnUse" xlink:href="#linearGradient3819-9-9"/><linearGradient id="linearGradient3819-9-9"><stop style="stop-color:#fffe9d;stop-opacity:1" id="stop3821-0-7" offset="0"/><stop style="stop-color:#ffee02;stop-opacity:1" id="stop3823-9-9" offset="1"/></linearGradient><filter id="filter3893-8-9" color-interpolation-filters="sRGB"><feGaussianBlur id="feGaussianBlur3895-8-3" stdDeviation=".495"/></filter><radialGradient id="radialGradient3954" cx="52.5" cy="976.301" r="14.12" fx="52.5" fy="976.301" gradientTransform="matrix(1,0,0,0.82373961,95,172.08315)" gradientUnits="userSpaceOnUse" xlink:href="#linearGradient3819-9-9"/><linearGradient id="linearGradient3985" x1="22.996" x2="58.395" y1="115.545" y2="124.944" gradientTransform="matrix(-1,0,0,1,200,852.36218)" gradientUnits="userSpaceOnUse" xlink:href="#linearGradient3979"/><linearGradient id="linearGradient3985-3" x1="22.996" x2="58.395" y1="115.545" y2="124.944" gradientUnits="userSpaceOnUse" xlink:href="#linearGradient3979-8"/><linearGradient id="linearGradient3979-8"><stop style="stop-color:#000;stop-opacity:1" id="stop3981-5" offset="0"/><stop style="stop-color:#000;stop-opacity:0" id="stop3983-2" offset="1"/></linearGradient><linearGradient id="linearGradient4002" x1="22.996" x2="58.395" y1="115.545" y2="124.944" gradientTransform="translate(-0.46992,852.30949)" gradientUnits="userSpaceOnUse" xlink:href="#linearGradient3979-8"/><filter id="filter9042" width="1.51" height="1.559" x="-.255" y="-.28"><feGaussianBlur id="feGaussianBlur9044" stdDeviation="13.364"/></filter><radialGradient id="radialGradient8987" cx="225" cy="895.487" r="35.5" fx="225" fy="895.487" gradientTransform="matrix(1.7985739,0,0,1.6402488,-304.67912,-516.45946)" gradientUnits="userSpaceOnUse" xlink:href="#linearGradient6285-7"/><linearGradient id="linearGradient6285-7"><stop id="stop6287-4" offset="0" style="stop-color:#e40021;stop-opacity:1"/><stop id="stop6289-9" offset="1" style="stop-color:#7f001b;stop-opacity:1"/></linearGradient><radialGradient id="radialGradient6350-8" cx="225" cy="895.487" r="35.5" fx="225" fy="895.487" gradientTransform="matrix(1.7985739,0,0,1.6402488,-304.67913,-511.35543)" gradientUnits="userSpaceOnUse" xlink:href="#linearGradient6285-7"/><filter id="filter8955"><feGaussianBlur id="feGaussianBlur8957" stdDeviation=".18"/></filter><radialGradient id="radialGradient6350" cx="225" cy="895.487" r="35.5" fx="225" fy="895.487" gradientTransform="matrix(1.7985739,0,0,1.6402488,-304.67913,-516.45947)" gradientUnits="userSpaceOnUse" xlink:href="#linearGradient6285"/><linearGradient id="linearGradient6285"><stop id="stop6287" offset="0" style="stop-color:#e40021;stop-opacity:1"/><stop id="stop6289" offset="1" style="stop-color:#7f001b;stop-opacity:1"/></linearGradient><radialGradient id="radialGradient6291" cx="225" cy="895.487" r="35.5" fx="225" fy="895.487" gradientTransform="matrix(1,0,0,0.91197183,0,78.828097)" gradientUnits="userSpaceOnUse" xlink:href="#linearGradient6285"/><filter id="filter7036" width="1.606" height="1.666" x="-.303" y="-.333"><feGaussianBlur id="feGaussianBlur7038" stdDeviation="15.904"/></filter><linearGradient id="linearGradient3771-3" x1="100" x2="100" y1="150" y2="25" gradientTransform="matrix(-1,0,0,1,200,852.36218)" gradientUnits="userSpaceOnUse" xlink:href="#linearGradient3765-7"/><linearGradient id="linearGradient3765-7"><stop style="stop-color:#181818;stop-opacity:1" id="stop3767-41" offset="0"/><stop style="stop-color:#676767;stop-opacity:1" id="stop3769-1" offset="1"/></linearGradient><linearGradient id="linearGradient3788-3" x1="100" x2="100" y1="105" y2="55" gradientTransform="matrix(-1,0,0,1,199.62406,852.36216)" gradientUnits="userSpaceOnUse" xlink:href="#linearGradient3765-6-0"/><linearGradient id="linearGradient3765-6-0"><stop style="stop-color:#3c424a;stop-opacity:1" id="stop3767-4-3" offset="0"/><stop style="stop-color:#bdcae3;stop-opacity:1" id="stop3769-6-2" offset="1"/></linearGradient><linearGradient id="linearGradient7060" x1="100" x2="100" y1="150" y2="25" gradientTransform="matrix(-1,0,0,1,199.62406,852.36218)" gradientUnits="userSpaceOnUse" xlink:href="#linearGradient3765-7"/><filter id="filter7089" width="1.347" height="1.52" x="-.173" y="-.26"><feGaussianBlur id="feGaussianBlur7091" stdDeviation="10.833"/></filter><filter id="filter7093" width="1.52" height="1.904" x="-.26" y="-.452"><feGaussianBlur id="feGaussianBlur7095" stdDeviation="10.833"/></filter><radialGradient id="radialGradient3954-9" cx="52.5" cy="976.301" r="14.12" fx="52.5" fy="976.301" gradientTransform="matrix(1,0,0,0.82373961,95,172.08315)" gradientUnits="userSpaceOnUse" xlink:href="#linearGradient3819-9-9-8"/><linearGradient id="linearGradient3819-9-9-8"><stop style="stop-color:#fffe9d;stop-opacity:1" id="stop3821-0-7-8" offset="0"/><stop style="stop-color:#ffee02;stop-opacity:1" id="stop3823-9-9-0" offset="1"/></linearGradient><filter id="filter3893-8-9-3" color-interpolation-filters="sRGB"><feGaussianBlur id="feGaussianBlur3895-8-3-7" stdDeviation=".495"/></filter><radialGradient id="radialGradient7174" cx="52.5" cy="976.301" r="14.12" fx="52.5" fy="976.301" gradientTransform="matrix(1,0,0,0.82373961,95,172.08315)" gradientUnits="userSpaceOnUse" xlink:href="#linearGradient3819-9-9-8"/><filter id="filter7393" width="1.737" height="1.901" x="-.368" y="-.451"><feGaussianBlur id="feGaussianBlur7395" stdDeviation="4.18"/></filter><radialGradient id="radialGradient3914-06" cx="52.5" cy="976.301" r="14.12" fx="52.5" fy="976.301" gradientTransform="matrix(1,0,0,0.82373961,48,174.08315)" gradientUnits="userSpaceOnUse" xlink:href="#linearGradient3819-9-8"/><linearGradient id="linearGradient3819-9-8"><stop style="stop-color:#fffe9d;stop-opacity:1" id="stop3821-0-74" offset="0"/><stop style="stop-color:#ffee02;stop-opacity:1" id="stop3823-9-92" offset="1"/></linearGradient><filter id="filter7393-4" width="1.737" height="1.901" x="-.368" y="-.451" color-interpolation-filters="sRGB"><feGaussianBlur id="feGaussianBlur7395-4" stdDeviation="4.18"/></filter><radialGradient id="radialGradient7414" cx="52.5" cy="976.301" r="14.12" fx="52.5" fy="976.301" gradientTransform="matrix(1,0,0,0.82373961,48,174.08315)" gradientUnits="userSpaceOnUse" xlink:href="#linearGradient3819-9-8"/><radialGradient id="radialGradient7414-9" cx="52.5" cy="976.301" r="14.12" fx="52.5" fy="976.301" gradientTransform="matrix(1,0,0,0.82373961,48,174.08315)" gradientUnits="userSpaceOnUse" xlink:href="#linearGradient3819-9-8-1"/><linearGradient id="linearGradient3819-9-8-1"><stop style="stop-color:#fffe9d;stop-opacity:1" id="stop3821-0-74-2" offset="0"/><stop style="stop-color:#ffee02;stop-opacity:1" id="stop3823-9-92-8" offset="1"/></linearGradient><filter id="filter7393-4-9" width="1.737" height="1.901" x="-.368" y="-.451" color-interpolation-filters="sRGB"><feGaussianBlur id="feGaussianBlur7395-4-6" stdDeviation="4.18"/></filter><radialGradient id="radialGradient7454" cx="52.5" cy="976.301" r="14.12" fx="52.5" fy="976.301" gradientTransform="matrix(1,0,0,0.82373961,48,174.08315)" gradientUnits="userSpaceOnUse" xlink:href="#linearGradient3819-9-8-1"/><radialGradient id="radialGradient7500" cx="52.5" cy="976.301" r="14.12" fx="52.5" fy="976.301" gradientTransform="matrix(1,0,0,0.82373961,48,174.08315)" gradientUnits="userSpaceOnUse" xlink:href="#linearGradient3819-9"/></defs><metadata id="metadata7"/><g id="layer1" transform="translate(0,-852.36218)"><g id="g7153"><path id="path3761-1" d="m 174.62406,977.36214 c 0,25.00006 -50,25.00006 -50,25.00006 l -50,0 c 0,0 -50,0 -50,-25.00006 0,0 0,-24.99996 25,-24.99996 25,0 0,-50 50.000004,-50 49.999996,0 24.999996,50 49.999996,50 25,0 25,24.99996 25,24.99996 z" style="fill:url(#linearGradient7060);fill-opacity:1;stroke:#000;stroke-width:1px;stroke-linecap:butt;stroke-linejoin:miter;stroke-opacity:1;filter:url(#filter7089)"/><path id="path3761-2-7" d="m 49.62406,952.36216 c 25,0 0,-50 50.000004,-50 49.999996,0 24.999996,50 49.999996,50 -30,9.99998 -70,9.99998 -100,0 z" style="fill:url(#linearGradient3788-3);fill-opacity:1;stroke:#000;stroke-width:1px;stroke-linecap:butt;stroke-linejoin:miter;stroke-opacity:.45893721999999998;filter:url(#filter7093)"/></g><path style="fill:url(#linearGradient3771);fill-opacity:1;stroke:#000;stroke-width:1px;stroke-linecap:butt;stroke-linejoin:miter;stroke-opacity:1" id="path3761" d="m 175,977.36218 c 0,25.00002 -50,25.00002 -50,25.00002 l -50,0 c 0,0 -50,0 -50,-25.00002 0,0 0,-25 25,-25 25,0 0,-50 50,-50 50,0 25,50 50,50 25,0 25,25 25,25 z"/><path style="fill:url(#linearGradient3788);fill-opacity:1;stroke:#000;stroke-width:1px;stroke-linecap:butt;stroke-linejoin:miter;stroke-opacity:.45893722" id="path3761-2" d="m 50,952.36216 c 25,0 0,-50 50,-50 50,0 25,50 50,50 -30,10.00002 -70,10.00002 -100,0 z"/><path style="opacity:.60180999;fill:url(#linearGradient3815);fill-opacity:1;stroke:none" id="path3807" d="m 150,952.36218 c -25,5 -25,5 -25,5 -10,-5 10,-50 -25,-55 46.0356,-2.72322 26.00258,49.68785 50,50 z"/><path style="opacity:.24886878;fill:url(#linearGradient3985);fill-opacity:1;stroke:none" id="path3977" d="m 135.33835,956.49752 0.37594,44.99998 c 23.58865,-0.872 37.54795,-11.41489 39.28571,-24.13532 -1.76008,-14.46837 -10.50597,-32.04071 -39.66165,-20.86466 z"/><path style="fill:url(#radialGradient3827);fill-opacity:1;stroke:#000;stroke-width:1px;stroke-linecap:butt;stroke-linejoin:miter;stroke-opacity:1;filter:url(#filter3893)" id="path3817" d="m 40,982.36218 c 4.872586,6.7603 20.127414,6.7603 25,0 3.081694,-4.2756 -0.724378,-11.9183 -5,-15 -4.056211,-2.9236 -10.943789,-2.9236 -15,0 -4.275622,3.0817 -8.081694,10.7244 -5,15 z" transform="matrix(-0.96592583,0.25881905,0.25881905,0.96592583,-54.47417,19.678648)"/><path style="fill:url(#radialGradient3914);fill-opacity:1;stroke:#000;stroke-width:1px;stroke-linecap:butt;stroke-linejoin:miter;stroke-opacity:1;filter:url(#filter3893-8)" id="path3817-5" d="m 88,984.36218 c 4.872586,6.7603 20.12741,6.7603 25,0 3.08169,-4.2756 -0.72438,-11.9183 -5,-15 -4.05621,-2.9236 -10.943789,-2.9236 -15,0 -4.275622,3.0817 -8.081694,10.7244 -5,15 z" transform="matrix(-1,0,0,1,200,0)"/><path style="opacity:.59276021;fill:url(#linearGradient4002);fill-opacity:1;stroke:none" id="path3977-2" d="m 64.19173,956.44484 -0.37594,44.99996 c -23.58865,-0.872 -37.54795,-11.41487 -39.28571,-24.1353 1.76008,-14.46837 10.50597,-32.04071 39.66165,-20.86466 z"/><path style="fill:url(#radialGradient3954);fill-opacity:1;stroke:#000;stroke-width:1px;stroke-linecap:butt;stroke-linejoin:miter;stroke-opacity:1;filter:url(#filter3893-8-9)" id="path3817-5-2" d="m 135,982.36218 c 4.87259,6.7603 20.12741,6.7603 25,0 3.08169,-4.2756 -0.72438,-11.9183 -5,-15 -4.05621,-2.9236 -10.94379,-2.9236 -15,0 -4.27562,3.0817 -8.08169,10.7244 -5,15 z" transform="matrix(-0.96592583,-0.25881905,-0.25881905,0.96592583,447.65934,71.442457)"/><path style="fill:url(#radialGradient7174);fill-opacity:1;stroke:#000;stroke-width:1px;stroke-linecap:butt;stroke-linejoin:miter;stroke-opacity:1;filter:url(#filter3893-8-9-3)" id="path3817-5-2-0" d="m 135,982.36218 c 4.87259,6.7603 20.12741,6.7603 25,0 3.08169,-4.2756 -0.72438,-11.9183 -5,-15 -4.05621,-2.9236 -10.94379,-2.9236 -15,0 -4.27562,3.0817 -8.08169,10.7244 -5,15 z" transform="matrix(-0.96592583,-0.25881905,-0.25881905,0.96592583,447.97043,71.449075)"/><path id="path7321" d="m 88,984.36218 c 4.872586,6.7603 20.12741,6.7603 25,0 3.08169,-4.2756 -0.72438,-11.9183 -5,-15 -4.05621,-2.9236 -10.943789,-2.9236 -15,0 -4.275622,3.0817 -8.081694,10.7244 -5,15 z" transform="matrix(-1,0,0,1,200,0)" style="fill:url(#radialGradient3914);fill-opacity:1;stroke:none;stroke-width:1px;stroke-linecap:butt;stroke-linejoin:miter;stroke-opacity:1;opacity:.70135747;filter:url(#filter7393)"/><path id="path7321-5" d="m 88,984.36218 c 4.872586,6.7603 20.12741,6.7603 25,0 3.08169,-4.2756 -0.72438,-11.9183 -5,-15 -4.05621,-2.9236 -10.943789,-2.9236 -15,0 -4.275622,3.0817 -8.081694,10.7244 -5,15 z" transform="matrix(-0.96592583,0.25881905,0.25881905,0.96592583,-8.7589486,5.0689302)" style="opacity:.70135749;fill:url(#radialGradient7414);fill-opacity:1;stroke:none;filter:url(#filter7393-4)"/><path style="opacity:.70135747;fill:url(#radialGradient7500);fill-opacity:1;stroke:none;filter:url(#filter7393)" id="path7498" d="m 88,984.36218 c 4.872586,6.7603 20.12741,6.7603 25,0 3.08169,-4.2756 -0.72438,-11.9183 -5,-15 -4.05621,-2.9236 -10.943789,-2.9236 -15,0 -4.275622,3.0817 -8.081694,10.7244 -5,15 z" transform="matrix(-0.96592583,-0.25881905,-0.25881905,0.96592583,403.91379,58.21829)"/></g></svg>