<svg xmlns="http://www.w3.org/2000/svg" xmlns:svg="http://www.w3.org/2000/svg" xmlns:xlink="http://www.w3.org/1999/xlink" id="svg2" width="200" height="200" version="1.1"><defs id="defs4"><linearGradient id="linearGradient3835"><stop style="stop-color:#000;stop-opacity:1" id="stop3837" offset="0"/><stop style="stop-color:#000;stop-opacity:0" id="stop3839" offset="1"/></linearGradient><linearGradient id="linearGradient3825"><stop id="stop3827" offset="0" style="stop-color:#232323;stop-opacity:1"/><stop id="stop3829" offset="1" style="stop-color:#2f2f2f;stop-opacity:1"/></linearGradient><linearGradient id="linearGradient3765"><stop style="stop-color:#232323;stop-opacity:1" id="stop3767" offset="0"/><stop style="stop-color:#53360b;stop-opacity:1" id="stop3769" offset="1"/></linearGradient><linearGradient id="linearGradient3771" x1="100" x2="100" y1="175" y2="15" gradientUnits="userSpaceOnUse" xlink:href="#linearGradient3765"/><linearGradient id="linearGradient3771-5" x1="100" x2="100" y1="175" y2="15" gradientUnits="userSpaceOnUse" xlink:href="#linearGradient3765-5"/><linearGradient id="linearGradient3765-5"><stop style="stop-color:#2d2518;stop-opacity:1" id="stop3767-0" offset="0"/><stop style="stop-color:#5e3800;stop-opacity:1" id="stop3769-1" offset="1"/></linearGradient><linearGradient id="linearGradient3788" x1="100" x2="100" y1="175" y2="15" gradientTransform="translate(-145.18519,787.17698)" gradientUnits="userSpaceOnUse" xlink:href="#linearGradient3765-5"/><filter id="filter3817" width="1.413" height="1.276" x="-.207" y="-.138"><feGaussianBlur id="feGaussianBlur3819" stdDeviation="8.611"/></filter><linearGradient id="linearGradient3831" x1="100" x2="100" y1="175" y2="15" gradientUnits="userSpaceOnUse" xlink:href="#linearGradient3825"/><linearGradient id="linearGradient3843" x1="97.037" x2="97.593" y1="43.333" y2="27.778" gradientUnits="userSpaceOnUse" xlink:href="#linearGradient3835"/></defs><metadata id="metadata7"/><g id="layer1" transform="translate(0,-852.36218)"><path id="path3807" d="m 50,175 c 20,-35 21.899132,-50.19305 25,-75 5,-40 0,-70 10,-75 10,0 10,5 15.36867,2.724044 C 105,25 110,25 115,25 c 10,5 5,60 10,100 3.10087,24.80695 10,15 25,50 z" transform="translate(0,852.36218)" style="fill:url(#linearGradient3831);stroke:#2b1f06;stroke-width:1px;stroke-linecap:butt;stroke-linejoin:miter;stroke-opacity:.76328503999999986;fill-opacity:1;filter:url(#filter3817)"/><path style="fill:url(#linearGradient3771);stroke:#2b1f06;stroke-width:1px;stroke-linecap:butt;stroke-linejoin:miter;stroke-opacity:.76328503999999986;fill-opacity:1" id="path2985" d="m 50,175 c 20,-35 21.899132,-50.19305 25,-75 5,-40 0,-70 10,-75 10,0 10,5 15.36867,2.724044 C 105,25 110,25 115,25 c 10,5 5,60 10,100 3.10087,24.80695 10,15 25,50 z" transform="translate(0,852.36218)"/></g></svg>