<svg xmlns="http://www.w3.org/2000/svg" xmlns:svg="http://www.w3.org/2000/svg" id="svg2" width="1024" height="600" version="1.1"><defs id="defs4"><filter id="filter3774" width="1.175" height="1.203" x="-.087" y="-.102" color-interpolation-filters="sRGB"><feGaussianBlur id="feGaussianBlur3776" stdDeviation="100.127"/></filter></defs><metadata id="metadata7"/><g id="layer1" transform="translate(0,-452.36218)"><path style="fill:#000;fill-opacity:1;fill-rule:nonzero;stroke:none;filter:url(#filter3774)" id="rect2987" d="m -1061.9111,-1327.4697 12.1219,4079.5086 3765.4201,-71.0036 210.9043,-4067.133 z M 155.61435,189.57546 C 261.3336,69.442085 580.7886,161.85662 766.6947,164.53082 c 185.9061,2.6742 574.7594,-98.129553 621.3271,14.40466 46.5676,112.53421 46.1575,275.43897 44.1349,399.39084 -2.0226,123.95187 3.399,453.80478 -68.4308,443.47678 -71.8298,-10.328 -497.84291,43.1882 -681.90865,45.8822 -184.06574,2.6941 -378.87568,43.2633 -483.34576,-63.025 C 94.001411,898.37191 158.37776,734.17112 158.12327,604.53082 157.86877,474.89052 49.895093,309.70884 155.61435,189.57546 z" transform="matrix(0.61795299,0,0,0.44545578,44.459364,462.4113)"/></g></svg>