<svg xmlns="http://www.w3.org/2000/svg" xmlns:svg="http://www.w3.org/2000/svg" id="svg2" width="891" height="205.444" version="1.1"><metadata id="metadata7"/><g id="layer1" transform="translate(-80.679993,-699.63995)"><path style="fill:#000;fill-opacity:1;stroke:#000;stroke-width:1px;stroke-linecap:butt;stroke-linejoin:miter;stroke-opacity:1" id="path3052" d="m 101.17999,700.13995 50,0 c 0,0 100,120 130,110 0,0 460,0 590,0 23.63723,2.72713 47.49563,5.4174 60,10 11.52554,9.27688 40,20 40,30 -10,10 -70,30 -90,30 -60,10 -150,0 -190,10 l 0,10 c -30,10 -120,0 -120,0 l 0,-10 c 0,0 -55,0 -120,0 -160,10 -270,-50 -330,-60 l -39.999997,-20 69.999997,0 z"/></g></svg>