<svg xmlns="http://www.w3.org/2000/svg" xmlns:svg="http://www.w3.org/2000/svg" xmlns:xlink="http://www.w3.org/1999/xlink" id="svg4433" width="465.961" height="160.594" version="1.1"><defs id="defs4435"><linearGradient id="linearGradient5034"><stop style="stop-color:#e4e4e4;stop-opacity:1" id="stop5036" offset="0"/><stop style="stop-color:#e4e4e4;stop-opacity:0" id="stop5038" offset="1"/></linearGradient><linearGradient id="linearGradient5013"><stop style="stop-color:#000;stop-opacity:1" id="stop5015" offset="0"/><stop style="stop-color:#565656;stop-opacity:1" id="stop5017" offset="1"/></linearGradient><linearGradient id="linearGradient5019" x1="183.26" x2="183.067" y1="577.513" y2="528.015" gradientUnits="userSpaceOnUse" xlink:href="#linearGradient5013"/><linearGradient id="linearGradient5027" x1="433.451" x2="434.058" y1="527.587" y2="483.14" gradientUnits="userSpaceOnUse" xlink:href="#linearGradient5013"/><radialGradient id="radialGradient5042" cx="511.696" cy="564.636" r="93.438" fx="511.696" fy="564.636" gradientTransform="matrix(1,0,0,0.40288658,0,359.67192)" gradientUnits="userSpaceOnUse" xlink:href="#linearGradient5034"/><linearGradient id="linearGradient5044" x1="433.451" x2="434.058" y1="516.475" y2="483.14" gradientUnits="userSpaceOnUse" xlink:href="#linearGradient5013"/></defs><metadata id="metadata4438"/><g id="layer1" transform="translate(-183.25964,-480.625)"><g id="g5046"><path id="rect4441-4" d="m 447.09375,480.625 c -44.48533,0 -80.3125,35.82717 -80.3125,80.3125 0,44.48533 35.82717,80.28125 80.3125,80.28125 l 127.25175,0 c 41.48953,0 74.87483,-35.79592 74.87483,-80.28125 0,-44.48533 -33.3853,-80.3125 -74.87483,-80.3125 z m 9.68759,44.43592 108.49982,0 c 20.49151,0 36.98722,16.01173 36.98722,35.87432 0,19.86259 -16.49571,35.84759 -36.98722,35.84759 l -108.49982,0 c -21.97384,0 -39.65792,-15.985 -39.65792,-35.84759 0,-19.86259 17.68408,-35.87432 39.65792,-35.87432 z" style="fill:url(#linearGradient5044);fill-opacity:1;fill-rule:nonzero;stroke:none"/><path id="path5029" d="m 600.71875,571.3125 c -4.56903,14.77118 -18.67091,25.46875 -35.4375,25.46875 l -108.5,0 c -17.25929,0 -31.8678,-9.8624 -37.34375,-23.71875 -1.46808,2.59594 -19.39286,12.07766 -19.39286,14.84821 0,20.36305 74.68965,40.80358 126.29465,40.80358 51.605,0 93.4375,-16.51195 93.4375,-36.875 0,-3.39456 -16.88148,-17.40513 -19.05804,-20.52679 z" style="opacity:.7933884;fill:url(#radialGradient5042);fill-opacity:1;fill-rule:nonzero;stroke:none"/></g><rect style="fill:url(#linearGradient5019);fill-opacity:1;fill-rule:nonzero;stroke:none" id="rect4441" width="285.681" height="58.571" x="183.26" y="531.055" ry="29.286"/></g></svg>