<svg xmlns="http://www.w3.org/2000/svg" xmlns:svg="http://www.w3.org/2000/svg" id="svg2" width="160" height="300" version="1.1"><metadata id="metadata7"/><g id="layer1" transform="translate(-70,-207.36218)"><path style="fill:#181818;fill-opacity:1;stroke:#000;stroke-width:1px;stroke-linecap:butt;stroke-linejoin:miter;stroke-opacity:1" id="path4272" d="m 140,252.36218 c 0,0 -10,-10 -10,-20 10,-20 30,-20 40,0 0,10 -10,20 -10,20 z"/><path style="fill:#fff;stroke:#000;stroke-width:1px;stroke-linecap:butt;stroke-linejoin:miter;stroke-opacity:1;fill-opacity:.42790699" id="path4274" d="m 20,135 60,0 0,105 -40,-5 z" transform="translate(70,207.36218)"/><g id="g3049" transform="translate(-10,-395)"><path style="fill:#fff;fill-opacity:.51627904;stroke:#000;stroke-width:5;stroke-linecap:butt;stroke-linejoin:miter;stroke-opacity:1;stroke-miterlimit:4;stroke-dasharray:none" id="path3488" d="m 100,737.86218 20,100 40,10.71797 40,-10.71797 20,-100 z"/><path style="fill:none;stroke:#000;stroke-width:5;stroke-linecap:butt;stroke-linejoin:miter;stroke-opacity:1;stroke-miterlimit:4;stroke-dasharray:none" id="path3490" d="m 160,847.86218 0,-110 z"/><path style="fill:#000;fill-opacity:1;stroke:#000;stroke-width:1px;stroke-linecap:butt;stroke-linejoin:miter;stroke-opacity:1" id="path3492" d="m 90,737.86218 c 10,-40 50,-40 50,-40 l 0,-20 c 0,-10 -20,-10 -20,-10 0,0 20,-30 40,-30 20,0 40,30 40,30 0,0 -20,0 -20,10 l 0,20 c 0,0 40,0 50,40 -70,0 -140,0 -140,0 z"/><path style="fill:#000;fill-opacity:1;stroke:#000;stroke-width:1px;stroke-linecap:butt;stroke-linejoin:miter;stroke-opacity:1" id="path3494" d="m 120,837.86218 c 0,0 30,30 40,50 10,-20 40,-50 40,-50 z"/></g></g></svg>