<svg xmlns="http://www.w3.org/2000/svg" xmlns:svg="http://www.w3.org/2000/svg" xmlns:xlink="http://www.w3.org/1999/xlink" id="svg2985" width="128" height="128" version="1.1"><defs id="defs2987"><linearGradient id="linearGradient3805"><stop style="stop-color:#fff;stop-opacity:1" id="stop3807" offset="0"/><stop style="stop-color:#fff;stop-opacity:0" id="stop3809" offset="1"/></linearGradient><filter id="filter3791" width="1.517" height="1.729" x="-.258" y="-.364" color-interpolation-filters="sRGB"><feGaussianBlur id="feGaussianBlur3793" stdDeviation="5.855"/></filter><filter id="filter3831" color-interpolation-filters="sRGB"><feGaussianBlur id="feGaussianBlur3833" stdDeviation="1.416"/></filter><linearGradient id="linearGradient3845" x1="24.698" x2="62.596" y1="4.852" y2="4.025" gradientUnits="userSpaceOnUse" xlink:href="#linearGradient3805"/><radialGradient id="radialGradient3847" cx="8.328" cy="3.883" r="30.17" fx="8.328" fy="3.883" gradientTransform="matrix(1.32226,0.02742638,-0.01530444,0.73784625,-0.71370549,0.93174457)" gradientUnits="userSpaceOnUse" xlink:href="#linearGradient3805"/></defs><metadata id="metadata2990"/><g id="layer1" transform="translate(5.4064188,65.44674)"><rect style="fill:#4d4d4d;fill-opacity:1;fill-rule:nonzero;stroke:none" id="rect3839" width="128" height="128" x="-5.406" y="-65.447"/><g id="g3841" transform="translate(48.778634,-35.19119)"><path id="path2993" d="m 55.448745,-15.459315 c 4.371371,12.4520925 4.37137,26.102906 -2e-6,38.554998 L 4.3636365,3.8181818 z" transform="matrix(0.87893619,0,0,0.87893619,3.108253,29.903597)" style="fill:url(#linearGradient3845);fill-opacity:1;fill-rule:nonzero;stroke:none;filter:url(#filter3791)"/><path style="fill:url(#radialGradient3847);fill-opacity:1;fill-rule:nonzero;stroke:none;filter:url(#filter3831)" id="path3813" d="m 55.448745,-15.459315 c 4.371371,12.4520925 4.37137,26.102906 -2e-6,38.554998 L 4.3636365,3.8181818 z" transform="matrix(0.87893619,0,0,0.87893619,3.108253,29.903597)"/><path id="path3870" d="m 55.448745,-15.459315 c 4.371371,12.4520925 4.37137,26.102906 -2e-6,38.554998 L 4.3636365,3.8181818 z" transform="matrix(0.87893619,0,0,0.87893619,3.108253,29.903597)" style="fill:url(#radialGradient3847);fill-opacity:1;fill-rule:nonzero;stroke:none;filter:url(#filter3831)"/></g></g></svg>