<svg xmlns="http://www.w3.org/2000/svg" xmlns:svg="http://www.w3.org/2000/svg" id="svg2" width="160" height="300" version="1.1"><metadata id="metadata7"/><g id="layer1" transform="translate(-70,-207.36218)"><g id="g3049" transform="translate(-10,-395)"><path style="opacity:.34710744;fill:#fff;fill-opacity:1;stroke:#000;stroke-width:1px;stroke-linecap:butt;stroke-linejoin:miter;stroke-opacity:1" id="path3092" d="m 45,55 -35,60 50,105 20,5 -5,0 L 50,120 70,55 z" transform="translate(80,602.36218)"/><path style="fill:#fff;stroke:#000;stroke-width:1px;stroke-linecap:butt;stroke-linejoin:miter;stroke-opacity:1;opacity:.46694215;fill-opacity:1" id="path3864" d="m 70,60 c 0,0 15,0 20,0 5,0 20,55 20,55 L 85,220 75,225 45,120 z" transform="translate(80,602.36218)"/><path style="fill:#fff;stroke:#000;stroke-width:1px;stroke-linecap:butt;stroke-linejoin:miter;stroke-opacity:1;opacity:.52479339;fill-opacity:1" id="path3866" d="m 120,55 30,55 -55,110 -5,0 20,-105 -15,-55 z" transform="translate(80,602.36218)"/><rect id="rect3015" width="50" height="50" x="135" y="852.362" ry="20" style="fill:#000;fill-opacity:1;fill-rule:nonzero;stroke:none"/><rect id="rect3017" width="20" height="60" x="150" y="832.362" style="fill:#000;fill-opacity:1;fill-rule:nonzero;stroke:none"/><path style="fill:#000;fill-opacity:1;fill-rule:nonzero;stroke:none" id="rect3019" d="m 70,40 0,5 -30,5 -30,55 -10,4.96875 0,10 10,0 L 60,225 l 10,5 20,0 10,-5 50,-105.03125 10,0 0,-10 L 150,105 120,50 90,45 90,40 z m -25,20 15,5 -15,50 -30,-5 z m 25,5 20,0 15,50 -50,0 z m 30,0 15,-5 30,50 -30,5 z m -80,55 25,5 22.71875,95 L 65,215 z m 35,5 50,0 -22.71875,95 -4.5625,0 z m 60,0 25,-5 -45,95 -2.71875,5 z" transform="translate(80,602.36218)"/><path id="path3024" d="m 155,612.375 0,5.5625 c -8.61942,1.94671 -15,8.78737 -15,16.9375 0,9.66498 8.95431,17.5 20,17.5 11.04569,0 20,-7.83502 20,-17.5 0,-8.15013 -6.38058,-14.99079 -15,-16.9375 l 0,-5.5625 -5,-10.01282 z" style="fill:#000;fill-opacity:1;fill-rule:nonzero;stroke:none"/><rect id="rect3029" width="140" height="5" x="90" y="872.362" style="fill:#000;fill-opacity:1;fill-rule:nonzero;stroke:none"/><path id="path3031" d="m 245,879.86218 c 0,4.14214 -3.35786,7.5 -7.5,7.5 -4.14214,0 -7.5,-3.35786 -7.5,-7.5 0,-4.14213 3.35786,-7.5 7.5,-7.5 4.14214,0 7.5,3.35787 7.5,7.5 z" transform="translate(-5,-5)" style="fill:#000;fill-opacity:1;fill-rule:nonzero;stroke:none"/><path id="path3033" d="m 100,879.86218 c 0,4.14214 -3.357864,7.5 -7.5,7.5 -4.142136,0 -7.5,-3.35786 -7.5,-7.5 0,-4.14213 3.357864,-7.5 7.5,-7.5 4.142136,0 7.5,3.35787 7.5,7.5 z" transform="translate(-5,-5)" style="fill:#000;fill-opacity:1;fill-rule:nonzero;stroke:none"/></g></g></svg>